M48
;Layer_Color=9474304
;FILE_FORMAT=2:4
METRIC,LZ
;TYPE=PLATED
T1F00S00C0.2000
T2F00S00C0.3048
T4F00S00C0.5080
T5F00S00C0.7000
T6F00S00C0.8000
T8F00S00C0.8900
T9F00S00C0.9000
T10F00S00C1.1000
T11F00S00C3.5000
;TYPE=NON_PLATED
T12F00S00C0.7500
T13F00S00C3.1200
%
T01
X694002Y20575
X705002
Y21675
X694002
Y22775
X705002
X716002
X727002
Y23875
X716002
X705002
X694002
X716002Y21675
Y20575
X727002
Y21675
X721898Y451264
Y462264
X710898
Y451264
X699898
X688898
Y462264
X699898
Y473264
X688898
Y484264
X699898
X710898
Y473264
X721898
Y484264
X721858Y767598
Y778598
Y789598
Y800598
X710858
Y789598
X699858
Y800598
X688858
Y789598
Y778598
X699858
X710858
Y767598
X699858
X688858
T02
X139954Y099314
X1397Y10541
X503174Y137922
X571754Y07493
X946658Y470154
X947166Y501142
X850138Y503428
X745236
X74549Y496824
X77597Y461518
X776478Y432054
X72517Y426974
X66548Y460756
Y48895
X667258Y526034
X700532Y537972
X627634Y519684
X649224Y305816
X69088Y291338
X72263Y277876
X713232Y262636
X750316Y241808
X795782Y224282
X796036Y208788
X844042Y207264
X729996Y180848
X670306Y21209
X637286Y227584
X625602Y175514
X619252
X75057Y305562
X484632Y274574
X480314Y239014
X473202Y23876
X510794Y212598
X51689
X507746Y202692
X42164Y148336
X254508Y249428
X245872
X171196Y222504
X21717Y366268
X216916Y371856
X222504Y371602
X222758Y36576
X307594Y381762
X36449Y464058
X370078Y46355
X36703Y481838
X39497Y48133
X423926Y4826
X432308Y490474
X379222Y511556
X373634
X156718Y459486
X156464Y454406
X150876Y454152
Y459486
X055372Y363474
X05588Y357886
X04826Y357124
X048006Y36322
X62738Y550672
X633476
X632714Y556768
X627126Y557022
X658368Y54229
X74041
X908558Y545084
X849884Y775462
X75565Y780034
X7493
X759968Y816356
X738632Y822706
X733044Y823468
X724408Y83947
X710946Y859028
X689102Y827278
X662178Y76454
X659384Y718058
X681736Y723138
X70993Y71374
X732028Y735076
X73152Y748538
X810006Y86868
X903986Y845058
X661162Y892048
X66167Y898144
X937768Y813308
X94996Y80645
X950468Y79883
X938276Y784352
X629412Y940308
X622046Y940562
T04
X659194Y243332
X758444Y221996
X759968Y268986
X752094Y440944
X753364Y460912
X763524Y461264
X756666Y532892
X60464Y446006
X546862Y470916
X514858Y454152
X503028Y412496
X495046Y400812
X48514Y39497
X456637Y398319
X465282Y416789
X442468Y383286
X530352Y382778
X531368Y319024
X5207Y2286
X4826Y20828
X44958Y465328
X427939Y497027
X36498Y503396
X353288Y501762
X3048Y479228
X302006Y457867
X32766Y394716
X371602Y589534
Y611886
X456438Y632968
X463042Y643382
X46101Y657098
X479298Y655574
X511048Y676402
X510032Y719328
X499364Y709168
X521716Y63881
X525526Y577342
X470916Y554228
X478536Y543052
X452065Y555256
X442468Y554228
X544576Y56134
X55118Y626364
X53975Y658622
X6604Y732282
X699008Y71628
X705866Y741934
X750824Y744982
T05
X05461Y75565
Y76835
Y78105
Y79375
T06
X229574Y742188
X254974
Y767588
Y792988
Y818388
X229574
Y792988
Y767588
T08
X870458Y182626
Y208026
Y233426
Y258826
X895858Y246126
Y220726
Y195326
Y169926
X900684Y443738
Y469138
Y494538
Y519938
X875284Y532638
Y507238
Y481838
Y456438
X874014Y760984
Y786384
Y811784
Y837184
X899414Y824484
Y799084
Y773684
Y748284
T09
X054864Y500926
Y525926
Y550926
Y575926
Y600926
Y625926
T10
X553212Y94107
X527812
X502412
X477012
X451612
X426212
T11
X04318Y04572
X95377Y04064
X95504Y95758
X04318Y95631
T12
X32385Y353822
T13
X959358Y157226
Y271526
X964184Y431038
Y545338
X962914Y735584
Y849884
M30
