G04*
G04 #@! TF.GenerationSoftware,Altium Limited,Altium Designer,22.5.1 (42)*
G04*
G04 Layer_Color=255*
%FSLAX44Y44*%
%MOMM*%
G71*
G04*
G04 #@! TF.SameCoordinates,2ABD4F99-51B0-466E-819A-8B20F5DB8373*
G04*
G04*
G04 #@! TF.FilePolarity,Positive*
G04*
G01*
G75*
%ADD18R,0.5200X0.5200*%
%ADD19R,4.2000X4.2000*%
%ADD20O,1.1500X0.3000*%
%ADD21O,0.3000X1.1500*%
%ADD22R,0.3000X1.4750*%
%ADD23R,1.4750X0.3000*%
%ADD24R,4.2000X4.2000*%
%ADD25R,0.5200X0.5200*%
%ADD26R,0.5000X0.4750*%
%ADD27R,0.4750X0.5000*%
%ADD28R,3.8100X1.1000*%
%ADD29R,0.4000X2.0000*%
G04:AMPARAMS|DCode=30|XSize=2mm|YSize=0.4mm|CornerRadius=0.2mm|HoleSize=0mm|Usage=FLASHONLY|Rotation=90.000|XOffset=0mm|YOffset=0mm|HoleType=Round|Shape=RoundedRectangle|*
%AMROUNDEDRECTD30*
21,1,2.0000,0.0000,0,0,90.0*
21,1,1.6000,0.4000,0,0,90.0*
1,1,0.4000,0.0000,0.8000*
1,1,0.4000,0.0000,-0.8000*
1,1,0.4000,0.0000,-0.8000*
1,1,0.4000,0.0000,0.8000*
%
%ADD30ROUNDEDRECTD30*%
%ADD31R,0.6153X0.5725*%
%ADD32R,0.8500X0.8500*%
%ADD33R,1.9000X2.4000*%
%ADD34R,1.8000X1.7000*%
%ADD35R,1.1000X1.2000*%
%ADD36R,1.2700X1.2700*%
%ADD37R,0.4725X0.4682*%
%ADD38R,0.4500X1.3800*%
%ADD39R,1.4250X1.5500*%
%ADD40R,1.0000X1.9000*%
%ADD41R,1.8000X1.9000*%
%ADD42R,1.6500X1.3000*%
%ADD43R,0.5000X0.7000*%
%ADD44R,0.6000X0.5000*%
%ADD45R,1.7000X1.8000*%
%ADD46R,0.5725X0.6153*%
%ADD47R,0.8500X0.9000*%
%ADD48R,0.5000X0.6000*%
%ADD49R,0.6725X0.7393*%
%ADD50R,0.8500X0.8500*%
%ADD51R,0.8000X1.7000*%
%ADD52R,1.5240X1.5240*%
%ADD53R,1.5240X1.5240*%
%ADD54R,1.2700X1.2700*%
%ADD55R,1.1000X3.8100*%
%ADD56R,2.3000X2.5000*%
%ADD57R,1.0000X2.4000*%
%ADD58R,3.3000X2.4000*%
%ADD59R,1.1000X1.9000*%
%ADD60R,5.5000X2.0000*%
%ADD61R,0.9000X0.8500*%
%ADD86C,3.1800*%
%ADD87C,1.5000*%
%ADD88R,1.5000X1.5000*%
%ADD93R,1.4000X1.4000*%
%ADD94C,1.4000*%
%ADD99C,0.7500*%
%ADD104O,1.5240X1.0000*%
%ADD105C,1.6000*%
G04:AMPARAMS|DCode=106|XSize=1.6mm|YSize=1.6mm|CornerRadius=0.4mm|HoleSize=0mm|Usage=FLASHONLY|Rotation=180.000|XOffset=0mm|YOffset=0mm|HoleType=Round|Shape=RoundedRectangle|*
%AMROUNDEDRECTD106*
21,1,1.6000,0.8000,0,0,180.0*
21,1,0.8000,1.6000,0,0,180.0*
1,1,0.8000,-0.4000,0.4000*
1,1,0.8000,0.4000,0.4000*
1,1,0.8000,0.4000,-0.4000*
1,1,0.8000,-0.4000,-0.4000*
%
%ADD106ROUNDEDRECTD106*%
%ADD107C,1.0500*%
%ADD108R,1.0500X1.0500*%
G04:AMPARAMS|DCode=109|XSize=4mm|YSize=1.8mm|CornerRadius=0.45mm|HoleSize=0mm|Usage=FLASHONLY|Rotation=270.000|XOffset=0mm|YOffset=0mm|HoleType=Round|Shape=RoundedRectangle|*
%AMROUNDEDRECTD109*
21,1,4.0000,0.9000,0,0,270.0*
21,1,3.1000,1.8000,0,0,270.0*
1,1,0.9000,-0.4500,-1.5500*
1,1,0.9000,-0.4500,1.5500*
1,1,0.9000,0.4500,1.5500*
1,1,0.9000,0.4500,-1.5500*
%
%ADD109ROUNDEDRECTD109*%
G04:AMPARAMS|DCode=110|XSize=4mm|YSize=1.8mm|CornerRadius=0.45mm|HoleSize=0mm|Usage=FLASHONLY|Rotation=0.000|XOffset=0mm|YOffset=0mm|HoleType=Round|Shape=RoundedRectangle|*
%AMROUNDEDRECTD110*
21,1,4.0000,0.9000,0,0,0.0*
21,1,3.1000,1.8000,0,0,0.0*
1,1,0.9000,1.5500,-0.4500*
1,1,0.9000,-1.5500,-0.4500*
1,1,0.9000,-1.5500,0.4500*
1,1,0.9000,1.5500,0.4500*
%
%ADD110ROUNDEDRECTD110*%
%ADD111C,6.0000*%
D18*
X736600Y276986D02*
D03*
Y268986D02*
D03*
X685546Y514096D02*
D03*
Y522096D02*
D03*
X705866Y733678D02*
D03*
Y725678D02*
D03*
X691388Y266828D02*
D03*
Y274828D02*
D03*
X711708Y838326D02*
D03*
Y830326D02*
D03*
X657352Y482472D02*
D03*
Y474472D02*
D03*
D19*
X710502Y222250D02*
D03*
X705398Y467764D02*
D03*
D20*
X681252Y202750D02*
D03*
Y209250D02*
D03*
Y215750D02*
D03*
Y222250D02*
D03*
Y228750D02*
D03*
Y235250D02*
D03*
Y241750D02*
D03*
X739752D02*
D03*
Y235250D02*
D03*
Y228750D02*
D03*
Y222250D02*
D03*
Y215750D02*
D03*
Y209250D02*
D03*
Y202750D02*
D03*
X676108Y797098D02*
D03*
Y790598D02*
D03*
Y764598D02*
D03*
X734608D02*
D03*
Y771098D02*
D03*
Y777598D02*
D03*
Y784098D02*
D03*
Y790598D02*
D03*
Y797098D02*
D03*
Y803598D02*
D03*
X676108Y771098D02*
D03*
Y777598D02*
D03*
Y784098D02*
D03*
Y803598D02*
D03*
X734648Y448264D02*
D03*
Y454764D02*
D03*
Y461264D02*
D03*
Y467764D02*
D03*
Y474264D02*
D03*
Y480764D02*
D03*
Y487264D02*
D03*
X676148D02*
D03*
Y480764D02*
D03*
Y474264D02*
D03*
Y467764D02*
D03*
Y461264D02*
D03*
Y454764D02*
D03*
Y448264D02*
D03*
D21*
X691002Y251500D02*
D03*
X697502D02*
D03*
X704002D02*
D03*
X710502D02*
D03*
X717002D02*
D03*
X723502D02*
D03*
X730002D02*
D03*
Y193000D02*
D03*
X723502D02*
D03*
X717002D02*
D03*
X710502D02*
D03*
X704002D02*
D03*
X697502D02*
D03*
X691002D02*
D03*
X692358Y754848D02*
D03*
X698858D02*
D03*
X705358D02*
D03*
X711858D02*
D03*
X718358D02*
D03*
X724858D02*
D03*
Y813348D02*
D03*
X718358D02*
D03*
X711858D02*
D03*
X705358D02*
D03*
X698858D02*
D03*
X692358D02*
D03*
X685858D02*
D03*
Y754848D02*
D03*
X685898Y438514D02*
D03*
X692398D02*
D03*
X698898D02*
D03*
X705398D02*
D03*
X711898D02*
D03*
X718398D02*
D03*
X724898D02*
D03*
Y497014D02*
D03*
X718398D02*
D03*
X711898D02*
D03*
X705398D02*
D03*
X698898D02*
D03*
X692398D02*
D03*
X685898D02*
D03*
D22*
X425140Y593000D02*
D03*
X430140D02*
D03*
X435140D02*
D03*
X440140D02*
D03*
X445140D02*
D03*
X450140D02*
D03*
X455140D02*
D03*
X460140D02*
D03*
X465140D02*
D03*
X470140D02*
D03*
X475140D02*
D03*
X480140D02*
D03*
X485140D02*
D03*
X490140D02*
D03*
X495140D02*
D03*
X500140D02*
D03*
X505140D02*
D03*
X510140D02*
D03*
X515140D02*
D03*
X520140D02*
D03*
X525140D02*
D03*
X530140D02*
D03*
X535140D02*
D03*
X540140D02*
D03*
X545140D02*
D03*
Y438240D02*
D03*
X540140D02*
D03*
X535140D02*
D03*
X530140D02*
D03*
X525140D02*
D03*
X520140D02*
D03*
X515140D02*
D03*
X510140D02*
D03*
X505140D02*
D03*
X500140D02*
D03*
X495140D02*
D03*
X490140D02*
D03*
X485140D02*
D03*
X480140D02*
D03*
X475140D02*
D03*
X470140D02*
D03*
X465140D02*
D03*
X460140D02*
D03*
X455140D02*
D03*
X450140D02*
D03*
X445140D02*
D03*
X440140D02*
D03*
X435140D02*
D03*
X430140D02*
D03*
X425140D02*
D03*
D23*
X562520Y575620D02*
D03*
Y570620D02*
D03*
Y565620D02*
D03*
Y560620D02*
D03*
Y555620D02*
D03*
Y550620D02*
D03*
Y545620D02*
D03*
Y540620D02*
D03*
Y535620D02*
D03*
Y530620D02*
D03*
Y525620D02*
D03*
Y520620D02*
D03*
Y515620D02*
D03*
Y510620D02*
D03*
Y505620D02*
D03*
Y500620D02*
D03*
Y495620D02*
D03*
Y490620D02*
D03*
Y485620D02*
D03*
Y480620D02*
D03*
Y475620D02*
D03*
Y470620D02*
D03*
Y465620D02*
D03*
Y460620D02*
D03*
Y455620D02*
D03*
X407760D02*
D03*
Y460620D02*
D03*
Y465620D02*
D03*
Y470620D02*
D03*
Y475620D02*
D03*
Y480620D02*
D03*
Y485620D02*
D03*
Y490620D02*
D03*
Y495620D02*
D03*
Y500620D02*
D03*
Y505620D02*
D03*
Y510620D02*
D03*
Y515620D02*
D03*
Y520620D02*
D03*
Y525620D02*
D03*
Y530620D02*
D03*
Y535620D02*
D03*
Y540620D02*
D03*
Y545620D02*
D03*
Y550620D02*
D03*
Y555620D02*
D03*
Y560620D02*
D03*
Y565620D02*
D03*
Y570620D02*
D03*
Y575620D02*
D03*
D24*
X705358Y784098D02*
D03*
D25*
X751396Y803910D02*
D03*
X759396D02*
D03*
X762762Y468630D02*
D03*
X770762D02*
D03*
X724726Y516128D02*
D03*
X732726D02*
D03*
X751030Y764936D02*
D03*
X759029D02*
D03*
X770446Y221996D02*
D03*
X778446D02*
D03*
X661098Y228346D02*
D03*
X653098D02*
D03*
D26*
X672592Y721314D02*
D03*
Y731565D02*
D03*
D27*
X774283Y441198D02*
D03*
X764032D02*
D03*
X781096Y204470D02*
D03*
X770844D02*
D03*
D28*
X421134Y162814D02*
D03*
X326134D02*
D03*
D29*
X468798Y187758D02*
D03*
D30*
X475298D02*
D03*
X481798D02*
D03*
X488298D02*
D03*
X494798D02*
D03*
X501298D02*
D03*
X507798D02*
D03*
X514298D02*
D03*
X520798D02*
D03*
X527298D02*
D03*
X533798D02*
D03*
X540298D02*
D03*
X546798D02*
D03*
X553298D02*
D03*
Y257758D02*
D03*
X546798D02*
D03*
X540298D02*
D03*
X533798D02*
D03*
X527298D02*
D03*
X520798D02*
D03*
X514298D02*
D03*
X507798D02*
D03*
X501298D02*
D03*
X494798D02*
D03*
X488298D02*
D03*
X481798D02*
D03*
X475298D02*
D03*
X468798D02*
D03*
D31*
X588329Y561340D02*
D03*
X596900D02*
D03*
X327406Y381508D02*
D03*
X318835D02*
D03*
X588550Y544576D02*
D03*
X597122D02*
D03*
X588804Y527812D02*
D03*
X597376D02*
D03*
D32*
X659384Y563950D02*
D03*
Y552450D02*
D03*
X740156Y563188D02*
D03*
Y551688D02*
D03*
X799592Y869188D02*
D03*
Y880688D02*
D03*
X709930Y868680D02*
D03*
Y880180D02*
D03*
X741680Y305400D02*
D03*
Y316900D02*
D03*
X659892Y305562D02*
D03*
Y317062D02*
D03*
D33*
X678688Y563372D02*
D03*
X719688D02*
D03*
X774806Y881380D02*
D03*
X733806D02*
D03*
X721720Y316992D02*
D03*
X680720D02*
D03*
D34*
X628142Y497368D02*
D03*
Y467868D02*
D03*
X682752Y861568D02*
D03*
Y891068D02*
D03*
D35*
X130866Y430854D02*
D03*
Y392246D02*
D03*
D36*
X152654Y416240D02*
D03*
Y396240D02*
D03*
X53340Y692912D02*
D03*
Y712912D02*
D03*
X170434Y416240D02*
D03*
Y396240D02*
D03*
D37*
X519176Y284480D02*
D03*
Y292523D02*
D03*
X501142Y284819D02*
D03*
Y292862D02*
D03*
X171196Y278045D02*
D03*
Y270002D02*
D03*
D38*
X571800Y54850D02*
D03*
X565300D02*
D03*
X558800D02*
D03*
X552300D02*
D03*
X545800D02*
D03*
D39*
X583675Y54000D02*
D03*
X533925D02*
D03*
D40*
X574300Y28250D02*
D03*
D41*
X547300D02*
D03*
D42*
X592550D02*
D03*
X525050D02*
D03*
D43*
X520192Y319714D02*
D03*
Y310714D02*
D03*
X501396Y319896D02*
D03*
Y310896D02*
D03*
X171704Y231648D02*
D03*
Y240648D02*
D03*
D44*
X488696Y138176D02*
D03*
Y148176D02*
D03*
X576834Y421480D02*
D03*
Y411480D02*
D03*
D45*
X625076Y198374D02*
D03*
X654576D02*
D03*
D46*
X445770Y421354D02*
D03*
Y412782D02*
D03*
X398272Y421354D02*
D03*
Y412782D02*
D03*
X430022Y421386D02*
D03*
Y412815D02*
D03*
X414274Y421321D02*
D03*
Y412750D02*
D03*
X547624Y421894D02*
D03*
Y413323D02*
D03*
X563118Y421926D02*
D03*
Y413355D02*
D03*
X393954Y620711D02*
D03*
Y612140D02*
D03*
X425450Y620711D02*
D03*
Y612140D02*
D03*
X409702Y620711D02*
D03*
Y612140D02*
D03*
D47*
X596288Y505460D02*
D03*
X583288D02*
D03*
D48*
X386334Y476504D02*
D03*
X376334D02*
D03*
X386525Y488248D02*
D03*
X376525D02*
D03*
D49*
X273558Y569976D02*
D03*
Y579308D02*
D03*
X335026Y570644D02*
D03*
Y579976D02*
D03*
D50*
X305238Y480822D02*
D03*
X316738D02*
D03*
X209734Y480568D02*
D03*
X221234D02*
D03*
D51*
X340850Y353822D02*
D03*
X306850D02*
D03*
D52*
X190754Y397510D02*
D03*
Y431800D02*
D03*
D53*
X117731Y323800D02*
D03*
X83441D02*
D03*
D54*
X99314Y365760D02*
D03*
X119314D02*
D03*
X99314Y345440D02*
D03*
X119314D02*
D03*
D55*
X248920Y278894D02*
D03*
Y183894D02*
D03*
X121920Y96520D02*
D03*
Y191520D02*
D03*
D56*
X121666Y238374D02*
D03*
Y285414D02*
D03*
D57*
X193180Y365804D02*
D03*
X170180Y365804D02*
D03*
X147180Y365804D02*
D03*
D58*
X170180Y307804D02*
D03*
D59*
X291230Y569976D02*
D03*
X316230D02*
D03*
D60*
X221484Y513334D02*
D03*
X316484D02*
D03*
D61*
X534670Y422552D02*
D03*
Y409552D02*
D03*
D86*
X962914Y735584D02*
D03*
Y849884D02*
D03*
X964184Y545338D02*
D03*
Y431038D02*
D03*
X959358Y157226D02*
D03*
Y271526D02*
D03*
D87*
X899414Y799084D02*
D03*
X874014Y786384D02*
D03*
X899414Y824484D02*
D03*
X874014Y811784D02*
D03*
Y837184D02*
D03*
X899414Y773684D02*
D03*
Y748284D02*
D03*
X900684Y443738D02*
D03*
Y469138D02*
D03*
X875284Y532638D02*
D03*
Y507238D02*
D03*
X900684Y519938D02*
D03*
X875284Y481838D02*
D03*
X900684Y494538D02*
D03*
X254974Y742188D02*
D03*
Y767588D02*
D03*
Y792988D02*
D03*
X229574Y818388D02*
D03*
Y792988D02*
D03*
Y767588D02*
D03*
Y742188D02*
D03*
X895858Y220726D02*
D03*
X870458Y208026D02*
D03*
X895858Y246126D02*
D03*
X870458Y233426D02*
D03*
Y258826D02*
D03*
X895858Y195326D02*
D03*
Y169926D02*
D03*
D88*
X874014Y760984D02*
D03*
X875284Y456438D02*
D03*
X254974Y818388D02*
D03*
X870458Y182626D02*
D03*
D93*
X54864Y500926D02*
D03*
D94*
Y525926D02*
D03*
Y550926D02*
D03*
Y575926D02*
D03*
Y600926D02*
D03*
Y625926D02*
D03*
D99*
X323850Y353822D02*
D03*
D104*
X987464Y715734D02*
D03*
X986464Y868734D02*
D03*
X987734Y564188D02*
D03*
X988734Y411188D02*
D03*
X983908Y137376D02*
D03*
X982908Y290376D02*
D03*
D105*
X502412Y941070D02*
D03*
X451612D02*
D03*
X477012D02*
D03*
X527812D02*
D03*
X553212D02*
D03*
D106*
X426212D02*
D03*
D107*
X54610Y768350D02*
D03*
Y781050D02*
D03*
Y793750D02*
D03*
D108*
Y755650D02*
D03*
D109*
X294380Y111566D02*
D03*
D110*
X246380Y83566D02*
D03*
Y141566D02*
D03*
D111*
X43180Y956310D02*
D03*
X955040Y957580D02*
D03*
X43180Y45720D02*
D03*
X953770Y40640D02*
D03*
M02*
