G04*
G04 #@! TF.GenerationSoftware,Altium Limited,Altium Designer,22.5.1 (42)*
G04*
G04 Layer_Color=32768*
%FSLAX44Y44*%
%MOMM*%
G71*
G04*
G04 #@! TF.SameCoordinates,2ABD4F99-51B0-466E-819A-8B20F5DB8373*
G04*
G04*
G04 #@! TF.FilePolarity,Positive*
G04*
G01*
G75*
%ADD119C,0.0500*%
%ADD123C,0.1000*%
D119*
X321185Y182250D02*
Y262250D01*
X401185Y182250D02*
Y262250D01*
X321185D01*
X401185Y182250D02*
X321185D01*
X859613Y855888D02*
X607613D01*
X859613Y706888D02*
Y855888D01*
Y706888D02*
X607613D01*
Y855888D01*
X406329Y744098D02*
Y824098D01*
X326329Y744098D02*
Y824098D01*
X406329D02*
X326329D01*
X406329Y744098D02*
X326329D01*
X1028777Y748300D02*
Y801100D01*
X1005377D01*
X1028777Y748300D02*
X1005377D01*
Y801100D01*
X406803Y547200D02*
Y569200D01*
X417803Y547200D02*
Y569200D01*
X406803D01*
X417803Y547200D02*
X406803D01*
X326031Y546438D02*
Y568438D01*
X337031Y546438D02*
Y568438D01*
X326031D01*
X337031Y546438D02*
X326031D01*
X406289Y427764D02*
X326289D01*
X406289Y507764D02*
X326289D01*
X406289Y427764D02*
Y507764D01*
X326289Y427764D02*
Y507764D01*
X470399Y499460D02*
Y511460D01*
X493399Y499460D02*
Y511460D01*
Y499460D02*
X470399D01*
X493399Y511460D02*
X470399D01*
X771699Y486322D02*
X749699D01*
X771699Y475322D02*
X749699D01*
X771699D02*
Y486322D01*
X749699Y475322D02*
Y486322D01*
X867203Y486068D02*
X845203D01*
X867203Y475068D02*
X845203D01*
X867203D02*
Y486068D01*
X845203Y475068D02*
Y486068D01*
X878703Y538334D02*
X726703D01*
X878703Y488334D02*
Y538334D01*
X726703Y488334D02*
Y538334D01*
X878703Y488334D02*
X726703D01*
X531017Y404552D02*
Y427552D01*
X543017Y404552D02*
Y427552D01*
X531017D01*
X543017Y404552D02*
X531017D01*
X277595Y863938D02*
X266595D01*
X277595Y885938D02*
X266595D01*
X277595Y863938D02*
Y885938D01*
X266595Y863938D02*
Y885938D01*
X367257Y863430D02*
X356257D01*
X367257Y885430D02*
X356257D01*
X367257Y863430D02*
Y885430D01*
X356257Y863430D02*
Y885430D01*
X335507Y300150D02*
X324507D01*
X335507Y322150D02*
X324507D01*
X335507Y300150D02*
Y322150D01*
X324507Y300150D02*
Y322150D01*
X417295Y300312D02*
X406295D01*
X417295Y322312D02*
X406295D01*
X417295Y300312D02*
Y322312D01*
X406295Y300312D02*
Y322312D01*
D123*
X366185Y222250D02*
X356185D01*
X361185Y217250D02*
Y227250D01*
X656547Y580620D02*
X651547Y585620D01*
X656547Y445620D02*
Y585620D01*
Y445620D02*
X516547D01*
Y585620D01*
X656547D02*
X516547D01*
X371329Y784098D02*
X361329D01*
X366329Y779098D02*
Y789098D01*
X1017077Y769700D02*
Y779700D01*
X1022077Y774700D02*
X1012077D01*
X416803Y558200D02*
X407803D01*
X412303Y553700D02*
Y562700D01*
X336031Y557438D02*
X327031D01*
X331531Y552938D02*
Y561938D01*
X366289Y462764D02*
Y472764D01*
X371289Y467764D02*
X361289D01*
X587691Y133976D02*
X578291D01*
X587691Y152376D02*
X578291D01*
X587691Y133976D02*
Y152376D01*
X578291Y133976D02*
Y152376D01*
X582991Y140426D02*
Y145926D01*
X585741Y143176D02*
X580241D01*
X486699Y505460D02*
X477099D01*
X481899Y500660D02*
Y510260D01*
X690353Y473754D02*
Y479254D01*
X693103Y476504D02*
X687603D01*
X699553Y471804D02*
X681153D01*
X699553Y481204D02*
X681153D01*
Y471804D02*
Y481204D01*
X699553Y471804D02*
Y481204D01*
X690162Y485498D02*
Y490998D01*
X692912Y488248D02*
X687412D01*
X699362Y483548D02*
X680962D01*
X699362Y492948D02*
X680962D01*
Y483548D02*
Y492948D01*
X699362Y483548D02*
Y492948D01*
X760699Y476322D02*
Y485322D01*
X765199Y480822D02*
X756199D01*
X856203Y476068D02*
Y485068D01*
X860703Y480568D02*
X851703D01*
X497603Y416480D02*
X492103D01*
X494853Y413730D02*
Y419230D01*
X490153Y407280D02*
Y425680D01*
X499553Y407280D02*
Y425680D01*
X490153D01*
X499553Y407280D02*
X490153D01*
X802703Y508334D02*
Y518334D01*
X807703Y513334D02*
X797703D01*
X541817Y416052D02*
X532217D01*
X537017Y411252D02*
Y420852D01*
X272095Y870438D02*
Y879438D01*
X276595Y874938D02*
X267595D01*
X361757Y869930D02*
Y878930D01*
X366257Y874430D02*
X357257D01*
X330007Y306650D02*
Y315650D01*
X334507Y311150D02*
X325507D01*
X411795Y306812D02*
Y315812D01*
X416295Y311312D02*
X407295D01*
M02*
