G04*
G04 #@! TF.GenerationSoftware,Altium Limited,Altium Designer,22.5.1 (42)*
G04*
G04 Layer_Physical_Order=2*
G04 Layer_Color=16711680*
%FSLAX44Y44*%
%MOMM*%
G71*
G04*
G04 #@! TF.SameCoordinates,2ABD4F99-51B0-466E-819A-8B20F5DB8373*
G04*
G04*
G04 #@! TF.FilePolarity,Positive*
G04*
G01*
G75*
%ADD12C,0.2540*%
%ADD86C,3.1800*%
%ADD87C,1.5000*%
%ADD88R,1.5000X1.5000*%
%ADD93R,1.4000X1.4000*%
%ADD94C,1.4000*%
%ADD99C,0.7500*%
%ADD103C,0.3810*%
%ADD104O,1.5240X1.0000*%
%ADD105C,1.6000*%
G04:AMPARAMS|DCode=106|XSize=1.6mm|YSize=1.6mm|CornerRadius=0.4mm|HoleSize=0mm|Usage=FLASHONLY|Rotation=180.000|XOffset=0mm|YOffset=0mm|HoleType=Round|Shape=RoundedRectangle|*
%AMROUNDEDRECTD106*
21,1,1.6000,0.8000,0,0,180.0*
21,1,0.8000,1.6000,0,0,180.0*
1,1,0.8000,-0.4000,0.4000*
1,1,0.8000,0.4000,0.4000*
1,1,0.8000,0.4000,-0.4000*
1,1,0.8000,-0.4000,-0.4000*
%
%ADD106ROUNDEDRECTD106*%
%ADD107C,1.0500*%
%ADD108R,1.0500X1.0500*%
G04:AMPARAMS|DCode=109|XSize=4mm|YSize=1.8mm|CornerRadius=0.45mm|HoleSize=0mm|Usage=FLASHONLY|Rotation=270.000|XOffset=0mm|YOffset=0mm|HoleType=Round|Shape=RoundedRectangle|*
%AMROUNDEDRECTD109*
21,1,4.0000,0.9000,0,0,270.0*
21,1,3.1000,1.8000,0,0,270.0*
1,1,0.9000,-0.4500,-1.5500*
1,1,0.9000,-0.4500,1.5500*
1,1,0.9000,0.4500,1.5500*
1,1,0.9000,0.4500,-1.5500*
%
%ADD109ROUNDEDRECTD109*%
G04:AMPARAMS|DCode=110|XSize=4mm|YSize=1.8mm|CornerRadius=0.45mm|HoleSize=0mm|Usage=FLASHONLY|Rotation=0.000|XOffset=0mm|YOffset=0mm|HoleType=Round|Shape=RoundedRectangle|*
%AMROUNDEDRECTD110*
21,1,4.0000,0.9000,0,0,0.0*
21,1,3.1000,1.8000,0,0,0.0*
1,1,0.9000,1.5500,-0.4500*
1,1,0.9000,-1.5500,-0.4500*
1,1,0.9000,-1.5500,0.4500*
1,1,0.9000,1.5500,0.4500*
%
%ADD110ROUNDEDRECTD110*%
%ADD111C,6.0000*%
%ADD112C,0.5080*%
%ADD113C,0.7620*%
%ADD114C,0.5000*%
G04:AMPARAMS|DCode=115|XSize=0.49mm|YSize=0.3mm|CornerRadius=0.0375mm|HoleSize=0mm|Usage=FLASHONLY|Rotation=180.000|XOffset=0mm|YOffset=0mm|HoleType=Round|Shape=RoundedRectangle|*
%AMROUNDEDRECTD115*
21,1,0.4900,0.2250,0,0,180.0*
21,1,0.4150,0.3000,0,0,180.0*
1,1,0.0750,-0.2075,0.1125*
1,1,0.0750,0.2075,0.1125*
1,1,0.0750,0.2075,-0.1125*
1,1,0.0750,-0.2075,-0.1125*
%
%ADD115ROUNDEDRECTD115*%
G04:AMPARAMS|DCode=116|XSize=0.49mm|YSize=0.3mm|CornerRadius=0.0375mm|HoleSize=0mm|Usage=FLASHONLY|Rotation=270.000|XOffset=0mm|YOffset=0mm|HoleType=Round|Shape=RoundedRectangle|*
%AMROUNDEDRECTD116*
21,1,0.4900,0.2250,0,0,270.0*
21,1,0.4150,0.3000,0,0,270.0*
1,1,0.0750,-0.1125,-0.2075*
1,1,0.0750,-0.1125,0.2075*
1,1,0.0750,0.1125,0.2075*
1,1,0.0750,0.1125,-0.2075*
%
%ADD116ROUNDEDRECTD116*%
G36*
X116393Y999998D02*
X113588Y1000073D01*
X108006Y999489D01*
X102548Y998182D01*
X97307Y996173D01*
X92374Y993498D01*
X87831Y990201D01*
X83758Y986340D01*
X80224Y981980D01*
X77289Y977196D01*
X75004Y972070D01*
X73407Y966690D01*
X72526Y961147D01*
X72451Y958342D01*
X72451Y958342D01*
X72451Y958342D01*
X72451Y413853D01*
X73721Y413601D01*
X74191Y414734D01*
X75318Y416203D01*
X76787Y417330D01*
X78497Y418039D01*
X80333Y418281D01*
X85573D01*
X87409Y418039D01*
X89119Y417330D01*
X90588Y416203D01*
X91715Y414734D01*
X92424Y413024D01*
X92666Y411188D01*
X92424Y409352D01*
X91715Y407642D01*
X90588Y406173D01*
X89119Y405046D01*
X87409Y404337D01*
X85573Y404095D01*
X80333D01*
X78497Y404337D01*
X76787Y405046D01*
X75318Y406173D01*
X74191Y407642D01*
X73721Y408775D01*
X72451Y408523D01*
Y40640D01*
X72634Y37843D01*
X73727Y32345D01*
X75529Y27037D01*
X78008Y22009D01*
X81122Y17348D01*
X84818Y13133D01*
X89032Y9436D01*
X93693Y6322D01*
X98721Y3842D01*
X104029Y2040D01*
X109527Y946D01*
X115120Y579D01*
X117917Y762D01*
X117917Y762D01*
X117917Y762D01*
X1028507D01*
X1031379Y837D01*
X1037054Y1735D01*
X1042563Y3366D01*
X1047812Y5703D01*
X1052711Y8704D01*
X1057177Y12320D01*
X1061132Y16487D01*
X1064510Y21135D01*
X1067252Y26184D01*
X1069311Y31548D01*
X1070653Y37134D01*
X1071254Y42848D01*
X1071179Y45720D01*
X1071179Y45720D01*
X1070925Y957072D01*
X1070933Y959927D01*
X1070205Y965591D01*
X1068743Y971111D01*
X1066573Y976393D01*
X1063732Y981346D01*
X1060269Y985887D01*
X1056243Y989936D01*
X1051723Y993426D01*
X1046786Y996295D01*
X1041517Y998496D01*
X1036005Y999990D01*
X1030346Y1000752D01*
X1027491Y1000760D01*
X1027491Y1000760D01*
X116393Y999998D01*
D02*
G37*
%LPC*%
G36*
X517087Y951610D02*
X517205D01*
Y942340D01*
X507935D01*
Y942458D01*
X508653Y945138D01*
X510041Y947542D01*
X512003Y949504D01*
X514407Y950892D01*
X517087Y951610D01*
D02*
G37*
G36*
X519745D02*
X519863D01*
X522543Y950892D01*
X524947Y949504D01*
X526909Y947542D01*
X528297Y945138D01*
X529015Y942458D01*
Y942340D01*
X519745D01*
Y951610D01*
D02*
G37*
G36*
X542487D02*
X542605D01*
Y942340D01*
X533335D01*
Y942458D01*
X534053Y945138D01*
X535441Y947542D01*
X537403Y949504D01*
X539807Y950892D01*
X542487Y951610D01*
D02*
G37*
G36*
X545145D02*
X545263D01*
X547943Y950892D01*
X550347Y949504D01*
X552309Y947542D01*
X553697Y945138D01*
X554415Y942458D01*
Y942340D01*
X545145D01*
Y951610D01*
D02*
G37*
G36*
X450911Y945535D02*
X452519Y944869D01*
X453948Y943440D01*
X454614Y941832D01*
X450911D01*
Y945535D01*
D02*
G37*
G36*
X441005Y945281D02*
Y941578D01*
X437303D01*
X437968Y943186D01*
X439398Y944615D01*
X441005Y945281D01*
D02*
G37*
G36*
X450911Y939292D02*
X454614D01*
X453948Y937684D01*
X452519Y936255D01*
X450911Y935590D01*
Y939292D01*
D02*
G37*
G36*
X437303Y939038D02*
X441005D01*
Y935335D01*
X439398Y936001D01*
X437968Y937430D01*
X437303Y939038D01*
D02*
G37*
G36*
X448371Y945535D02*
Y940562D01*
Y935590D01*
X446763Y936255D01*
X446085Y936934D01*
X445153Y936001D01*
X443545Y935335D01*
Y940308D01*
Y945281D01*
X445153Y944615D01*
X445831Y943936D01*
X446763Y944869D01*
X448371Y945535D01*
D02*
G37*
G36*
X567954Y951102D02*
X570596D01*
X573147Y950418D01*
X575435Y949098D01*
X577303Y947230D01*
X578623Y944942D01*
X579307Y942391D01*
Y939749D01*
X578623Y937198D01*
X577303Y934910D01*
X575435Y933042D01*
X573147Y931722D01*
X570596Y931038D01*
X567954D01*
X565403Y931722D01*
X563115Y933042D01*
X561247Y934910D01*
X559927Y937198D01*
X559243Y939749D01*
Y942391D01*
X559927Y944942D01*
X561247Y947230D01*
X563115Y949098D01*
X565403Y950418D01*
X567954Y951102D01*
D02*
G37*
G36*
X593354D02*
X595996D01*
X598547Y950418D01*
X600835Y949098D01*
X602703Y947230D01*
X604023Y944942D01*
X604707Y942391D01*
Y939749D01*
X604023Y937198D01*
X602703Y934910D01*
X600835Y933042D01*
X598547Y931722D01*
X595996Y931038D01*
X593354D01*
X590803Y931722D01*
X588515Y933042D01*
X586647Y934910D01*
X585327Y937198D01*
X584643Y939749D01*
Y942391D01*
X585327Y944942D01*
X586647Y947230D01*
X588515Y949098D01*
X590803Y950418D01*
X593354Y951102D01*
D02*
G37*
G36*
X618754D02*
X621396D01*
X623947Y950418D01*
X626235Y949098D01*
X628103Y947230D01*
X629423Y944942D01*
X630107Y942391D01*
Y939749D01*
X629423Y937198D01*
X628103Y934910D01*
X626235Y933042D01*
X623947Y931722D01*
X621396Y931038D01*
X618754D01*
X616203Y931722D01*
X613915Y933042D01*
X612048Y934910D01*
X610727Y937198D01*
X610043Y939749D01*
Y942391D01*
X610727Y944942D01*
X612048Y947230D01*
X613915Y949098D01*
X616203Y950418D01*
X618754Y951102D01*
D02*
G37*
G36*
X641475Y951220D02*
X649475D01*
X651829Y950752D01*
X653824Y949419D01*
X655157Y947424D01*
X655625Y945070D01*
Y937070D01*
X655157Y934716D01*
X653824Y932721D01*
X651829Y931388D01*
X649475Y930920D01*
X641475D01*
X639122Y931388D01*
X637126Y932721D01*
X635793Y934716D01*
X635325Y937070D01*
Y945070D01*
X635793Y947424D01*
X637126Y949419D01*
X639122Y950752D01*
X641475Y951220D01*
D02*
G37*
G36*
X507935Y939800D02*
X517205D01*
Y930530D01*
X517087D01*
X514407Y931248D01*
X512003Y932636D01*
X510041Y934598D01*
X508653Y937002D01*
X507935Y939682D01*
Y939800D01*
D02*
G37*
G36*
X519745D02*
X529015D01*
Y939682D01*
X528297Y937002D01*
X526909Y934598D01*
X524947Y932636D01*
X522543Y931248D01*
X519863Y930530D01*
X519745D01*
Y939800D01*
D02*
G37*
G36*
X533335D02*
X542605D01*
Y930530D01*
X542487D01*
X539807Y931248D01*
X537403Y932636D01*
X535441Y934598D01*
X534053Y937002D01*
X533335Y939682D01*
Y939800D01*
D02*
G37*
G36*
X545145D02*
X554415D01*
Y939682D01*
X553697Y937002D01*
X552309Y934598D01*
X550347Y932636D01*
X547943Y931248D01*
X545263Y930530D01*
X545145D01*
Y939800D01*
D02*
G37*
G36*
X114126Y989612D02*
X119168D01*
X124148Y988823D01*
X128943Y987265D01*
X133435Y984976D01*
X137514Y982013D01*
X141080Y978447D01*
X144043Y974368D01*
X146332Y969876D01*
X147890Y965081D01*
X148679Y960101D01*
Y955059D01*
X147890Y950079D01*
X146332Y945284D01*
X144043Y940792D01*
X141080Y936713D01*
X137514Y933147D01*
X133435Y930184D01*
X128943Y927895D01*
X124148Y926337D01*
X119168Y925548D01*
X114126D01*
X109146Y926337D01*
X104351Y927895D01*
X99859Y930184D01*
X95780Y933147D01*
X92214Y936713D01*
X89251Y940792D01*
X86962Y945284D01*
X85404Y950079D01*
X84615Y955059D01*
Y960101D01*
X85404Y965081D01*
X86962Y969876D01*
X89251Y974368D01*
X92214Y978447D01*
X95780Y982013D01*
X99859Y984976D01*
X104351Y987265D01*
X109146Y988823D01*
X114126Y989612D01*
D02*
G37*
G36*
X1025986Y988342D02*
X1031028D01*
X1036008Y987553D01*
X1040803Y985995D01*
X1045295Y983706D01*
X1049374Y980743D01*
X1052940Y977177D01*
X1055903Y973098D01*
X1058192Y968606D01*
X1059750Y963811D01*
X1060539Y958831D01*
Y953789D01*
X1059750Y948809D01*
X1058192Y944014D01*
X1055903Y939522D01*
X1052940Y935443D01*
X1049374Y931877D01*
X1045295Y928914D01*
X1040803Y926625D01*
X1036008Y925067D01*
X1031028Y924278D01*
X1025986D01*
X1021006Y925067D01*
X1016211Y926625D01*
X1011719Y928914D01*
X1007640Y931877D01*
X1004074Y935443D01*
X1001111Y939522D01*
X998822Y944014D01*
X997264Y948809D01*
X996475Y953789D01*
Y958831D01*
X997264Y963811D01*
X998822Y968606D01*
X1001111Y973098D01*
X1004074Y977177D01*
X1007640Y980743D01*
X1011719Y983706D01*
X1016211Y985995D01*
X1021006Y987553D01*
X1025986Y988342D01*
D02*
G37*
G36*
X408747Y903117D02*
Y899414D01*
X405045D01*
X405710Y901022D01*
X407140Y902451D01*
X408747Y903117D01*
D02*
G37*
G36*
X411287D02*
X412895Y902451D01*
X414324Y901022D01*
X414990Y899414D01*
X411287D01*
Y903117D01*
D02*
G37*
G36*
X405045Y896874D02*
X414990D01*
X414373Y895385D01*
X414832Y894926D01*
X415498Y893318D01*
X405553D01*
X406170Y894807D01*
X405710Y895266D01*
X405045Y896874D01*
D02*
G37*
G36*
X405553Y890778D02*
X409255D01*
Y887076D01*
X407648Y887741D01*
X406218Y889170D01*
X405553Y890778D01*
D02*
G37*
G36*
X411795D02*
X415498D01*
X414832Y889170D01*
X413403Y887741D01*
X411795Y887076D01*
Y890778D01*
D02*
G37*
G36*
X260411Y873652D02*
Y869950D01*
X256709D01*
X257374Y871558D01*
X258804Y872987D01*
X260411Y873652D01*
D02*
G37*
G36*
X262951D02*
X264559Y872987D01*
X265988Y871558D01*
X266654Y869950D01*
X262951D01*
Y873652D01*
D02*
G37*
G36*
X256709Y867410D02*
X260411D01*
Y863708D01*
X258804Y864373D01*
X257374Y865802D01*
X256709Y867410D01*
D02*
G37*
G36*
X262951D02*
X266654D01*
X265988Y865802D01*
X264559Y864373D01*
X262951Y863708D01*
Y867410D01*
D02*
G37*
G36*
X82603Y875827D02*
X87843D01*
X89679Y875585D01*
X91389Y874876D01*
X92858Y873749D01*
X93986Y872280D01*
X94694Y870570D01*
X94936Y868734D01*
X94694Y866898D01*
X93986Y865188D01*
X92858Y863719D01*
X91389Y862592D01*
X89679Y861883D01*
X87843Y861641D01*
X82603D01*
X80767Y861883D01*
X79057Y862592D01*
X77588Y863719D01*
X76461Y865188D01*
X75752Y866898D01*
X75510Y868734D01*
X75752Y870570D01*
X76461Y872280D01*
X77588Y873749D01*
X79057Y874876D01*
X80767Y875585D01*
X82603Y875827D01*
D02*
G37*
G36*
X359471Y864000D02*
Y860298D01*
X355769D01*
X356434Y861906D01*
X357864Y863335D01*
X359471Y864000D01*
D02*
G37*
G36*
X362011D02*
X363619Y863335D01*
X365048Y861906D01*
X365714Y860298D01*
X362011D01*
Y864000D01*
D02*
G37*
G36*
X355769Y857758D02*
X359471D01*
Y854055D01*
X357864Y854721D01*
X356434Y856150D01*
X355769Y857758D01*
D02*
G37*
G36*
X362011D02*
X365714D01*
X365048Y856150D01*
X363619Y854721D01*
X362011Y854055D01*
Y857758D01*
D02*
G37*
G36*
X166431Y850031D02*
Y846328D01*
X162729D01*
X163394Y847936D01*
X164823Y849365D01*
X166431Y850031D01*
D02*
G37*
G36*
X168971D02*
X170579Y849365D01*
X172008Y847936D01*
X172674Y846328D01*
X168971D01*
Y850031D01*
D02*
G37*
G36*
X346009Y844443D02*
Y840740D01*
X342307D01*
X342972Y842348D01*
X344402Y843777D01*
X346009Y844443D01*
D02*
G37*
G36*
X348549D02*
X350157Y843777D01*
X351586Y842348D01*
X352252Y840740D01*
X348549D01*
Y844443D01*
D02*
G37*
G36*
X342307Y838200D02*
X346009D01*
Y834498D01*
X344402Y835163D01*
X342972Y836592D01*
X342307Y838200D01*
D02*
G37*
G36*
X348549D02*
X352252D01*
X351586Y836592D01*
X350157Y835163D01*
X348549Y834498D01*
Y838200D01*
D02*
G37*
G36*
X107007Y867816D02*
X110539D01*
X114004Y867127D01*
X117267Y865775D01*
X120204Y863813D01*
X122702Y861315D01*
X124664Y858378D01*
X126016Y855115D01*
X126705Y851650D01*
Y848118D01*
X126016Y844653D01*
X124664Y841390D01*
X122702Y838453D01*
X120204Y835955D01*
X117267Y833993D01*
X114004Y832641D01*
X110539Y831952D01*
X107007D01*
X103542Y832641D01*
X100279Y833993D01*
X97342Y835955D01*
X94844Y838453D01*
X92882Y841390D01*
X91530Y844653D01*
X90841Y848118D01*
Y851650D01*
X91530Y855115D01*
X92882Y858378D01*
X94844Y861315D01*
X97342Y863813D01*
X100279Y865775D01*
X103542Y867127D01*
X107007Y867816D01*
D02*
G37*
G36*
X381315Y832251D02*
Y828548D01*
X377613D01*
X378278Y830156D01*
X379707Y831585D01*
X381315Y832251D01*
D02*
G37*
G36*
X383855D02*
X385463Y831585D01*
X386892Y830156D01*
X387558Y828548D01*
X383855D01*
Y832251D01*
D02*
G37*
G36*
X339913Y828440D02*
X341521Y827775D01*
X342950Y826346D01*
X343616Y824738D01*
X339913D01*
Y828440D01*
D02*
G37*
G36*
X331785Y827679D02*
Y823976D01*
X328083D01*
X328748Y825584D01*
X330177Y827013D01*
X331785Y827679D01*
D02*
G37*
G36*
X377613Y826008D02*
X381315D01*
Y822306D01*
X379707Y822971D01*
X378278Y824400D01*
X377613Y826008D01*
D02*
G37*
G36*
X383855D02*
X387558D01*
X386892Y824400D01*
X385463Y822971D01*
X383855Y822306D01*
Y826008D01*
D02*
G37*
G36*
X806673Y828428D02*
X815443D01*
Y819658D01*
X806673D01*
Y828428D01*
D02*
G37*
G36*
X817983D02*
X826753D01*
Y819658D01*
X817983D01*
Y828428D01*
D02*
G37*
G36*
X339913Y822198D02*
X343616D01*
X342950Y820590D01*
X341521Y819161D01*
X339913Y818495D01*
Y822198D01*
D02*
G37*
G36*
X328083Y821436D02*
X331785D01*
Y817734D01*
X330177Y818399D01*
X328748Y819828D01*
X328083Y821436D01*
D02*
G37*
G36*
X337373Y828440D02*
Y823468D01*
Y818495D01*
X336423Y818889D01*
X335933Y818399D01*
X334325Y817734D01*
Y822706D01*
Y827679D01*
X335276Y827285D01*
X335765Y827775D01*
X337373Y828440D01*
D02*
G37*
G36*
X310449Y821329D02*
Y817626D01*
X306747D01*
X307412Y819234D01*
X308841Y820663D01*
X310449Y821329D01*
D02*
G37*
G36*
X312989D02*
X314597Y820663D01*
X316026Y819234D01*
X316692Y817626D01*
X312989D01*
Y821329D01*
D02*
G37*
G36*
X132649Y818280D02*
Y814578D01*
X128947D01*
X129612Y816186D01*
X131041Y817615D01*
X132649Y818280D01*
D02*
G37*
G36*
X306747Y815086D02*
X310449D01*
Y811384D01*
X308841Y812049D01*
X307412Y813478D01*
X306747Y815086D01*
D02*
G37*
G36*
X312989D02*
X316692D01*
X316026Y813478D01*
X314597Y812049D01*
X312989Y811384D01*
Y815086D01*
D02*
G37*
G36*
X143063Y813114D02*
X145890D01*
Y812309D01*
X145664Y811172D01*
X145020Y810207D01*
X144055Y809563D01*
X143063Y809366D01*
Y813114D01*
D02*
G37*
G36*
X806673Y817118D02*
X815443D01*
Y808348D01*
X806673D01*
Y817118D01*
D02*
G37*
G36*
X817983D02*
X826753D01*
Y808348D01*
X817983D01*
Y817118D01*
D02*
G37*
G36*
X128947Y812038D02*
X132649D01*
Y808335D01*
X131041Y809001D01*
X129612Y810430D01*
X128947Y812038D01*
D02*
G37*
G36*
X196418Y846716D02*
X198928D01*
X201352Y846066D01*
X203526Y844811D01*
X205301Y843037D01*
X206555Y840863D01*
X207205Y838439D01*
Y835929D01*
X206555Y833505D01*
X205301Y831331D01*
X203526Y829557D01*
X201352Y828302D01*
X198928Y827652D01*
X196418D01*
X193994Y828302D01*
X191820Y829557D01*
X190046Y831331D01*
X188791Y833505D01*
X188632Y834095D01*
X179615D01*
X179527Y834113D01*
X177310D01*
X177141Y834146D01*
X176688Y832942D01*
X178126Y832112D01*
X179901Y830337D01*
X181155Y828163D01*
X181805Y825739D01*
Y823229D01*
X181155Y820805D01*
X179901Y818631D01*
X178126Y816857D01*
X175952Y815602D01*
X173528Y814952D01*
X171018D01*
X168594Y815602D01*
X166420Y816857D01*
X164646Y818631D01*
X163391Y820805D01*
X163307Y821117D01*
X144950D01*
X144653Y820674D01*
X144311Y820445D01*
X144228Y820043D01*
X144309Y819040D01*
X144311Y819034D01*
X145020Y818561D01*
X145664Y817596D01*
X145890Y816459D01*
Y815654D01*
X141793D01*
Y814384D01*
X140523D01*
Y809366D01*
X139531Y809563D01*
X139223Y809769D01*
X138564Y810206D01*
X137425Y809630D01*
X136797Y809001D01*
X135189Y808335D01*
Y813308D01*
Y818280D01*
X136644Y817678D01*
X136952Y817658D01*
X138198Y818009D01*
X138567Y818561D01*
X139275Y819034D01*
X139277Y819040D01*
X139358Y820043D01*
X139275Y820445D01*
X138933Y820674D01*
X138401Y821470D01*
X138214Y822409D01*
Y826559D01*
X138401Y827498D01*
X138933Y828294D01*
X139729Y828826D01*
X140668Y829013D01*
X142918D01*
X143857Y828826D01*
X144653Y828294D01*
X144950Y827851D01*
X163307D01*
X163391Y828163D01*
X164646Y830337D01*
X166420Y832112D01*
X166866Y832368D01*
X166644Y833707D01*
X166073Y833821D01*
X165109Y834465D01*
X164464Y835430D01*
X164267Y836422D01*
X169285D01*
Y838962D01*
X164267D01*
X164464Y839954D01*
X164878Y840573D01*
X164823Y840751D01*
X163394Y842180D01*
X162729Y843788D01*
X172674D01*
X172304Y842896D01*
X172475Y841718D01*
X172908Y841288D01*
X173462Y840919D01*
X173935Y840210D01*
X173941Y840208D01*
X174944Y840127D01*
X175346Y840210D01*
X175575Y840552D01*
X176371Y841084D01*
X177310Y841271D01*
X181460D01*
X182399Y841084D01*
X182782Y840829D01*
X188781D01*
X188791Y840863D01*
X190046Y843037D01*
X191820Y844811D01*
X193994Y846066D01*
X196418Y846716D01*
D02*
G37*
G36*
X120457Y811423D02*
Y807720D01*
X116755D01*
X117420Y809328D01*
X118849Y810757D01*
X120457Y811423D01*
D02*
G37*
G36*
X122997D02*
X124605Y810757D01*
X126034Y809328D01*
X126700Y807720D01*
X122997D01*
Y811423D01*
D02*
G37*
G36*
X196418Y821316D02*
X198928D01*
X201352Y820666D01*
X203526Y819411D01*
X205301Y817637D01*
X206555Y815463D01*
X207205Y813039D01*
Y810529D01*
X206555Y808105D01*
X205301Y805931D01*
X203526Y804156D01*
X201352Y802902D01*
X198928Y802252D01*
X196418D01*
X193994Y802902D01*
X191820Y804156D01*
X190046Y805931D01*
X188791Y808105D01*
X188141Y810529D01*
Y813039D01*
X188791Y815463D01*
X190046Y817637D01*
X191820Y819411D01*
X193994Y820666D01*
X196418Y821316D01*
D02*
G37*
G36*
X351099Y805527D02*
X352684Y804871D01*
X354102Y803453D01*
X354642Y802149D01*
X356016D01*
X356556Y803453D01*
X357974Y804871D01*
X359559Y805527D01*
Y800598D01*
X362099D01*
Y805527D01*
X363684Y804871D01*
X365102Y803453D01*
X365642Y802149D01*
X367016D01*
X367556Y803453D01*
X368974Y804871D01*
X370559Y805527D01*
Y800598D01*
X373099D01*
Y805527D01*
X374684Y804871D01*
X376102Y803453D01*
X376642Y802149D01*
X378016D01*
X378556Y803453D01*
X379974Y804871D01*
X381559Y805527D01*
Y800598D01*
X382829D01*
Y799328D01*
X387758D01*
X387102Y797743D01*
X385684Y796325D01*
X384380Y795785D01*
Y794411D01*
X385684Y793871D01*
X387102Y792453D01*
X387758Y790868D01*
X382829D01*
Y788328D01*
X387758D01*
X387102Y786743D01*
X385684Y785325D01*
X384380Y784785D01*
Y783411D01*
X385684Y782871D01*
X387102Y781453D01*
X387758Y779868D01*
X382829D01*
Y777328D01*
X387758D01*
X387102Y775743D01*
X385684Y774325D01*
X384380Y773785D01*
Y772411D01*
X385684Y771871D01*
X387102Y770453D01*
X387758Y768868D01*
X382829D01*
Y767598D01*
X381559D01*
Y762669D01*
X379974Y763325D01*
X378556Y764743D01*
X378016Y766047D01*
X376642D01*
X376102Y764743D01*
X374684Y763325D01*
X373099Y762669D01*
Y767598D01*
X370559D01*
Y762669D01*
X368974Y763325D01*
X367556Y764743D01*
X367016Y766047D01*
X365642D01*
X365102Y764743D01*
X363684Y763325D01*
X362099Y762669D01*
Y767598D01*
X359559D01*
Y762669D01*
X357974Y763325D01*
X356556Y764743D01*
X356016Y766047D01*
X354642D01*
X354102Y764743D01*
X352684Y763325D01*
X351099Y762669D01*
Y767598D01*
X349829D01*
Y768868D01*
X344900D01*
X345556Y770453D01*
X346974Y771871D01*
X348278Y772411D01*
Y773785D01*
X346974Y774325D01*
X345556Y775743D01*
X344900Y777328D01*
X349829D01*
Y779868D01*
X344900D01*
X345556Y781453D01*
X346974Y782871D01*
X348278Y783411D01*
Y784785D01*
X346974Y785325D01*
X345556Y786743D01*
X344900Y788328D01*
X349829D01*
Y790868D01*
X344900D01*
X345556Y792453D01*
X346974Y793871D01*
X348278Y794411D01*
Y795785D01*
X346974Y796325D01*
X345556Y797743D01*
X344900Y799328D01*
X349829D01*
Y800598D01*
X351099D01*
Y805527D01*
D02*
G37*
G36*
X348559D02*
Y801868D01*
X344900D01*
X345556Y803453D01*
X346974Y804871D01*
X348559Y805527D01*
D02*
G37*
G36*
X384099D02*
X385684Y804871D01*
X387102Y803453D01*
X387758Y801868D01*
X384099D01*
Y805527D01*
D02*
G37*
G36*
X116755Y805180D02*
X126700D01*
X126034Y803572D01*
X124847Y802386D01*
X125526Y801708D01*
X126192Y800100D01*
X116247D01*
X116912Y801708D01*
X118099Y802894D01*
X117420Y803572D01*
X116755Y805180D01*
D02*
G37*
G36*
X1015807Y801475D02*
Y795020D01*
X1009353D01*
X1009818Y796757D01*
X1010844Y798533D01*
X1012294Y799984D01*
X1014070Y801009D01*
X1015807Y801475D01*
D02*
G37*
G36*
X1018347D02*
X1020084Y801009D01*
X1021860Y799984D01*
X1023311Y798533D01*
X1024336Y796757D01*
X1024802Y795020D01*
X1018347D01*
Y801475D01*
D02*
G37*
G36*
X116247Y797560D02*
X119949D01*
Y793857D01*
X118342Y794523D01*
X116912Y795952D01*
X116247Y797560D01*
D02*
G37*
G36*
X122489D02*
X126192D01*
X125526Y795952D01*
X124097Y794523D01*
X122489Y793857D01*
Y797560D01*
D02*
G37*
G36*
X196418Y795916D02*
X198928D01*
X201352Y795266D01*
X203526Y794012D01*
X205301Y792237D01*
X206555Y790063D01*
X206643Y789736D01*
X211290D01*
X211577Y790164D01*
X212373Y790696D01*
X213312Y790883D01*
X215562D01*
X216501Y790696D01*
X217297Y790164D01*
X217829Y789368D01*
X218016Y788429D01*
Y784279D01*
X217829Y783340D01*
X217297Y782544D01*
X216955Y782315D01*
X216872Y781913D01*
X216953Y780910D01*
X216955Y780904D01*
X217664Y780431D01*
X217715Y780354D01*
X218925Y779769D01*
X220533Y780434D01*
Y775462D01*
Y770490D01*
X218925Y771155D01*
X217973Y772108D01*
X217664Y772077D01*
X216699Y771433D01*
X215707Y771236D01*
Y776254D01*
X214437D01*
Y777524D01*
X210340D01*
Y778329D01*
X210566Y779466D01*
X211210Y780431D01*
X211919Y780904D01*
X211921Y780910D01*
X212002Y781913D01*
X211919Y782315D01*
X211577Y782544D01*
X211270Y783002D01*
X206635D01*
X206555Y782705D01*
X205301Y780531D01*
X203526Y778756D01*
X201352Y777502D01*
X198928Y776852D01*
X196418D01*
X193994Y777502D01*
X191820Y778756D01*
X190046Y780531D01*
X188791Y782705D01*
X188141Y785129D01*
Y787639D01*
X188791Y790063D01*
X190046Y792237D01*
X191820Y794012D01*
X193994Y795266D01*
X196418Y795916D01*
D02*
G37*
G36*
X171018Y808616D02*
X173528D01*
X175952Y807966D01*
X178126Y806712D01*
X179901Y804937D01*
X181155Y802763D01*
X181805Y800339D01*
Y797829D01*
X181155Y795405D01*
X179901Y793231D01*
X178126Y791457D01*
X175952Y790202D01*
X173528Y789552D01*
X171018D01*
X168594Y790202D01*
X166420Y791457D01*
X164646Y793231D01*
X163391Y795405D01*
X162741Y797829D01*
Y800339D01*
X163391Y802763D01*
X164646Y804937D01*
X166420Y806712D01*
X168594Y807966D01*
X171018Y808616D01*
D02*
G37*
G36*
X134681Y789324D02*
X136289Y788659D01*
X136803Y788144D01*
X138058Y787737D01*
X139023Y788381D01*
X140015Y788578D01*
Y783560D01*
X141285D01*
Y782290D01*
X145382D01*
Y781485D01*
X145156Y780348D01*
X144512Y779383D01*
X144197Y779173D01*
X144015Y777756D01*
X144603Y777051D01*
X163307D01*
X163391Y777363D01*
X164646Y779537D01*
X166420Y781311D01*
X168594Y782566D01*
X171018Y783216D01*
X173528D01*
X175952Y782566D01*
X178126Y781311D01*
X179901Y779537D01*
X181155Y777363D01*
X181805Y774939D01*
Y772429D01*
X181155Y770005D01*
X179901Y767831D01*
X178126Y766057D01*
X175952Y764802D01*
X173528Y764152D01*
X171018D01*
X168594Y764802D01*
X166420Y766057D01*
X164646Y767831D01*
X163391Y770005D01*
X163307Y770317D01*
X144592D01*
X144145Y769650D01*
X143349Y769118D01*
X142410Y768931D01*
X140160D01*
X139221Y769118D01*
X138425Y769650D01*
X137893Y770446D01*
X137706Y771385D01*
Y775535D01*
X137893Y776474D01*
X138425Y777270D01*
X138767Y777499D01*
X138850Y777901D01*
X138769Y778904D01*
X138767Y778910D01*
X138059Y779383D01*
X137804Y779764D01*
X136308Y780042D01*
X136223Y780018D01*
X134681Y779380D01*
Y784352D01*
Y789324D01*
D02*
G37*
G36*
X132141D02*
Y785622D01*
X128439D01*
X129104Y787230D01*
X130534Y788659D01*
X132141Y789324D01*
D02*
G37*
G36*
X142555Y788578D02*
X143547Y788381D01*
X144512Y787737D01*
X145156Y786772D01*
X145382Y785635D01*
Y784830D01*
X142555D01*
Y788578D01*
D02*
G37*
G36*
X317307Y785006D02*
X318915Y784341D01*
X319212Y784043D01*
X319510Y784341D01*
X321117Y785006D01*
Y780034D01*
Y775061D01*
X319510Y775727D01*
X319212Y776025D01*
X318915Y775727D01*
X317307Y775061D01*
Y780034D01*
Y785006D01*
D02*
G37*
G36*
X815458Y802520D02*
X817968D01*
X820392Y801870D01*
X822566Y800615D01*
X824341Y798841D01*
X825595Y796667D01*
X826245Y794243D01*
Y791733D01*
X825595Y789309D01*
X824341Y787135D01*
X822566Y785360D01*
X820392Y784106D01*
X817968Y783456D01*
X815458D01*
X813034Y784106D01*
X810860Y785360D01*
X809086Y787135D01*
X807831Y789309D01*
X807181Y791733D01*
Y794243D01*
X807831Y796667D01*
X809086Y798841D01*
X810860Y800615D01*
X813034Y801870D01*
X815458Y802520D01*
D02*
G37*
G36*
X801939Y850711D02*
X835975D01*
X837263Y850454D01*
X838356Y849725D01*
X844494Y843587D01*
X845223Y842494D01*
X845480Y841206D01*
Y827354D01*
X845792Y827270D01*
X847966Y826015D01*
X849741Y824241D01*
X850995Y822067D01*
X851645Y819643D01*
Y817133D01*
X850995Y814709D01*
X849741Y812535D01*
X847966Y810760D01*
X845792Y809506D01*
X843368Y808856D01*
X840858D01*
X838434Y809506D01*
X836260Y810760D01*
X834486Y812535D01*
X833231Y814709D01*
X832581Y817133D01*
Y819643D01*
X833231Y822067D01*
X834486Y824241D01*
X836260Y826015D01*
X838434Y827270D01*
X838746Y827354D01*
Y839811D01*
X834581Y843977D01*
X803334D01*
X791339Y831982D01*
Y728723D01*
X791082Y727435D01*
X790352Y726342D01*
X623575Y559565D01*
X624575Y558565D01*
X625175Y558446D01*
X625910Y559181D01*
X628057Y560070D01*
X630300D01*
X808163Y737933D01*
X807831Y738509D01*
X807181Y740933D01*
Y743443D01*
X807831Y745867D01*
X809086Y748041D01*
X810860Y749816D01*
X813034Y751070D01*
X815458Y751720D01*
X817968D01*
X820392Y751070D01*
X822566Y749816D01*
X824341Y748041D01*
X825595Y745867D01*
X826245Y743443D01*
Y740933D01*
X825595Y738509D01*
X824341Y736335D01*
X822566Y734560D01*
X820392Y733306D01*
X817968Y732656D01*
X815458D01*
X813053Y733300D01*
X698654Y618901D01*
X698681Y618783D01*
X699276Y617728D01*
X701247D01*
X703394Y616839D01*
X704333Y615900D01*
X710148D01*
X833131Y738882D01*
X832581Y740933D01*
Y743443D01*
X833231Y745867D01*
X834486Y748041D01*
X836260Y749816D01*
X838434Y751070D01*
X840858Y751720D01*
X843368D01*
X845792Y751070D01*
X847966Y749816D01*
X849741Y748041D01*
X850802Y746202D01*
X854124D01*
X858398Y750476D01*
Y785462D01*
X854886Y788974D01*
X850802D01*
X849741Y787135D01*
X847966Y785360D01*
X845792Y784106D01*
X843368Y783456D01*
X840858D01*
X838434Y784106D01*
X836260Y785360D01*
X834486Y787135D01*
X833231Y789309D01*
X832581Y791733D01*
Y794243D01*
X833231Y796667D01*
X834486Y798841D01*
X836260Y800615D01*
X838434Y801870D01*
X840858Y802520D01*
X843368D01*
X845792Y801870D01*
X847966Y800615D01*
X849741Y798841D01*
X850802Y797002D01*
X856549D01*
X858085Y796697D01*
X859388Y795826D01*
X865250Y789963D01*
X866121Y788661D01*
X866426Y787125D01*
Y748813D01*
X866160Y747472D01*
X866732Y746202D01*
X1001952D01*
X1009795Y754045D01*
Y762932D01*
X1010556D01*
X1011063Y764202D01*
X1010291Y765539D01*
X1009795Y767391D01*
Y769309D01*
X1010291Y771161D01*
X1011250Y772821D01*
X1012339Y773910D01*
X1012499Y774700D01*
X1012339Y775490D01*
X1011250Y776579D01*
X1010291Y778239D01*
X1009795Y780091D01*
Y782009D01*
X1010291Y783861D01*
X1011250Y785521D01*
X1011967Y786238D01*
X1012260Y787385D01*
X1011911Y787899D01*
X1010844Y788967D01*
X1009818Y790743D01*
X1009353Y792480D01*
X1017077D01*
X1024802D01*
X1024336Y790743D01*
X1023311Y788967D01*
X1022243Y787899D01*
X1021894Y787385D01*
X1022187Y786238D01*
X1022904Y785521D01*
X1023863Y783861D01*
X1024359Y782009D01*
Y780091D01*
X1023863Y778239D01*
X1022904Y776579D01*
X1021815Y775490D01*
X1021655Y774700D01*
X1021815Y773910D01*
X1022904Y772821D01*
X1023863Y771161D01*
X1024359Y769309D01*
Y767391D01*
X1023863Y765539D01*
X1023091Y764202D01*
X1023598Y762932D01*
X1024359D01*
Y748368D01*
X1015472D01*
X1006453Y739350D01*
X1005151Y738479D01*
X1003615Y738174D01*
X850802D01*
X849741Y736335D01*
X847966Y734560D01*
X845792Y733306D01*
X843368Y732656D01*
X840858D01*
X838807Y733205D01*
X714650Y609048D01*
X713347Y608177D01*
X711811Y607872D01*
X704333D01*
X703452Y606991D01*
Y594429D01*
X705038Y592843D01*
X705927Y590696D01*
Y588372D01*
X705038Y586225D01*
X703394Y584581D01*
X701247Y583692D01*
X698923D01*
X696776Y584581D01*
X695132Y586225D01*
X694243Y588372D01*
Y590696D01*
X695132Y592843D01*
X696718Y594429D01*
Y606991D01*
X695132Y608577D01*
X694243Y610724D01*
Y612695D01*
X693189Y613290D01*
X693070Y613317D01*
X635061Y555309D01*
Y553066D01*
X634172Y550919D01*
X632528Y549275D01*
X630381Y548386D01*
X628057D01*
X625910Y549275D01*
X624267Y550919D01*
X623666Y551038D01*
X622931Y550304D01*
X620784Y549414D01*
X618460D01*
X617147Y549958D01*
X615877Y549110D01*
Y488701D01*
X617376Y487202D01*
X618106Y486110D01*
X618362Y484821D01*
Y471475D01*
X619632Y470626D01*
X620945Y471170D01*
X623188D01*
X636884Y484866D01*
X636636Y486112D01*
X636502Y486167D01*
X635072Y487596D01*
X634407Y489204D01*
X639379D01*
Y491744D01*
X634407D01*
X635072Y493352D01*
X636502Y494781D01*
X638084Y495436D01*
X637906Y495865D01*
Y498189D01*
X638796Y500336D01*
X640439Y501979D01*
X642586Y502869D01*
X643711D01*
X646618Y505776D01*
X647711Y506506D01*
X648999Y506763D01*
X688278D01*
X688804Y508033D01*
X688158Y508678D01*
X687493Y510286D01*
X692465D01*
Y511556D01*
X693735D01*
Y516529D01*
X695259Y515897D01*
X696783Y516529D01*
Y511556D01*
X698053D01*
Y510286D01*
X703026D01*
X702615Y509294D01*
X702902Y508947D01*
X703639Y508448D01*
X705545Y509238D01*
X707869D01*
X710017Y508349D01*
X711660Y506705D01*
X712204Y505391D01*
X712703Y505263D01*
X713634Y505259D01*
X715090Y506715D01*
X717237Y507604D01*
X719561D01*
X721708Y506715D01*
X723352Y505071D01*
X724241Y502924D01*
Y500600D01*
X723352Y498453D01*
X721708Y496810D01*
X719561Y495920D01*
X717237D01*
X716035Y496418D01*
X711807Y492190D01*
X711807Y492190D01*
X707089Y487472D01*
X707337Y486227D01*
X707535Y486145D01*
X708964Y484716D01*
X709630Y483108D01*
X699404D01*
X699107Y483551D01*
X682439D01*
X681803Y482600D01*
X671631D01*
X670996Y483551D01*
X652841D01*
Y481590D01*
X652068Y479722D01*
X650639Y478293D01*
X649031Y477627D01*
Y482600D01*
X646491D01*
Y477627D01*
X644883Y478293D01*
X643454Y479722D01*
X643250Y480216D01*
X642004Y480464D01*
X627949Y466409D01*
Y464166D01*
X627060Y462019D01*
X625416Y460375D01*
X623269Y459486D01*
X620945D01*
X619632Y460030D01*
X618362Y459181D01*
Y412772D01*
X618417Y412496D01*
Y403214D01*
X620003Y401628D01*
X620892Y399481D01*
Y397157D01*
X620003Y395010D01*
X618359Y393367D01*
X616212Y392477D01*
X613888D01*
X611741Y393367D01*
X610097Y395010D01*
X609208Y397157D01*
Y399481D01*
X610097Y401628D01*
X611683Y403214D01*
Y411980D01*
X610621Y412511D01*
X610379Y412501D01*
X609715Y411837D01*
X607567Y410947D01*
X605243D01*
X603096Y411837D01*
X601453Y413480D01*
X600563Y415627D01*
Y417951D01*
X601453Y420098D01*
X603096Y421742D01*
X604571Y422353D01*
Y503500D01*
X603301Y503885D01*
X603152Y503661D01*
X586104Y486613D01*
Y445476D01*
X588928Y442652D01*
X589658Y441559D01*
X589914Y440271D01*
Y399865D01*
X591500Y398279D01*
X592389Y396132D01*
Y393808D01*
X591500Y391661D01*
X589856Y390017D01*
X587709Y389128D01*
X585385D01*
X583238Y390017D01*
X581594Y391661D01*
X580705Y393808D01*
Y394902D01*
X580632Y394995D01*
X579435Y395646D01*
X577803Y394970D01*
X575479D01*
X573332Y395859D01*
X571688Y397503D01*
X570799Y399650D01*
Y401974D01*
X571688Y404121D01*
X573332Y405765D01*
X573528Y405846D01*
Y407444D01*
X572355Y407930D01*
X571968Y407543D01*
X569821Y406654D01*
X567497D01*
X565350Y407543D01*
X563706Y409187D01*
X562817Y411334D01*
Y413577D01*
X554448Y421945D01*
X553719Y423038D01*
X553462Y424326D01*
Y449257D01*
X551876Y450843D01*
X550987Y452990D01*
Y455314D01*
X551876Y457461D01*
X553520Y459105D01*
X555667Y459994D01*
X557991D01*
X560138Y459105D01*
X561782Y457461D01*
X562671Y455314D01*
Y452990D01*
X561782Y450843D01*
X560196Y449257D01*
Y425720D01*
X567578Y418338D01*
X569821D01*
X571968Y417449D01*
X572355Y417062D01*
X573528Y417548D01*
Y490728D01*
X573785Y492016D01*
X574514Y493109D01*
X589784Y508378D01*
Y538157D01*
X588198Y539743D01*
X587309Y541890D01*
Y544214D01*
X588198Y546361D01*
X589842Y548005D01*
X591989Y548894D01*
X594313D01*
X595425Y548434D01*
X596765Y549168D01*
X596867Y549870D01*
X595818Y550919D01*
X594929Y553066D01*
Y555390D01*
X595818Y557537D01*
X597462Y559181D01*
X599609Y560070D01*
X601933D01*
X603301Y559503D01*
X604571Y560349D01*
Y639194D01*
X603692Y640073D01*
X602803Y642220D01*
Y644544D01*
X603692Y646691D01*
X605336Y648335D01*
X607483Y649224D01*
X609807D01*
X611954Y648335D01*
X613598Y646691D01*
X614487Y644544D01*
Y642220D01*
X613598Y640073D01*
X613443Y639918D01*
X614014Y638935D01*
X614131Y638810D01*
X616411D01*
X618558Y637921D01*
X620202Y636277D01*
X621091Y634130D01*
Y631806D01*
X620202Y629659D01*
X618616Y628073D01*
Y565788D01*
X619789Y565302D01*
X784605Y730118D01*
Y833377D01*
X784862Y834665D01*
X785591Y835757D01*
X799558Y849725D01*
X800651Y850454D01*
X801939Y850711D01*
D02*
G37*
G36*
X314767Y785006D02*
Y781304D01*
X311065D01*
X311730Y782912D01*
X313160Y784341D01*
X314767Y785006D01*
D02*
G37*
G36*
X323657D02*
X325265Y784341D01*
X326694Y782912D01*
X327360Y781304D01*
X323657D01*
Y785006D01*
D02*
G37*
G36*
X128439Y783082D02*
X132141D01*
Y779380D01*
X130534Y780045D01*
X129104Y781474D01*
X128439Y783082D01*
D02*
G37*
G36*
X223073Y780434D02*
X224681Y779769D01*
X226110Y778340D01*
X226776Y776732D01*
X223073D01*
Y780434D01*
D02*
G37*
G36*
X311065Y778764D02*
X314767D01*
Y775061D01*
X313160Y775727D01*
X311730Y777156D01*
X311065Y778764D01*
D02*
G37*
G36*
X323657D02*
X327360D01*
X326694Y777156D01*
X325265Y775727D01*
X323657Y775061D01*
Y778764D01*
D02*
G37*
G36*
X210340Y774984D02*
X213167D01*
Y771236D01*
X212175Y771433D01*
X211210Y772077D01*
X210566Y773042D01*
X210340Y774179D01*
Y774984D01*
D02*
G37*
G36*
X223073Y774192D02*
X226776D01*
X226110Y772584D01*
X224681Y771155D01*
X223073Y770490D01*
Y774192D01*
D02*
G37*
G36*
X408239Y769512D02*
Y765810D01*
X404537D01*
X405202Y767418D01*
X406632Y768847D01*
X408239Y769512D01*
D02*
G37*
G36*
X410779D02*
X412387Y768847D01*
X413816Y767418D01*
X414482Y765810D01*
X410779D01*
Y769512D01*
D02*
G37*
G36*
X344900Y766328D02*
X348559D01*
Y762669D01*
X346974Y763325D01*
X345556Y764743D01*
X344900Y766328D01*
D02*
G37*
G36*
X384099D02*
X387758D01*
X387102Y764743D01*
X385684Y763325D01*
X384099Y762669D01*
Y766328D01*
D02*
G37*
G36*
X404537Y763270D02*
X408239D01*
Y759567D01*
X406632Y760233D01*
X405202Y761662D01*
X404537Y763270D01*
D02*
G37*
G36*
X410779D02*
X414482D01*
X413816Y761662D01*
X412387Y760233D01*
X410779Y759567D01*
Y763270D01*
D02*
G37*
G36*
X815458Y777120D02*
X817968D01*
X820392Y776470D01*
X822566Y775216D01*
X824341Y773441D01*
X825595Y771267D01*
X826245Y768843D01*
Y766333D01*
X825595Y763909D01*
X824341Y761735D01*
X822566Y759960D01*
X820392Y758706D01*
X817968Y758056D01*
X815458D01*
X813034Y758706D01*
X810860Y759960D01*
X809086Y761735D01*
X807831Y763909D01*
X807181Y766333D01*
Y768843D01*
X807831Y771267D01*
X809086Y773441D01*
X810860Y775216D01*
X813034Y776470D01*
X815458Y777120D01*
D02*
G37*
G36*
X840858D02*
X843368D01*
X845792Y776470D01*
X847966Y775216D01*
X849741Y773441D01*
X850995Y771267D01*
X851645Y768843D01*
Y766333D01*
X850995Y763909D01*
X849741Y761735D01*
X847966Y759960D01*
X845792Y758706D01*
X843368Y758056D01*
X840858D01*
X838434Y758706D01*
X836260Y759960D01*
X834486Y761735D01*
X833231Y763909D01*
X832581Y766333D01*
Y768843D01*
X833231Y771267D01*
X834486Y773441D01*
X836260Y775216D01*
X838434Y776470D01*
X840858Y777120D01*
D02*
G37*
G36*
X188141Y770516D02*
X207205D01*
Y751452D01*
X188141D01*
Y770516D01*
D02*
G37*
G36*
X338897Y753511D02*
Y749808D01*
X335195D01*
X335860Y751416D01*
X337290Y752845D01*
X338897Y753511D01*
D02*
G37*
G36*
X341437D02*
X343045Y752845D01*
X344474Y751416D01*
X345140Y749808D01*
X341437D01*
Y753511D01*
D02*
G37*
G36*
X319701Y750824D02*
X322025D01*
X324172Y749935D01*
X325816Y748291D01*
X326705Y746144D01*
Y745948D01*
X334598D01*
X335304Y747004D01*
X335195Y747268D01*
X345140D01*
X345030Y747004D01*
X345736Y745948D01*
X361573D01*
X362512Y746887D01*
X364659Y747776D01*
X366983D01*
X369130Y746887D01*
X370774Y745243D01*
X371663Y743096D01*
Y740772D01*
X370774Y738625D01*
X369130Y736981D01*
X366983Y736092D01*
X364659D01*
X362512Y736981D01*
X361573Y737920D01*
X345123D01*
X344417Y736864D01*
X344632Y736346D01*
X334687D01*
X334901Y736864D01*
X334196Y737920D01*
X323657D01*
X322121Y738225D01*
X321338Y738749D01*
X319035Y736446D01*
Y537140D01*
X319974Y536201D01*
X320863Y534054D01*
Y531730D01*
X319974Y529583D01*
X319035Y528644D01*
Y479164D01*
X318730Y477627D01*
X317859Y476325D01*
X312177Y470643D01*
Y465512D01*
X313116Y464573D01*
X314249Y465099D01*
X315014Y465865D01*
X317161Y466754D01*
X319485D01*
X321632Y465865D01*
X323276Y464221D01*
X324165Y462074D01*
Y459750D01*
X323276Y457603D01*
X322325Y456652D01*
Y446136D01*
X322902Y445897D01*
X324546Y444253D01*
X325435Y442106D01*
Y439782D01*
X324546Y437635D01*
X322902Y435991D01*
X320755Y435102D01*
X318431D01*
X316284Y435991D01*
X314640Y437635D01*
X313751Y439782D01*
Y442106D01*
X314640Y444253D01*
X315591Y445204D01*
Y455720D01*
X315014Y455959D01*
X313370Y457603D01*
X312237Y457076D01*
X312177Y457016D01*
Y275236D01*
X312585Y274828D01*
X312881D01*
X315028Y273939D01*
X315713Y273254D01*
X344699D01*
X345225Y274524D01*
X344750Y274998D01*
X344085Y276606D01*
X354030D01*
X353364Y274998D01*
X352889Y274524D01*
X353415Y273254D01*
X380045D01*
X381581Y272949D01*
X382883Y272078D01*
X407931Y247031D01*
X409184Y248285D01*
X411331Y249174D01*
X413655D01*
X415802Y248285D01*
X417446Y246641D01*
X417469Y246584D01*
X431099D01*
X432635Y246279D01*
X433937Y245408D01*
X446732Y232614D01*
X539637D01*
X540123Y233787D01*
X537481Y236430D01*
X536610Y237732D01*
X536305Y239268D01*
Y314776D01*
X535366Y315715D01*
X534477Y317862D01*
Y320186D01*
X535366Y322333D01*
X536813Y323780D01*
Y379038D01*
X536382Y379469D01*
X535493Y381616D01*
Y383940D01*
X536382Y386087D01*
X538026Y387731D01*
X540173Y388620D01*
X542497D01*
X544644Y387731D01*
X545583Y386792D01*
X624463D01*
X625910Y388239D01*
X628057Y389128D01*
X630381D01*
X632528Y388239D01*
X634172Y386595D01*
X635061Y384448D01*
Y382124D01*
X634172Y379977D01*
X632528Y378333D01*
X630381Y377444D01*
X628057D01*
X625910Y378333D01*
X625479Y378764D01*
X545583D01*
X544841Y378022D01*
Y322764D01*
X545272Y322333D01*
X546161Y320186D01*
Y317862D01*
X545272Y315715D01*
X544333Y314776D01*
Y240931D01*
X550822Y234442D01*
X552149D01*
X554296Y233553D01*
X555940Y231909D01*
X555963Y231852D01*
X569529D01*
X571065Y231547D01*
X572368Y230676D01*
X588922Y214122D01*
X590249D01*
X592396Y213233D01*
X594040Y211589D01*
X594929Y209442D01*
Y207118D01*
X594040Y204971D01*
X592396Y203327D01*
X590249Y202438D01*
X587925D01*
X585778Y203327D01*
X584134Y204971D01*
X583245Y207118D01*
Y208445D01*
X567866Y223824D01*
X554473D01*
X554296Y223647D01*
X552149Y222758D01*
X549825D01*
X547678Y223647D01*
X546739Y224586D01*
X445069D01*
X443533Y224891D01*
X442231Y225762D01*
X440654Y227338D01*
X439481Y226852D01*
Y226574D01*
X438708Y224706D01*
X437279Y223277D01*
X435671Y222612D01*
Y227584D01*
X434401D01*
Y228854D01*
X429429D01*
X430094Y230462D01*
X431524Y231891D01*
X433391Y232664D01*
X433669D01*
X434155Y233837D01*
X429436Y238556D01*
X415979D01*
X415802Y238379D01*
X413655Y237490D01*
X411331D01*
X409184Y238379D01*
X409007Y238556D01*
X406715D01*
X405179Y238861D01*
X403877Y239732D01*
X378382Y265226D01*
X364024D01*
X363318Y264170D01*
X363428Y263906D01*
X353483D01*
X353592Y264170D01*
X352886Y265226D01*
X317566D01*
X317257Y264849D01*
Y246538D01*
X318431Y246052D01*
X318493Y246115D01*
X320101Y246780D01*
Y241808D01*
Y236835D01*
X318493Y237501D01*
X318431Y237564D01*
X317257Y237078D01*
Y226244D01*
X318196Y225305D01*
X319085Y223158D01*
Y220834D01*
X318196Y218687D01*
X316552Y217043D01*
X314405Y216154D01*
X312081D01*
X309934Y217043D01*
X308290Y218687D01*
X307401Y220834D01*
Y223158D01*
X308290Y225305D01*
X309229Y226244D01*
Y263375D01*
X308935Y263816D01*
X308410Y264033D01*
X306766Y265677D01*
X305877Y267824D01*
Y270148D01*
X305887Y270172D01*
X305325Y270735D01*
X304454Y272037D01*
X304149Y273573D01*
Y457016D01*
X303210Y457955D01*
X302321Y460102D01*
Y462426D01*
X303210Y464573D01*
X304149Y465512D01*
Y472305D01*
X304454Y473842D01*
X305325Y475144D01*
X311007Y480826D01*
Y528644D01*
X310068Y529583D01*
X309179Y531730D01*
Y534054D01*
X310068Y536201D01*
X311007Y537140D01*
Y738109D01*
X311313Y739645D01*
X312183Y740947D01*
X315031Y743796D01*
X315021Y743820D01*
Y746144D01*
X315910Y748291D01*
X317554Y749935D01*
X319701Y750824D01*
D02*
G37*
G36*
X171018Y757816D02*
X173528D01*
X175952Y757166D01*
X178126Y755911D01*
X179901Y754137D01*
X181155Y751963D01*
X181805Y749539D01*
Y747029D01*
X181155Y744605D01*
X179901Y742431D01*
X178126Y740657D01*
X175952Y739402D01*
X173528Y738752D01*
X171018D01*
X168594Y739402D01*
X166420Y740657D01*
X164646Y742431D01*
X163391Y744605D01*
X162741Y747029D01*
Y749539D01*
X163391Y751963D01*
X164646Y754137D01*
X166420Y755911D01*
X168594Y757166D01*
X171018Y757816D01*
D02*
G37*
G36*
X334687Y733806D02*
X338389D01*
Y730104D01*
X336782Y730769D01*
X335352Y732198D01*
X334687Y733806D01*
D02*
G37*
G36*
X340929D02*
X344632D01*
X343966Y732198D01*
X342537Y730769D01*
X340929Y730104D01*
Y733806D01*
D02*
G37*
G36*
X388681Y728111D02*
Y724408D01*
X384979D01*
X385644Y726016D01*
X387074Y727445D01*
X388681Y728111D01*
D02*
G37*
G36*
X411033Y723030D02*
Y719328D01*
X407331D01*
X407996Y720936D01*
X409426Y722365D01*
X411033Y723030D01*
D02*
G37*
G36*
X413573D02*
X415181Y722365D01*
X416610Y720936D01*
X417276Y719328D01*
X413573D01*
Y723030D01*
D02*
G37*
G36*
X107007Y753516D02*
X110539D01*
X114004Y752827D01*
X117267Y751475D01*
X120204Y749513D01*
X122702Y747015D01*
X124664Y744078D01*
X126016Y740815D01*
X126705Y737350D01*
Y733818D01*
X126016Y730353D01*
X124664Y727090D01*
X122702Y724153D01*
X120204Y721655D01*
X117267Y719693D01*
X114004Y718341D01*
X110539Y717652D01*
X107007D01*
X103542Y718341D01*
X100279Y719693D01*
X97342Y721655D01*
X94844Y724153D01*
X92882Y727090D01*
X91530Y730353D01*
X90841Y733818D01*
Y737350D01*
X91530Y740815D01*
X92882Y744078D01*
X94844Y747015D01*
X97342Y749513D01*
X100279Y751475D01*
X103542Y752827D01*
X107007Y753516D01*
D02*
G37*
G36*
X360487Y718712D02*
Y715010D01*
X356785D01*
X357450Y716618D01*
X358880Y718047D01*
X360487Y718712D01*
D02*
G37*
G36*
X407331Y716788D02*
X411033D01*
Y713085D01*
X409426Y713751D01*
X407996Y715180D01*
X407331Y716788D01*
D02*
G37*
G36*
X413573D02*
X417276D01*
X416610Y715180D01*
X415181Y713751D01*
X413573Y713085D01*
Y716788D01*
D02*
G37*
G36*
X560493Y725170D02*
X562817D01*
X564964Y724281D01*
X566608Y722637D01*
X567497Y720490D01*
Y718166D01*
X566608Y716019D01*
X565022Y714433D01*
Y709383D01*
X565211Y709257D01*
X566481Y709936D01*
Y710330D01*
X567370Y712477D01*
X569014Y714121D01*
X571161Y715010D01*
X573485D01*
X575632Y714121D01*
X577276Y712477D01*
X578165Y710330D01*
Y708006D01*
X577713Y706915D01*
X602085Y682542D01*
X602956Y681240D01*
X603261Y679704D01*
Y670518D01*
X610839Y662940D01*
X611839D01*
X613986Y662051D01*
X615630Y660407D01*
X616519Y658260D01*
Y655936D01*
X615630Y653789D01*
X613986Y652145D01*
X611839Y651256D01*
X609515D01*
X607368Y652145D01*
X605724Y653789D01*
X604835Y655936D01*
Y657590D01*
X597026Y665399D01*
X595756Y664873D01*
Y660469D01*
X597342Y658883D01*
X598231Y656736D01*
Y654412D01*
X597342Y652265D01*
X595698Y650621D01*
X593551Y649732D01*
X591227D01*
X589080Y650621D01*
X587436Y652265D01*
X586547Y654412D01*
Y656736D01*
X587436Y658883D01*
X589022Y660469D01*
Y674753D01*
X559274Y704501D01*
X558545Y705594D01*
X558288Y706882D01*
Y714433D01*
X556702Y716019D01*
X555813Y718166D01*
Y720490D01*
X556702Y722637D01*
X558346Y724281D01*
X560493Y725170D01*
D02*
G37*
G36*
X356785Y712470D02*
X360487D01*
Y708767D01*
X358880Y709433D01*
X357450Y710862D01*
X356785Y712470D01*
D02*
G37*
G36*
X410125Y738124D02*
X412449D01*
X414596Y737235D01*
X416240Y735591D01*
X417129Y733444D01*
Y731120D01*
X416240Y728973D01*
X414596Y727329D01*
X412449Y726440D01*
X410206D01*
X397666Y713899D01*
X396573Y713170D01*
X395285Y712913D01*
X377574D01*
X375988Y711327D01*
X373841Y710438D01*
X371517D01*
X369370Y711327D01*
X368066Y712631D01*
X367842Y712649D01*
X366769Y712407D01*
X366682Y712356D01*
X366064Y710862D01*
X364635Y709433D01*
X363027Y708767D01*
Y713740D01*
Y718712D01*
X364635Y718047D01*
X365567Y717114D01*
X366271Y717296D01*
X366895Y717582D01*
X367726Y719589D01*
X369370Y721233D01*
X371517Y722122D01*
X373841D01*
X375988Y721233D01*
X377574Y719647D01*
X384599D01*
X385373Y720917D01*
X384979Y721868D01*
X389951D01*
Y723138D01*
X391221D01*
Y728111D01*
X392829Y727445D01*
X394258Y726016D01*
X395031Y724148D01*
Y722583D01*
X396251Y722008D01*
X405445Y731201D01*
Y733444D01*
X406334Y735591D01*
X407978Y737235D01*
X410125Y738124D01*
D02*
G37*
G36*
X81603Y722827D02*
X86843D01*
X88679Y722585D01*
X90389Y721876D01*
X91858Y720749D01*
X92985Y719280D01*
X93694Y717570D01*
X93936Y715734D01*
X93694Y713898D01*
X92985Y712188D01*
X91858Y710719D01*
X90389Y709592D01*
X88679Y708883D01*
X86843Y708641D01*
X81603D01*
X79767Y708883D01*
X78057Y709592D01*
X76588Y710719D01*
X75461Y712188D01*
X74752Y713898D01*
X74510Y715734D01*
X74752Y717570D01*
X75461Y719280D01*
X76588Y720749D01*
X78057Y721876D01*
X79767Y722585D01*
X81603Y722827D01*
D02*
G37*
G36*
X588325Y863876D02*
X732597D01*
X732597Y702860D01*
X588325Y702034D01*
Y863876D01*
D02*
G37*
G36*
X1015553Y635462D02*
Y627196D01*
X1007287D01*
X1007933Y629608D01*
X1009189Y631784D01*
X1010965Y633560D01*
X1013141Y634816D01*
X1015553Y635462D01*
D02*
G37*
G36*
X1018093D02*
X1020505Y634816D01*
X1022681Y633560D01*
X1024457Y631784D01*
X1025713Y629608D01*
X1026359Y627196D01*
X1018093D01*
Y635462D01*
D02*
G37*
G36*
X559477Y682244D02*
X561801D01*
X563948Y681355D01*
X565592Y679711D01*
X566481Y677564D01*
Y675240D01*
X565592Y673093D01*
X563948Y671449D01*
X561801Y670560D01*
X559477D01*
X557330Y671449D01*
X555744Y673035D01*
X538666D01*
X531364Y665734D01*
X531890Y664464D01*
X533099D01*
X535246Y663575D01*
X536890Y661931D01*
X537779Y659784D01*
Y657460D01*
X536890Y655313D01*
X535304Y653727D01*
Y592198D01*
X544518Y582985D01*
X544999Y583184D01*
X547323D01*
X548636Y582640D01*
X549906Y583489D01*
Y602870D01*
X547590Y605186D01*
X546861Y606278D01*
X546604Y607567D01*
Y633915D01*
X545018Y635501D01*
X544129Y637648D01*
Y639972D01*
X545018Y642119D01*
X546662Y643763D01*
X548809Y644652D01*
X551133D01*
X553280Y643763D01*
X554924Y642119D01*
X555813Y639972D01*
Y637648D01*
X554924Y635501D01*
X553338Y633915D01*
Y608961D01*
X555654Y606645D01*
X556384Y605553D01*
X556640Y604265D01*
Y569214D01*
X556384Y567926D01*
X555654Y566833D01*
X547526Y558705D01*
X546433Y557976D01*
X545145Y557719D01*
X531752D01*
X530420Y556387D01*
X528273Y555498D01*
X525949D01*
X523802Y556387D01*
X522158Y558031D01*
X521269Y560178D01*
Y562502D01*
X522158Y564649D01*
X523802Y566293D01*
X525949Y567182D01*
X528273D01*
X530420Y566293D01*
X532064Y564649D01*
X532145Y564453D01*
X543750D01*
X549398Y570100D01*
X549320Y571068D01*
X548110Y571826D01*
X547323Y571500D01*
X544999D01*
X542852Y572389D01*
X541208Y574033D01*
X540319Y576180D01*
Y577661D01*
X529556Y588423D01*
X528827Y589516D01*
X528570Y590804D01*
Y653727D01*
X526984Y655313D01*
X526095Y657460D01*
Y658669D01*
X524825Y659195D01*
X523874Y658243D01*
Y631259D01*
X525460Y629673D01*
X526349Y627526D01*
Y625202D01*
X525460Y623055D01*
X523816Y621411D01*
X521669Y620522D01*
X519345D01*
X517198Y621411D01*
X515554Y623055D01*
X514665Y625202D01*
Y627526D01*
X515554Y629673D01*
X517140Y631259D01*
Y659638D01*
X517397Y660926D01*
X518126Y662019D01*
X534890Y678783D01*
X535983Y679512D01*
X537271Y679769D01*
X555744D01*
X557330Y681355D01*
X559477Y682244D01*
D02*
G37*
G36*
X1007287Y624656D02*
X1015553D01*
Y616390D01*
X1013141Y617036D01*
X1010965Y618292D01*
X1009189Y620068D01*
X1007933Y622244D01*
X1007287Y624656D01*
D02*
G37*
G36*
X1018093D02*
X1026359D01*
X1025713Y622244D01*
X1024457Y620068D01*
X1022681Y618292D01*
X1020505Y617036D01*
X1018093Y616390D01*
Y624656D01*
D02*
G37*
G36*
X1015634Y609958D02*
X1018012D01*
X1020309Y609342D01*
X1022369Y608153D01*
X1024051Y606472D01*
X1025239Y604412D01*
X1025855Y602115D01*
Y599737D01*
X1025239Y597440D01*
X1024051Y595380D01*
X1022369Y593699D01*
X1020309Y592509D01*
X1018012Y591894D01*
X1015634D01*
X1013337Y592509D01*
X1011277Y593699D01*
X1009596Y595380D01*
X1008407Y597440D01*
X1007791Y599737D01*
Y602115D01*
X1008407Y604412D01*
X1009596Y606472D01*
X1011277Y608153D01*
X1013337Y609342D01*
X1015634Y609958D01*
D02*
G37*
G36*
Y584958D02*
X1018012D01*
X1020309Y584342D01*
X1022369Y583153D01*
X1024051Y581472D01*
X1025239Y579412D01*
X1025855Y577115D01*
Y574737D01*
X1025239Y572440D01*
X1024051Y570380D01*
X1022369Y568699D01*
X1020309Y567509D01*
X1018012Y566894D01*
X1015634D01*
X1013337Y567509D01*
X1011277Y568699D01*
X1009596Y570380D01*
X1008407Y572440D01*
X1007791Y574737D01*
Y577115D01*
X1008407Y579412D01*
X1009596Y581472D01*
X1011277Y583153D01*
X1013337Y584342D01*
X1015634Y584958D01*
D02*
G37*
G36*
X445831Y561995D02*
X447439Y561329D01*
X448868Y559900D01*
X449534Y558292D01*
X445831D01*
Y561995D01*
D02*
G37*
G36*
X437703Y561740D02*
Y558038D01*
X434001D01*
X434666Y559646D01*
X436096Y561075D01*
X437703Y561740D01*
D02*
G37*
G36*
X81333Y571281D02*
X86573D01*
X88409Y571039D01*
X90119Y570330D01*
X91588Y569203D01*
X92716Y567734D01*
X93424Y566024D01*
X93666Y564188D01*
X93424Y562352D01*
X92716Y560642D01*
X91588Y559173D01*
X90119Y558046D01*
X88409Y557337D01*
X86573Y557095D01*
X81333D01*
X79497Y557337D01*
X77787Y558046D01*
X76318Y559173D01*
X75191Y560642D01*
X74482Y562352D01*
X74240Y564188D01*
X74482Y566024D01*
X75191Y567734D01*
X76318Y569203D01*
X77787Y570330D01*
X79497Y571039D01*
X81333Y571281D01*
D02*
G37*
G36*
X161859Y550056D02*
Y546354D01*
X158157D01*
X158822Y547962D01*
X160252Y549391D01*
X161859Y550056D01*
D02*
G37*
G36*
X164399D02*
X166007Y549391D01*
X167436Y547962D01*
X168102Y546354D01*
X164399D01*
Y550056D01*
D02*
G37*
G36*
X433239Y549402D02*
X436941D01*
Y545700D01*
X435334Y546365D01*
X433904Y547794D01*
X433239Y549402D01*
D02*
G37*
G36*
X443291Y561995D02*
Y557022D01*
X444561D01*
Y555752D01*
X449534D01*
X448868Y554144D01*
X448443Y553720D01*
X448614Y553550D01*
X449280Y551942D01*
X444307D01*
Y550672D01*
X443037D01*
Y545700D01*
X441429Y546365D01*
X441259Y546536D01*
X441089Y546365D01*
X439481Y545700D01*
Y550672D01*
X438211D01*
Y551942D01*
X433239D01*
X433904Y553550D01*
X434543Y554188D01*
X434001Y555498D01*
X438973D01*
Y556768D01*
X440243D01*
Y561740D01*
X441553Y561198D01*
X441684Y561329D01*
X443291Y561995D01*
D02*
G37*
G36*
X445577Y549402D02*
X449280D01*
X448614Y547794D01*
X447185Y546365D01*
X445577Y545700D01*
Y549402D01*
D02*
G37*
G36*
X330007Y547262D02*
Y543560D01*
X326305D01*
X326970Y545168D01*
X328400Y546597D01*
X330007Y547262D01*
D02*
G37*
G36*
X332547D02*
X334155Y546597D01*
X335584Y545168D01*
X336250Y543560D01*
X332547D01*
Y547262D01*
D02*
G37*
G36*
X412049D02*
Y543560D01*
X408347D01*
X409012Y545168D01*
X410442Y546597D01*
X412049Y547262D01*
D02*
G37*
G36*
X414589D02*
X416197Y546597D01*
X417626Y545168D01*
X418292Y543560D01*
X414589D01*
Y547262D01*
D02*
G37*
G36*
X1015634Y559958D02*
X1018012D01*
X1020309Y559342D01*
X1022369Y558153D01*
X1024051Y556472D01*
X1025239Y554412D01*
X1025855Y552115D01*
Y549737D01*
X1025239Y547440D01*
X1024051Y545380D01*
X1022369Y543699D01*
X1020309Y542509D01*
X1018012Y541894D01*
X1015634D01*
X1013337Y542509D01*
X1011277Y543699D01*
X1009596Y545380D01*
X1008407Y547440D01*
X1007791Y549737D01*
Y552115D01*
X1008407Y554412D01*
X1009596Y556472D01*
X1011277Y558153D01*
X1013337Y559342D01*
X1015634Y559958D01*
D02*
G37*
G36*
X158157Y543814D02*
X168102D01*
X167436Y542206D01*
X167558Y540966D01*
X167590Y540945D01*
X168063Y540236D01*
X168069Y540234D01*
X169072Y540153D01*
X169474Y540236D01*
X169703Y540578D01*
X170499Y541110D01*
X171438Y541297D01*
X175588D01*
X176527Y541110D01*
X177323Y540578D01*
X177855Y539782D01*
X178042Y538843D01*
Y537576D01*
X178060Y537488D01*
Y536005D01*
X187437D01*
X187521Y536317D01*
X188776Y538491D01*
X190550Y540266D01*
X192724Y541520D01*
X195148Y542170D01*
X197658D01*
X200082Y541520D01*
X202256Y540266D01*
X204031Y538491D01*
X205285Y536317D01*
X205935Y533893D01*
Y531383D01*
X205285Y528959D01*
X204031Y526785D01*
X202256Y525010D01*
X200082Y523756D01*
X197658Y523106D01*
X195148D01*
X192724Y523756D01*
X190550Y525010D01*
X188776Y526785D01*
X187521Y528959D01*
X187437Y529271D01*
X176441D01*
X176101Y528001D01*
X176856Y527565D01*
X178631Y525791D01*
X179885Y523617D01*
X180535Y521193D01*
Y518683D01*
X179885Y516259D01*
X178631Y514085D01*
X176856Y512310D01*
X174682Y511056D01*
X172258Y510406D01*
X169748D01*
X167324Y511056D01*
X165150Y512310D01*
X163376Y514085D01*
X162121Y516259D01*
X162037Y516571D01*
X150808D01*
X143098Y508861D01*
X142006Y508132D01*
X140717Y507875D01*
X135044D01*
X134747Y507432D01*
X134405Y507203D01*
X134322Y506801D01*
X134403Y505798D01*
X134405Y505792D01*
X135114Y505319D01*
X135758Y504354D01*
X135984Y503217D01*
Y502412D01*
X131887D01*
Y501142D01*
X130617D01*
Y496124D01*
X129625Y496321D01*
X128660Y496965D01*
X127630Y497067D01*
X127399Y496835D01*
X125791Y496170D01*
Y501142D01*
Y506115D01*
X127399Y505449D01*
X127630Y505217D01*
X128660Y505319D01*
X129369Y505792D01*
X129371Y505798D01*
X129452Y506801D01*
X129369Y507203D01*
X129027Y507432D01*
X128495Y508228D01*
X128308Y509167D01*
Y513317D01*
X128495Y514256D01*
X129027Y515052D01*
X129823Y515584D01*
X130762Y515771D01*
X133012D01*
X133951Y515584D01*
X134747Y515052D01*
X135044Y514609D01*
X139323D01*
X147032Y522319D01*
X148125Y523048D01*
X149413Y523305D01*
X162037D01*
X162121Y523617D01*
X163376Y525791D01*
X165150Y527565D01*
X167324Y528820D01*
X169748Y529470D01*
X171612D01*
X172017Y530104D01*
X172196Y530740D01*
X171583Y531657D01*
X171326Y532946D01*
Y534161D01*
X170499Y534326D01*
X169703Y534858D01*
X169474Y535200D01*
X169072Y535283D01*
X168069Y535202D01*
X168063Y535200D01*
X167590Y534491D01*
X166625Y533847D01*
X165488Y533621D01*
X164683D01*
Y537718D01*
X163413D01*
Y538988D01*
X158395D01*
X158592Y539980D01*
X159236Y540945D01*
X159312Y541716D01*
X158822Y542206D01*
X158157Y543814D01*
D02*
G37*
G36*
X369885Y542944D02*
Y539242D01*
X366183D01*
X366848Y540850D01*
X368278Y542279D01*
X369885Y542944D01*
D02*
G37*
G36*
X372425D02*
X374033Y542279D01*
X375462Y540850D01*
X376128Y539242D01*
X372425D01*
Y542944D01*
D02*
G37*
G36*
X326305Y541020D02*
X330007D01*
Y537318D01*
X328400Y537983D01*
X326970Y539412D01*
X326305Y541020D01*
D02*
G37*
G36*
X332547D02*
X336250D01*
X335584Y539412D01*
X334155Y537983D01*
X332547Y537318D01*
Y541020D01*
D02*
G37*
G36*
X408347D02*
X412049D01*
Y537318D01*
X410442Y537983D01*
X409012Y539412D01*
X408347Y541020D01*
D02*
G37*
G36*
X414589D02*
X418292D01*
X417626Y539412D01*
X416197Y537983D01*
X414589Y537318D01*
Y541020D01*
D02*
G37*
G36*
X158395Y536448D02*
X162143D01*
Y533621D01*
X161338D01*
X160201Y533847D01*
X159236Y534491D01*
X158592Y535456D01*
X158395Y536448D01*
D02*
G37*
G36*
X366183Y536702D02*
X369885D01*
Y532999D01*
X368278Y533665D01*
X366848Y535094D01*
X366183Y536702D01*
D02*
G37*
G36*
X372425D02*
X376128D01*
X375462Y535094D01*
X374033Y533665D01*
X372425Y532999D01*
Y536702D01*
D02*
G37*
G36*
X105737Y563270D02*
X109269D01*
X112734Y562581D01*
X115997Y561229D01*
X118934Y559267D01*
X121432Y556769D01*
X123394Y553832D01*
X124746Y550569D01*
X125435Y547104D01*
Y543572D01*
X124746Y540107D01*
X123394Y536844D01*
X121432Y533907D01*
X118934Y531409D01*
X115997Y529447D01*
X112734Y528095D01*
X109269Y527406D01*
X105737D01*
X102273Y528095D01*
X99009Y529447D01*
X96072Y531409D01*
X93574Y533907D01*
X91612Y536844D01*
X90260Y540107D01*
X89571Y543572D01*
Y547104D01*
X90260Y550569D01*
X91612Y553832D01*
X93574Y556769D01*
X96072Y559267D01*
X99009Y561229D01*
X102273Y562581D01*
X105737Y563270D01*
D02*
G37*
G36*
X403159Y531007D02*
Y527304D01*
X399457D01*
X400122Y528912D01*
X401552Y530341D01*
X403159Y531007D01*
D02*
G37*
G36*
X405699D02*
X407307Y530341D01*
X408736Y528912D01*
X409402Y527304D01*
X405699D01*
Y531007D01*
D02*
G37*
G36*
X399457Y524764D02*
X403159D01*
Y521062D01*
X401552Y521727D01*
X400122Y523156D01*
X399457Y524764D01*
D02*
G37*
G36*
X405699D02*
X409402D01*
X408736Y523156D01*
X407307Y521727D01*
X405699Y521062D01*
Y524764D01*
D02*
G37*
G36*
X442783Y524656D02*
Y520954D01*
X439081D01*
X439746Y522562D01*
X441175Y523991D01*
X442783Y524656D01*
D02*
G37*
G36*
X445323D02*
X446931Y523991D01*
X448360Y522562D01*
X449026Y520954D01*
X445323D01*
Y524656D01*
D02*
G37*
G36*
X1015634Y534958D02*
X1018012D01*
X1020309Y534342D01*
X1022369Y533153D01*
X1024051Y531472D01*
X1025239Y529412D01*
X1025855Y527115D01*
Y524737D01*
X1025239Y522440D01*
X1024051Y520380D01*
X1022369Y518699D01*
X1020309Y517509D01*
X1018012Y516894D01*
X1015634D01*
X1013337Y517509D01*
X1011277Y518699D01*
X1009596Y520380D01*
X1008407Y522440D01*
X1007791Y524737D01*
Y527115D01*
X1008407Y529412D01*
X1009596Y531472D01*
X1011277Y533153D01*
X1013337Y534342D01*
X1015634Y534958D01*
D02*
G37*
G36*
X439081Y518414D02*
X442783D01*
Y514711D01*
X441175Y515377D01*
X439746Y516806D01*
X439081Y518414D01*
D02*
G37*
G36*
X445323D02*
X449026D01*
X448360Y516806D01*
X446931Y515377D01*
X445323Y514711D01*
Y518414D01*
D02*
G37*
G36*
X691195Y516529D02*
Y512826D01*
X687493D01*
X688158Y514434D01*
X689587Y515863D01*
X691195Y516529D01*
D02*
G37*
G36*
X699323D02*
X700931Y515863D01*
X702360Y514434D01*
X703026Y512826D01*
X699323D01*
Y516529D01*
D02*
G37*
G36*
X220279Y508400D02*
Y504698D01*
X216577D01*
X217242Y506306D01*
X218671Y507735D01*
X220279Y508400D01*
D02*
G37*
G36*
X222819D02*
X224427Y507735D01*
X225856Y506306D01*
X226522Y504698D01*
X222819D01*
Y508400D01*
D02*
G37*
G36*
X325181D02*
Y504698D01*
X321479D01*
X322144Y506306D01*
X323573Y507735D01*
X325181Y508400D01*
D02*
G37*
G36*
X327721D02*
X329329Y507735D01*
X330758Y506306D01*
X331424Y504698D01*
X327721D01*
Y508400D01*
D02*
G37*
G36*
X123251Y506115D02*
Y502412D01*
X119549D01*
X120214Y504020D01*
X121643Y505449D01*
X123251Y506115D01*
D02*
G37*
G36*
X321479Y502158D02*
X331424D01*
X330758Y500550D01*
X330206Y499999D01*
X330504Y499702D01*
X331170Y498094D01*
X321225D01*
X321890Y499702D01*
X322442Y500253D01*
X322144Y500550D01*
X321479Y502158D01*
D02*
G37*
G36*
X195148Y516770D02*
X197658D01*
X200082Y516120D01*
X202256Y514865D01*
X204031Y513091D01*
X205285Y510917D01*
X205935Y508493D01*
Y505983D01*
X205285Y503559D01*
X204031Y501385D01*
X202256Y499610D01*
X200082Y498356D01*
X197658Y497706D01*
X195148D01*
X192724Y498356D01*
X190550Y499610D01*
X188776Y501385D01*
X187521Y503559D01*
X186871Y505983D01*
Y508493D01*
X187521Y510917D01*
X188776Y513091D01*
X190550Y514865D01*
X192724Y516120D01*
X195148Y516770D01*
D02*
G37*
G36*
X216577Y502158D02*
X226522D01*
X225856Y500550D01*
X224427Y499121D01*
X224233Y498484D01*
X224404Y498228D01*
X224630Y497091D01*
Y496286D01*
X220533D01*
X216436D01*
Y497091D01*
X216662Y498228D01*
X217306Y499193D01*
X217423Y500370D01*
X217242Y500550D01*
X216577Y502158D01*
D02*
G37*
G36*
X119549Y499872D02*
X123251D01*
Y496170D01*
X121643Y496835D01*
X120214Y498264D01*
X119549Y499872D01*
D02*
G37*
G36*
X133157D02*
X135984D01*
Y499067D01*
X135758Y497930D01*
X135114Y496965D01*
X134149Y496321D01*
X133157Y496124D01*
Y499872D01*
D02*
G37*
G36*
X1007791Y509958D02*
X1025855D01*
Y491894D01*
X1007791D01*
Y509958D01*
D02*
G37*
G36*
X321225Y495554D02*
X324927D01*
Y491852D01*
X323320Y492517D01*
X321890Y493946D01*
X321225Y495554D01*
D02*
G37*
G36*
X327467D02*
X331170D01*
X330504Y493946D01*
X329075Y492517D01*
X327467Y491852D01*
Y495554D01*
D02*
G37*
G36*
X404937Y493923D02*
Y490220D01*
X401235D01*
X401900Y491828D01*
X403330Y493257D01*
X404937Y493923D01*
D02*
G37*
G36*
X407477D02*
X409085Y493257D01*
X410514Y491828D01*
X411180Y490220D01*
X407477D01*
Y493923D01*
D02*
G37*
G36*
X351059Y489193D02*
X352644Y488537D01*
X354062Y487119D01*
X354602Y485815D01*
X355976D01*
X356516Y487119D01*
X357934Y488537D01*
X359519Y489193D01*
Y484264D01*
X362059D01*
Y489193D01*
X363644Y488537D01*
X365062Y487119D01*
X365602Y485815D01*
X366976D01*
X367516Y487119D01*
X368934Y488537D01*
X370519Y489193D01*
Y484264D01*
X373059D01*
Y489193D01*
X374644Y488537D01*
X376062Y487119D01*
X376602Y485815D01*
X377976D01*
X378516Y487119D01*
X379934Y488537D01*
X381519Y489193D01*
Y484264D01*
X382789D01*
Y482994D01*
X387718D01*
X387062Y481409D01*
X385644Y479991D01*
X384340Y479451D01*
Y478077D01*
X385644Y477537D01*
X387062Y476119D01*
X387718Y474534D01*
X382789D01*
Y471994D01*
X387718D01*
X387062Y470409D01*
X385644Y468991D01*
X384340Y468451D01*
Y467077D01*
X385644Y466537D01*
X387062Y465119D01*
X387718Y463534D01*
X382789D01*
Y460994D01*
X387718D01*
X387062Y459409D01*
X385644Y457991D01*
X384340Y457451D01*
Y456077D01*
X385644Y455537D01*
X387062Y454119D01*
X387718Y452534D01*
X382789D01*
Y451264D01*
X381519D01*
Y446335D01*
X379934Y446991D01*
X378516Y448409D01*
X377976Y449713D01*
X376602D01*
X376062Y448409D01*
X374644Y446991D01*
X373059Y446335D01*
Y451264D01*
X370519D01*
Y446335D01*
X368934Y446991D01*
X367516Y448409D01*
X366976Y449713D01*
X365602D01*
X365062Y448409D01*
X363644Y446991D01*
X362059Y446335D01*
Y451264D01*
X359519D01*
Y446335D01*
X357934Y446991D01*
X356516Y448409D01*
X355976Y449713D01*
X354602D01*
X354062Y448409D01*
X352644Y446991D01*
X351059Y446335D01*
Y451264D01*
X349789D01*
Y452534D01*
X344860D01*
X345516Y454119D01*
X346934Y455537D01*
X348238Y456077D01*
Y457451D01*
X346934Y457991D01*
X345516Y459409D01*
X344860Y460994D01*
X349789D01*
Y463534D01*
X344860D01*
X345516Y465119D01*
X346934Y466537D01*
X348238Y467077D01*
Y468451D01*
X346934Y468991D01*
X345516Y470409D01*
X344860Y471994D01*
X349789D01*
Y474534D01*
X344860D01*
X345516Y476119D01*
X346934Y477537D01*
X348238Y478077D01*
Y479451D01*
X346934Y479991D01*
X345516Y481409D01*
X344860Y482994D01*
X349789D01*
Y484264D01*
X351059D01*
Y489193D01*
D02*
G37*
G36*
X348519D02*
Y485534D01*
X344860D01*
X345516Y487119D01*
X346934Y488537D01*
X348519Y489193D01*
D02*
G37*
G36*
X384059D02*
X385644Y488537D01*
X387062Y487119D01*
X387718Y485534D01*
X384059D01*
Y489193D01*
D02*
G37*
G36*
X169748Y504070D02*
X172258D01*
X174682Y503420D01*
X176856Y502165D01*
X178631Y500391D01*
X179885Y498217D01*
X180535Y495793D01*
Y493283D01*
X179885Y490859D01*
X178631Y488685D01*
X176856Y486911D01*
X174682Y485656D01*
X172258Y485006D01*
X169748D01*
X167324Y485656D01*
X165150Y486911D01*
X163376Y488685D01*
X162121Y490859D01*
X161471Y493283D01*
Y495793D01*
X162121Y498217D01*
X163376Y500391D01*
X165150Y502165D01*
X167324Y503420D01*
X169748Y504070D01*
D02*
G37*
G36*
X401235Y487680D02*
X404937D01*
Y483978D01*
X403330Y484643D01*
X401900Y486072D01*
X401235Y487680D01*
D02*
G37*
G36*
X407477D02*
X411180D01*
X410514Y486072D01*
X409085Y484643D01*
X407477Y483978D01*
Y487680D01*
D02*
G37*
G36*
X765617Y485575D02*
Y480498D01*
X760540D01*
X761504Y482825D01*
X763290Y484611D01*
X765617Y485575D01*
D02*
G37*
G36*
X768157D02*
X770484Y484611D01*
X772270Y482825D01*
X773234Y480498D01*
X768157D01*
Y485575D01*
D02*
G37*
G36*
X699685Y480568D02*
X703387D01*
Y476866D01*
X701779Y477531D01*
X700350Y478960D01*
X699685Y480568D01*
D02*
G37*
G36*
X705927D02*
X709630D01*
X708964Y478960D01*
X707535Y477531D01*
X705927Y476866D01*
Y480568D01*
D02*
G37*
G36*
X671745Y480060D02*
X675447D01*
Y476357D01*
X673839Y477023D01*
X672410Y478452D01*
X671745Y480060D01*
D02*
G37*
G36*
X677987D02*
X681690D01*
X681024Y478452D01*
X679595Y477023D01*
X677987Y476357D01*
Y480060D01*
D02*
G37*
G36*
X760540Y477958D02*
X765617D01*
Y472881D01*
X763290Y473845D01*
X761504Y475631D01*
X760540Y477958D01*
D02*
G37*
G36*
X768157D02*
X773234D01*
X772270Y475631D01*
X770484Y473845D01*
X768157Y472881D01*
Y477958D01*
D02*
G37*
G36*
X216436Y493746D02*
X220533D01*
X224630D01*
Y492941D01*
X224404Y491804D01*
X223760Y490840D01*
X223051Y490366D01*
X223049Y490360D01*
X222968Y489357D01*
X223051Y488955D01*
X223393Y488726D01*
X223925Y487930D01*
X224112Y486991D01*
Y482841D01*
X223925Y481902D01*
X223393Y481106D01*
X222597Y480574D01*
X221658Y480387D01*
X220391D01*
X220303Y480369D01*
X205878D01*
X205285Y478159D01*
X204031Y475985D01*
X202256Y474211D01*
X200082Y472956D01*
X197658Y472306D01*
X195148D01*
X192724Y472956D01*
X190550Y474211D01*
X188776Y475985D01*
X187521Y478159D01*
X186871Y480583D01*
Y483093D01*
X187521Y485517D01*
X188776Y487691D01*
X190550Y489465D01*
X192724Y490720D01*
X195148Y491370D01*
X197658D01*
X200082Y490720D01*
X202256Y489465D01*
X204031Y487691D01*
X204370Y487103D01*
X216976D01*
X217141Y487930D01*
X217673Y488726D01*
X218015Y488955D01*
X218098Y489357D01*
X218017Y490360D01*
X218015Y490366D01*
X217306Y490840D01*
X216662Y491804D01*
X216436Y492941D01*
Y493746D01*
D02*
G37*
G36*
X123759Y475126D02*
Y471424D01*
X120057D01*
X120722Y473032D01*
X122151Y474461D01*
X123759Y475126D01*
D02*
G37*
G36*
X708467Y469030D02*
X710075Y468365D01*
X711504Y466936D01*
X712170Y465328D01*
X708467D01*
Y469030D01*
D02*
G37*
G36*
X120057Y468884D02*
X123759D01*
Y465182D01*
X122151Y465847D01*
X120722Y467276D01*
X120057Y468884D01*
D02*
G37*
G36*
X169748Y478670D02*
X172258D01*
X174682Y478020D01*
X176856Y476766D01*
X178631Y474991D01*
X179885Y472817D01*
X180535Y470393D01*
Y467883D01*
X179885Y465459D01*
X178631Y463285D01*
X176856Y461511D01*
X174682Y460256D01*
X172258Y459606D01*
X169748D01*
X167324Y460256D01*
X165150Y461511D01*
X163376Y463285D01*
X162121Y465459D01*
X162037Y465771D01*
X134959D01*
X134493Y465074D01*
X134151Y464845D01*
X134068Y464443D01*
X134149Y463440D01*
X134151Y463434D01*
X134860Y462961D01*
X135504Y461996D01*
X135730Y460859D01*
Y460054D01*
X131633D01*
X127536D01*
Y460859D01*
X127762Y461996D01*
X128406Y462961D01*
X129115Y463434D01*
X129117Y463440D01*
X129198Y464443D01*
X129115Y464845D01*
X128773Y465074D01*
X127975Y465786D01*
X127075Y465503D01*
X126299Y465182D01*
Y470154D01*
Y475126D01*
X127907Y474461D01*
X129312Y473055D01*
X129569Y473226D01*
X130508Y473413D01*
X132758D01*
X133697Y473226D01*
X134493Y472694D01*
X134620Y472505D01*
X162037D01*
X162121Y472817D01*
X163376Y474991D01*
X165150Y476766D01*
X167324Y478020D01*
X169748Y478670D01*
D02*
G37*
G36*
X700339Y468522D02*
Y464820D01*
X696637D01*
X697302Y466428D01*
X698732Y467857D01*
X700339Y468522D01*
D02*
G37*
G36*
X916239Y464459D02*
X917847Y463793D01*
X917890Y463749D01*
X917934Y463793D01*
X919541Y464459D01*
Y459486D01*
X920811D01*
Y458216D01*
X925784D01*
X925205Y456819D01*
X925784Y455422D01*
X920811D01*
Y454152D01*
X919541D01*
Y449179D01*
X917934Y449845D01*
X917803Y449976D01*
X916493Y449434D01*
Y454406D01*
X915223D01*
Y455676D01*
X910251D01*
X910650Y456639D01*
X909997Y458216D01*
X914969D01*
Y459486D01*
X916239D01*
Y464459D01*
D02*
G37*
G36*
X294447Y466491D02*
Y462788D01*
X290745D01*
X291410Y464396D01*
X292840Y465825D01*
X294447Y466491D01*
D02*
G37*
G36*
X296987D02*
X298595Y465825D01*
X300024Y464396D01*
X300690Y462788D01*
X296987D01*
Y466491D01*
D02*
G37*
G36*
X404937Y465728D02*
Y462026D01*
X401235D01*
X401900Y463634D01*
X403330Y465063D01*
X404937Y465728D01*
D02*
G37*
G36*
X407477D02*
X409085Y465063D01*
X410514Y463634D01*
X411180Y462026D01*
X407477D01*
Y465728D01*
D02*
G37*
G36*
X913699Y464459D02*
Y460756D01*
X909997D01*
X910662Y462364D01*
X912092Y463793D01*
X913699Y464459D01*
D02*
G37*
G36*
X922081D02*
X923689Y463793D01*
X925118Y462364D01*
X925784Y460756D01*
X922081D01*
Y464459D01*
D02*
G37*
G36*
X708467Y462788D02*
X712170D01*
X711504Y461180D01*
X710075Y459751D01*
X708467Y459086D01*
Y462788D01*
D02*
G37*
G36*
X696637Y462280D02*
X700339D01*
Y458577D01*
X698732Y459243D01*
X697302Y460672D01*
X696637Y462280D01*
D02*
G37*
G36*
X705927Y469030D02*
Y464058D01*
Y459086D01*
X704797Y459554D01*
X704487Y459243D01*
X702879Y458577D01*
Y463550D01*
Y468522D01*
X704009Y468054D01*
X704320Y468365D01*
X705927Y469030D01*
D02*
G37*
G36*
X290745Y460248D02*
X294447D01*
Y456545D01*
X292840Y457211D01*
X291410Y458640D01*
X290745Y460248D01*
D02*
G37*
G36*
X296987D02*
X300690D01*
X300024Y458640D01*
X298595Y457211D01*
X296987Y456545D01*
Y460248D01*
D02*
G37*
G36*
X401235Y459486D02*
X404937D01*
Y455784D01*
X403330Y456449D01*
X401900Y457878D01*
X401235Y459486D01*
D02*
G37*
G36*
X407477D02*
X411180D01*
X410514Y457878D01*
X409085Y456449D01*
X407477Y455784D01*
Y459486D01*
D02*
G37*
G36*
X127536Y457514D02*
X130363D01*
Y453766D01*
X129371Y453963D01*
X128406Y454607D01*
X127762Y455572D01*
X127536Y456709D01*
Y457514D01*
D02*
G37*
G36*
X132903D02*
X135730D01*
Y456709D01*
X135504Y455572D01*
X134860Y454607D01*
X133895Y453963D01*
X132903Y453766D01*
Y457514D01*
D02*
G37*
G36*
X910251Y453136D02*
X913953D01*
Y449434D01*
X912346Y450099D01*
X910916Y451528D01*
X910251Y453136D01*
D02*
G37*
G36*
X922081Y452882D02*
X925784D01*
X925118Y451274D01*
X923689Y449845D01*
X922081Y449179D01*
Y452882D01*
D02*
G37*
G36*
X186871Y465970D02*
X205935D01*
Y446906D01*
X186871D01*
Y465970D01*
D02*
G37*
G36*
X344860Y449994D02*
X348519D01*
Y446335D01*
X346934Y446991D01*
X345516Y448409D01*
X344860Y449994D01*
D02*
G37*
G36*
X384059D02*
X387718D01*
X387062Y448409D01*
X385644Y446991D01*
X384059Y446335D01*
Y449994D01*
D02*
G37*
G36*
X523663Y476758D02*
X525987D01*
X528134Y475869D01*
X529778Y474225D01*
X530667Y472078D01*
Y469754D01*
X529778Y467607D01*
X528134Y465963D01*
X525987Y465074D01*
X523663D01*
X521516Y465963D01*
X520438Y467041D01*
X492843D01*
X472889Y447087D01*
Y444844D01*
X472000Y442697D01*
X470356Y441053D01*
X468209Y440164D01*
X465885D01*
X463738Y441053D01*
X462094Y442697D01*
X461205Y444844D01*
Y447168D01*
X462094Y449315D01*
X463738Y450959D01*
X465885Y451848D01*
X468128D01*
X489068Y472789D01*
X490160Y473518D01*
X491449Y473775D01*
X519686D01*
X519872Y474225D01*
X521516Y475869D01*
X523663Y476758D01*
D02*
G37*
G36*
X169748Y453270D02*
X172258D01*
X174682Y452620D01*
X176856Y451366D01*
X178631Y449591D01*
X179885Y447417D01*
X180535Y444993D01*
Y442483D01*
X179885Y440059D01*
X178631Y437885D01*
X176856Y436110D01*
X174682Y434856D01*
X172258Y434206D01*
X169748D01*
X167324Y434856D01*
X165150Y436110D01*
X163376Y437885D01*
X162121Y440059D01*
X161471Y442483D01*
Y444993D01*
X162121Y447417D01*
X163376Y449591D01*
X165150Y451366D01*
X167324Y452620D01*
X169748Y453270D01*
D02*
G37*
G36*
X293939Y437026D02*
Y433324D01*
X290237D01*
X290902Y434932D01*
X292332Y436361D01*
X293939Y437026D01*
D02*
G37*
G36*
X296479D02*
X298087Y436361D01*
X299516Y434932D01*
X300182Y433324D01*
X296479D01*
Y437026D01*
D02*
G37*
G36*
X345247Y431946D02*
Y428244D01*
X341545D01*
X342210Y429852D01*
X343639Y431281D01*
X345247Y431946D01*
D02*
G37*
G36*
X347787D02*
X349395Y431281D01*
X350824Y429852D01*
X351490Y428244D01*
X347787D01*
Y431946D01*
D02*
G37*
G36*
X290237Y430784D02*
X293939D01*
Y427081D01*
X292332Y427747D01*
X290902Y429176D01*
X290237Y430784D01*
D02*
G37*
G36*
X296479D02*
X300182D01*
X299516Y429176D01*
X298087Y427747D01*
X296479Y427081D01*
Y430784D01*
D02*
G37*
G36*
X341545Y425704D02*
X345247D01*
Y422001D01*
X343639Y422667D01*
X342210Y424096D01*
X341545Y425704D01*
D02*
G37*
G36*
X347787D02*
X351490D01*
X350824Y424096D01*
X349395Y422667D01*
X347787Y422001D01*
Y425704D01*
D02*
G37*
G36*
X105737Y448970D02*
X109269D01*
X112734Y448281D01*
X115997Y446929D01*
X118934Y444967D01*
X121432Y442469D01*
X123394Y439532D01*
X124746Y436269D01*
X125435Y432804D01*
Y429272D01*
X124746Y425807D01*
X123394Y422544D01*
X121432Y419607D01*
X118934Y417109D01*
X115997Y415147D01*
X112734Y413795D01*
X109269Y413106D01*
X105737D01*
X102273Y413795D01*
X99009Y415147D01*
X96072Y417109D01*
X93574Y419607D01*
X91612Y422544D01*
X90260Y425807D01*
X89571Y429272D01*
Y432804D01*
X90260Y436269D01*
X91612Y439532D01*
X93574Y442469D01*
X96072Y444967D01*
X99009Y446929D01*
X102273Y448281D01*
X105737Y448970D01*
D02*
G37*
G36*
X768519Y463709D02*
X770843D01*
X772990Y462820D01*
X774634Y461177D01*
X775523Y459029D01*
Y456705D01*
X774634Y454558D01*
X773048Y452972D01*
Y417068D01*
X772792Y415780D01*
X772062Y414687D01*
X750682Y393307D01*
X749589Y392578D01*
X749453Y392551D01*
X748980Y391407D01*
X747336Y389763D01*
X745189Y388874D01*
X742865D01*
X740718Y389763D01*
X739074Y391407D01*
X738185Y393554D01*
Y395878D01*
X739074Y398025D01*
X740718Y399669D01*
X742865Y400558D01*
X745189D01*
X747336Y399669D01*
X747428Y399576D01*
X766314Y418462D01*
Y452972D01*
X764728Y454558D01*
X763839Y456705D01*
Y459029D01*
X764728Y461177D01*
X766372Y462820D01*
X768519Y463709D01*
D02*
G37*
G36*
X762823Y386735D02*
Y383032D01*
X759121D01*
X759786Y384640D01*
X761216Y386069D01*
X762823Y386735D01*
D02*
G37*
G36*
X765363D02*
X766971Y386069D01*
X768400Y384640D01*
X769066Y383032D01*
X765363D01*
Y386735D01*
D02*
G37*
G36*
X759121Y380492D02*
X762823D01*
Y376790D01*
X761216Y377455D01*
X759786Y378884D01*
X759121Y380492D01*
D02*
G37*
G36*
X765363D02*
X769066D01*
X768400Y378884D01*
X766971Y377455D01*
X765363Y376790D01*
Y380492D01*
D02*
G37*
G36*
X856041Y376828D02*
X857649Y376163D01*
X859078Y374734D01*
X859744Y373126D01*
X856041D01*
Y376828D01*
D02*
G37*
G36*
X847913Y376575D02*
Y372872D01*
X844211D01*
X844876Y374480D01*
X846305Y375909D01*
X847913Y376575D01*
D02*
G37*
G36*
X1017585Y368447D02*
X1019193Y367781D01*
X1020125Y366848D01*
X1020804Y367527D01*
X1022411Y368192D01*
Y363220D01*
X1023681D01*
Y361950D01*
X1028654D01*
X1027988Y360342D01*
X1027690Y360045D01*
X1027734Y360002D01*
X1028400Y358394D01*
X1023427D01*
Y357124D01*
X1022157D01*
Y352151D01*
X1020549Y352817D01*
X1019236Y354131D01*
X1018685Y353579D01*
X1017077Y352914D01*
Y357886D01*
X1015807D01*
Y359156D01*
X1010835D01*
X1011500Y360764D01*
X1011811Y361074D01*
X1011343Y362204D01*
X1016315D01*
Y363474D01*
X1017585D01*
Y368447D01*
D02*
G37*
G36*
X1015045D02*
Y364744D01*
X1011343D01*
X1012008Y366352D01*
X1013438Y367781D01*
X1015045Y368447D01*
D02*
G37*
G36*
X1024951Y368192D02*
X1026559Y367527D01*
X1027988Y366098D01*
X1028654Y364490D01*
X1024951D01*
Y368192D01*
D02*
G37*
G36*
X855787Y364998D02*
X859490D01*
X858824Y363390D01*
X857395Y361961D01*
X855787Y361296D01*
Y364998D01*
D02*
G37*
G36*
X843957Y364490D02*
X847659D01*
Y360788D01*
X846051Y361453D01*
X844622Y362882D01*
X843957Y364490D01*
D02*
G37*
G36*
X853501Y376828D02*
Y371856D01*
X854771D01*
Y370586D01*
X859744D01*
X859078Y368978D01*
X858947Y368848D01*
X859490Y367538D01*
X854517D01*
Y366268D01*
X853247D01*
Y361296D01*
X852117Y361764D01*
X851807Y361453D01*
X850199Y360788D01*
Y365760D01*
X848929D01*
Y367030D01*
X843957D01*
X844622Y368638D01*
X844827Y368843D01*
X844211Y370332D01*
X849183D01*
Y371602D01*
X850453D01*
Y376575D01*
X851763Y376032D01*
X851893Y376163D01*
X853501Y376828D01*
D02*
G37*
G36*
X1010835Y356616D02*
X1014537D01*
Y352914D01*
X1012930Y353579D01*
X1011500Y355008D01*
X1010835Y356616D01*
D02*
G37*
G36*
X1024697Y355854D02*
X1028400D01*
X1027734Y354246D01*
X1026305Y352817D01*
X1024697Y352151D01*
Y355854D01*
D02*
G37*
G36*
X746687Y359604D02*
X748987D01*
X751112Y358724D01*
X752739Y357097D01*
X753619Y354972D01*
Y352672D01*
X752739Y350547D01*
X751112Y348920D01*
X748987Y348040D01*
X746687D01*
X744562Y348920D01*
X742935Y350547D01*
X742055Y352672D01*
Y354972D01*
X742935Y357097D01*
X744562Y358724D01*
X746687Y359604D01*
D02*
G37*
G36*
X421193Y310788D02*
Y307086D01*
X417491D01*
X418156Y308694D01*
X419585Y310123D01*
X421193Y310788D01*
D02*
G37*
G36*
X423733D02*
X425341Y310123D01*
X426770Y308694D01*
X427436Y307086D01*
X423733D01*
Y310788D01*
D02*
G37*
G36*
X319847Y310534D02*
Y306832D01*
X316145D01*
X316810Y308440D01*
X318239Y309869D01*
X319847Y310534D01*
D02*
G37*
G36*
X322387D02*
X323995Y309869D01*
X325424Y308440D01*
X326090Y306832D01*
X322387D01*
Y310534D01*
D02*
G37*
G36*
X417491Y304546D02*
X421193D01*
Y300844D01*
X419585Y301509D01*
X418156Y302938D01*
X417491Y304546D01*
D02*
G37*
G36*
X423733D02*
X427436D01*
X426770Y302938D01*
X425341Y301509D01*
X423733Y300844D01*
Y304546D01*
D02*
G37*
G36*
X316145Y304292D02*
X319847D01*
Y300590D01*
X318239Y301255D01*
X316810Y302684D01*
X316145Y304292D01*
D02*
G37*
G36*
X322387D02*
X326090D01*
X325424Y302684D01*
X323995Y301255D01*
X322387Y300590D01*
Y304292D01*
D02*
G37*
G36*
X379537Y296311D02*
Y292608D01*
X375835D01*
X376500Y294216D01*
X377929Y295645D01*
X379537Y296311D01*
D02*
G37*
G36*
X382077D02*
X383685Y295645D01*
X385114Y294216D01*
X385780Y292608D01*
X382077D01*
Y296311D01*
D02*
G37*
G36*
X375835Y290068D02*
X379537D01*
Y286366D01*
X377929Y287031D01*
X376500Y288460D01*
X375835Y290068D01*
D02*
G37*
G36*
X382077D02*
X385780D01*
X385114Y288460D01*
X383685Y287031D01*
X382077Y286366D01*
Y290068D01*
D02*
G37*
G36*
X86159Y297469D02*
X91399D01*
X93235Y297227D01*
X94945Y296518D01*
X96414Y295391D01*
X97542Y293922D01*
X98250Y292212D01*
X98492Y290376D01*
X98250Y288540D01*
X97542Y286830D01*
X96414Y285361D01*
X94945Y284234D01*
X93235Y283525D01*
X91399Y283283D01*
X86159D01*
X84323Y283525D01*
X82613Y284234D01*
X81144Y285361D01*
X80017Y286830D01*
X79308Y288540D01*
X79066Y290376D01*
X79308Y292212D01*
X80017Y293922D01*
X81144Y295391D01*
X82613Y296518D01*
X84323Y297227D01*
X86159Y297469D01*
D02*
G37*
G36*
X347787Y282848D02*
Y279146D01*
X344085D01*
X344750Y280754D01*
X346180Y282183D01*
X347787Y282848D01*
D02*
G37*
G36*
X350327D02*
X351935Y282183D01*
X353364Y280754D01*
X354030Y279146D01*
X350327D01*
Y282848D01*
D02*
G37*
G36*
X585785Y279547D02*
Y275844D01*
X582083D01*
X582748Y277452D01*
X584178Y278881D01*
X585785Y279547D01*
D02*
G37*
G36*
X588325D02*
X589933Y278881D01*
X591362Y277452D01*
X592028Y275844D01*
X588325D01*
Y279547D01*
D02*
G37*
G36*
X582083Y273304D02*
X585785D01*
Y269601D01*
X584178Y270267D01*
X582748Y271696D01*
X582083Y273304D01*
D02*
G37*
G36*
X588325D02*
X592028D01*
X591362Y271696D01*
X589933Y270267D01*
X588325Y269601D01*
Y273304D01*
D02*
G37*
G36*
X353483Y261366D02*
X357185D01*
Y257663D01*
X355578Y258329D01*
X354148Y259758D01*
X353483Y261366D01*
D02*
G37*
G36*
X359725D02*
X363428D01*
X362762Y259758D01*
X361333Y258329D01*
X359725Y257663D01*
Y261366D01*
D02*
G37*
G36*
X110563Y289458D02*
X114095D01*
X117560Y288769D01*
X120823Y287417D01*
X123760Y285455D01*
X126258Y282957D01*
X128220Y280020D01*
X129572Y276757D01*
X130261Y273292D01*
Y269760D01*
X129572Y266295D01*
X128220Y263032D01*
X126258Y260095D01*
X123760Y257597D01*
X120823Y255635D01*
X117560Y254283D01*
X114095Y253594D01*
X110563D01*
X107099Y254283D01*
X103835Y255635D01*
X100898Y257597D01*
X98400Y260095D01*
X96438Y263032D01*
X95086Y266295D01*
X94397Y269760D01*
Y273292D01*
X95086Y276757D01*
X96438Y280020D01*
X98400Y282957D01*
X100898Y285455D01*
X103835Y287417D01*
X107099Y288769D01*
X110563Y289458D01*
D02*
G37*
G36*
X818449Y254401D02*
X820057Y253735D01*
X820667Y253124D01*
X821497Y252317D01*
X822327Y253124D01*
X822937Y253735D01*
X824545Y254401D01*
Y249428D01*
Y244456D01*
X822937Y245121D01*
X822327Y245732D01*
X821497Y246539D01*
X820667Y245732D01*
X820057Y245121D01*
X818449Y244456D01*
Y249428D01*
Y254401D01*
D02*
G37*
G36*
X815909D02*
Y250698D01*
X812207D01*
X812872Y252306D01*
X814302Y253735D01*
X815909Y254401D01*
D02*
G37*
G36*
X827085D02*
X828693Y253735D01*
X830122Y252306D01*
X830788Y250698D01*
X827085D01*
Y254401D01*
D02*
G37*
G36*
X199974Y268358D02*
X202484D01*
X204908Y267708D01*
X207082Y266453D01*
X208857Y264679D01*
X210111Y262505D01*
X210761Y260081D01*
Y257571D01*
X210111Y255147D01*
X208857Y252973D01*
X207082Y251199D01*
X204908Y249944D01*
X202484Y249294D01*
X199974D01*
X197550Y249944D01*
X195376Y251199D01*
X193602Y252973D01*
X192347Y255147D01*
X191697Y257571D01*
Y260081D01*
X192347Y262505D01*
X193602Y264679D01*
X195376Y266453D01*
X197550Y267708D01*
X199974Y268358D01*
D02*
G37*
G36*
X812207Y248158D02*
X815909D01*
Y244456D01*
X814302Y245121D01*
X812872Y246550D01*
X812207Y248158D01*
D02*
G37*
G36*
X827085D02*
X830788D01*
X830122Y246550D01*
X828693Y245121D01*
X827085Y244456D01*
Y248158D01*
D02*
G37*
G36*
X322641Y246780D02*
X324249Y246115D01*
X325678Y244686D01*
X326344Y243078D01*
X322641D01*
Y246780D01*
D02*
G37*
G36*
X592643Y243986D02*
X594251Y243321D01*
X595056Y242515D01*
X595607Y243067D01*
X597215Y243732D01*
Y238760D01*
Y233787D01*
X595607Y234453D01*
X594802Y235259D01*
X594251Y234707D01*
X592643Y234042D01*
Y239014D01*
Y243986D01*
D02*
G37*
G36*
X345955Y243679D02*
X347540Y243023D01*
X348958Y241605D01*
X349498Y240301D01*
X350872D01*
X351412Y241605D01*
X352830Y243023D01*
X354415Y243679D01*
Y238750D01*
X356955D01*
Y243679D01*
X358540Y243023D01*
X359958Y241605D01*
X360498Y240301D01*
X361872D01*
X362412Y241605D01*
X363830Y243023D01*
X365415Y243679D01*
Y238750D01*
X367955D01*
Y243679D01*
X369540Y243023D01*
X370958Y241605D01*
X371498Y240301D01*
X372872D01*
X373412Y241605D01*
X374830Y243023D01*
X376415Y243679D01*
Y238750D01*
X377685D01*
Y237480D01*
X382614D01*
X381958Y235895D01*
X380540Y234477D01*
X379236Y233937D01*
Y232563D01*
X380540Y232023D01*
X381958Y230605D01*
X382614Y229020D01*
X377685D01*
Y226480D01*
X382614D01*
X381958Y224895D01*
X380540Y223477D01*
X379236Y222937D01*
Y221563D01*
X380540Y221023D01*
X381958Y219605D01*
X382614Y218020D01*
X377685D01*
Y215480D01*
X382614D01*
X381958Y213895D01*
X380540Y212477D01*
X379236Y211937D01*
Y210563D01*
X380540Y210023D01*
X381958Y208605D01*
X382614Y207020D01*
X377685D01*
Y205750D01*
X376415D01*
Y200821D01*
X374830Y201477D01*
X373412Y202895D01*
X372872Y204199D01*
X371498D01*
X370958Y202895D01*
X369540Y201477D01*
X367955Y200821D01*
Y205750D01*
X365415D01*
Y200821D01*
X363830Y201477D01*
X362412Y202895D01*
X361872Y204199D01*
X360498D01*
X359958Y202895D01*
X358540Y201477D01*
X356955Y200821D01*
Y205750D01*
X354415D01*
Y200821D01*
X352830Y201477D01*
X351412Y202895D01*
X350872Y204199D01*
X349498D01*
X348958Y202895D01*
X347540Y201477D01*
X345955Y200821D01*
Y205750D01*
X344685D01*
Y207020D01*
X339756D01*
X340412Y208605D01*
X341830Y210023D01*
X343134Y210563D01*
Y211937D01*
X341830Y212477D01*
X340412Y213895D01*
X339756Y215480D01*
X344685D01*
Y218020D01*
X339756D01*
X340412Y219605D01*
X341830Y221023D01*
X343134Y221563D01*
Y222937D01*
X341830Y223477D01*
X340412Y224895D01*
X339756Y226480D01*
X344685D01*
Y229020D01*
X339756D01*
X340412Y230605D01*
X341830Y232023D01*
X343134Y232563D01*
Y233937D01*
X341830Y234477D01*
X340412Y235895D01*
X339756Y237480D01*
X344685D01*
Y238750D01*
X345955D01*
Y243679D01*
D02*
G37*
G36*
X590103Y243986D02*
Y240284D01*
X586401D01*
X587066Y241892D01*
X588495Y243321D01*
X590103Y243986D01*
D02*
G37*
G36*
X599755Y243732D02*
X601363Y243067D01*
X602792Y241638D01*
X603458Y240030D01*
X599755D01*
Y243732D01*
D02*
G37*
G36*
X343415Y243679D02*
Y240020D01*
X339756D01*
X340412Y241605D01*
X341830Y243023D01*
X343415Y243679D01*
D02*
G37*
G36*
X378955D02*
X380540Y243023D01*
X381958Y241605D01*
X382614Y240020D01*
X378955D01*
Y243679D01*
D02*
G37*
G36*
X322641Y240538D02*
X326344D01*
X325678Y238930D01*
X324249Y237501D01*
X322641Y236835D01*
Y240538D01*
D02*
G37*
G36*
X174574Y255658D02*
X177084D01*
X179508Y255008D01*
X181682Y253754D01*
X183457Y251979D01*
X184711Y249805D01*
X185361Y247381D01*
Y244871D01*
X184711Y242447D01*
X183457Y240273D01*
X181682Y238498D01*
X179508Y237244D01*
X177084Y236594D01*
X174574D01*
X172150Y237244D01*
X169976Y238498D01*
X168202Y240273D01*
X167059Y242251D01*
X148772D01*
X148741Y242096D01*
X148209Y241300D01*
X147867Y241071D01*
X147784Y240669D01*
X147865Y239666D01*
X147867Y239660D01*
X148576Y239187D01*
X149220Y238222D01*
X149446Y237085D01*
Y236280D01*
X145349D01*
X141252D01*
Y237085D01*
X141478Y238222D01*
X142122Y239187D01*
X142831Y239660D01*
X142833Y239666D01*
X142914Y240669D01*
X142831Y241071D01*
X142489Y241300D01*
X141957Y242096D01*
X141770Y243035D01*
Y247185D01*
X141957Y248124D01*
X142489Y248920D01*
X143285Y249452D01*
X144224Y249639D01*
X146474D01*
X147413Y249452D01*
X148113Y248985D01*
X166727D01*
X166947Y249805D01*
X168202Y251979D01*
X169976Y253754D01*
X172150Y255008D01*
X174574Y255658D01*
D02*
G37*
G36*
X586401Y237744D02*
X590103D01*
Y234042D01*
X588495Y234707D01*
X587066Y236136D01*
X586401Y237744D01*
D02*
G37*
G36*
X599755Y237490D02*
X603458D01*
X602792Y235882D01*
X601363Y234453D01*
X599755Y233787D01*
Y237490D01*
D02*
G37*
G36*
X141252Y233740D02*
X144079D01*
Y229992D01*
X143087Y230189D01*
X142122Y230833D01*
X141478Y231798D01*
X141252Y232935D01*
Y233740D01*
D02*
G37*
G36*
X146619D02*
X149446D01*
Y232935D01*
X149220Y231798D01*
X148576Y230833D01*
X147611Y230189D01*
X146619Y229992D01*
Y233740D01*
D02*
G37*
G36*
X274635Y229254D02*
Y225552D01*
X270933D01*
X271598Y227160D01*
X273027Y228589D01*
X274635Y229254D01*
D02*
G37*
G36*
X277175D02*
X278783Y228589D01*
X280212Y227160D01*
X280878Y225552D01*
X277175D01*
Y229254D01*
D02*
G37*
G36*
X199974Y242958D02*
X202484D01*
X204908Y242308D01*
X207082Y241054D01*
X208857Y239279D01*
X210111Y237105D01*
X210761Y234681D01*
Y232171D01*
X210111Y229747D01*
X208857Y227573D01*
X207082Y225798D01*
X204908Y224544D01*
X202484Y223894D01*
X199974D01*
X197550Y224544D01*
X195376Y225798D01*
X193602Y227573D01*
X192347Y229747D01*
X191697Y232171D01*
Y234681D01*
X192347Y237105D01*
X193602Y239279D01*
X195376Y241054D01*
X197550Y242308D01*
X199974Y242958D01*
D02*
G37*
G36*
X899221Y227477D02*
Y223774D01*
X895519D01*
X896184Y225382D01*
X897614Y226811D01*
X899221Y227477D01*
D02*
G37*
G36*
X901761D02*
X903369Y226811D01*
X904798Y225382D01*
X905464Y223774D01*
X901761D01*
Y227477D01*
D02*
G37*
G36*
X429429Y226314D02*
X433131D01*
Y222612D01*
X431524Y223277D01*
X430094Y224706D01*
X429429Y226314D01*
D02*
G37*
G36*
X137535Y222029D02*
X138340D01*
X139477Y221803D01*
X140442Y221159D01*
X140915Y220450D01*
X140921Y220448D01*
X141924Y220367D01*
X142326Y220450D01*
X142555Y220792D01*
X143351Y221324D01*
X144290Y221511D01*
X148440D01*
X149379Y221324D01*
X150175Y220792D01*
X150707Y219996D01*
X150894Y219057D01*
Y216807D01*
X150707Y215868D01*
X150175Y215072D01*
X149379Y214540D01*
X148440Y214353D01*
X144290D01*
X143351Y214540D01*
X142555Y215072D01*
X142326Y215414D01*
X141924Y215497D01*
X140921Y215416D01*
X140915Y215414D01*
X140442Y214705D01*
X139477Y214061D01*
X138340Y213835D01*
X137535D01*
Y217932D01*
Y222029D01*
D02*
G37*
G36*
X270933Y223012D02*
X274635D01*
Y219310D01*
X273027Y219975D01*
X271598Y221404D01*
X270933Y223012D01*
D02*
G37*
G36*
X277175D02*
X280878D01*
X280212Y221404D01*
X278783Y219975D01*
X277175Y219310D01*
Y223012D01*
D02*
G37*
G36*
X134190Y222029D02*
X134995D01*
Y219202D01*
X131247D01*
X131444Y220194D01*
X132088Y221159D01*
X133053Y221803D01*
X134190Y222029D01*
D02*
G37*
G36*
X895519Y221234D02*
X899221D01*
Y217532D01*
X897614Y218197D01*
X896184Y219626D01*
X895519Y221234D01*
D02*
G37*
G36*
X901761D02*
X905464D01*
X904798Y219626D01*
X903369Y218197D01*
X901761Y217532D01*
Y221234D01*
D02*
G37*
G36*
X556067Y217570D02*
X557675Y216905D01*
X557845Y216734D01*
X558016Y216905D01*
X559623Y217570D01*
Y212598D01*
X560893D01*
Y211328D01*
X565866D01*
X565200Y209720D01*
X564013Y208534D01*
X564320Y207398D01*
X564403Y207264D01*
X564851D01*
X566531Y206568D01*
X567817Y205282D01*
X568513Y203601D01*
Y201783D01*
X567817Y200102D01*
X566531Y198816D01*
X564851Y198120D01*
X563032D01*
X561351Y198816D01*
X560065Y200102D01*
X559369Y201783D01*
Y203601D01*
X560065Y205282D01*
X561031Y206248D01*
X560579Y207518D01*
X559883D01*
X558016Y208291D01*
X557845Y208462D01*
X557675Y208291D01*
X556067Y207626D01*
Y212598D01*
Y217570D01*
D02*
G37*
G36*
X553527D02*
Y213868D01*
X549825D01*
X550490Y215476D01*
X551920Y216905D01*
X553527Y217570D01*
D02*
G37*
G36*
X562163D02*
X563771Y216905D01*
X565200Y215476D01*
X565866Y213868D01*
X562163D01*
Y217570D01*
D02*
G37*
G36*
X131247Y216662D02*
X134995D01*
Y213835D01*
X134190D01*
X133053Y214061D01*
X132088Y214705D01*
X131444Y215670D01*
X131247Y216662D01*
D02*
G37*
G36*
X400111Y217062D02*
Y213360D01*
X396409D01*
X397074Y214968D01*
X398503Y216397D01*
X400111Y217062D01*
D02*
G37*
G36*
X402651D02*
X404259Y216397D01*
X405688Y214968D01*
X406354Y213360D01*
X402651D01*
Y217062D01*
D02*
G37*
G36*
X174574Y230258D02*
X177084D01*
X179508Y229608D01*
X181682Y228354D01*
X183457Y226579D01*
X184711Y224405D01*
X185361Y221981D01*
Y219471D01*
X184711Y217047D01*
X183457Y214873D01*
X181682Y213099D01*
X179508Y211844D01*
X177084Y211194D01*
X174574D01*
X172150Y211844D01*
X169976Y213099D01*
X168202Y214873D01*
X166947Y217047D01*
X166297Y219471D01*
Y221981D01*
X166947Y224405D01*
X168202Y226579D01*
X169976Y228354D01*
X172150Y229608D01*
X174574Y230258D01*
D02*
G37*
G36*
X274381Y213761D02*
Y210058D01*
X270679D01*
X271344Y211666D01*
X272773Y213095D01*
X274381Y213761D01*
D02*
G37*
G36*
X276921D02*
X278529Y213095D01*
X279958Y211666D01*
X280624Y210058D01*
X276921D01*
Y213761D01*
D02*
G37*
G36*
X228915Y212236D02*
X230523Y211571D01*
X231952Y210142D01*
X232618Y208534D01*
X228915D01*
Y212236D01*
D02*
G37*
G36*
X549825Y211328D02*
X553527D01*
Y207626D01*
X551920Y208291D01*
X550490Y209720D01*
X549825Y211328D01*
D02*
G37*
G36*
X396409Y210820D02*
X400111D01*
Y207118D01*
X398503Y207783D01*
X397074Y209212D01*
X396409Y210820D01*
D02*
G37*
G36*
X402651D02*
X406354D01*
X405688Y209212D01*
X404259Y207783D01*
X402651Y207118D01*
Y210820D01*
D02*
G37*
G36*
X270679Y207518D02*
X274381D01*
Y203815D01*
X272773Y204481D01*
X271344Y205910D01*
X270679Y207518D01*
D02*
G37*
G36*
X276921D02*
X280624D01*
X279958Y205910D01*
X278529Y204481D01*
X276921Y203815D01*
Y207518D01*
D02*
G37*
G36*
X228915Y205994D02*
X232618D01*
X231952Y204386D01*
X230523Y202957D01*
X228915Y202292D01*
Y205994D01*
D02*
G37*
G36*
X339756Y204480D02*
X343415D01*
Y200821D01*
X341830Y201477D01*
X340412Y202895D01*
X339756Y204480D01*
D02*
G37*
G36*
X378955D02*
X382614D01*
X381958Y202895D01*
X380540Y201477D01*
X378955Y200821D01*
Y204480D01*
D02*
G37*
G36*
X214912Y203200D02*
X217739D01*
Y199452D01*
X216747Y199649D01*
X215783Y200293D01*
X215138Y201258D01*
X214912Y202395D01*
Y203200D01*
D02*
G37*
G36*
X213675Y223839D02*
X217521D01*
X218810Y223582D01*
X219902Y222853D01*
X221390Y221365D01*
X222120Y220273D01*
X222376Y218984D01*
Y217623D01*
X222401Y217584D01*
X222588Y216645D01*
Y212495D01*
X222401Y211556D01*
X222072Y211062D01*
X222279Y209955D01*
X223339Y210142D01*
X224767Y211571D01*
X226375Y212236D01*
Y207264D01*
Y202292D01*
X224767Y202957D01*
X224376Y203349D01*
X223106Y202823D01*
Y202395D01*
X222880Y201258D01*
X222236Y200293D01*
X221271Y199649D01*
X220279Y199452D01*
Y204470D01*
X219009D01*
Y205740D01*
X214912D01*
Y206545D01*
X215138Y207682D01*
X215783Y208647D01*
X216491Y209120D01*
X216493Y209126D01*
X216574Y210129D01*
X216491Y210531D01*
X216149Y210760D01*
X215617Y211556D01*
X215430Y212495D01*
Y215669D01*
X214160Y216196D01*
X209950Y211985D01*
X210111Y211705D01*
X210761Y209281D01*
Y206771D01*
X210111Y204347D01*
X208857Y202173D01*
X207082Y200399D01*
X204908Y199144D01*
X202484Y198494D01*
X199974D01*
X197550Y199144D01*
X195376Y200399D01*
X193602Y202173D01*
X192347Y204347D01*
X191697Y206771D01*
Y209281D01*
X192347Y211705D01*
X193602Y213879D01*
X195376Y215653D01*
X197550Y216908D01*
X199974Y217558D01*
X202484D01*
X204908Y216908D01*
X205189Y216747D01*
X211294Y222853D01*
X212387Y223582D01*
X213675Y223839D01*
D02*
G37*
G36*
X137970Y200693D02*
X138775D01*
Y197866D01*
X135027D01*
X135224Y198858D01*
X135869Y199823D01*
X136833Y200467D01*
X137970Y200693D01*
D02*
G37*
G36*
X135027Y195326D02*
X138775D01*
Y192499D01*
X137970D01*
X136833Y192725D01*
X135869Y193369D01*
X135224Y194334D01*
X135027Y195326D01*
D02*
G37*
G36*
X174574Y204858D02*
X177084D01*
X179508Y204208D01*
X181682Y202953D01*
X183457Y201179D01*
X184711Y199005D01*
X185361Y196581D01*
Y194071D01*
X184711Y191647D01*
X183457Y189473D01*
X181682Y187698D01*
X179508Y186444D01*
X177084Y185794D01*
X174574D01*
X172150Y186444D01*
X169976Y187698D01*
X168202Y189473D01*
X166947Y191647D01*
X166863Y191959D01*
X161219D01*
X159931Y192216D01*
X158839Y192945D01*
X158555Y193229D01*
X153198D01*
X153159Y193204D01*
X152220Y193017D01*
X148070D01*
X147131Y193204D01*
X146335Y193736D01*
X146106Y194078D01*
X145704Y194161D01*
X144701Y194080D01*
X144695Y194078D01*
X144222Y193369D01*
X143257Y192725D01*
X142120Y192499D01*
X141315D01*
Y196596D01*
Y200693D01*
X142120D01*
X143257Y200467D01*
X144222Y199823D01*
X144695Y199114D01*
X144701Y199112D01*
X145704Y199031D01*
X146106Y199114D01*
X146335Y199456D01*
X147131Y199988D01*
X148070Y200175D01*
X152220D01*
X153159Y199988D01*
X153198Y199963D01*
X159949D01*
X161238Y199706D01*
X162330Y198977D01*
X162614Y198693D01*
X166863D01*
X166947Y199005D01*
X168202Y201179D01*
X169976Y202953D01*
X172150Y204208D01*
X174574Y204858D01*
D02*
G37*
G36*
X340421Y185821D02*
Y182118D01*
X336719D01*
X337384Y183726D01*
X338814Y185155D01*
X340421Y185821D01*
D02*
G37*
G36*
X342961D02*
X344569Y185155D01*
X345998Y183726D01*
X346664Y182118D01*
X342961D01*
Y185821D01*
D02*
G37*
G36*
X447355Y180487D02*
X448963Y179821D01*
X449260Y179523D01*
X449557Y179821D01*
X451165Y180487D01*
Y175514D01*
Y170541D01*
X449557Y171207D01*
X449260Y171505D01*
X448963Y171207D01*
X447355Y170541D01*
Y175514D01*
Y180487D01*
D02*
G37*
G36*
X444815D02*
Y176784D01*
X441113D01*
X441778Y178392D01*
X443208Y179821D01*
X444815Y180487D01*
D02*
G37*
G36*
X453705D02*
X455313Y179821D01*
X456742Y178392D01*
X457408Y176784D01*
X453705D01*
Y180487D01*
D02*
G37*
G36*
X336719Y179578D02*
X340421D01*
Y175875D01*
X338814Y176541D01*
X337384Y177970D01*
X336719Y179578D01*
D02*
G37*
G36*
X342961D02*
X346664D01*
X345998Y177970D01*
X344569Y176541D01*
X342961Y175875D01*
Y179578D01*
D02*
G37*
G36*
X191697Y192158D02*
X210761D01*
Y173094D01*
X191697D01*
Y192158D01*
D02*
G37*
G36*
X441113Y174244D02*
X444815D01*
Y170541D01*
X443208Y171207D01*
X441778Y172636D01*
X441113Y174244D01*
D02*
G37*
G36*
X453705D02*
X457408D01*
X456742Y172636D01*
X455313Y171207D01*
X453705Y170541D01*
Y174244D01*
D02*
G37*
G36*
X174574Y179458D02*
X177084D01*
X179508Y178808D01*
X181682Y177554D01*
X183457Y175779D01*
X184711Y173605D01*
X185361Y171181D01*
Y168671D01*
X184711Y166247D01*
X183457Y164073D01*
X181682Y162299D01*
X179508Y161044D01*
X177084Y160394D01*
X174574D01*
X172150Y161044D01*
X169976Y162299D01*
X168202Y164073D01*
X166947Y166247D01*
X166297Y168671D01*
Y171181D01*
X166947Y173605D01*
X168202Y175779D01*
X169976Y177554D01*
X172150Y178808D01*
X174574Y179458D01*
D02*
G37*
G36*
X648777Y153308D02*
Y149606D01*
X645075D01*
X645740Y151214D01*
X647169Y152643D01*
X648777Y153308D01*
D02*
G37*
G36*
X651317D02*
X652925Y152643D01*
X654354Y151214D01*
X655020Y149606D01*
X651317D01*
Y153308D01*
D02*
G37*
G36*
X645075Y147066D02*
X648777D01*
Y143364D01*
X647169Y144029D01*
X645740Y145458D01*
X645075Y147066D01*
D02*
G37*
G36*
X651317D02*
X655020D01*
X654354Y145458D01*
X652925Y144029D01*
X651317Y143364D01*
Y147066D01*
D02*
G37*
G36*
X110563Y175158D02*
X114095D01*
X117560Y174469D01*
X120823Y173117D01*
X123760Y171155D01*
X126258Y168657D01*
X128220Y165720D01*
X129572Y162457D01*
X130261Y158992D01*
Y155460D01*
X129572Y151995D01*
X128220Y148732D01*
X126258Y145795D01*
X123760Y143297D01*
X120823Y141335D01*
X117560Y139983D01*
X114095Y139294D01*
X110563D01*
X107099Y139983D01*
X103835Y141335D01*
X100898Y143297D01*
X98400Y145795D01*
X96438Y148732D01*
X95086Y151995D01*
X94397Y155460D01*
Y158992D01*
X95086Y162457D01*
X96438Y165720D01*
X98400Y168657D01*
X100898Y171155D01*
X103835Y173117D01*
X107099Y174469D01*
X110563Y175158D01*
D02*
G37*
G36*
X567243Y142894D02*
Y139192D01*
X563541D01*
X564206Y140800D01*
X565635Y142229D01*
X567243Y142894D01*
D02*
G37*
G36*
X569783D02*
X571391Y142229D01*
X572820Y140800D01*
X573486Y139192D01*
X569783D01*
Y142894D01*
D02*
G37*
G36*
X563541Y136652D02*
X567243D01*
Y132949D01*
X565635Y133615D01*
X564206Y135044D01*
X563541Y136652D01*
D02*
G37*
G36*
X569783D02*
X573486D01*
X572820Y135044D01*
X571391Y133615D01*
X569783Y132949D01*
Y136652D01*
D02*
G37*
G36*
X809807Y152654D02*
X840807D01*
X842512Y152430D01*
X844101Y151772D01*
X845466Y150725D01*
X846513Y149360D01*
X847171Y147771D01*
X847395Y146066D01*
Y137066D01*
X847171Y135361D01*
X846513Y133772D01*
X845466Y132407D01*
X844101Y131360D01*
X842512Y130702D01*
X840807Y130478D01*
X809807D01*
X808102Y130702D01*
X806513Y131360D01*
X805148Y132407D01*
X804101Y133772D01*
X803443Y135361D01*
X803219Y137066D01*
Y146066D01*
X803443Y147771D01*
X804101Y149360D01*
X805148Y150725D01*
X806513Y151772D01*
X808102Y152430D01*
X809807Y152654D01*
D02*
G37*
G36*
X85159Y144469D02*
X90399D01*
X92235Y144227D01*
X93945Y143518D01*
X95414Y142391D01*
X96542Y140922D01*
X97250Y139212D01*
X97492Y137376D01*
X97250Y135540D01*
X96542Y133830D01*
X95414Y132361D01*
X93945Y131234D01*
X92235Y130525D01*
X90399Y130283D01*
X85159D01*
X83323Y130525D01*
X81613Y131234D01*
X80144Y132361D01*
X79017Y133830D01*
X78308Y135540D01*
X78066Y137376D01*
X78308Y139212D01*
X79017Y140922D01*
X80144Y142391D01*
X81613Y143518D01*
X83323Y144227D01*
X85159Y144469D01*
D02*
G37*
G36*
X772807Y134167D02*
X776037D01*
Y112836D01*
X765706D01*
Y127066D01*
X765948Y128904D01*
X766658Y130616D01*
X767786Y132087D01*
X769257Y133215D01*
X770969Y133925D01*
X772807Y134167D01*
D02*
G37*
G36*
X778577D02*
X781807D01*
X783645Y133925D01*
X785357Y133215D01*
X786828Y132087D01*
X787956Y130616D01*
X788666Y128904D01*
X788908Y127066D01*
Y112836D01*
X778577D01*
Y134167D01*
D02*
G37*
G36*
X930717Y110382D02*
Y106680D01*
X927015D01*
X927680Y108288D01*
X929109Y109717D01*
X930717Y110382D01*
D02*
G37*
G36*
X933257D02*
X934865Y109717D01*
X936294Y108288D01*
X936960Y106680D01*
X933257D01*
Y110382D01*
D02*
G37*
G36*
X927015Y104140D02*
X936960D01*
X936294Y102532D01*
X935996Y102235D01*
X936040Y102192D01*
X936706Y100584D01*
X926761D01*
X927426Y102192D01*
X927724Y102489D01*
X927680Y102532D01*
X927015Y104140D01*
D02*
G37*
G36*
X926761Y98044D02*
X930463D01*
Y94341D01*
X928856Y95007D01*
X927426Y96436D01*
X926761Y98044D01*
D02*
G37*
G36*
X933003D02*
X936706D01*
X936040Y96436D01*
X934611Y95007D01*
X933003Y94341D01*
Y98044D01*
D02*
G37*
G36*
X765706Y110296D02*
X776037D01*
Y88965D01*
X772807D01*
X770969Y89207D01*
X769257Y89917D01*
X767786Y91045D01*
X766658Y92516D01*
X765948Y94228D01*
X765706Y96066D01*
Y110296D01*
D02*
G37*
G36*
X778577D02*
X788908D01*
Y96066D01*
X788666Y94228D01*
X787956Y92516D01*
X786828Y91045D01*
X785357Y89917D01*
X783645Y89207D01*
X781807Y88965D01*
X778577D01*
Y110296D01*
D02*
G37*
G36*
X809807Y95167D02*
X824037D01*
Y84836D01*
X802706D01*
Y88066D01*
X802948Y89904D01*
X803658Y91616D01*
X804786Y93087D01*
X806257Y94215D01*
X807969Y94925D01*
X809807Y95167D01*
D02*
G37*
G36*
X826577D02*
X840807D01*
X842645Y94925D01*
X844357Y94215D01*
X845828Y93087D01*
X846956Y91616D01*
X847666Y89904D01*
X847908Y88066D01*
Y84836D01*
X826577D01*
Y95167D01*
D02*
G37*
G36*
X498663Y79903D02*
Y76200D01*
X494961D01*
X495626Y77808D01*
X497056Y79237D01*
X498663Y79903D01*
D02*
G37*
G36*
X501203D02*
X502811Y79237D01*
X504240Y77808D01*
X504906Y76200D01*
X501203D01*
Y79903D01*
D02*
G37*
G36*
X802706Y82296D02*
X824037D01*
Y71965D01*
X809807D01*
X807969Y72207D01*
X806257Y72917D01*
X804786Y74045D01*
X803658Y75516D01*
X802948Y77228D01*
X802706Y79066D01*
Y82296D01*
D02*
G37*
G36*
X826577D02*
X847908D01*
Y79066D01*
X847666Y77228D01*
X846956Y75516D01*
X845828Y74045D01*
X844357Y72917D01*
X842645Y72207D01*
X840807Y71965D01*
X826577D01*
Y82296D01*
D02*
G37*
G36*
X494961Y73660D02*
X498663D01*
Y69957D01*
X497056Y70623D01*
X495626Y72052D01*
X494961Y73660D01*
D02*
G37*
G36*
X501203D02*
X504906D01*
X504240Y72052D01*
X502811Y70623D01*
X501203Y69957D01*
Y73660D01*
D02*
G37*
G36*
X1025986Y77752D02*
X1031028D01*
X1036008Y76963D01*
X1040803Y75405D01*
X1045295Y73116D01*
X1049374Y70153D01*
X1052940Y66587D01*
X1055903Y62508D01*
X1058192Y58016D01*
X1059750Y53221D01*
X1060539Y48241D01*
Y43199D01*
X1059750Y38219D01*
X1058192Y33424D01*
X1055903Y28932D01*
X1052940Y24853D01*
X1049374Y21287D01*
X1045295Y18324D01*
X1040803Y16035D01*
X1036008Y14477D01*
X1031028Y13688D01*
X1025986D01*
X1021006Y14477D01*
X1016211Y16035D01*
X1011719Y18324D01*
X1007640Y21287D01*
X1004074Y24853D01*
X1001111Y28932D01*
X998822Y33424D01*
X997264Y38219D01*
X996475Y43199D01*
Y48241D01*
X997264Y53221D01*
X998822Y58016D01*
X1001111Y62508D01*
X1004074Y66587D01*
X1007640Y70153D01*
X1011719Y73116D01*
X1016211Y75405D01*
X1021006Y76963D01*
X1025986Y77752D01*
D02*
G37*
G36*
X115396Y72672D02*
X120438D01*
X125418Y71883D01*
X130213Y70325D01*
X134705Y68036D01*
X138785Y65073D01*
X142350Y61507D01*
X145313Y57428D01*
X147602Y52936D01*
X149160Y48141D01*
X149949Y43161D01*
Y38119D01*
X149160Y33139D01*
X147602Y28344D01*
X145313Y23852D01*
X142350Y19773D01*
X138785Y16207D01*
X134705Y13244D01*
X130213Y10955D01*
X125418Y9397D01*
X120438Y8608D01*
X115396D01*
X110416Y9397D01*
X105621Y10955D01*
X101129Y13244D01*
X97050Y16207D01*
X93484Y19773D01*
X90521Y23852D01*
X88232Y28344D01*
X86674Y33139D01*
X85885Y38119D01*
Y43161D01*
X86674Y48141D01*
X88232Y52936D01*
X90521Y57428D01*
X93484Y61507D01*
X97050Y65073D01*
X101129Y68036D01*
X105621Y70325D01*
X110416Y71883D01*
X115396Y72672D01*
D02*
G37*
%LPD*%
D12*
X592389Y676148D02*
X561655Y706882D01*
X592389Y655574D02*
Y676148D01*
X561655Y706882D02*
Y719328D01*
X411287Y732282D02*
X395285Y716280D01*
X372679D01*
X194347Y837462D02*
X179615D01*
X179385Y837692D01*
X194625Y837184D02*
X194347Y837462D01*
X197673Y837184D02*
X194625D01*
X172273Y824484D02*
X141793D01*
X141509Y773684D02*
X141285Y773460D01*
X172273Y773684D02*
X141509D01*
X214437Y786354D02*
X214422Y786369D01*
X197688D01*
X197673Y786384D01*
X174463Y537718D02*
X173513D01*
X174693Y537488D02*
X174463Y537718D01*
X175001Y532638D02*
X174693Y532946D01*
Y537488D01*
X196403Y532638D02*
X175001D01*
X149413Y519938D02*
X140717Y511242D01*
X171003Y519938D02*
X149413D01*
X140717Y511242D02*
X131887D01*
X220533Y483966D02*
X220303Y483736D01*
X198301D02*
X196403Y481838D01*
X220533Y483966D02*
Y484916D01*
X220303Y483736D02*
X198301D01*
X131863Y469138D02*
X131633Y468908D01*
Y468884D02*
Y468908D01*
X171003Y469138D02*
X131863D01*
X145579Y245618D02*
X145349Y245388D01*
X175829Y246126D02*
X175321Y245618D01*
X145579D01*
X145349Y245110D02*
Y245388D01*
X161219Y195326D02*
X159949Y196596D01*
X175829Y195326D02*
X161219D01*
X159949Y196596D02*
X150145D01*
X219009Y214570D02*
Y218984D01*
X213675Y220472D02*
X201229Y208026D01*
X219009Y218984D02*
X217521Y220472D01*
X213675D01*
X700085Y589534D02*
Y611886D01*
X556829Y424326D02*
Y454152D01*
X568659Y412496D02*
X556829Y424326D01*
X576895Y401066D02*
X576641Y400812D01*
X586547Y394970D02*
Y440271D01*
X576895Y401066D02*
Y490728D01*
X586547Y440271D02*
X582737Y444081D01*
X600771Y506041D02*
X582737Y488008D01*
Y444081D02*
Y488008D01*
X606405Y416789D02*
Y418164D01*
X615050Y398319D02*
Y412496D01*
X607938Y419697D02*
Y642675D01*
Y419697D02*
X606405Y418164D01*
X614995Y412551D02*
Y484821D01*
X615050Y412496D02*
X614995Y412551D01*
X608645Y643382D02*
X607938Y642675D01*
X600771Y506041D02*
Y554228D01*
X593151Y506984D02*
Y543052D01*
Y506984D02*
X576895Y490728D01*
X614995Y484821D02*
X612510Y487306D01*
Y558202D01*
X619912Y555546D02*
X619622Y555256D01*
X619912Y555546D02*
Y560663D01*
X816713Y741722D02*
X629219Y554228D01*
X816713Y741722D02*
Y742188D01*
X615249Y560941D02*
X612510Y558202D01*
X319593Y440944D02*
X318958Y441579D01*
Y460277D01*
X318323Y460912D01*
X801939Y847344D02*
X787972Y833377D01*
X835975Y847344D02*
X801939D01*
X842113Y841206D02*
X835975Y847344D01*
X787972Y728723D02*
X619912Y560663D01*
X787972Y728723D02*
Y833377D01*
X842113Y818388D02*
Y841206D01*
X615249Y560941D02*
Y632968D01*
X527365Y561086D02*
X527111Y561340D01*
X545145Y561086D02*
X527365D01*
X553273Y569214D02*
X545145Y561086D01*
X553273Y604265D02*
X549971Y607567D01*
X553273Y569214D02*
Y604265D01*
X549971Y607567D02*
Y638810D01*
X537271Y676402D02*
X520507Y659638D01*
Y626364D02*
Y659638D01*
X560639Y676402D02*
X537271D01*
X531937Y590804D02*
Y658622D01*
X545399Y577342D02*
X531937Y590804D01*
X546161Y577342D02*
X545399D01*
X769681Y417068D02*
X748301Y395688D01*
X744999D01*
X769681Y417068D02*
Y457867D01*
X744999Y395688D02*
X744027Y394716D01*
X648999Y503396D02*
X643748Y498145D01*
X706708Y503396D02*
X648999D01*
X717024Y501762D02*
X715067Y499805D01*
X714660D02*
X709426Y494571D01*
X709426D01*
X718399Y501762D02*
X717024D01*
X715067Y499805D02*
X714660D01*
X709426Y494571D02*
X701773Y486918D01*
X643697D01*
X622107Y465328D01*
X643748Y497027D02*
Y498145D01*
X491449Y470408D02*
X467047Y446006D01*
X524317Y470408D02*
X491449D01*
X524825Y470916D02*
X524317Y470408D01*
D86*
X108773Y735584D02*
D03*
Y849884D02*
D03*
X107503Y545338D02*
D03*
Y431038D02*
D03*
X112329Y157226D02*
D03*
Y271526D02*
D03*
D87*
X172273Y799084D02*
D03*
X197673Y786384D02*
D03*
X172273Y824484D02*
D03*
X197673Y811784D02*
D03*
Y837184D02*
D03*
X172273Y773684D02*
D03*
Y748284D02*
D03*
X171003Y443738D02*
D03*
Y469138D02*
D03*
X196403Y532638D02*
D03*
Y507238D02*
D03*
X171003Y519938D02*
D03*
X196403Y481838D02*
D03*
X171003Y494538D02*
D03*
X816713Y742188D02*
D03*
Y767588D02*
D03*
Y792988D02*
D03*
X842113Y818388D02*
D03*
Y792988D02*
D03*
Y767588D02*
D03*
Y742188D02*
D03*
X175829Y220726D02*
D03*
X201229Y208026D02*
D03*
X175829Y246126D02*
D03*
X201229Y233426D02*
D03*
Y258826D02*
D03*
X175829Y195326D02*
D03*
Y169926D02*
D03*
D88*
X197673Y760984D02*
D03*
X196403Y456438D02*
D03*
X816713Y818388D02*
D03*
X201229Y182626D02*
D03*
D93*
X1016823Y500926D02*
D03*
D94*
Y525926D02*
D03*
Y550926D02*
D03*
Y575926D02*
D03*
Y600926D02*
D03*
Y625926D02*
D03*
D99*
X747837Y353822D02*
D03*
D103*
X311719Y268986D02*
Y270017D01*
X308163Y273573D02*
Y461264D01*
X311719Y270017D02*
X308163Y273573D01*
X573052Y708439D02*
X572323Y709168D01*
X573052Y705899D02*
Y708439D01*
X599247Y679704D02*
X573052Y705899D01*
X599247Y668855D02*
Y679704D01*
X610677Y657425D02*
X599247Y668855D01*
X610677Y657098D02*
Y657425D01*
X320863Y743951D02*
Y744982D01*
X315021Y532892D02*
Y738109D01*
X320863Y743951D02*
X315021Y738109D01*
Y479164D02*
X308163Y472305D01*
X315021Y479164D02*
Y532892D01*
X365821Y741934D02*
X323657D01*
X431099Y242570D02*
X406715D01*
X380045Y269240D02*
X311973D01*
X312448Y265644D02*
Y268257D01*
X313243Y221996D02*
Y264849D01*
X312448Y265644D01*
Y268257D02*
X311719Y268986D01*
X311973Y269240D02*
X311719Y268986D01*
X550987Y228600D02*
X445069D01*
X431099Y242570D01*
X540319Y239268D02*
Y319024D01*
X550987Y228600D02*
X540319Y239268D01*
X540827Y319532D02*
X540319Y319024D01*
X540827Y319532D02*
Y382270D01*
X541335Y382778D02*
X540827Y382270D01*
X629219Y383286D02*
X628711Y382778D01*
X541335D01*
X406715Y242570D02*
X380045Y269240D01*
X308163Y461264D02*
Y472305D01*
X855787Y742188D02*
X842113D01*
X1003615D02*
X855787D01*
X1017077Y755650D02*
X1003615Y742188D01*
X862412Y748813D02*
Y787125D01*
Y748813D02*
X855787Y742188D01*
X842113D02*
X711811Y611886D01*
X856549Y792988D02*
X842113D01*
X862412Y787125D02*
X856549Y792988D01*
X711811Y611886D02*
X700085D01*
X551749Y227838D02*
X550987Y228600D01*
X569529Y227838D02*
X551749D01*
X589087Y208280D02*
X569529Y227838D01*
D104*
X84223Y715734D02*
D03*
X85223Y868734D02*
D03*
X83953Y564188D02*
D03*
X82953Y411188D02*
D03*
X87779Y137376D02*
D03*
X88779Y290376D02*
D03*
D105*
X569275Y941070D02*
D03*
X620075D02*
D03*
X594675D02*
D03*
X543875D02*
D03*
X518475D02*
D03*
D106*
X645475D02*
D03*
D107*
X1017077Y768350D02*
D03*
Y781050D02*
D03*
Y793750D02*
D03*
D108*
Y755650D02*
D03*
D109*
X777307Y111566D02*
D03*
D110*
X825307Y83566D02*
D03*
Y141566D02*
D03*
D111*
X1028507Y956310D02*
D03*
X116647Y957580D02*
D03*
X1028507Y45720D02*
D03*
X117917Y40640D02*
D03*
D112*
X701609Y463550D02*
D03*
X707197Y464058D02*
D03*
X692465Y511556D02*
D03*
X698053D02*
D03*
X704657Y481838D02*
D03*
X676717Y481330D02*
D03*
X639379Y490474D02*
D03*
X647761Y482600D02*
D03*
X764093Y381762D02*
D03*
X563941Y202692D02*
D03*
X587055Y274574D02*
D03*
X554797Y212598D02*
D03*
X560893D02*
D03*
X598485Y238760D02*
D03*
X591373Y239014D02*
D03*
X1023427Y357124D02*
D03*
X1015807Y357886D02*
D03*
X1016315Y363474D02*
D03*
X1023681Y363220D02*
D03*
X915223Y454406D02*
D03*
X920811Y454152D02*
D03*
X914969Y459486D02*
D03*
X920811D02*
D03*
X848929Y365760D02*
D03*
X854517Y366268D02*
D03*
X849183Y371602D02*
D03*
X854771Y371856D02*
D03*
X817179Y249428D02*
D03*
X825815D02*
D03*
X900491Y222504D02*
D03*
X931733Y99314D02*
D03*
X931987Y105410D02*
D03*
X568513Y137922D02*
D03*
X650047Y148336D02*
D03*
X499933Y74930D02*
D03*
X434401Y227584D02*
D03*
X401381Y212090D02*
D03*
X446085Y175514D02*
D03*
X452435D02*
D03*
X341691Y180848D02*
D03*
X227645Y207264D02*
D03*
X275651Y208788D02*
D03*
X275905Y224282D02*
D03*
X358455Y262636D02*
D03*
X321371Y241808D02*
D03*
X380807Y291338D02*
D03*
X349057Y277876D02*
D03*
X422463Y305816D02*
D03*
X321117Y305562D02*
D03*
X125029Y470154D02*
D03*
X221549Y503428D02*
D03*
X124521Y501142D02*
D03*
X163129Y545084D02*
D03*
X438211Y550672D02*
D03*
X444307D02*
D03*
X438973Y556768D02*
D03*
X444561Y557022D02*
D03*
X444053Y519684D02*
D03*
X406207Y488950D02*
D03*
Y460756D02*
D03*
X346517Y426974D02*
D03*
X295209Y432054D02*
D03*
X295717Y461518D02*
D03*
X326197Y496824D02*
D03*
X326451Y503428D02*
D03*
X331277Y542290D02*
D03*
X413319D02*
D03*
X371155Y537972D02*
D03*
X404429Y526034D02*
D03*
X382585Y827278D02*
D03*
X409509Y764540D02*
D03*
X361757Y713740D02*
D03*
X412303Y718058D02*
D03*
X389951Y723138D02*
D03*
X339659Y735076D02*
D03*
X340167Y748538D02*
D03*
X221803Y775462D02*
D03*
X167701Y845058D02*
D03*
X133919Y813308D02*
D03*
X133411Y784352D02*
D03*
X121219Y798830D02*
D03*
X121727Y806450D02*
D03*
X311719Y816356D02*
D03*
X316037Y780034D02*
D03*
X322387D02*
D03*
X333055Y822706D02*
D03*
X338643Y823468D02*
D03*
X410525Y892048D02*
D03*
X410017Y898144D02*
D03*
X261681Y868680D02*
D03*
X347279Y839470D02*
D03*
X360741Y859028D02*
D03*
X442275Y940308D02*
D03*
X449641Y940562D02*
D03*
D113*
X766887Y479228D02*
D03*
X610677Y657098D02*
D03*
X572323Y709168D02*
D03*
X561655Y719328D02*
D03*
X315021Y532892D02*
D03*
X320863Y744982D02*
D03*
X365821Y741934D02*
D03*
X372679Y716280D02*
D03*
X313243Y221996D02*
D03*
X311719Y268986D02*
D03*
X540319Y319024D02*
D03*
X629219Y383286D02*
D03*
X541335Y382778D02*
D03*
X308163Y461264D02*
D03*
X700085Y611886D02*
D03*
Y589534D02*
D03*
X412493Y243332D02*
D03*
X550987Y228600D02*
D03*
X589087Y208280D02*
D03*
X568659Y412496D02*
D03*
X576641Y400812D02*
D03*
X586547Y394970D02*
D03*
X615050Y398319D02*
D03*
X606405Y416789D02*
D03*
X600771Y554228D02*
D03*
X593151Y543052D02*
D03*
X619622Y555256D02*
D03*
X629219Y554228D02*
D03*
X319593Y440944D02*
D03*
X615249Y632968D02*
D03*
X608645Y643382D02*
D03*
X592389Y655574D02*
D03*
X527111Y561340D02*
D03*
X549971Y638810D02*
D03*
X531937Y658622D02*
D03*
X520507Y626364D02*
D03*
X560639Y676402D02*
D03*
X769681Y457867D02*
D03*
X718399Y501762D02*
D03*
X744027Y394716D02*
D03*
X706708Y503396D02*
D03*
X643748Y497027D02*
D03*
X622107Y465328D02*
D03*
X556829Y454152D02*
D03*
X411287Y732282D02*
D03*
X318323Y460912D02*
D03*
X467047Y446006D02*
D03*
X524825Y470916D02*
D03*
X546161Y577342D02*
D03*
D114*
X344685Y238750D02*
D03*
Y227750D02*
D03*
Y216750D02*
D03*
Y205750D02*
D03*
X355685Y238750D02*
D03*
Y227750D02*
D03*
Y216750D02*
D03*
Y205750D02*
D03*
X366685Y238750D02*
D03*
Y227750D02*
D03*
Y216750D02*
D03*
Y205750D02*
D03*
X377685Y238750D02*
D03*
Y227750D02*
D03*
Y216750D02*
D03*
Y205750D02*
D03*
X382829Y800598D02*
D03*
X371829D02*
D03*
X360829D02*
D03*
X349829D02*
D03*
X382829Y789598D02*
D03*
X371829D02*
D03*
X360829D02*
D03*
X349829D02*
D03*
X382829Y778598D02*
D03*
X371829D02*
D03*
X360829D02*
D03*
X349829D02*
D03*
X382829Y767598D02*
D03*
X371829D02*
D03*
X360829D02*
D03*
X349829D02*
D03*
X382789Y451264D02*
D03*
Y462264D02*
D03*
Y473264D02*
D03*
Y484264D02*
D03*
X371789Y451264D02*
D03*
Y462264D02*
D03*
Y473264D02*
D03*
Y484264D02*
D03*
X360789Y451264D02*
D03*
Y462264D02*
D03*
Y473264D02*
D03*
Y484264D02*
D03*
X349789Y451264D02*
D03*
Y462264D02*
D03*
Y473264D02*
D03*
Y484264D02*
D03*
D115*
X136265Y217932D02*
D03*
X146365D02*
D03*
X140045Y196596D02*
D03*
X150145D02*
D03*
X169285Y837692D02*
D03*
X179385D02*
D03*
X163413Y537718D02*
D03*
X173513D02*
D03*
D116*
X145349Y235010D02*
D03*
Y245110D02*
D03*
X219009Y204470D02*
D03*
Y214570D02*
D03*
X141793Y814384D02*
D03*
Y824484D02*
D03*
X214437Y776254D02*
D03*
Y786354D02*
D03*
X141285Y783560D02*
D03*
Y773460D02*
D03*
X131887Y501142D02*
D03*
Y511242D02*
D03*
X220533Y495016D02*
D03*
Y484916D02*
D03*
X131633Y458784D02*
D03*
Y468884D02*
D03*
M02*
