G04*
G04 #@! TF.GenerationSoftware,Altium Limited,Altium Designer,22.5.1 (42)*
G04*
G04 Layer_Color=65535*
%FSLAX44Y44*%
%MOMM*%
G71*
G04*
G04 #@! TF.SameCoordinates,2ABD4F99-51B0-466E-819A-8B20F5DB8373*
G04*
G04*
G04 #@! TF.FilePolarity,Positive*
G04*
G01*
G75*
%ADD11C,0.2000*%
%ADD119C,0.0500*%
D11*
X339087Y264986D02*
X331087D01*
Y280986D01*
X339087D02*
X331087D01*
X339087Y264986D02*
Y280986D01*
X324291Y807910D02*
X308291D01*
Y799910D02*
Y807910D01*
X324291Y799910D02*
X308291D01*
X324291D02*
Y807910D01*
X402845Y717940D02*
Y734940D01*
X395345D01*
Y717940D02*
Y734940D01*
X402845Y717940D02*
X395345D01*
X312925Y472630D02*
X296925D01*
Y464630D02*
Y472630D01*
X312925Y464630D02*
X296925D01*
X312925D02*
Y472630D01*
X311030Y437448D02*
X294030D01*
X311030D02*
Y444948D01*
X294030D01*
Y437448D02*
Y444948D01*
X1033823Y474926D02*
Y651926D01*
X993823D01*
Y474926D02*
Y651926D01*
X1033823Y474926D02*
X993823D01*
X616139Y176758D02*
Y268758D01*
X505139D01*
Y176758D02*
Y268758D01*
X616139Y176758D02*
X505139D01*
X487935Y565702D02*
X470210D01*
Y556978D02*
Y565702D01*
X487935Y556978D02*
X470210D01*
X487935D02*
Y565702D01*
X403499Y581372D02*
X341499D01*
Y545372D02*
Y581372D01*
X403499Y545372D02*
X341499D01*
X403499D02*
Y581372D01*
X350961Y520128D02*
X334961D01*
Y512128D02*
Y520128D01*
X350961Y512128D02*
X334961D01*
X350961D02*
Y520128D01*
X390141Y510096D02*
Y526096D01*
X382141D01*
Y510096D02*
Y526096D01*
X390141Y510096D02*
X382141D01*
X433545Y458368D02*
Y506868D01*
X453545Y458368D02*
X433545D01*
X453545D02*
Y506868D01*
X433545D01*
X556261Y281139D02*
Y295864D01*
X548761D01*
Y281139D02*
Y295864D01*
X556261Y281139D02*
X548761D01*
X574295Y281478D02*
Y296203D01*
X566795D01*
Y281478D02*
Y296203D01*
X574295Y281478D02*
X566795D01*
X555887Y6950D02*
Y66250D01*
Y6950D02*
X469887D01*
Y66250D01*
X555887D02*
X469887D01*
X547495Y306214D02*
Y324214D01*
X555495Y306214D02*
X547495D01*
X555495D02*
Y324214D01*
X547495D01*
X566291Y306396D02*
Y324396D01*
X574291Y306396D02*
X566291D01*
X574291D02*
Y324396D01*
X566291D01*
X456111Y208374D02*
X407611D01*
Y188374D02*
Y208374D01*
X456111Y188374D02*
X407611D01*
X456111D02*
Y208374D01*
X904241Y266661D02*
X896741D01*
Y281386D01*
X904241D02*
X896741D01*
X904241Y266661D02*
Y281386D01*
X324658Y768935D02*
X308657D01*
Y760936D02*
Y768935D01*
X324658Y760936D02*
X308657D01*
X324658D02*
Y768935D01*
X361821Y721678D02*
Y737678D01*
X369821Y721678D02*
X361821D01*
X369821D02*
Y737678D01*
X361821D01*
X304217Y200720D02*
X287217D01*
X304217D02*
Y208220D01*
X287217D01*
Y200720D02*
Y208220D01*
X384299Y262828D02*
Y278828D01*
X376299D01*
Y262828D02*
Y278828D01*
X384299Y262828D02*
X376299D01*
X305241Y225996D02*
X289241D01*
Y217996D02*
Y225996D01*
X305241Y217996D02*
X289241D01*
X305241D02*
Y225996D01*
X422589Y224346D02*
X406589D01*
X422589D02*
Y232346D01*
X406589D01*
Y224346D02*
Y232346D01*
X621555Y408206D02*
Y425930D01*
X630279Y408206D02*
X621555D01*
X630279D02*
Y425930D01*
X621555D01*
X803491Y564279D02*
Y585004D01*
X792767D01*
Y564279D02*
Y585004D01*
X803491Y564279D02*
X792767D01*
X769837Y339322D02*
X725837D01*
X769837D02*
Y368322D01*
X725837D01*
Y339322D02*
Y368322D01*
X757429Y377146D02*
X739704D01*
X757429D02*
Y385870D01*
X739704D01*
Y377146D02*
Y385870D01*
X669053Y408206D02*
Y425930D01*
X677777Y408206D02*
X669053D01*
X677777D02*
Y425930D01*
X669053D01*
X487713Y548938D02*
X469989D01*
Y540214D02*
Y548938D01*
X487713Y540214D02*
X469989D01*
X487713D02*
Y548938D01*
X637303Y408238D02*
Y425963D01*
X646027Y408238D02*
X637303D01*
X646027D02*
Y425963D01*
X637303D01*
X653051Y408173D02*
Y425898D01*
X661775Y408173D02*
X653051D01*
X661775D02*
Y425898D01*
X653051D01*
X519701Y408746D02*
Y426471D01*
X528425Y408746D02*
X519701D01*
X528425D02*
Y426471D01*
X519701D01*
X504207Y408778D02*
Y426503D01*
X512931Y408778D02*
X504207D01*
X512931D02*
Y426503D01*
X504207D01*
X487459Y532174D02*
X469735D01*
Y523450D02*
Y532174D01*
X487459Y523450D02*
X469735D01*
X487459D02*
Y532174D01*
X903983Y227148D02*
Y245148D01*
X895983D01*
Y227148D02*
Y245148D01*
X903983Y227148D02*
X895983D01*
X786957Y580476D02*
X748957D01*
Y559476D02*
Y580476D01*
X786957Y559476D02*
X748957D01*
X786957D02*
Y580476D01*
X398935Y900568D02*
X378935D01*
X398935Y852068D02*
Y900568D01*
Y852068D02*
X378935D01*
Y900568D01*
X742023Y585672D02*
X731299D01*
X742023Y564948D02*
Y585672D01*
Y564948D02*
X731299D01*
Y585672D01*
X682095Y607563D02*
X673371D01*
Y625288D01*
X682095D02*
X673371D01*
X682095Y607563D02*
Y625288D01*
X650599Y607563D02*
X641875D01*
Y625288D01*
X650599D02*
X641875D01*
X650599Y607563D02*
Y625288D01*
X666347Y607563D02*
X657623D01*
Y625288D01*
X666347D02*
X657623D01*
X666347Y607563D02*
Y625288D01*
X348381Y863380D02*
Y899380D01*
Y863380D02*
X286381D01*
Y899380D01*
X348381D02*
X286381D01*
X363979Y826326D02*
X355979D01*
Y842326D01*
X363979D02*
X355979D01*
X363979Y826326D02*
Y842326D01*
X418335Y470472D02*
X410335D01*
Y486472D01*
X418335D02*
X410335D01*
X418335Y470472D02*
Y486472D01*
X401467Y298992D02*
Y334992D01*
Y298992D02*
X339467D01*
Y334992D01*
X401467D02*
X339467D01*
D119*
X586975Y941070D02*
X576975D01*
X581975Y936070D02*
Y946070D01*
X661675Y925620D02*
Y956520D01*
Y925620D02*
X502275D01*
Y956520D01*
X661675D02*
X502275D01*
X830307Y78066D02*
X820307D01*
X825307Y73066D02*
Y83066D01*
X872307Y152566D02*
X766307D01*
Y3566D02*
Y152566D01*
X872307Y3566D02*
X766307D01*
X872307D02*
Y152566D01*
M02*
