G04*
G04 #@! TF.GenerationSoftware,Altium Limited,Altium Designer,22.5.1 (42)*
G04*
G04 Layer_Color=2752767*
%FSLAX44Y44*%
%MOMM*%
G71*
G04*
G04 #@! TF.SameCoordinates,2ABD4F99-51B0-466E-819A-8B20F5DB8373*
G04*
G04*
G04 #@! TF.FilePolarity,Positive*
G04*
G01*
G75*
%ADD124C,0.0677*%
%ADD125C,0.0339*%
%ADD126C,0.0508*%
D124*
X989496Y715734D02*
G03*
X989496Y715734I-2032J0D01*
G01*
X988496Y868734D02*
G03*
X988496Y868734I-2032J0D01*
G01*
X989766Y564188D02*
G03*
X989766Y564188I-2032J0D01*
G01*
X990766Y411188D02*
G03*
X990766Y411188I-2032J0D01*
G01*
X985940Y137376D02*
G03*
X985940Y137376I-2032J0D01*
G01*
X984940Y290376D02*
G03*
X984940Y290376I-2032J0D01*
G01*
X45212Y956310D02*
G03*
X45212Y956310I-2032J0D01*
G01*
X957072Y957580D02*
G03*
X957072Y957580I-2032J0D01*
G01*
X45212Y45720D02*
G03*
X45212Y45720I-2032J0D01*
G01*
X955802Y40640D02*
G03*
X955802Y40640I-2032J0D01*
G01*
D125*
X988480Y715734D02*
G03*
X988480Y715734I-1016J0D01*
G01*
X987480Y868734D02*
G03*
X987480Y868734I-1016J0D01*
G01*
X988750Y564188D02*
G03*
X988750Y564188I-1016J0D01*
G01*
X989750Y411188D02*
G03*
X989750Y411188I-1016J0D01*
G01*
X984924Y137376D02*
G03*
X984924Y137376I-1016J0D01*
G01*
X983924Y290376D02*
G03*
X983924Y290376I-1016J0D01*
G01*
D126*
X960882Y733552D02*
Y737616D01*
X964946D01*
Y733552D01*
X960882D01*
X961898Y734568D02*
Y736600D01*
X963930D01*
Y734568D01*
X961898D01*
X960882Y847852D02*
Y851916D01*
X964946D01*
Y847852D01*
X960882D01*
X961898Y848868D02*
Y850900D01*
X963930D01*
Y848868D01*
X961898D01*
X897382Y799084D02*
X899414Y801116D01*
X901446Y799084D01*
X899414Y797052D01*
X897382Y799084D01*
X871982Y786384D02*
X874014Y788416D01*
X876046Y786384D01*
X874014Y784352D01*
X871982Y786384D01*
X897382Y824484D02*
X899414Y826516D01*
X901446Y824484D01*
X899414Y822452D01*
X897382Y824484D01*
X871982Y811784D02*
X874014Y813816D01*
X876046Y811784D01*
X874014Y809752D01*
X871982Y811784D01*
Y837184D02*
X874014Y839216D01*
X876046Y837184D01*
X874014Y835152D01*
X871982Y837184D01*
X897382Y773684D02*
X899414Y775716D01*
X901446Y773684D01*
X899414Y771652D01*
X897382Y773684D01*
X871982Y760984D02*
X874014Y763016D01*
X876046Y760984D01*
X874014Y758952D01*
X871982Y760984D01*
X897382Y748284D02*
X899414Y750316D01*
X901446Y748284D01*
X899414Y746252D01*
X897382Y748284D01*
X898652Y443738D02*
X900684Y445770D01*
X902716Y443738D01*
X900684Y441706D01*
X898652Y443738D01*
X873252Y456438D02*
X875284Y458470D01*
X877316Y456438D01*
X875284Y454406D01*
X873252Y456438D01*
X898652Y469138D02*
X900684Y471170D01*
X902716Y469138D01*
X900684Y467106D01*
X898652Y469138D01*
X873252Y532638D02*
X875284Y534670D01*
X877316Y532638D01*
X875284Y530606D01*
X873252Y532638D01*
Y507238D02*
X875284Y509270D01*
X877316Y507238D01*
X875284Y505206D01*
X873252Y507238D01*
X898652Y519938D02*
X900684Y521970D01*
X902716Y519938D01*
X900684Y517906D01*
X898652Y519938D01*
X873252Y481838D02*
X875284Y483870D01*
X877316Y481838D01*
X875284Y479806D01*
X873252Y481838D01*
X898652Y494538D02*
X900684Y496570D01*
X902716Y494538D01*
X900684Y492506D01*
X898652Y494538D01*
X962152Y543306D02*
Y547370D01*
X966216D01*
Y543306D01*
X962152D01*
X963168Y544322D02*
Y546354D01*
X965200D01*
Y544322D01*
X963168D01*
X962152Y429006D02*
Y433070D01*
X966216D01*
Y429006D01*
X962152D01*
X963168Y430022D02*
Y432054D01*
X965200D01*
Y430022D01*
X963168D01*
X254974Y740156D02*
X255990Y741172D01*
X257006D01*
X255990Y742188D01*
X257006Y743204D01*
X255990D01*
X254974Y744220D01*
X253958Y743204D01*
X252942D01*
X253958Y742188D01*
X252942Y741172D01*
X253958D01*
X254974Y740156D01*
Y741172D02*
X255482Y741680D01*
X255990D01*
X255482Y742188D01*
X255990Y742696D01*
X255482D01*
X254974Y743204D01*
X254466Y742696D01*
X253958D01*
X254466Y742188D01*
X253958Y741680D01*
X254466D01*
X254974Y741172D01*
Y765556D02*
X255990Y766572D01*
X257006D01*
X255990Y767588D01*
X257006Y768604D01*
X255990D01*
X254974Y769620D01*
X253958Y768604D01*
X252942D01*
X253958Y767588D01*
X252942Y766572D01*
X253958D01*
X254974Y765556D01*
Y766572D02*
X255482Y767080D01*
X255990D01*
X255482Y767588D01*
X255990Y768096D01*
X255482D01*
X254974Y768604D01*
X254466Y768096D01*
X253958D01*
X254466Y767588D01*
X253958Y767080D01*
X254466D01*
X254974Y766572D01*
Y790956D02*
X255990Y791972D01*
X257006D01*
X255990Y792988D01*
X257006Y794004D01*
X255990D01*
X254974Y795020D01*
X253958Y794004D01*
X252942D01*
X253958Y792988D01*
X252942Y791972D01*
X253958D01*
X254974Y790956D01*
Y791972D02*
X255482Y792480D01*
X255990D01*
X255482Y792988D01*
X255990Y793496D01*
X255482D01*
X254974Y794004D01*
X254466Y793496D01*
X253958D01*
X254466Y792988D01*
X253958Y792480D01*
X254466D01*
X254974Y791972D01*
Y816356D02*
X255990Y817372D01*
X257006D01*
X255990Y818388D01*
X257006Y819404D01*
X255990D01*
X254974Y820420D01*
X253958Y819404D01*
X252942D01*
X253958Y818388D01*
X252942Y817372D01*
X253958D01*
X254974Y816356D01*
Y817372D02*
X255482Y817880D01*
X255990D01*
X255482Y818388D01*
X255990Y818896D01*
X255482D01*
X254974Y819404D01*
X254466Y818896D01*
X253958D01*
X254466Y818388D01*
X253958Y817880D01*
X254466D01*
X254974Y817372D01*
X229574Y816356D02*
X230590Y817372D01*
X231606D01*
X230590Y818388D01*
X231606Y819404D01*
X230590D01*
X229574Y820420D01*
X228558Y819404D01*
X227542D01*
X228558Y818388D01*
X227542Y817372D01*
X228558D01*
X229574Y816356D01*
Y817372D02*
X230082Y817880D01*
X230590D01*
X230082Y818388D01*
X230590Y818896D01*
X230082D01*
X229574Y819404D01*
X229066Y818896D01*
X228558D01*
X229066Y818388D01*
X228558Y817880D01*
X229066D01*
X229574Y817372D01*
Y790956D02*
X230590Y791972D01*
X231606D01*
X230590Y792988D01*
X231606Y794004D01*
X230590D01*
X229574Y795020D01*
X228558Y794004D01*
X227542D01*
X228558Y792988D01*
X227542Y791972D01*
X228558D01*
X229574Y790956D01*
Y791972D02*
X230082Y792480D01*
X230590D01*
X230082Y792988D01*
X230590Y793496D01*
X230082D01*
X229574Y794004D01*
X229066Y793496D01*
X228558D01*
X229066Y792988D01*
X228558Y792480D01*
X229066D01*
X229574Y791972D01*
Y765556D02*
X230590Y766572D01*
X231606D01*
X230590Y767588D01*
X231606Y768604D01*
X230590D01*
X229574Y769620D01*
X228558Y768604D01*
X227542D01*
X228558Y767588D01*
X227542Y766572D01*
X228558D01*
X229574Y765556D01*
Y766572D02*
X230082Y767080D01*
X230590D01*
X230082Y767588D01*
X230590Y768096D01*
X230082D01*
X229574Y768604D01*
X229066Y768096D01*
X228558D01*
X229066Y767588D01*
X228558Y767080D01*
X229066D01*
X229574Y766572D01*
Y740156D02*
X230590Y741172D01*
X231606D01*
X230590Y742188D01*
X231606Y743204D01*
X230590D01*
X229574Y744220D01*
X228558Y743204D01*
X227542D01*
X228558Y742188D01*
X227542Y741172D01*
X228558D01*
X229574Y740156D01*
Y741172D02*
X230082Y741680D01*
X230590D01*
X230082Y742188D01*
X230590Y742696D01*
X230082D01*
X229574Y743204D01*
X229066Y742696D01*
X228558D01*
X229066Y742188D01*
X228558Y741680D01*
X229066D01*
X229574Y741172D01*
X500380Y939038D02*
X501396Y941070D01*
X500380Y943102D01*
X502412Y942086D01*
X504444Y943102D01*
X503428Y941070D01*
X504444Y939038D01*
X502412Y940054D01*
X500380Y939038D01*
X449580D02*
X450596Y941070D01*
X449580Y943102D01*
X451612Y942086D01*
X453644Y943102D01*
X452628Y941070D01*
X453644Y939038D01*
X451612Y940054D01*
X449580Y939038D01*
X424180D02*
X425196Y941070D01*
X424180Y943102D01*
X426212Y942086D01*
X428244Y943102D01*
X427228Y941070D01*
X428244Y939038D01*
X426212Y940054D01*
X424180Y939038D01*
X474980D02*
X475996Y941070D01*
X474980Y943102D01*
X477012Y942086D01*
X479044Y943102D01*
X478028Y941070D01*
X479044Y939038D01*
X477012Y940054D01*
X474980Y939038D01*
X525780D02*
X526796Y941070D01*
X525780Y943102D01*
X527812Y942086D01*
X529844Y943102D01*
X528828Y941070D01*
X529844Y939038D01*
X527812Y940054D01*
X525780Y939038D01*
X551180D02*
X552196Y941070D01*
X551180Y943102D01*
X553212Y942086D01*
X555244Y943102D01*
X554228Y941070D01*
X555244Y939038D01*
X553212Y940054D01*
X551180Y939038D01*
X54864Y498894D02*
X55880Y499910D01*
X56896D01*
X55880Y500926D01*
X56896Y501942D01*
X55880D01*
X54864Y502958D01*
X53848Y501942D01*
X52832D01*
X53848Y500926D01*
X52832Y499910D01*
X53848D01*
X54864Y498894D01*
Y523894D02*
X55880Y524910D01*
X56896D01*
X55880Y525926D01*
X56896Y526942D01*
X55880D01*
X54864Y527958D01*
X53848Y526942D01*
X52832D01*
X53848Y525926D01*
X52832Y524910D01*
X53848D01*
X54864Y523894D01*
Y548894D02*
X55880Y549910D01*
X56896D01*
X55880Y550926D01*
X56896Y551942D01*
X55880D01*
X54864Y552958D01*
X53848Y551942D01*
X52832D01*
X53848Y550926D01*
X52832Y549910D01*
X53848D01*
X54864Y548894D01*
Y573894D02*
X55880Y574910D01*
X56896D01*
X55880Y575926D01*
X56896Y576942D01*
X55880D01*
X54864Y577958D01*
X53848Y576942D01*
X52832D01*
X53848Y575926D01*
X52832Y574910D01*
X53848D01*
X54864Y573894D01*
Y598894D02*
X55880Y599910D01*
X56896D01*
X55880Y600926D01*
X56896Y601942D01*
X55880D01*
X54864Y602958D01*
X53848Y601942D01*
X52832D01*
X53848Y600926D01*
X52832Y599910D01*
X53848D01*
X54864Y598894D01*
Y623894D02*
X55880Y624910D01*
X56896D01*
X55880Y625926D01*
X56896Y626942D01*
X55880D01*
X54864Y627958D01*
X53848Y626942D01*
X52832D01*
X53848Y625926D01*
X52832Y624910D01*
X53848D01*
X54864Y623894D01*
X53594Y767334D02*
Y766318D01*
X55626D01*
Y767334D01*
X56642D01*
Y769366D01*
X55626D01*
Y770382D01*
X53594D01*
Y769366D01*
X52578D01*
Y767334D01*
X53594D01*
Y754634D02*
Y753618D01*
X55626D01*
Y754634D01*
X56642D01*
Y756666D01*
X55626D01*
Y757682D01*
X53594D01*
Y756666D01*
X52578D01*
Y754634D01*
X53594D01*
Y780034D02*
Y779018D01*
X55626D01*
Y780034D01*
X56642D01*
Y782066D01*
X55626D01*
Y783082D01*
X53594D01*
Y782066D01*
X52578D01*
Y780034D01*
X53594D01*
Y792734D02*
Y791718D01*
X55626D01*
Y792734D01*
X56642D01*
Y794766D01*
X55626D01*
Y795782D01*
X53594D01*
Y794766D01*
X52578D01*
Y792734D01*
X53594D01*
X292348Y109534D02*
Y113598D01*
X296412D01*
Y109534D01*
X292348D01*
X244348Y81534D02*
Y85598D01*
X248412D01*
Y81534D01*
X244348D01*
Y139534D02*
Y143598D01*
X248412D01*
Y139534D01*
X244348D01*
X957326Y155194D02*
Y159258D01*
X961390D01*
Y155194D01*
X957326D01*
X958342Y156210D02*
Y158242D01*
X960374D01*
Y156210D01*
X958342D01*
X957326Y269494D02*
Y273558D01*
X961390D01*
Y269494D01*
X957326D01*
X958342Y270510D02*
Y272542D01*
X960374D01*
Y270510D01*
X958342D01*
X893826Y220726D02*
X895858Y222758D01*
X897890Y220726D01*
X895858Y218694D01*
X893826Y220726D01*
X868426Y208026D02*
X870458Y210058D01*
X872490Y208026D01*
X870458Y205994D01*
X868426Y208026D01*
X893826Y246126D02*
X895858Y248158D01*
X897890Y246126D01*
X895858Y244094D01*
X893826Y246126D01*
X868426Y233426D02*
X870458Y235458D01*
X872490Y233426D01*
X870458Y231394D01*
X868426Y233426D01*
Y258826D02*
X870458Y260858D01*
X872490Y258826D01*
X870458Y256794D01*
X868426Y258826D01*
X893826Y195326D02*
X895858Y197358D01*
X897890Y195326D01*
X895858Y193294D01*
X893826Y195326D01*
X868426Y182626D02*
X870458Y184658D01*
X872490Y182626D01*
X870458Y180594D01*
X868426Y182626D01*
X893826Y169926D02*
X895858Y171958D01*
X897890Y169926D01*
X895858Y167894D01*
X893826Y169926D01*
X323850Y351790D02*
X321818Y355854D01*
X325882D01*
X323850Y351790D01*
X368046Y461518D02*
X369062Y463550D01*
X368046Y465582D01*
X370078Y464566D01*
X372110Y465582D01*
X371094Y463550D01*
X372110Y461518D01*
X370078Y462534D01*
X368046Y461518D01*
X369062Y462534D02*
X369570Y463550D01*
X369062Y464566D01*
X370078Y464058D01*
X371094Y464566D01*
X370586Y463550D01*
X371094Y462534D01*
X370078Y463042D01*
X369062Y462534D01*
X362458Y462026D02*
X363474Y464058D01*
X362458Y466090D01*
X364490Y465074D01*
X366522Y466090D01*
X365506Y464058D01*
X366522Y462026D01*
X364490Y463042D01*
X362458Y462026D01*
X363474Y463042D02*
X363982Y464058D01*
X363474Y465074D01*
X364490Y464566D01*
X365506Y465074D01*
X364998Y464058D01*
X365506Y463042D01*
X364490Y463550D01*
X363474Y463042D01*
X377190Y509524D02*
X378206Y511556D01*
X377190Y513588D01*
X379222Y512572D01*
X381254Y513588D01*
X380238Y511556D01*
X381254Y509524D01*
X379222Y510540D01*
X377190Y509524D01*
X378206Y510540D02*
X378714Y511556D01*
X378206Y512572D01*
X379222Y512064D01*
X380238Y512572D01*
X379730Y511556D01*
X380238Y510540D01*
X379222Y511048D01*
X378206Y510540D01*
X371602Y509524D02*
X372618Y511556D01*
X371602Y513588D01*
X373634Y512572D01*
X375666Y513588D01*
X374650Y511556D01*
X375666Y509524D01*
X373634Y510540D01*
X371602Y509524D01*
X372618Y510540D02*
X373126Y511556D01*
X372618Y512572D01*
X373634Y512064D01*
X374650Y512572D01*
X374142Y511556D01*
X374650Y510540D01*
X373634Y511048D01*
X372618Y510540D01*
X364998Y479806D02*
X366014Y481838D01*
X364998Y483870D01*
X367030Y482854D01*
X369062Y483870D01*
X368046Y481838D01*
X369062Y479806D01*
X367030Y480822D01*
X364998Y479806D01*
X366014Y480822D02*
X366522Y481838D01*
X366014Y482854D01*
X367030Y482346D01*
X368046Y482854D01*
X367538Y481838D01*
X368046Y480822D01*
X367030Y481330D01*
X366014Y480822D01*
X392938Y479298D02*
X393954Y481330D01*
X392938Y483362D01*
X394970Y482346D01*
X397002Y483362D01*
X395986Y481330D01*
X397002Y479298D01*
X394970Y480314D01*
X392938Y479298D01*
X393954Y480314D02*
X394462Y481330D01*
X393954Y482346D01*
X394970Y481838D01*
X395986Y482346D01*
X395478Y481330D01*
X395986Y480314D01*
X394970Y480822D01*
X393954Y480314D01*
X430276Y488442D02*
X431292Y490474D01*
X430276Y492506D01*
X432308Y491490D01*
X434340Y492506D01*
X433324Y490474D01*
X434340Y488442D01*
X432308Y489458D01*
X430276Y488442D01*
X431292Y489458D02*
X431800Y490474D01*
X431292Y491490D01*
X432308Y490982D01*
X433324Y491490D01*
X432816Y490474D01*
X433324Y489458D01*
X432308Y489966D01*
X431292Y489458D01*
X421894Y480568D02*
X422910Y482600D01*
X421894Y484632D01*
X423926Y483616D01*
X425958Y484632D01*
X424942Y482600D01*
X425958Y480568D01*
X423926Y481584D01*
X421894Y480568D01*
X422910Y481584D02*
X423418Y482600D01*
X422910Y483616D01*
X423926Y483108D01*
X424942Y483616D01*
X424434Y482600D01*
X424942Y481584D01*
X423926Y482092D01*
X422910Y481584D01*
X305562Y379730D02*
X306578Y381762D01*
X305562Y383794D01*
X307594Y382778D01*
X309626Y383794D01*
X308610Y381762D01*
X309626Y379730D01*
X307594Y380746D01*
X305562Y379730D01*
X306578Y380746D02*
X307086Y381762D01*
X306578Y382778D01*
X307594Y382270D01*
X308610Y382778D01*
X308102Y381762D01*
X308610Y380746D01*
X307594Y381254D01*
X306578Y380746D01*
X302768Y477196D02*
X303784D01*
X304800Y478212D01*
X305816Y477196D01*
X306832D01*
Y478212D01*
X305816Y479228D01*
X306832Y480244D01*
Y481260D01*
X305816D01*
X304800Y480244D01*
X303784Y481260D01*
X302768D01*
Y480244D01*
X303784Y479228D01*
X302768Y478212D01*
Y477196D01*
X458978Y655066D02*
X459994D01*
X461010Y656082D01*
X462026Y655066D01*
X463042D01*
Y656082D01*
X462026Y657098D01*
X463042Y658114D01*
Y659130D01*
X462026D01*
X461010Y658114D01*
X459994Y659130D01*
X458978D01*
Y658114D01*
X459994Y657098D01*
X458978Y656082D01*
Y655066D01*
X497332Y707136D02*
X498348D01*
X499364Y708152D01*
X500380Y707136D01*
X501396D01*
Y708152D01*
X500380Y709168D01*
X501396Y710184D01*
Y711200D01*
X500380D01*
X499364Y710184D01*
X498348Y711200D01*
X497332D01*
Y710184D01*
X498348Y709168D01*
X497332Y708152D01*
Y707136D01*
X508000Y717296D02*
X509016D01*
X510032Y718312D01*
X511048Y717296D01*
X512064D01*
Y718312D01*
X511048Y719328D01*
X512064Y720344D01*
Y721360D01*
X511048D01*
X510032Y720344D01*
X509016Y721360D01*
X508000D01*
Y720344D01*
X509016Y719328D01*
X508000Y718312D01*
Y717296D01*
X505714Y200660D02*
X506730Y202692D01*
X505714Y204724D01*
X507746Y203708D01*
X509778Y204724D01*
X508762Y202692D01*
X509778Y200660D01*
X507746Y201676D01*
X505714Y200660D01*
X506730Y201676D02*
X507238Y202692D01*
X506730Y203708D01*
X507746Y203200D01*
X508762Y203708D01*
X508254Y202692D01*
X508762Y201676D01*
X507746Y202184D01*
X506730Y201676D01*
X482600Y272542D02*
X483616Y274574D01*
X482600Y276606D01*
X484632Y275590D01*
X486664Y276606D01*
X485648Y274574D01*
X486664Y272542D01*
X484632Y273558D01*
X482600Y272542D01*
X483616Y273558D02*
X484124Y274574D01*
X483616Y275590D01*
X484632Y275082D01*
X485648Y275590D01*
X485140Y274574D01*
X485648Y273558D01*
X484632Y274066D01*
X483616Y273558D01*
X514858Y210566D02*
X515874Y212598D01*
X514858Y214630D01*
X516890Y213614D01*
X518922Y214630D01*
X517906Y212598D01*
X518922Y210566D01*
X516890Y211582D01*
X514858Y210566D01*
X515874Y211582D02*
X516382Y212598D01*
X515874Y213614D01*
X516890Y213106D01*
X517906Y213614D01*
X517398Y212598D01*
X517906Y211582D01*
X516890Y212090D01*
X515874Y211582D01*
X508762Y210566D02*
X509778Y212598D01*
X508762Y214630D01*
X510794Y213614D01*
X512826Y214630D01*
X511810Y212598D01*
X512826Y210566D01*
X510794Y211582D01*
X508762Y210566D01*
X509778Y211582D02*
X510286Y212598D01*
X509778Y213614D01*
X510794Y213106D01*
X511810Y213614D01*
X511302Y212598D01*
X511810Y211582D01*
X510794Y212090D01*
X509778Y211582D01*
X471170Y236728D02*
X472186Y238760D01*
X471170Y240792D01*
X473202Y239776D01*
X475234Y240792D01*
X474218Y238760D01*
X475234Y236728D01*
X473202Y237744D01*
X471170Y236728D01*
X472186Y237744D02*
X472694Y238760D01*
X472186Y239776D01*
X473202Y239268D01*
X474218Y239776D01*
X473710Y238760D01*
X474218Y237744D01*
X473202Y238252D01*
X472186Y237744D01*
X478282Y236982D02*
X479298Y239014D01*
X478282Y241046D01*
X480314Y240030D01*
X482346Y241046D01*
X481330Y239014D01*
X482346Y236982D01*
X480314Y237998D01*
X478282Y236982D01*
X479298Y237998D02*
X479806Y239014D01*
X479298Y240030D01*
X480314Y239522D01*
X481330Y240030D01*
X480822Y239014D01*
X481330Y237998D01*
X480314Y238506D01*
X479298Y237998D01*
X46228Y355092D02*
X47244Y357124D01*
X46228Y359156D01*
X48260Y358140D01*
X50292Y359156D01*
X49276Y357124D01*
X50292Y355092D01*
X48260Y356108D01*
X46228Y355092D01*
X47244Y356108D02*
X47752Y357124D01*
X47244Y358140D01*
X48260Y357632D01*
X49276Y358140D01*
X48768Y357124D01*
X49276Y356108D01*
X48260Y356616D01*
X47244Y356108D01*
X53848Y355854D02*
X54864Y357886D01*
X53848Y359918D01*
X55880Y358902D01*
X57912Y359918D01*
X56896Y357886D01*
X57912Y355854D01*
X55880Y356870D01*
X53848Y355854D01*
X54864Y356870D02*
X55372Y357886D01*
X54864Y358902D01*
X55880Y358394D01*
X56896Y358902D01*
X56388Y357886D01*
X56896Y356870D01*
X55880Y357378D01*
X54864Y356870D01*
X53340Y361442D02*
X54356Y363474D01*
X53340Y365506D01*
X55372Y364490D01*
X57404Y365506D01*
X56388Y363474D01*
X57404Y361442D01*
X55372Y362458D01*
X53340Y361442D01*
X54356Y362458D02*
X54864Y363474D01*
X54356Y364490D01*
X55372Y363982D01*
X56388Y364490D01*
X55880Y363474D01*
X56388Y362458D01*
X55372Y362966D01*
X54356Y362458D01*
X45974Y361188D02*
X46990Y363220D01*
X45974Y365252D01*
X48006Y364236D01*
X50038Y365252D01*
X49022Y363220D01*
X50038Y361188D01*
X48006Y362204D01*
X45974Y361188D01*
X46990Y362204D02*
X47498Y363220D01*
X46990Y364236D01*
X48006Y363728D01*
X49022Y364236D01*
X48514Y363220D01*
X49022Y362204D01*
X48006Y362712D01*
X46990Y362204D01*
X154432Y452374D02*
X155448Y454406D01*
X154432Y456438D01*
X156464Y455422D01*
X158496Y456438D01*
X157480Y454406D01*
X158496Y452374D01*
X156464Y453390D01*
X154432Y452374D01*
X155448Y453390D02*
X155956Y454406D01*
X155448Y455422D01*
X156464Y454914D01*
X157480Y455422D01*
X156972Y454406D01*
X157480Y453390D01*
X156464Y453898D01*
X155448Y453390D01*
X148844Y452120D02*
X149860Y454152D01*
X148844Y456184D01*
X150876Y455168D01*
X152908Y456184D01*
X151892Y454152D01*
X152908Y452120D01*
X150876Y453136D01*
X148844Y452120D01*
X149860Y453136D02*
X150368Y454152D01*
X149860Y455168D01*
X150876Y454660D01*
X151892Y455168D01*
X151384Y454152D01*
X151892Y453136D01*
X150876Y453644D01*
X149860Y453136D01*
X154686Y457454D02*
X155702Y459486D01*
X154686Y461518D01*
X156718Y460502D01*
X158750Y461518D01*
X157734Y459486D01*
X158750Y457454D01*
X156718Y458470D01*
X154686Y457454D01*
X155702Y458470D02*
X156210Y459486D01*
X155702Y460502D01*
X156718Y459994D01*
X157734Y460502D01*
X157226Y459486D01*
X157734Y458470D01*
X156718Y458978D01*
X155702Y458470D01*
X148844Y457454D02*
X149860Y459486D01*
X148844Y461518D01*
X150876Y460502D01*
X152908Y461518D01*
X151892Y459486D01*
X152908Y457454D01*
X150876Y458470D01*
X148844Y457454D01*
X149860Y458470D02*
X150368Y459486D01*
X149860Y460502D01*
X150876Y459994D01*
X151892Y460502D01*
X151384Y459486D01*
X151892Y458470D01*
X150876Y458978D01*
X149860Y458470D01*
X220726Y363728D02*
X221742Y365760D01*
X220726Y367792D01*
X222758Y366776D01*
X224790Y367792D01*
X223774Y365760D01*
X224790Y363728D01*
X222758Y364744D01*
X220726Y363728D01*
X221742Y364744D02*
X222250Y365760D01*
X221742Y366776D01*
X222758Y366268D01*
X223774Y366776D01*
X223266Y365760D01*
X223774Y364744D01*
X222758Y365252D01*
X221742Y364744D01*
X215138Y364236D02*
X216154Y366268D01*
X215138Y368300D01*
X217170Y367284D01*
X219202Y368300D01*
X218186Y366268D01*
X219202Y364236D01*
X217170Y365252D01*
X215138Y364236D01*
X216154Y365252D02*
X216662Y366268D01*
X216154Y367284D01*
X217170Y366776D01*
X218186Y367284D01*
X217678Y366268D01*
X218186Y365252D01*
X217170Y365760D01*
X216154Y365252D01*
X220472Y369570D02*
X221488Y371602D01*
X220472Y373634D01*
X222504Y372618D01*
X224536Y373634D01*
X223520Y371602D01*
X224536Y369570D01*
X222504Y370586D01*
X220472Y369570D01*
X221488Y370586D02*
X221996Y371602D01*
X221488Y372618D01*
X222504Y372110D01*
X223520Y372618D01*
X223012Y371602D01*
X223520Y370586D01*
X222504Y371094D01*
X221488Y370586D01*
X214884Y369824D02*
X215900Y371856D01*
X214884Y373888D01*
X216916Y372872D01*
X218948Y373888D01*
X217932Y371856D01*
X218948Y369824D01*
X216916Y370840D01*
X214884Y369824D01*
X215900Y370840D02*
X216408Y371856D01*
X215900Y372872D01*
X216916Y372364D01*
X217932Y372872D01*
X217424Y371856D01*
X217932Y370840D01*
X216916Y371348D01*
X215900Y370840D01*
X252476Y247396D02*
X253492Y249428D01*
X252476Y251460D01*
X254508Y250444D01*
X256540Y251460D01*
X255524Y249428D01*
X256540Y247396D01*
X254508Y248412D01*
X252476Y247396D01*
X253492Y248412D02*
X254000Y249428D01*
X253492Y250444D01*
X254508Y249936D01*
X255524Y250444D01*
X255016Y249428D01*
X255524Y248412D01*
X254508Y248920D01*
X253492Y248412D01*
X243840Y247396D02*
X244856Y249428D01*
X243840Y251460D01*
X245872Y250444D01*
X247904Y251460D01*
X246888Y249428D01*
X247904Y247396D01*
X245872Y248412D01*
X243840Y247396D01*
X244856Y248412D02*
X245364Y249428D01*
X244856Y250444D01*
X245872Y249936D01*
X246888Y250444D01*
X246380Y249428D01*
X246888Y248412D01*
X245872Y248920D01*
X244856Y248412D01*
X169164Y220472D02*
X170180Y222504D01*
X169164Y224536D01*
X171196Y223520D01*
X173228Y224536D01*
X172212Y222504D01*
X173228Y220472D01*
X171196Y221488D01*
X169164Y220472D01*
X170180Y221488D02*
X170688Y222504D01*
X170180Y223520D01*
X171196Y223012D01*
X172212Y223520D01*
X171704Y222504D01*
X172212Y221488D01*
X171196Y221996D01*
X170180Y221488D01*
X137922Y97282D02*
X138938Y99314D01*
X137922Y101346D01*
X139954Y100330D01*
X141986Y101346D01*
X140970Y99314D01*
X141986Y97282D01*
X139954Y98298D01*
X137922Y97282D01*
X138938Y98298D02*
X139446Y99314D01*
X138938Y100330D01*
X139954Y99822D01*
X140970Y100330D01*
X140462Y99314D01*
X140970Y98298D01*
X139954Y98806D01*
X138938Y98298D01*
X137668Y103378D02*
X138684Y105410D01*
X137668Y107442D01*
X139700Y106426D01*
X141732Y107442D01*
X140716Y105410D01*
X141732Y103378D01*
X139700Y104394D01*
X137668Y103378D01*
X138684Y104394D02*
X139192Y105410D01*
X138684Y106426D01*
X139700Y105918D01*
X140716Y106426D01*
X140208Y105410D01*
X140716Y104394D01*
X139700Y104902D01*
X138684Y104394D01*
X501142Y135890D02*
X502158Y137922D01*
X501142Y139954D01*
X503174Y138938D01*
X505206Y139954D01*
X504190Y137922D01*
X505206Y135890D01*
X503174Y136906D01*
X501142Y135890D01*
X502158Y136906D02*
X502666Y137922D01*
X502158Y138938D01*
X503174Y138430D01*
X504190Y138938D01*
X503682Y137922D01*
X504190Y136906D01*
X503174Y137414D01*
X502158Y136906D01*
X419608Y146304D02*
X420624Y148336D01*
X419608Y150368D01*
X421640Y149352D01*
X423672Y150368D01*
X422656Y148336D01*
X423672Y146304D01*
X421640Y147320D01*
X419608Y146304D01*
X420624Y147320D02*
X421132Y148336D01*
X420624Y149352D01*
X421640Y148844D01*
X422656Y149352D01*
X422148Y148336D01*
X422656Y147320D01*
X421640Y147828D01*
X420624Y147320D01*
X569722Y72898D02*
X570738Y74930D01*
X569722Y76962D01*
X571754Y75946D01*
X573786Y76962D01*
X572770Y74930D01*
X573786Y72898D01*
X571754Y73914D01*
X569722Y72898D01*
X570738Y73914D02*
X571246Y74930D01*
X570738Y75946D01*
X571754Y75438D01*
X572770Y75946D01*
X572262Y74930D01*
X572770Y73914D01*
X571754Y74422D01*
X570738Y73914D01*
X635254Y225552D02*
X636270Y227584D01*
X635254Y229616D01*
X637286Y228600D01*
X639318Y229616D01*
X638302Y227584D01*
X639318Y225552D01*
X637286Y226568D01*
X635254Y225552D01*
X636270Y226568D02*
X636778Y227584D01*
X636270Y228600D01*
X637286Y228092D01*
X638302Y228600D01*
X637794Y227584D01*
X638302Y226568D01*
X637286Y227076D01*
X636270Y226568D01*
X668274Y210058D02*
X669290Y212090D01*
X668274Y214122D01*
X670306Y213106D01*
X672338Y214122D01*
X671322Y212090D01*
X672338Y210058D01*
X670306Y211074D01*
X668274Y210058D01*
X669290Y211074D02*
X669798Y212090D01*
X669290Y213106D01*
X670306Y212598D01*
X671322Y213106D01*
X670814Y212090D01*
X671322Y211074D01*
X670306Y211582D01*
X669290Y211074D01*
X623570Y173482D02*
X624586Y175514D01*
X623570Y177546D01*
X625602Y176530D01*
X627634Y177546D01*
X626618Y175514D01*
X627634Y173482D01*
X625602Y174498D01*
X623570Y173482D01*
X624586Y174498D02*
X625094Y175514D01*
X624586Y176530D01*
X625602Y176022D01*
X626618Y176530D01*
X626110Y175514D01*
X626618Y174498D01*
X625602Y175006D01*
X624586Y174498D01*
X617220Y173482D02*
X618236Y175514D01*
X617220Y177546D01*
X619252Y176530D01*
X621284Y177546D01*
X620268Y175514D01*
X621284Y173482D01*
X619252Y174498D01*
X617220Y173482D01*
X618236Y174498D02*
X618744Y175514D01*
X618236Y176530D01*
X619252Y176022D01*
X620268Y176530D01*
X619760Y175514D01*
X620268Y174498D01*
X619252Y175006D01*
X618236Y174498D01*
X727964Y178816D02*
X728980Y180848D01*
X727964Y182880D01*
X729996Y181864D01*
X732028Y182880D01*
X731012Y180848D01*
X732028Y178816D01*
X729996Y179832D01*
X727964Y178816D01*
X728980Y179832D02*
X729488Y180848D01*
X728980Y181864D01*
X729996Y181356D01*
X731012Y181864D01*
X730504Y180848D01*
X731012Y179832D01*
X729996Y180340D01*
X728980Y179832D01*
X842010Y205232D02*
X843026Y207264D01*
X842010Y209296D01*
X844042Y208280D01*
X846074Y209296D01*
X845058Y207264D01*
X846074Y205232D01*
X844042Y206248D01*
X842010Y205232D01*
X843026Y206248D02*
X843534Y207264D01*
X843026Y208280D01*
X844042Y207772D01*
X845058Y208280D01*
X844550Y207264D01*
X845058Y206248D01*
X844042Y206756D01*
X843026Y206248D01*
X794004Y206756D02*
X795020Y208788D01*
X794004Y210820D01*
X796036Y209804D01*
X798068Y210820D01*
X797052Y208788D01*
X798068Y206756D01*
X796036Y207772D01*
X794004Y206756D01*
X795020Y207772D02*
X795528Y208788D01*
X795020Y209804D01*
X796036Y209296D01*
X797052Y209804D01*
X796544Y208788D01*
X797052Y207772D01*
X796036Y208280D01*
X795020Y207772D01*
X793750Y222250D02*
X794766Y224282D01*
X793750Y226314D01*
X795782Y225298D01*
X797814Y226314D01*
X796798Y224282D01*
X797814Y222250D01*
X795782Y223266D01*
X793750Y222250D01*
X794766Y223266D02*
X795274Y224282D01*
X794766Y225298D01*
X795782Y224790D01*
X796798Y225298D01*
X796290Y224282D01*
X796798Y223266D01*
X795782Y223774D01*
X794766Y223266D01*
X711200Y260604D02*
X712216Y262636D01*
X711200Y264668D01*
X713232Y263652D01*
X715264Y264668D01*
X714248Y262636D01*
X715264Y260604D01*
X713232Y261620D01*
X711200Y260604D01*
X712216Y261620D02*
X712724Y262636D01*
X712216Y263652D01*
X713232Y263144D01*
X714248Y263652D01*
X713740Y262636D01*
X714248Y261620D01*
X713232Y262128D01*
X712216Y261620D01*
X748284Y239776D02*
X749300Y241808D01*
X748284Y243840D01*
X750316Y242824D01*
X752348Y243840D01*
X751332Y241808D01*
X752348Y239776D01*
X750316Y240792D01*
X748284Y239776D01*
X749300Y240792D02*
X749808Y241808D01*
X749300Y242824D01*
X750316Y242316D01*
X751332Y242824D01*
X750824Y241808D01*
X751332Y240792D01*
X750316Y241300D01*
X749300Y240792D01*
X688848Y289306D02*
X689864Y291338D01*
X688848Y293370D01*
X690880Y292354D01*
X692912Y293370D01*
X691896Y291338D01*
X692912Y289306D01*
X690880Y290322D01*
X688848Y289306D01*
X689864Y290322D02*
X690372Y291338D01*
X689864Y292354D01*
X690880Y291846D01*
X691896Y292354D01*
X691388Y291338D01*
X691896Y290322D01*
X690880Y290830D01*
X689864Y290322D01*
X720598Y275844D02*
X721614Y277876D01*
X720598Y279908D01*
X722630Y278892D01*
X724662Y279908D01*
X723646Y277876D01*
X724662Y275844D01*
X722630Y276860D01*
X720598Y275844D01*
X721614Y276860D02*
X722122Y277876D01*
X721614Y278892D01*
X722630Y278384D01*
X723646Y278892D01*
X723138Y277876D01*
X723646Y276860D01*
X722630Y277368D01*
X721614Y276860D01*
X647192Y303784D02*
X648208Y305816D01*
X647192Y307848D01*
X649224Y306832D01*
X651256Y307848D01*
X650240Y305816D01*
X651256Y303784D01*
X649224Y304800D01*
X647192Y303784D01*
X648208Y304800D02*
X648716Y305816D01*
X648208Y306832D01*
X649224Y306324D01*
X650240Y306832D01*
X649732Y305816D01*
X650240Y304800D01*
X649224Y305308D01*
X648208Y304800D01*
X748538Y303530D02*
X749554Y305562D01*
X748538Y307594D01*
X750570Y306578D01*
X752602Y307594D01*
X751586Y305562D01*
X752602Y303530D01*
X750570Y304546D01*
X748538Y303530D01*
X749554Y304546D02*
X750062Y305562D01*
X749554Y306578D01*
X750570Y306070D01*
X751586Y306578D01*
X751078Y305562D01*
X751586Y304546D01*
X750570Y305054D01*
X749554Y304546D01*
X944626Y468122D02*
X945642Y470154D01*
X944626Y472186D01*
X946658Y471170D01*
X948690Y472186D01*
X947674Y470154D01*
X948690Y468122D01*
X946658Y469138D01*
X944626Y468122D01*
X945642Y469138D02*
X946150Y470154D01*
X945642Y471170D01*
X946658Y470662D01*
X947674Y471170D01*
X947166Y470154D01*
X947674Y469138D01*
X946658Y469646D01*
X945642Y469138D01*
X848106Y501396D02*
X849122Y503428D01*
X848106Y505460D01*
X850138Y504444D01*
X852170Y505460D01*
X851154Y503428D01*
X852170Y501396D01*
X850138Y502412D01*
X848106Y501396D01*
X849122Y502412D02*
X849630Y503428D01*
X849122Y504444D01*
X850138Y503936D01*
X851154Y504444D01*
X850646Y503428D01*
X851154Y502412D01*
X850138Y502920D01*
X849122Y502412D01*
X945134Y499110D02*
X946150Y501142D01*
X945134Y503174D01*
X947166Y502158D01*
X949198Y503174D01*
X948182Y501142D01*
X949198Y499110D01*
X947166Y500126D01*
X945134Y499110D01*
X946150Y500126D02*
X946658Y501142D01*
X946150Y502158D01*
X947166Y501650D01*
X948182Y502158D01*
X947674Y501142D01*
X948182Y500126D01*
X947166Y500634D01*
X946150Y500126D01*
X906526Y543052D02*
X907542Y545084D01*
X906526Y547116D01*
X908558Y546100D01*
X910590Y547116D01*
X909574Y545084D01*
X910590Y543052D01*
X908558Y544068D01*
X906526Y543052D01*
X907542Y544068D02*
X908050Y545084D01*
X907542Y546100D01*
X908558Y545592D01*
X909574Y546100D01*
X909066Y545084D01*
X909574Y544068D01*
X908558Y544576D01*
X907542Y544068D01*
X631444Y548640D02*
X632460Y550672D01*
X631444Y552704D01*
X633476Y551688D01*
X635508Y552704D01*
X634492Y550672D01*
X635508Y548640D01*
X633476Y549656D01*
X631444Y548640D01*
X632460Y549656D02*
X632968Y550672D01*
X632460Y551688D01*
X633476Y551180D01*
X634492Y551688D01*
X633984Y550672D01*
X634492Y549656D01*
X633476Y550164D01*
X632460Y549656D01*
X625348Y548640D02*
X626364Y550672D01*
X625348Y552704D01*
X627380Y551688D01*
X629412Y552704D01*
X628396Y550672D01*
X629412Y548640D01*
X627380Y549656D01*
X625348Y548640D01*
X626364Y549656D02*
X626872Y550672D01*
X626364Y551688D01*
X627380Y551180D01*
X628396Y551688D01*
X627888Y550672D01*
X628396Y549656D01*
X627380Y550164D01*
X626364Y549656D01*
X630682Y554736D02*
X631698Y556768D01*
X630682Y558800D01*
X632714Y557784D01*
X634746Y558800D01*
X633730Y556768D01*
X634746Y554736D01*
X632714Y555752D01*
X630682Y554736D01*
X631698Y555752D02*
X632206Y556768D01*
X631698Y557784D01*
X632714Y557276D01*
X633730Y557784D01*
X633222Y556768D01*
X633730Y555752D01*
X632714Y556260D01*
X631698Y555752D01*
X625094Y554990D02*
X626110Y557022D01*
X625094Y559054D01*
X627126Y558038D01*
X629158Y559054D01*
X628142Y557022D01*
X629158Y554990D01*
X627126Y556006D01*
X625094Y554990D01*
X626110Y556006D02*
X626618Y557022D01*
X626110Y558038D01*
X627126Y557530D01*
X628142Y558038D01*
X627634Y557022D01*
X628142Y556006D01*
X627126Y556514D01*
X626110Y556006D01*
X625602Y517652D02*
X626618Y519684D01*
X625602Y521716D01*
X627634Y520700D01*
X629666Y521716D01*
X628650Y519684D01*
X629666Y517652D01*
X627634Y518668D01*
X625602Y517652D01*
X626618Y518668D02*
X627126Y519684D01*
X626618Y520700D01*
X627634Y520192D01*
X628650Y520700D01*
X628142Y519684D01*
X628650Y518668D01*
X627634Y519176D01*
X626618Y518668D01*
X663448Y486918D02*
X664464Y488950D01*
X663448Y490982D01*
X665480Y489966D01*
X667512Y490982D01*
X666496Y488950D01*
X667512Y486918D01*
X665480Y487934D01*
X663448Y486918D01*
X664464Y487934D02*
X664972Y488950D01*
X664464Y489966D01*
X665480Y489458D01*
X666496Y489966D01*
X665988Y488950D01*
X666496Y487934D01*
X665480Y488442D01*
X664464Y487934D01*
X663448Y458724D02*
X664464Y460756D01*
X663448Y462788D01*
X665480Y461772D01*
X667512Y462788D01*
X666496Y460756D01*
X667512Y458724D01*
X665480Y459740D01*
X663448Y458724D01*
X664464Y459740D02*
X664972Y460756D01*
X664464Y461772D01*
X665480Y461264D01*
X666496Y461772D01*
X665988Y460756D01*
X666496Y459740D01*
X665480Y460248D01*
X664464Y459740D01*
X723138Y424942D02*
X724154Y426974D01*
X723138Y429006D01*
X725170Y427990D01*
X727202Y429006D01*
X726186Y426974D01*
X727202Y424942D01*
X725170Y425958D01*
X723138Y424942D01*
X724154Y425958D02*
X724662Y426974D01*
X724154Y427990D01*
X725170Y427482D01*
X726186Y427990D01*
X725678Y426974D01*
X726186Y425958D01*
X725170Y426466D01*
X724154Y425958D01*
X774446Y430022D02*
X775462Y432054D01*
X774446Y434086D01*
X776478Y433070D01*
X778510Y434086D01*
X777494Y432054D01*
X778510Y430022D01*
X776478Y431038D01*
X774446Y430022D01*
X775462Y431038D02*
X775970Y432054D01*
X775462Y433070D01*
X776478Y432562D01*
X777494Y433070D01*
X776986Y432054D01*
X777494Y431038D01*
X776478Y431546D01*
X775462Y431038D01*
X773938Y459486D02*
X774954Y461518D01*
X773938Y463550D01*
X775970Y462534D01*
X778002Y463550D01*
X776986Y461518D01*
X778002Y459486D01*
X775970Y460502D01*
X773938Y459486D01*
X774954Y460502D02*
X775462Y461518D01*
X774954Y462534D01*
X775970Y462026D01*
X776986Y462534D01*
X776478Y461518D01*
X776986Y460502D01*
X775970Y461010D01*
X774954Y460502D01*
X743458Y494792D02*
X744474Y496824D01*
X743458Y498856D01*
X745490Y497840D01*
X747522Y498856D01*
X746506Y496824D01*
X747522Y494792D01*
X745490Y495808D01*
X743458Y494792D01*
X744474Y495808D02*
X744982Y496824D01*
X744474Y497840D01*
X745490Y497332D01*
X746506Y497840D01*
X745998Y496824D01*
X746506Y495808D01*
X745490Y496316D01*
X744474Y495808D01*
X743204Y501396D02*
X744220Y503428D01*
X743204Y505460D01*
X745236Y504444D01*
X747268Y505460D01*
X746252Y503428D01*
X747268Y501396D01*
X745236Y502412D01*
X743204Y501396D01*
X744220Y502412D02*
X744728Y503428D01*
X744220Y504444D01*
X745236Y503936D01*
X746252Y504444D01*
X745744Y503428D01*
X746252Y502412D01*
X745236Y502920D01*
X744220Y502412D01*
X738378Y540258D02*
X739394Y542290D01*
X738378Y544322D01*
X740410Y543306D01*
X742442Y544322D01*
X741426Y542290D01*
X742442Y540258D01*
X740410Y541274D01*
X738378Y540258D01*
X739394Y541274D02*
X739902Y542290D01*
X739394Y543306D01*
X740410Y542798D01*
X741426Y543306D01*
X740918Y542290D01*
X741426Y541274D01*
X740410Y541782D01*
X739394Y541274D01*
X656336Y540258D02*
X657352Y542290D01*
X656336Y544322D01*
X658368Y543306D01*
X660400Y544322D01*
X659384Y542290D01*
X660400Y540258D01*
X658368Y541274D01*
X656336Y540258D01*
X657352Y541274D02*
X657860Y542290D01*
X657352Y543306D01*
X658368Y542798D01*
X659384Y543306D01*
X658876Y542290D01*
X659384Y541274D01*
X658368Y541782D01*
X657352Y541274D01*
X698500Y535940D02*
X699516Y537972D01*
X698500Y540004D01*
X700532Y538988D01*
X702564Y540004D01*
X701548Y537972D01*
X702564Y535940D01*
X700532Y536956D01*
X698500Y535940D01*
X699516Y536956D02*
X700024Y537972D01*
X699516Y538988D01*
X700532Y538480D01*
X701548Y538988D01*
X701040Y537972D01*
X701548Y536956D01*
X700532Y537464D01*
X699516Y536956D01*
X665226Y524002D02*
X666242Y526034D01*
X665226Y528066D01*
X667258Y527050D01*
X669290Y528066D01*
X668274Y526034D01*
X669290Y524002D01*
X667258Y525018D01*
X665226Y524002D01*
X666242Y525018D02*
X666750Y526034D01*
X666242Y527050D01*
X667258Y526542D01*
X668274Y527050D01*
X667766Y526034D01*
X668274Y525018D01*
X667258Y525526D01*
X666242Y525018D01*
X687070Y825246D02*
X688086Y827278D01*
X687070Y829310D01*
X689102Y828294D01*
X691134Y829310D01*
X690118Y827278D01*
X691134Y825246D01*
X689102Y826262D01*
X687070Y825246D01*
X688086Y826262D02*
X688594Y827278D01*
X688086Y828294D01*
X689102Y827786D01*
X690118Y828294D01*
X689610Y827278D01*
X690118Y826262D01*
X689102Y826770D01*
X688086Y826262D01*
X660146Y762508D02*
X661162Y764540D01*
X660146Y766572D01*
X662178Y765556D01*
X664210Y766572D01*
X663194Y764540D01*
X664210Y762508D01*
X662178Y763524D01*
X660146Y762508D01*
X661162Y763524D02*
X661670Y764540D01*
X661162Y765556D01*
X662178Y765048D01*
X663194Y765556D01*
X662686Y764540D01*
X663194Y763524D01*
X662178Y764032D01*
X661162Y763524D01*
X707898Y711708D02*
X708914Y713740D01*
X707898Y715772D01*
X709930Y714756D01*
X711962Y715772D01*
X710946Y713740D01*
X711962Y711708D01*
X709930Y712724D01*
X707898Y711708D01*
X708914Y712724D02*
X709422Y713740D01*
X708914Y714756D01*
X709930Y714248D01*
X710946Y714756D01*
X710438Y713740D01*
X710946Y712724D01*
X709930Y713232D01*
X708914Y712724D01*
X657352Y716026D02*
X658368Y718058D01*
X657352Y720090D01*
X659384Y719074D01*
X661416Y720090D01*
X660400Y718058D01*
X661416Y716026D01*
X659384Y717042D01*
X657352Y716026D01*
X658368Y717042D02*
X658876Y718058D01*
X658368Y719074D01*
X659384Y718566D01*
X660400Y719074D01*
X659892Y718058D01*
X660400Y717042D01*
X659384Y717550D01*
X658368Y717042D01*
X679704Y721106D02*
X680720Y723138D01*
X679704Y725170D01*
X681736Y724154D01*
X683768Y725170D01*
X682752Y723138D01*
X683768Y721106D01*
X681736Y722122D01*
X679704Y721106D01*
X680720Y722122D02*
X681228Y723138D01*
X680720Y724154D01*
X681736Y723646D01*
X682752Y724154D01*
X682244Y723138D01*
X682752Y722122D01*
X681736Y722630D01*
X680720Y722122D01*
X729996Y733044D02*
X731012Y735076D01*
X729996Y737108D01*
X732028Y736092D01*
X734060Y737108D01*
X733044Y735076D01*
X734060Y733044D01*
X732028Y734060D01*
X729996Y733044D01*
X731012Y734060D02*
X731520Y735076D01*
X731012Y736092D01*
X732028Y735584D01*
X733044Y736092D01*
X732536Y735076D01*
X733044Y734060D01*
X732028Y734568D01*
X731012Y734060D01*
X729488Y746506D02*
X730504Y748538D01*
X729488Y750570D01*
X731520Y749554D01*
X733552Y750570D01*
X732536Y748538D01*
X733552Y746506D01*
X731520Y747522D01*
X729488Y746506D01*
X730504Y747522D02*
X731012Y748538D01*
X730504Y749554D01*
X731520Y749046D01*
X732536Y749554D01*
X732028Y748538D01*
X732536Y747522D01*
X731520Y748030D01*
X730504Y747522D01*
X847852Y773430D02*
X848868Y775462D01*
X847852Y777494D01*
X849884Y776478D01*
X851916Y777494D01*
X850900Y775462D01*
X851916Y773430D01*
X849884Y774446D01*
X847852Y773430D01*
X848868Y774446D02*
X849376Y775462D01*
X848868Y776478D01*
X849884Y775970D01*
X850900Y776478D01*
X850392Y775462D01*
X850900Y774446D01*
X849884Y774954D01*
X848868Y774446D01*
X901954Y843026D02*
X902970Y845058D01*
X901954Y847090D01*
X903986Y846074D01*
X906018Y847090D01*
X905002Y845058D01*
X906018Y843026D01*
X903986Y844042D01*
X901954Y843026D01*
X902970Y844042D02*
X903478Y845058D01*
X902970Y846074D01*
X903986Y845566D01*
X905002Y846074D01*
X904494Y845058D01*
X905002Y844042D01*
X903986Y844550D01*
X902970Y844042D01*
X935736Y811276D02*
X936752Y813308D01*
X935736Y815340D01*
X937768Y814324D01*
X939800Y815340D01*
X938784Y813308D01*
X939800Y811276D01*
X937768Y812292D01*
X935736Y811276D01*
X936752Y812292D02*
X937260Y813308D01*
X936752Y814324D01*
X937768Y813816D01*
X938784Y814324D01*
X938276Y813308D01*
X938784Y812292D01*
X937768Y812800D01*
X936752Y812292D01*
X936244Y782320D02*
X937260Y784352D01*
X936244Y786384D01*
X938276Y785368D01*
X940308Y786384D01*
X939292Y784352D01*
X940308Y782320D01*
X938276Y783336D01*
X936244Y782320D01*
X937260Y783336D02*
X937768Y784352D01*
X937260Y785368D01*
X938276Y784860D01*
X939292Y785368D01*
X938784Y784352D01*
X939292Y783336D01*
X938276Y783844D01*
X937260Y783336D01*
X948436Y796798D02*
X949452Y798830D01*
X948436Y800862D01*
X950468Y799846D01*
X952500Y800862D01*
X951484Y798830D01*
X952500Y796798D01*
X950468Y797814D01*
X948436Y796798D01*
X949452Y797814D02*
X949960Y798830D01*
X949452Y799846D01*
X950468Y799338D01*
X951484Y799846D01*
X950976Y798830D01*
X951484Y797814D01*
X950468Y798322D01*
X949452Y797814D01*
X947928Y804418D02*
X948944Y806450D01*
X947928Y808482D01*
X949960Y807466D01*
X951992Y808482D01*
X950976Y806450D01*
X951992Y804418D01*
X949960Y805434D01*
X947928Y804418D01*
X948944Y805434D02*
X949452Y806450D01*
X948944Y807466D01*
X949960Y806958D01*
X950976Y807466D01*
X950468Y806450D01*
X950976Y805434D01*
X949960Y805942D01*
X948944Y805434D01*
X757936Y814324D02*
X758952Y816356D01*
X757936Y818388D01*
X759968Y817372D01*
X762000Y818388D01*
X760984Y816356D01*
X762000Y814324D01*
X759968Y815340D01*
X757936Y814324D01*
X758952Y815340D02*
X759460Y816356D01*
X758952Y817372D01*
X759968Y816864D01*
X760984Y817372D01*
X760476Y816356D01*
X760984Y815340D01*
X759968Y815848D01*
X758952Y815340D01*
X753618Y778002D02*
X754634Y780034D01*
X753618Y782066D01*
X755650Y781050D01*
X757682Y782066D01*
X756666Y780034D01*
X757682Y778002D01*
X755650Y779018D01*
X753618Y778002D01*
X754634Y779018D02*
X755142Y780034D01*
X754634Y781050D01*
X755650Y780542D01*
X756666Y781050D01*
X756158Y780034D01*
X756666Y779018D01*
X755650Y779526D01*
X754634Y779018D01*
X747268Y778002D02*
X748284Y780034D01*
X747268Y782066D01*
X749300Y781050D01*
X751332Y782066D01*
X750316Y780034D01*
X751332Y778002D01*
X749300Y779018D01*
X747268Y778002D01*
X748284Y779018D02*
X748792Y780034D01*
X748284Y781050D01*
X749300Y780542D01*
X750316Y781050D01*
X749808Y780034D01*
X750316Y779018D01*
X749300Y779526D01*
X748284Y779018D01*
X736600Y820674D02*
X737616Y822706D01*
X736600Y824738D01*
X738632Y823722D01*
X740664Y824738D01*
X739648Y822706D01*
X740664Y820674D01*
X738632Y821690D01*
X736600Y820674D01*
X737616Y821690D02*
X738124Y822706D01*
X737616Y823722D01*
X738632Y823214D01*
X739648Y823722D01*
X739140Y822706D01*
X739648Y821690D01*
X738632Y822198D01*
X737616Y821690D01*
X731012Y821436D02*
X732028Y823468D01*
X731012Y825500D01*
X733044Y824484D01*
X735076Y825500D01*
X734060Y823468D01*
X735076Y821436D01*
X733044Y822452D01*
X731012Y821436D01*
X732028Y822452D02*
X732536Y823468D01*
X732028Y824484D01*
X733044Y823976D01*
X734060Y824484D01*
X733552Y823468D01*
X734060Y822452D01*
X733044Y822960D01*
X732028Y822452D01*
X659130Y890016D02*
X660146Y892048D01*
X659130Y894080D01*
X661162Y893064D01*
X663194Y894080D01*
X662178Y892048D01*
X663194Y890016D01*
X661162Y891032D01*
X659130Y890016D01*
X660146Y891032D02*
X660654Y892048D01*
X660146Y893064D01*
X661162Y892556D01*
X662178Y893064D01*
X661670Y892048D01*
X662178Y891032D01*
X661162Y891540D01*
X660146Y891032D01*
X659638Y896112D02*
X660654Y898144D01*
X659638Y900176D01*
X661670Y899160D01*
X663702Y900176D01*
X662686Y898144D01*
X663702Y896112D01*
X661670Y897128D01*
X659638Y896112D01*
X660654Y897128D02*
X661162Y898144D01*
X660654Y899160D01*
X661670Y898652D01*
X662686Y899160D01*
X662178Y898144D01*
X662686Y897128D01*
X661670Y897636D01*
X660654Y897128D01*
X807974Y866648D02*
X808990Y868680D01*
X807974Y870712D01*
X810006Y869696D01*
X812038Y870712D01*
X811022Y868680D01*
X812038Y866648D01*
X810006Y867664D01*
X807974Y866648D01*
X808990Y867664D02*
X809498Y868680D01*
X808990Y869696D01*
X810006Y869188D01*
X811022Y869696D01*
X810514Y868680D01*
X811022Y867664D01*
X810006Y868172D01*
X808990Y867664D01*
X722376Y837438D02*
X723392Y839470D01*
X722376Y841502D01*
X724408Y840486D01*
X726440Y841502D01*
X725424Y839470D01*
X726440Y837438D01*
X724408Y838454D01*
X722376Y837438D01*
X723392Y838454D02*
X723900Y839470D01*
X723392Y840486D01*
X724408Y839978D01*
X725424Y840486D01*
X724916Y839470D01*
X725424Y838454D01*
X724408Y838962D01*
X723392Y838454D01*
X708914Y856996D02*
X709930Y859028D01*
X708914Y861060D01*
X710946Y860044D01*
X712978Y861060D01*
X711962Y859028D01*
X712978Y856996D01*
X710946Y858012D01*
X708914Y856996D01*
X709930Y858012D02*
X710438Y859028D01*
X709930Y860044D01*
X710946Y859536D01*
X711962Y860044D01*
X711454Y859028D01*
X711962Y858012D01*
X710946Y858520D01*
X709930Y858012D01*
X627380Y938276D02*
X628396Y940308D01*
X627380Y942340D01*
X629412Y941324D01*
X631444Y942340D01*
X630428Y940308D01*
X631444Y938276D01*
X629412Y939292D01*
X627380Y938276D01*
X628396Y939292D02*
X628904Y940308D01*
X628396Y941324D01*
X629412Y940816D01*
X630428Y941324D01*
X629920Y940308D01*
X630428Y939292D01*
X629412Y939800D01*
X628396Y939292D01*
X620014Y938530D02*
X621030Y940562D01*
X620014Y942594D01*
X622046Y941578D01*
X624078Y942594D01*
X623062Y940562D01*
X624078Y938530D01*
X622046Y939546D01*
X620014Y938530D01*
X621030Y939546D02*
X621538Y940562D01*
X621030Y941578D01*
X622046Y941070D01*
X623062Y941578D01*
X622554Y940562D01*
X623062Y939546D01*
X622046Y940054D01*
X621030Y939546D01*
X754634Y530860D02*
X755650D01*
X756666Y531876D01*
X757682Y530860D01*
X758698D01*
Y531876D01*
X757682Y532892D01*
X758698Y533908D01*
Y534924D01*
X757682D01*
X756666Y533908D01*
X755650Y534924D01*
X754634D01*
Y533908D01*
X755650Y532892D01*
X754634Y531876D01*
Y530860D01*
X748792Y742950D02*
X749808D01*
X750824Y743966D01*
X751840Y742950D01*
X752856D01*
Y743966D01*
X751840Y744982D01*
X752856Y745998D01*
Y747014D01*
X751840D01*
X750824Y745998D01*
X749808Y747014D01*
X748792D01*
Y745998D01*
X749808Y744982D01*
X748792Y743966D01*
Y742950D01*
X703834Y739902D02*
X704850D01*
X705866Y740918D01*
X706882Y739902D01*
X707898D01*
Y740918D01*
X706882Y741934D01*
X707898Y742950D01*
Y743966D01*
X706882D01*
X705866Y742950D01*
X704850Y743966D01*
X703834D01*
Y742950D01*
X704850Y741934D01*
X703834Y740918D01*
Y739902D01*
X696976Y714248D02*
X697992D01*
X699008Y715264D01*
X700024Y714248D01*
X701040D01*
Y715264D01*
X700024Y716280D01*
X701040Y717296D01*
Y718312D01*
X700024D01*
X699008Y717296D01*
X697992Y718312D01*
X696976D01*
Y717296D01*
X697992Y716280D01*
X696976Y715264D01*
Y714248D01*
X756412Y219964D02*
X757428D01*
X758444Y220980D01*
X759460Y219964D01*
X760476D01*
Y220980D01*
X759460Y221996D01*
X760476Y223012D01*
Y224028D01*
X759460D01*
X758444Y223012D01*
X757428Y224028D01*
X756412D01*
Y223012D01*
X757428Y221996D01*
X756412Y220980D01*
Y219964D01*
X757936Y266954D02*
X758952D01*
X759968Y267970D01*
X760984Y266954D01*
X762000D01*
Y267970D01*
X760984Y268986D01*
X762000Y270002D01*
Y271018D01*
X760984D01*
X759968Y270002D01*
X758952Y271018D01*
X757936D01*
Y270002D01*
X758952Y268986D01*
X757936Y267970D01*
Y266954D01*
X529336Y316992D02*
X530352D01*
X531368Y318008D01*
X532384Y316992D01*
X533400D01*
Y318008D01*
X532384Y319024D01*
X533400Y320040D01*
Y321056D01*
X532384D01*
X531368Y320040D01*
X530352Y321056D01*
X529336D01*
Y320040D01*
X530352Y319024D01*
X529336Y318008D01*
Y316992D01*
X440436Y381254D02*
X441452D01*
X442468Y382270D01*
X443484Y381254D01*
X444500D01*
Y382270D01*
X443484Y383286D01*
X444500Y384302D01*
Y385318D01*
X443484D01*
X442468Y384302D01*
X441452Y385318D01*
X440436D01*
Y384302D01*
X441452Y383286D01*
X440436Y382270D01*
Y381254D01*
X528320Y380746D02*
X529336D01*
X530352Y381762D01*
X531368Y380746D01*
X532384D01*
Y381762D01*
X531368Y382778D01*
X532384Y383794D01*
Y384810D01*
X531368D01*
X530352Y383794D01*
X529336Y384810D01*
X528320D01*
Y383794D01*
X529336Y382778D01*
X528320Y381762D01*
Y380746D01*
X761492Y459232D02*
X762508D01*
X763524Y460248D01*
X764540Y459232D01*
X765556D01*
Y460248D01*
X764540Y461264D01*
X765556Y462280D01*
Y463296D01*
X764540D01*
X763524Y462280D01*
X762508Y463296D01*
X761492D01*
Y462280D01*
X762508Y461264D01*
X761492Y460248D01*
Y459232D01*
X369570Y609854D02*
X370586D01*
X371602Y610870D01*
X372618Y609854D01*
X373634D01*
Y610870D01*
X372618Y611886D01*
X373634Y612902D01*
Y613918D01*
X372618D01*
X371602Y612902D01*
X370586Y613918D01*
X369570D01*
Y612902D01*
X370586Y611886D01*
X369570Y610870D01*
Y609854D01*
Y587502D02*
X370586D01*
X371602Y588518D01*
X372618Y587502D01*
X373634D01*
Y588518D01*
X372618Y589534D01*
X373634Y590550D01*
Y591566D01*
X372618D01*
X371602Y590550D01*
X370586Y591566D01*
X369570D01*
Y590550D01*
X370586Y589534D01*
X369570Y588518D01*
Y587502D01*
X657162Y241300D02*
X658178D01*
X659194Y242316D01*
X660210Y241300D01*
X661226D01*
Y242316D01*
X660210Y243332D01*
X661226Y244348D01*
Y245364D01*
X660210D01*
X659194Y244348D01*
X658178Y245364D01*
X657162D01*
Y244348D01*
X658178Y243332D01*
X657162Y242316D01*
Y241300D01*
X518668Y226568D02*
X519684D01*
X520700Y227584D01*
X521716Y226568D01*
X522732D01*
Y227584D01*
X521716Y228600D01*
X522732Y229616D01*
Y230632D01*
X521716D01*
X520700Y229616D01*
X519684Y230632D01*
X518668D01*
Y229616D01*
X519684Y228600D01*
X518668Y227584D01*
Y226568D01*
X480568Y206248D02*
X481584D01*
X482600Y207264D01*
X483616Y206248D01*
X484632D01*
Y207264D01*
X483616Y208280D01*
X484632Y209296D01*
Y210312D01*
X483616D01*
X482600Y209296D01*
X481584Y210312D01*
X480568D01*
Y209296D01*
X481584Y208280D01*
X480568Y207264D01*
Y206248D01*
X727002Y236718D02*
X724970Y240782D01*
X729034D01*
X727002Y236718D01*
Y237734D02*
X725986Y239766D01*
X728018D01*
X727002Y237734D01*
Y225718D02*
X724970Y229782D01*
X729034D01*
X727002Y225718D01*
Y226734D02*
X725986Y228766D01*
X728018D01*
X727002Y226734D01*
Y214718D02*
X724970Y218782D01*
X729034D01*
X727002Y214718D01*
Y215734D02*
X725986Y217766D01*
X728018D01*
X727002Y215734D01*
Y203718D02*
X724970Y207782D01*
X729034D01*
X727002Y203718D01*
Y204734D02*
X725986Y206766D01*
X728018D01*
X727002Y204734D01*
X716002Y236718D02*
X713970Y240782D01*
X718034D01*
X716002Y236718D01*
Y237734D02*
X714986Y239766D01*
X717018D01*
X716002Y237734D01*
Y225718D02*
X713970Y229782D01*
X718034D01*
X716002Y225718D01*
Y226734D02*
X714986Y228766D01*
X717018D01*
X716002Y226734D01*
Y214718D02*
X713970Y218782D01*
X718034D01*
X716002Y214718D01*
Y215734D02*
X714986Y217766D01*
X717018D01*
X716002Y215734D01*
Y203718D02*
X713970Y207782D01*
X718034D01*
X716002Y203718D01*
Y204734D02*
X714986Y206766D01*
X717018D01*
X716002Y204734D01*
X705002Y236718D02*
X702970Y240782D01*
X707034D01*
X705002Y236718D01*
Y237734D02*
X703986Y239766D01*
X706018D01*
X705002Y237734D01*
Y225718D02*
X702970Y229782D01*
X707034D01*
X705002Y225718D01*
Y226734D02*
X703986Y228766D01*
X706018D01*
X705002Y226734D01*
Y214718D02*
X702970Y218782D01*
X707034D01*
X705002Y214718D01*
Y215734D02*
X703986Y217766D01*
X706018D01*
X705002Y215734D01*
Y203718D02*
X702970Y207782D01*
X707034D01*
X705002Y203718D01*
Y204734D02*
X703986Y206766D01*
X706018D01*
X705002Y204734D01*
X694002Y236718D02*
X691970Y240782D01*
X696034D01*
X694002Y236718D01*
Y237734D02*
X692986Y239766D01*
X695018D01*
X694002Y237734D01*
Y225718D02*
X691970Y229782D01*
X696034D01*
X694002Y225718D01*
Y226734D02*
X692986Y228766D01*
X695018D01*
X694002Y226734D01*
Y214718D02*
X691970Y218782D01*
X696034D01*
X694002Y214718D01*
Y215734D02*
X692986Y217766D01*
X695018D01*
X694002Y215734D01*
Y203718D02*
X691970Y207782D01*
X696034D01*
X694002Y203718D01*
Y204734D02*
X692986Y206766D01*
X695018D01*
X694002Y204734D01*
X500996Y410464D02*
X502012D01*
X503028Y411480D01*
X504044Y410464D01*
X505060D01*
Y411480D01*
X504044Y412496D01*
X505060Y413512D01*
Y414528D01*
X504044D01*
X503028Y413512D01*
X502012Y414528D01*
X500996D01*
Y413512D01*
X502012Y412496D01*
X500996Y411480D01*
Y410464D01*
X493014Y398780D02*
X494030D01*
X495046Y399796D01*
X496062Y398780D01*
X497078D01*
Y399796D01*
X496062Y400812D01*
X497078Y401828D01*
Y402844D01*
X496062D01*
X495046Y401828D01*
X494030Y402844D01*
X493014D01*
Y401828D01*
X494030Y400812D01*
X493014Y399796D01*
Y398780D01*
X483108Y392938D02*
X484124D01*
X485140Y393954D01*
X486156Y392938D01*
X487172D01*
Y393954D01*
X486156Y394970D01*
X487172Y395986D01*
Y397002D01*
X486156D01*
X485140Y395986D01*
X484124Y397002D01*
X483108D01*
Y395986D01*
X484124Y394970D01*
X483108Y393954D01*
Y392938D01*
X454605Y396287D02*
X455621D01*
X456637Y397303D01*
X457653Y396287D01*
X458669D01*
Y397303D01*
X457653Y398319D01*
X458669Y399335D01*
Y400351D01*
X457653D01*
X456637Y399335D01*
X455621Y400351D01*
X454605D01*
Y399335D01*
X455621Y398319D01*
X454605Y397303D01*
Y396287D01*
X463250Y414757D02*
X464266D01*
X465282Y415773D01*
X466298Y414757D01*
X467314D01*
Y415773D01*
X466298Y416789D01*
X467314Y417805D01*
Y418821D01*
X466298D01*
X465282Y417805D01*
X464266Y418821D01*
X463250D01*
Y417805D01*
X464266Y416789D01*
X463250Y415773D01*
Y414757D01*
X468884Y552196D02*
X469900D01*
X470916Y553212D01*
X471932Y552196D01*
X472948D01*
Y553212D01*
X471932Y554228D01*
X472948Y555244D01*
Y556260D01*
X471932D01*
X470916Y555244D01*
X469900Y556260D01*
X468884D01*
Y555244D01*
X469900Y554228D01*
X468884Y553212D01*
Y552196D01*
X476504Y541020D02*
X477520D01*
X478536Y542036D01*
X479552Y541020D01*
X480568D01*
Y542036D01*
X479552Y543052D01*
X480568Y544068D01*
Y545084D01*
X479552D01*
X478536Y544068D01*
X477520Y545084D01*
X476504D01*
Y544068D01*
X477520Y543052D01*
X476504Y542036D01*
Y541020D01*
X450033Y553224D02*
X451049D01*
X452065Y554240D01*
X453081Y553224D01*
X454097D01*
Y554240D01*
X453081Y555256D01*
X454097Y556272D01*
Y557288D01*
X453081D01*
X452065Y556272D01*
X451049Y557288D01*
X450033D01*
Y556272D01*
X451049Y555256D01*
X450033Y554240D01*
Y553224D01*
X440436Y552196D02*
X441452D01*
X442468Y553212D01*
X443484Y552196D01*
X444500D01*
Y553212D01*
X443484Y554228D01*
X444500Y555244D01*
Y556260D01*
X443484D01*
X442468Y555244D01*
X441452Y556260D01*
X440436D01*
Y555244D01*
X441452Y554228D01*
X440436Y553212D01*
Y552196D01*
X750062Y438912D02*
X751078D01*
X752094Y439928D01*
X753110Y438912D01*
X754126D01*
Y439928D01*
X753110Y440944D01*
X754126Y441960D01*
Y442976D01*
X753110D01*
X752094Y441960D01*
X751078Y442976D01*
X750062D01*
Y441960D01*
X751078Y440944D01*
X750062Y439928D01*
Y438912D01*
X454406Y630936D02*
X455422D01*
X456438Y631952D01*
X457454Y630936D01*
X458470D01*
Y631952D01*
X457454Y632968D01*
X458470Y633984D01*
Y635000D01*
X457454D01*
X456438Y633984D01*
X455422Y635000D01*
X454406D01*
Y633984D01*
X455422Y632968D01*
X454406Y631952D01*
Y630936D01*
X461010Y641350D02*
X462026D01*
X463042Y642366D01*
X464058Y641350D01*
X465074D01*
Y642366D01*
X464058Y643382D01*
X465074Y644398D01*
Y645414D01*
X464058D01*
X463042Y644398D01*
X462026Y645414D01*
X461010D01*
Y644398D01*
X462026Y643382D01*
X461010Y642366D01*
Y641350D01*
X477266Y653542D02*
X478282D01*
X479298Y654558D01*
X480314Y653542D01*
X481330D01*
Y654558D01*
X480314Y655574D01*
X481330Y656590D01*
Y657606D01*
X480314D01*
X479298Y656590D01*
X478282Y657606D01*
X477266D01*
Y656590D01*
X478282Y655574D01*
X477266Y654558D01*
Y653542D01*
X542544Y559308D02*
X543560D01*
X544576Y560324D01*
X545592Y559308D01*
X546608D01*
Y560324D01*
X545592Y561340D01*
X546608Y562356D01*
Y563372D01*
X545592D01*
X544576Y562356D01*
X543560Y563372D01*
X542544D01*
Y562356D01*
X543560Y561340D01*
X542544Y560324D01*
Y559308D01*
X519684Y636778D02*
X520700D01*
X521716Y637794D01*
X522732Y636778D01*
X523748D01*
Y637794D01*
X522732Y638810D01*
X523748Y639826D01*
Y640842D01*
X522732D01*
X521716Y639826D01*
X520700Y640842D01*
X519684D01*
Y639826D01*
X520700Y638810D01*
X519684Y637794D01*
Y636778D01*
X537718Y656590D02*
X538734D01*
X539750Y657606D01*
X540766Y656590D01*
X541782D01*
Y657606D01*
X540766Y658622D01*
X541782Y659638D01*
Y660654D01*
X540766D01*
X539750Y659638D01*
X538734Y660654D01*
X537718D01*
Y659638D01*
X538734Y658622D01*
X537718Y657606D01*
Y656590D01*
X549148Y624332D02*
X550164D01*
X551180Y625348D01*
X552196Y624332D01*
X553212D01*
Y625348D01*
X552196Y626364D01*
X553212Y627380D01*
Y628396D01*
X552196D01*
X551180Y627380D01*
X550164Y628396D01*
X549148D01*
Y627380D01*
X550164Y626364D01*
X549148Y625348D01*
Y624332D01*
X509016Y674370D02*
X510032D01*
X511048Y675386D01*
X512064Y674370D01*
X513080D01*
Y675386D01*
X512064Y676402D01*
X513080Y677418D01*
Y678434D01*
X512064D01*
X511048Y677418D01*
X510032Y678434D01*
X509016D01*
Y677418D01*
X510032Y676402D01*
X509016Y675386D01*
Y674370D01*
X299974Y455835D02*
X300990D01*
X302006Y456851D01*
X303022Y455835D01*
X304038D01*
Y456851D01*
X303022Y457867D01*
X304038Y458883D01*
Y459899D01*
X303022D01*
X302006Y458883D01*
X300990Y459899D01*
X299974D01*
Y458883D01*
X300990Y457867D01*
X299974Y456851D01*
Y455835D01*
X351256Y499730D02*
X352272D01*
X353288Y500746D01*
X354304Y499730D01*
X355320D01*
Y500746D01*
X354304Y501762D01*
X355320Y502778D01*
Y503794D01*
X354304D01*
X353288Y502778D01*
X352272Y503794D01*
X351256D01*
Y502778D01*
X352272Y501762D01*
X351256Y500746D01*
Y499730D01*
X325628Y392684D02*
X326644D01*
X327660Y393700D01*
X328676Y392684D01*
X329692D01*
Y393700D01*
X328676Y394716D01*
X329692Y395732D01*
Y396748D01*
X328676D01*
X327660Y395732D01*
X326644Y396748D01*
X325628D01*
Y395732D01*
X326644Y394716D01*
X325628Y393700D01*
Y392684D01*
X362948Y501364D02*
X363964D01*
X364980Y502380D01*
X365996Y501364D01*
X367012D01*
Y502380D01*
X365996Y503396D01*
X367012Y504412D01*
Y505428D01*
X365996D01*
X364980Y504412D01*
X363964Y505428D01*
X362948D01*
Y504412D01*
X363964Y503396D01*
X362948Y502380D01*
Y501364D01*
X425907Y494995D02*
X426923D01*
X427939Y496011D01*
X428955Y494995D01*
X429971D01*
Y496011D01*
X428955Y497027D01*
X429971Y498043D01*
Y499059D01*
X428955D01*
X427939Y498043D01*
X426923Y499059D01*
X425907D01*
Y498043D01*
X426923Y497027D01*
X425907Y496011D01*
Y494995D01*
X447548Y463296D02*
X448564D01*
X449580Y464312D01*
X450596Y463296D01*
X451612D01*
Y464312D01*
X450596Y465328D01*
X451612Y466344D01*
Y467360D01*
X450596D01*
X449580Y466344D01*
X448564Y467360D01*
X447548D01*
Y466344D01*
X448564Y465328D01*
X447548Y464312D01*
Y463296D01*
X512826Y452120D02*
X513842D01*
X514858Y453136D01*
X515874Y452120D01*
X516890D01*
Y453136D01*
X515874Y454152D01*
X516890Y455168D01*
Y456184D01*
X515874D01*
X514858Y455168D01*
X513842Y456184D01*
X512826D01*
Y455168D01*
X513842Y454152D01*
X512826Y453136D01*
Y452120D01*
X688858Y798566D02*
X686826Y802630D01*
X690890D01*
X688858Y798566D01*
Y799582D02*
X687842Y801614D01*
X689874D01*
X688858Y799582D01*
X699858Y798566D02*
X697826Y802630D01*
X701890D01*
X699858Y798566D01*
Y799582D02*
X698842Y801614D01*
X700874D01*
X699858Y799582D01*
X710858Y798566D02*
X708826Y802630D01*
X712890D01*
X710858Y798566D01*
Y799582D02*
X709842Y801614D01*
X711874D01*
X710858Y799582D01*
X721858Y798566D02*
X719826Y802630D01*
X723890D01*
X721858Y798566D01*
Y799582D02*
X720842Y801614D01*
X722874D01*
X721858Y799582D01*
X688858Y787566D02*
X686826Y791630D01*
X690890D01*
X688858Y787566D01*
Y788582D02*
X687842Y790614D01*
X689874D01*
X688858Y788582D01*
X699858Y787566D02*
X697826Y791630D01*
X701890D01*
X699858Y787566D01*
Y788582D02*
X698842Y790614D01*
X700874D01*
X699858Y788582D01*
X710858Y787566D02*
X708826Y791630D01*
X712890D01*
X710858Y787566D01*
Y788582D02*
X709842Y790614D01*
X711874D01*
X710858Y788582D01*
X721858Y787566D02*
X719826Y791630D01*
X723890D01*
X721858Y787566D01*
Y788582D02*
X720842Y790614D01*
X722874D01*
X721858Y788582D01*
X688858Y776566D02*
X686826Y780630D01*
X690890D01*
X688858Y776566D01*
Y777582D02*
X687842Y779614D01*
X689874D01*
X688858Y777582D01*
X699858Y776566D02*
X697826Y780630D01*
X701890D01*
X699858Y776566D01*
Y777582D02*
X698842Y779614D01*
X700874D01*
X699858Y777582D01*
X710858Y776566D02*
X708826Y780630D01*
X712890D01*
X710858Y776566D01*
Y777582D02*
X709842Y779614D01*
X711874D01*
X710858Y777582D01*
X721858Y776566D02*
X719826Y780630D01*
X723890D01*
X721858Y776566D01*
Y777582D02*
X720842Y779614D01*
X722874D01*
X721858Y777582D01*
X688858Y765566D02*
X686826Y769630D01*
X690890D01*
X688858Y765566D01*
Y766582D02*
X687842Y768614D01*
X689874D01*
X688858Y766582D01*
X699858Y765566D02*
X697826Y769630D01*
X701890D01*
X699858Y765566D01*
Y766582D02*
X698842Y768614D01*
X700874D01*
X699858Y766582D01*
X710858Y765566D02*
X708826Y769630D01*
X712890D01*
X710858Y765566D01*
Y766582D02*
X709842Y768614D01*
X711874D01*
X710858Y766582D01*
X721858Y765566D02*
X719826Y769630D01*
X723890D01*
X721858Y765566D01*
Y766582D02*
X720842Y768614D01*
X722874D01*
X721858Y766582D01*
X658368Y730250D02*
X659384D01*
X660400Y731266D01*
X661416Y730250D01*
X662432D01*
Y731266D01*
X661416Y732282D01*
X662432Y733298D01*
Y734314D01*
X661416D01*
X660400Y733298D01*
X659384Y734314D01*
X658368D01*
Y733298D01*
X659384Y732282D01*
X658368Y731266D01*
Y730250D01*
X751332Y458880D02*
X752348D01*
X753364Y459896D01*
X754380Y458880D01*
X755396D01*
Y459896D01*
X754380Y460912D01*
X755396Y461928D01*
Y462944D01*
X754380D01*
X753364Y461928D01*
X752348Y462944D01*
X751332D01*
Y461928D01*
X752348Y460912D01*
X751332Y459896D01*
Y458880D01*
X688898Y449232D02*
X686866Y453296D01*
X690930D01*
X688898Y449232D01*
Y450248D02*
X687882Y452280D01*
X689914D01*
X688898Y450248D01*
Y460232D02*
X686866Y464296D01*
X690930D01*
X688898Y460232D01*
Y461248D02*
X687882Y463280D01*
X689914D01*
X688898Y461248D01*
Y471232D02*
X686866Y475296D01*
X690930D01*
X688898Y471232D01*
Y472248D02*
X687882Y474280D01*
X689914D01*
X688898Y472248D01*
Y482232D02*
X686866Y486296D01*
X690930D01*
X688898Y482232D01*
Y483248D02*
X687882Y485280D01*
X689914D01*
X688898Y483248D01*
X699898Y449232D02*
X697866Y453296D01*
X701930D01*
X699898Y449232D01*
Y450248D02*
X698882Y452280D01*
X700914D01*
X699898Y450248D01*
Y460232D02*
X697866Y464296D01*
X701930D01*
X699898Y460232D01*
Y461248D02*
X698882Y463280D01*
X700914D01*
X699898Y461248D01*
Y471232D02*
X697866Y475296D01*
X701930D01*
X699898Y471232D01*
Y472248D02*
X698882Y474280D01*
X700914D01*
X699898Y472248D01*
Y482232D02*
X697866Y486296D01*
X701930D01*
X699898Y482232D01*
Y483248D02*
X698882Y485280D01*
X700914D01*
X699898Y483248D01*
X710898Y449232D02*
X708866Y453296D01*
X712930D01*
X710898Y449232D01*
Y450248D02*
X709882Y452280D01*
X711914D01*
X710898Y450248D01*
Y460232D02*
X708866Y464296D01*
X712930D01*
X710898Y460232D01*
Y461248D02*
X709882Y463280D01*
X711914D01*
X710898Y461248D01*
Y471232D02*
X708866Y475296D01*
X712930D01*
X710898Y471232D01*
Y472248D02*
X709882Y474280D01*
X711914D01*
X710898Y472248D01*
Y482232D02*
X708866Y486296D01*
X712930D01*
X710898Y482232D01*
Y483248D02*
X709882Y485280D01*
X711914D01*
X710898Y483248D01*
X721898Y449232D02*
X719866Y453296D01*
X723930D01*
X721898Y449232D01*
Y450248D02*
X720882Y452280D01*
X722914D01*
X721898Y450248D01*
Y460232D02*
X719866Y464296D01*
X723930D01*
X721898Y460232D01*
Y461248D02*
X720882Y463280D01*
X722914D01*
X721898Y461248D01*
Y471232D02*
X719866Y475296D01*
X723930D01*
X721898Y471232D01*
Y472248D02*
X720882Y474280D01*
X722914D01*
X721898Y472248D01*
Y482232D02*
X719866Y486296D01*
X723930D01*
X721898Y482232D01*
Y483248D02*
X720882Y485280D01*
X722914D01*
X721898Y483248D01*
X602608Y443974D02*
X603624D01*
X604640Y444990D01*
X605656Y443974D01*
X606672D01*
Y444990D01*
X605656Y446006D01*
X606672Y447022D01*
Y448038D01*
X605656D01*
X604640Y447022D01*
X603624Y448038D01*
X602608D01*
Y447022D01*
X603624Y446006D01*
X602608Y444990D01*
Y443974D01*
X544830Y468884D02*
X545846D01*
X546862Y469900D01*
X547878Y468884D01*
X548894D01*
Y469900D01*
X547878Y470916D01*
X548894Y471932D01*
Y472948D01*
X547878D01*
X546862Y471932D01*
X545846Y472948D01*
X544830D01*
Y471932D01*
X545846Y470916D01*
X544830Y469900D01*
Y468884D01*
X523494Y575310D02*
X524510D01*
X525526Y576326D01*
X526542Y575310D01*
X527558D01*
Y576326D01*
X526542Y577342D01*
X527558Y578358D01*
Y579374D01*
X526542D01*
X525526Y578358D01*
X524510Y579374D01*
X523494D01*
Y578358D01*
X524510Y577342D01*
X523494Y576326D01*
Y575310D01*
M02*
