G04*
G04 #@! TF.GenerationSoftware,Altium Limited,Altium Designer,22.5.1 (42)*
G04*
G04 Layer_Physical_Order=1*
G04 Layer_Color=255*
%FSLAX44Y44*%
%MOMM*%
G71*
G04*
G04 #@! TF.SameCoordinates,2ABD4F99-51B0-466E-819A-8B20F5DB8373*
G04*
G04*
G04 #@! TF.FilePolarity,Positive*
G04*
G01*
G75*
%ADD12C,0.2540*%
%ADD18R,0.5200X0.5200*%
%ADD19R,4.2000X4.2000*%
%ADD20O,1.1500X0.3000*%
%ADD21O,0.3000X1.1500*%
%ADD22R,0.3000X1.4750*%
%ADD23R,1.4750X0.3000*%
%ADD24R,4.2000X4.2000*%
%ADD25R,0.5200X0.5200*%
%ADD26R,0.5000X0.4750*%
%ADD27R,0.4750X0.5000*%
%ADD28R,3.8100X1.1000*%
%ADD29R,0.4000X2.0000*%
G04:AMPARAMS|DCode=30|XSize=2mm|YSize=0.4mm|CornerRadius=0.2mm|HoleSize=0mm|Usage=FLASHONLY|Rotation=90.000|XOffset=0mm|YOffset=0mm|HoleType=Round|Shape=RoundedRectangle|*
%AMROUNDEDRECTD30*
21,1,2.0000,0.0000,0,0,90.0*
21,1,1.6000,0.4000,0,0,90.0*
1,1,0.4000,0.0000,0.8000*
1,1,0.4000,0.0000,-0.8000*
1,1,0.4000,0.0000,-0.8000*
1,1,0.4000,0.0000,0.8000*
%
%ADD30ROUNDEDRECTD30*%
%ADD31R,0.6153X0.5725*%
%ADD32R,0.8500X0.8500*%
%ADD33R,1.9000X2.4000*%
%ADD34R,1.8000X1.7000*%
%ADD35R,1.1000X1.2000*%
%ADD36R,1.2700X1.2700*%
%ADD37R,0.4725X0.4682*%
%ADD38R,0.4500X1.3800*%
%ADD39R,1.4250X1.5500*%
%ADD40R,1.0000X1.9000*%
%ADD41R,1.8000X1.9000*%
%ADD42R,1.6500X1.3000*%
%ADD43R,0.5000X0.7000*%
%ADD44R,0.6000X0.5000*%
%ADD45R,1.7000X1.8000*%
%ADD46R,0.5725X0.6153*%
%ADD47R,0.8500X0.9000*%
%ADD48R,0.5000X0.6000*%
%ADD49R,0.6725X0.7393*%
%ADD50R,0.8500X0.8500*%
%ADD51R,0.8000X1.7000*%
%ADD52R,1.5240X1.5240*%
%ADD53R,1.5240X1.5240*%
%ADD54R,1.2700X1.2700*%
%ADD55R,1.1000X3.8100*%
%ADD56R,2.3000X2.5000*%
%ADD57R,1.0000X2.4000*%
%ADD58R,3.3000X2.4000*%
%ADD59R,1.1000X1.9000*%
%ADD60R,5.5000X2.0000*%
%ADD61R,0.9000X0.8500*%
%ADD86C,3.1800*%
%ADD87C,1.5000*%
%ADD88R,1.5000X1.5000*%
%ADD93R,1.4000X1.4000*%
%ADD94C,1.4000*%
%ADD99C,0.7500*%
%ADD103C,0.3810*%
%ADD104O,1.5240X1.0000*%
%ADD105C,1.6000*%
G04:AMPARAMS|DCode=106|XSize=1.6mm|YSize=1.6mm|CornerRadius=0.4mm|HoleSize=0mm|Usage=FLASHONLY|Rotation=180.000|XOffset=0mm|YOffset=0mm|HoleType=Round|Shape=RoundedRectangle|*
%AMROUNDEDRECTD106*
21,1,1.6000,0.8000,0,0,180.0*
21,1,0.8000,1.6000,0,0,180.0*
1,1,0.8000,-0.4000,0.4000*
1,1,0.8000,0.4000,0.4000*
1,1,0.8000,0.4000,-0.4000*
1,1,0.8000,-0.4000,-0.4000*
%
%ADD106ROUNDEDRECTD106*%
%ADD107C,1.0500*%
%ADD108R,1.0500X1.0500*%
G04:AMPARAMS|DCode=109|XSize=4mm|YSize=1.8mm|CornerRadius=0.45mm|HoleSize=0mm|Usage=FLASHONLY|Rotation=270.000|XOffset=0mm|YOffset=0mm|HoleType=Round|Shape=RoundedRectangle|*
%AMROUNDEDRECTD109*
21,1,4.0000,0.9000,0,0,270.0*
21,1,3.1000,1.8000,0,0,270.0*
1,1,0.9000,-0.4500,-1.5500*
1,1,0.9000,-0.4500,1.5500*
1,1,0.9000,0.4500,1.5500*
1,1,0.9000,0.4500,-1.5500*
%
%ADD109ROUNDEDRECTD109*%
G04:AMPARAMS|DCode=110|XSize=4mm|YSize=1.8mm|CornerRadius=0.45mm|HoleSize=0mm|Usage=FLASHONLY|Rotation=0.000|XOffset=0mm|YOffset=0mm|HoleType=Round|Shape=RoundedRectangle|*
%AMROUNDEDRECTD110*
21,1,4.0000,0.9000,0,0,0.0*
21,1,3.1000,1.8000,0,0,0.0*
1,1,0.9000,1.5500,-0.4500*
1,1,0.9000,-1.5500,-0.4500*
1,1,0.9000,-1.5500,0.4500*
1,1,0.9000,1.5500,0.4500*
%
%ADD110ROUNDEDRECTD110*%
%ADD111C,6.0000*%
%ADD112C,0.5080*%
%ADD113C,0.7620*%
%ADD114C,0.5000*%
G36*
X116393Y999998D02*
X113588Y1000073D01*
X108006Y999489D01*
X102548Y998182D01*
X97307Y996173D01*
X92374Y993498D01*
X87831Y990201D01*
X83758Y986340D01*
X80224Y981980D01*
X77289Y977196D01*
X75004Y972070D01*
X73407Y966690D01*
X72526Y961147D01*
X72451Y958342D01*
X72451Y958342D01*
X72451Y958342D01*
X72451Y413853D01*
X73721Y413601D01*
X74191Y414734D01*
X75318Y416203D01*
X76787Y417330D01*
X78497Y418039D01*
X80333Y418281D01*
X85573D01*
X87409Y418039D01*
X89119Y417330D01*
X90588Y416203D01*
X91715Y414734D01*
X92424Y413024D01*
X92666Y411188D01*
X92424Y409352D01*
X91715Y407642D01*
X90588Y406173D01*
X89119Y405046D01*
X87409Y404337D01*
X85573Y404095D01*
X80333D01*
X78497Y404337D01*
X76787Y405046D01*
X75318Y406173D01*
X74191Y407642D01*
X73721Y408775D01*
X72451Y408523D01*
Y40640D01*
X72634Y37843D01*
X73727Y32345D01*
X75529Y27037D01*
X78008Y22009D01*
X81122Y17348D01*
X84818Y13133D01*
X89032Y9436D01*
X93693Y6322D01*
X98721Y3842D01*
X104029Y2040D01*
X109527Y946D01*
X115120Y579D01*
X117917Y762D01*
X117917Y762D01*
X117917Y762D01*
X1028507D01*
X1031379Y837D01*
X1037054Y1735D01*
X1042563Y3366D01*
X1047812Y5703D01*
X1052711Y8704D01*
X1057177Y12320D01*
X1061132Y16487D01*
X1064510Y21135D01*
X1067252Y26184D01*
X1069311Y31548D01*
X1070653Y37134D01*
X1071254Y42848D01*
X1071179Y45720D01*
X1071179Y45720D01*
X1070925Y957072D01*
X1070933Y959927D01*
X1070205Y965591D01*
X1068743Y971111D01*
X1066573Y976393D01*
X1063732Y981346D01*
X1060269Y985887D01*
X1056243Y989936D01*
X1051723Y993426D01*
X1046786Y996295D01*
X1041517Y998496D01*
X1036005Y999990D01*
X1030346Y1000752D01*
X1027491Y1000760D01*
X1027491Y1000760D01*
X116393Y999998D01*
D02*
G37*
%LPC*%
G36*
X517087Y951610D02*
X517205D01*
Y942340D01*
X507935D01*
Y942458D01*
X508653Y945138D01*
X510041Y947542D01*
X512003Y949504D01*
X514407Y950892D01*
X517087Y951610D01*
D02*
G37*
G36*
X519745D02*
X519863D01*
X522543Y950892D01*
X524947Y949504D01*
X526909Y947542D01*
X528297Y945138D01*
X529015Y942458D01*
Y942340D01*
X519745D01*
Y951610D01*
D02*
G37*
G36*
X542487D02*
X542605D01*
Y942340D01*
X533335D01*
Y942458D01*
X534053Y945138D01*
X535441Y947542D01*
X537403Y949504D01*
X539807Y950892D01*
X542487Y951610D01*
D02*
G37*
G36*
X545145D02*
X545263D01*
X547943Y950892D01*
X550347Y949504D01*
X552309Y947542D01*
X553697Y945138D01*
X554415Y942458D01*
Y942340D01*
X545145D01*
Y951610D01*
D02*
G37*
G36*
X450911Y945535D02*
X452519Y944869D01*
X453948Y943440D01*
X454614Y941832D01*
X450911D01*
Y945535D01*
D02*
G37*
G36*
X441005Y945281D02*
Y941578D01*
X437303D01*
X437968Y943186D01*
X439398Y944615D01*
X441005Y945281D01*
D02*
G37*
G36*
X450911Y939292D02*
X454614D01*
X453948Y937684D01*
X452519Y936255D01*
X450911Y935590D01*
Y939292D01*
D02*
G37*
G36*
X437303Y939038D02*
X441005D01*
Y935335D01*
X439398Y936001D01*
X437968Y937430D01*
X437303Y939038D01*
D02*
G37*
G36*
X448371Y945535D02*
Y940562D01*
Y935590D01*
X446763Y936255D01*
X446085Y936934D01*
X445153Y936001D01*
X443545Y935335D01*
Y940308D01*
Y945281D01*
X445153Y944615D01*
X445831Y943936D01*
X446763Y944869D01*
X448371Y945535D01*
D02*
G37*
G36*
X567954Y951102D02*
X570596D01*
X573147Y950418D01*
X575435Y949098D01*
X577303Y947230D01*
X578623Y944942D01*
X579307Y942391D01*
Y939749D01*
X578623Y937198D01*
X577303Y934910D01*
X575435Y933042D01*
X573147Y931722D01*
X570596Y931038D01*
X567954D01*
X565403Y931722D01*
X563115Y933042D01*
X561247Y934910D01*
X559927Y937198D01*
X559243Y939749D01*
Y942391D01*
X559927Y944942D01*
X561247Y947230D01*
X563115Y949098D01*
X565403Y950418D01*
X567954Y951102D01*
D02*
G37*
G36*
X507935Y939800D02*
X517205D01*
Y930530D01*
X517087D01*
X514407Y931248D01*
X512003Y932636D01*
X510041Y934598D01*
X508653Y937002D01*
X507935Y939682D01*
Y939800D01*
D02*
G37*
G36*
X519745D02*
X529015D01*
Y939682D01*
X528297Y937002D01*
X526909Y934598D01*
X524947Y932636D01*
X522543Y931248D01*
X519863Y930530D01*
X519745D01*
Y939800D01*
D02*
G37*
G36*
X533335D02*
X542605D01*
Y930530D01*
X542487D01*
X539807Y931248D01*
X537403Y932636D01*
X535441Y934598D01*
X534053Y937002D01*
X533335Y939682D01*
Y939800D01*
D02*
G37*
G36*
X545145D02*
X554415D01*
Y939682D01*
X553697Y937002D01*
X552309Y934598D01*
X550347Y932636D01*
X547943Y931248D01*
X545263Y930530D01*
X545145D01*
Y939800D01*
D02*
G37*
G36*
X114126Y989612D02*
X119168D01*
X124148Y988823D01*
X128943Y987265D01*
X133435Y984976D01*
X137514Y982013D01*
X141080Y978447D01*
X144043Y974368D01*
X146332Y969876D01*
X147890Y965081D01*
X148679Y960101D01*
Y955059D01*
X147890Y950079D01*
X146332Y945284D01*
X144043Y940792D01*
X141080Y936713D01*
X137514Y933147D01*
X133435Y930184D01*
X128943Y927895D01*
X124148Y926337D01*
X119168Y925548D01*
X114126D01*
X109146Y926337D01*
X104351Y927895D01*
X99859Y930184D01*
X95780Y933147D01*
X92214Y936713D01*
X89251Y940792D01*
X86962Y945284D01*
X85404Y950079D01*
X84615Y955059D01*
Y960101D01*
X85404Y965081D01*
X86962Y969876D01*
X89251Y974368D01*
X92214Y978447D01*
X95780Y982013D01*
X99859Y984976D01*
X104351Y987265D01*
X109146Y988823D01*
X114126Y989612D01*
D02*
G37*
G36*
X1025986Y988342D02*
X1031028D01*
X1036008Y987553D01*
X1040803Y985995D01*
X1045295Y983706D01*
X1049374Y980743D01*
X1052940Y977177D01*
X1055903Y973098D01*
X1058192Y968606D01*
X1059750Y963811D01*
X1060539Y958831D01*
Y953789D01*
X1059750Y948809D01*
X1058192Y944014D01*
X1055903Y939522D01*
X1052940Y935443D01*
X1049374Y931877D01*
X1045295Y928914D01*
X1040803Y926625D01*
X1036008Y925067D01*
X1031028Y924278D01*
X1025986D01*
X1021006Y925067D01*
X1016211Y926625D01*
X1011719Y928914D01*
X1007640Y931877D01*
X1004074Y935443D01*
X1001111Y939522D01*
X998822Y944014D01*
X997264Y948809D01*
X996475Y953789D01*
Y958831D01*
X997264Y963811D01*
X998822Y968606D01*
X1001111Y973098D01*
X1004074Y977177D01*
X1007640Y980743D01*
X1011719Y983706D01*
X1016211Y985995D01*
X1021006Y987553D01*
X1025986Y988342D01*
D02*
G37*
G36*
X408747Y903117D02*
Y899414D01*
X405045D01*
X405710Y901022D01*
X407140Y902451D01*
X408747Y903117D01*
D02*
G37*
G36*
X411287D02*
X412895Y902451D01*
X414324Y901022D01*
X414990Y899414D01*
X411287D01*
Y903117D01*
D02*
G37*
G36*
X405045Y896874D02*
X414990D01*
X414373Y895385D01*
X414832Y894926D01*
X415498Y893318D01*
X405553D01*
X406170Y894807D01*
X405710Y895266D01*
X405045Y896874D01*
D02*
G37*
G36*
X377395Y902108D02*
X387665D01*
Y892338D01*
X377395D01*
Y902108D01*
D02*
G37*
G36*
X390205D02*
X400475D01*
Y892338D01*
X390205D01*
Y902108D01*
D02*
G37*
G36*
X405553Y890778D02*
X409255D01*
Y887076D01*
X407648Y887741D01*
X406218Y889170D01*
X405553Y890778D01*
D02*
G37*
G36*
X411795D02*
X415498D01*
X414832Y889170D01*
X413403Y887741D01*
X411795Y887076D01*
Y890778D01*
D02*
G37*
G36*
X377395Y889798D02*
X387665D01*
Y880028D01*
X377395D01*
Y889798D01*
D02*
G37*
G36*
X390205D02*
X400475D01*
Y880028D01*
X390205D01*
Y889798D01*
D02*
G37*
G36*
X260411Y873652D02*
Y869950D01*
X256709D01*
X257374Y871558D01*
X258804Y872987D01*
X260411Y873652D01*
D02*
G37*
G36*
X256709Y867410D02*
X260411D01*
Y863708D01*
X258804Y864373D01*
X257374Y865802D01*
X256709Y867410D01*
D02*
G37*
G36*
X273365Y867918D02*
X278885D01*
Y862398D01*
X273365D01*
Y867918D01*
D02*
G37*
G36*
X82603Y875827D02*
X87843D01*
X89679Y875585D01*
X91389Y874876D01*
X92858Y873749D01*
X93986Y872280D01*
X94694Y870570D01*
X94936Y868734D01*
X94694Y866898D01*
X93986Y865188D01*
X92858Y863719D01*
X91389Y862592D01*
X89679Y861883D01*
X87843Y861641D01*
X82603D01*
X80767Y861883D01*
X79057Y862592D01*
X77588Y863719D01*
X76461Y865188D01*
X75752Y866898D01*
X75510Y868734D01*
X75752Y870570D01*
X76461Y872280D01*
X77588Y873749D01*
X79057Y874876D01*
X80767Y875585D01*
X82603Y875827D01*
D02*
G37*
G36*
X354967Y867410D02*
X361757D01*
X368547D01*
Y861890D01*
X366197D01*
X365491Y860834D01*
X365714Y860298D01*
X355769D01*
X355991Y860834D01*
X355285Y861890D01*
X354967D01*
Y867410D01*
D02*
G37*
G36*
X355769Y857758D02*
X359471D01*
Y854055D01*
X357864Y854721D01*
X356434Y856150D01*
X355769Y857758D01*
D02*
G37*
G36*
X362011D02*
X365714D01*
X365048Y856150D01*
X363619Y854721D01*
X362011Y854055D01*
Y857758D01*
D02*
G37*
G36*
X166431Y850031D02*
Y846328D01*
X162729D01*
X163394Y847936D01*
X164823Y849365D01*
X166431Y850031D01*
D02*
G37*
G36*
X168971D02*
X170579Y849365D01*
X172008Y847936D01*
X172674Y846328D01*
X168971D01*
Y850031D01*
D02*
G37*
G36*
X346009Y844443D02*
Y840740D01*
X342307D01*
X342972Y842348D01*
X344402Y843777D01*
X346009Y844443D01*
D02*
G37*
G36*
X348549D02*
X350157Y843777D01*
X351586Y842348D01*
X352252Y840740D01*
X348549D01*
Y844443D01*
D02*
G37*
G36*
X162729Y843788D02*
X166431D01*
Y840086D01*
X164823Y840751D01*
X163394Y842180D01*
X162729Y843788D01*
D02*
G37*
G36*
X168971D02*
X172674D01*
X172008Y842180D01*
X170579Y840751D01*
X168971Y840086D01*
Y843788D01*
D02*
G37*
G36*
X354839Y843466D02*
X358709D01*
Y839596D01*
X354839D01*
Y843466D01*
D02*
G37*
G36*
X361249D02*
X365119D01*
Y839596D01*
X361249D01*
Y843466D01*
D02*
G37*
G36*
X107007Y867816D02*
X110539D01*
X114004Y867127D01*
X117267Y865775D01*
X120204Y863813D01*
X122702Y861315D01*
X124664Y858378D01*
X126016Y855115D01*
X126705Y851650D01*
Y848118D01*
X126016Y844653D01*
X124664Y841390D01*
X122702Y838453D01*
X120204Y835955D01*
X117267Y833993D01*
X114004Y832641D01*
X110539Y831952D01*
X107007D01*
X103542Y832641D01*
X100279Y833993D01*
X97342Y835955D01*
X94844Y838453D01*
X92882Y841390D01*
X91530Y844653D01*
X90841Y848118D01*
Y851650D01*
X91530Y855115D01*
X92882Y858378D01*
X94844Y861315D01*
X97342Y863813D01*
X100279Y865775D01*
X103542Y867127D01*
X107007Y867816D01*
D02*
G37*
G36*
X383855Y826008D02*
X387558D01*
X386892Y824400D01*
X385463Y822971D01*
X383855Y822306D01*
Y826008D01*
D02*
G37*
G36*
X806673Y828428D02*
X815443D01*
Y819658D01*
X806673D01*
Y828428D01*
D02*
G37*
G36*
X817983D02*
X826753D01*
Y819658D01*
X817983D01*
Y828428D01*
D02*
G37*
G36*
X310449Y821329D02*
Y817626D01*
X306747D01*
X307412Y819234D01*
X308841Y820663D01*
X310449Y821329D01*
D02*
G37*
G36*
X132649Y818280D02*
Y814578D01*
X128947D01*
X129612Y816186D01*
X131041Y817615D01*
X132649Y818280D01*
D02*
G37*
G36*
X135189D02*
X136797Y817615D01*
X138226Y816186D01*
X138892Y814578D01*
X135189D01*
Y818280D01*
D02*
G37*
G36*
X306747Y815086D02*
X310449D01*
Y811384D01*
X308841Y812049D01*
X307412Y813478D01*
X306747Y815086D01*
D02*
G37*
G36*
X840858Y827920D02*
X843368D01*
X845792Y827270D01*
X847966Y826015D01*
X849741Y824241D01*
X850995Y822067D01*
X851645Y819643D01*
Y817133D01*
X850995Y814709D01*
X849741Y812535D01*
X847966Y810760D01*
X845792Y809506D01*
X843368Y808856D01*
X840858D01*
X838434Y809506D01*
X836260Y810760D01*
X834486Y812535D01*
X833231Y814709D01*
X832581Y817133D01*
Y819643D01*
X833231Y822067D01*
X834486Y824241D01*
X836260Y826015D01*
X838434Y827270D01*
X840858Y827920D01*
D02*
G37*
G36*
X806673Y817118D02*
X815443D01*
Y808348D01*
X806673D01*
Y817118D01*
D02*
G37*
G36*
X817983D02*
X826753D01*
Y808348D01*
X817983D01*
Y817118D01*
D02*
G37*
G36*
X128947Y812038D02*
X132649D01*
Y808335D01*
X131041Y809001D01*
X129612Y810430D01*
X128947Y812038D01*
D02*
G37*
G36*
X135189D02*
X138892D01*
X138226Y810430D01*
X136797Y809001D01*
X135189Y808335D01*
Y812038D01*
D02*
G37*
G36*
X120457Y811423D02*
Y807720D01*
X116755D01*
X117420Y809328D01*
X118849Y810757D01*
X120457Y811423D01*
D02*
G37*
G36*
X122997D02*
X124605Y810757D01*
X126034Y809328D01*
X126700Y807720D01*
X122997D01*
Y811423D01*
D02*
G37*
G36*
X307151Y809050D02*
X311021D01*
Y805180D01*
X307151D01*
Y809050D01*
D02*
G37*
G36*
X116755Y805180D02*
X126700D01*
X126034Y803572D01*
X124847Y802386D01*
X125526Y801708D01*
X126192Y800100D01*
X116247D01*
X116912Y801708D01*
X118099Y802894D01*
X117420Y803572D01*
X116755Y805180D01*
D02*
G37*
G36*
X1015807Y801475D02*
Y795020D01*
X1009353D01*
X1009818Y796757D01*
X1010844Y798533D01*
X1012294Y799984D01*
X1014070Y801009D01*
X1015807Y801475D01*
D02*
G37*
G36*
X1018347D02*
X1020084Y801009D01*
X1021860Y799984D01*
X1023311Y798533D01*
X1024336Y796757D01*
X1024802Y795020D01*
X1018347D01*
Y801475D01*
D02*
G37*
G36*
X285349Y895412D02*
X308413D01*
Y867348D01*
X292988D01*
Y802765D01*
X301788Y793965D01*
X303063D01*
X303589Y795235D01*
X298924Y799899D01*
X298195Y800992D01*
X297938Y802280D01*
Y826516D01*
X298195Y827804D01*
X298924Y828897D01*
X334514Y864486D01*
Y867348D01*
X326349D01*
Y895412D01*
X349413D01*
Y884194D01*
X355475D01*
Y886462D01*
X368039D01*
Y875470D01*
X368547D01*
Y869950D01*
X361757D01*
X354967D01*
Y875470D01*
X353985Y876166D01*
X349413D01*
Y867348D01*
X341248D01*
Y863092D01*
X340992Y861804D01*
X340262Y860711D01*
X304672Y825122D01*
Y803675D01*
X305978Y802369D01*
X306633Y802640D01*
X312291D01*
Y803910D01*
X313561D01*
Y809050D01*
X316277D01*
Y811934D01*
X315007Y812460D01*
X314597Y812049D01*
X312989Y811384D01*
Y816356D01*
Y821329D01*
X314597Y820663D01*
X315007Y820252D01*
X316277Y820778D01*
Y822896D01*
X316583Y824432D01*
X317453Y825734D01*
X324883Y833164D01*
X326185Y834035D01*
X327721Y834340D01*
X343429D01*
X343955Y835610D01*
X342972Y836592D01*
X342307Y838200D01*
X352252D01*
X351586Y836592D01*
X350603Y835610D01*
X351129Y834340D01*
X354839D01*
Y837056D01*
X359979D01*
X365119D01*
Y833186D01*
X364611D01*
Y827917D01*
X365784Y827431D01*
X385568Y847215D01*
Y851036D01*
X377903D01*
Y872100D01*
X399967D01*
Y851036D01*
X392302D01*
Y845820D01*
X392046Y844532D01*
X391316Y843439D01*
X381455Y833578D01*
X382030Y832358D01*
X383596D01*
X385463Y831585D01*
X386892Y830156D01*
X387558Y828548D01*
X382585D01*
Y827278D01*
X381315D01*
Y822306D01*
X379707Y822971D01*
X378278Y824400D01*
X377505Y826267D01*
Y827833D01*
X376285Y828409D01*
X370552Y822675D01*
X370603Y822471D01*
X371253Y821404D01*
X371559Y821464D01*
Y813348D01*
X374099D01*
Y821464D01*
X374405Y821404D01*
X375575Y820622D01*
X376783Y820144D01*
X377951Y820925D01*
X379329Y821199D01*
X380707Y820925D01*
X381792Y820200D01*
X382165Y820042D01*
X382993D01*
X383366Y820200D01*
X384451Y820925D01*
X385829Y821199D01*
X387207Y820925D01*
X388376Y820144D01*
X389156Y818976D01*
X389430Y817598D01*
Y809098D01*
X389393Y808908D01*
X389869Y807638D01*
X391139Y807161D01*
X391329Y807199D01*
X399829D01*
X401207Y806925D01*
X402375Y806144D01*
X403156Y804976D01*
X403430Y803598D01*
X403156Y802220D01*
X402832Y801735D01*
X403511Y800465D01*
X511063D01*
X512351Y800208D01*
X513444Y799479D01*
X543928Y768995D01*
X544658Y767902D01*
X544914Y766614D01*
Y660411D01*
X545134Y660245D01*
X546828Y660495D01*
X555972Y669639D01*
X556895Y670255D01*
X557046Y670671D01*
X557082Y670900D01*
X557107Y671672D01*
X555686Y673093D01*
X554797Y675240D01*
Y677564D01*
X555686Y679711D01*
X557330Y681355D01*
X559477Y682244D01*
X561801D01*
X563948Y681355D01*
X565534Y679769D01*
X862266D01*
X965928Y783431D01*
X967021Y784160D01*
X968309Y784417D01*
X1010612D01*
X1011250Y785521D01*
X1011967Y786238D01*
X1012260Y787385D01*
X1011911Y787899D01*
X1010844Y788967D01*
X1009818Y790743D01*
X1009353Y792480D01*
X1017077D01*
X1024802D01*
X1024336Y790743D01*
X1023311Y788967D01*
X1022243Y787899D01*
X1021894Y787385D01*
X1022187Y786238D01*
X1022904Y785521D01*
X1023863Y783861D01*
X1024359Y782009D01*
Y780091D01*
X1023863Y778239D01*
X1022904Y776579D01*
X1021815Y775490D01*
X1021655Y774700D01*
X1021815Y773910D01*
X1022904Y772821D01*
X1023863Y771161D01*
X1024359Y769309D01*
Y767391D01*
X1023863Y765539D01*
X1023091Y764202D01*
X1023598Y762932D01*
X1024359D01*
Y748368D01*
X1020444D01*
Y721294D01*
X1026729D01*
Y716926D01*
X1028573D01*
X1030109Y716620D01*
X1031412Y715750D01*
X1039727Y707434D01*
X1040598Y706132D01*
X1040903Y704596D01*
Y503158D01*
X1040598Y501622D01*
X1039727Y500319D01*
X1037496Y498088D01*
X1036193Y497217D01*
X1034657Y496912D01*
X1025855D01*
Y491894D01*
X1020837D01*
Y442468D01*
X1020532Y440932D01*
X1019661Y439630D01*
X969425Y389393D01*
X968123Y388523D01*
X966587Y388218D01*
X948353D01*
Y384214D01*
X934785D01*
X934696Y383763D01*
X934247Y383091D01*
X933574Y382642D01*
X932782Y382484D01*
X911667D01*
X911667Y382484D01*
X910874Y382642D01*
X910202Y383091D01*
X910202Y383091D01*
X908678Y384615D01*
X908229Y385287D01*
X908071Y386080D01*
X908172Y386588D01*
X907476Y387858D01*
X905521D01*
Y379836D01*
X908539D01*
Y353336D01*
X909047D01*
X909379Y353270D01*
X909715Y353225D01*
X909773Y353191D01*
X909840Y353178D01*
X910121Y352990D01*
X910414Y352821D01*
X910456Y352767D01*
X910512Y352729D01*
X910700Y352447D01*
X910906Y352179D01*
X910923Y352113D01*
X910961Y352057D01*
X911027Y351725D01*
X911115Y351398D01*
X911195Y350161D01*
X911186Y350094D01*
X911199Y350027D01*
Y322344D01*
X911616Y321836D01*
X920039D01*
Y293772D01*
X911616D01*
X911199Y293264D01*
Y275844D01*
X911041Y275051D01*
X910592Y274379D01*
X909920Y273930D01*
X909127Y273772D01*
X905393D01*
X904885Y272578D01*
Y265629D01*
X903604D01*
Y246180D01*
X904515D01*
Y237688D01*
X905023D01*
Y232918D01*
X899983D01*
X894943D01*
Y237688D01*
X895451D01*
Y246180D01*
X896870D01*
Y265629D01*
X896097D01*
Y272578D01*
X895589Y273772D01*
X892871D01*
X892078Y273930D01*
X891406Y274379D01*
X890957Y275051D01*
X890799Y275844D01*
Y293264D01*
X890382Y293772D01*
X882975D01*
Y321836D01*
X890382D01*
X890799Y322344D01*
Y350844D01*
X890805Y350872D01*
X890800Y350899D01*
X890883Y351267D01*
X890957Y351637D01*
X890973Y351660D01*
X890979Y351688D01*
X891196Y351995D01*
X891406Y352309D01*
X891430Y352325D01*
X891446Y352347D01*
X891764Y352548D01*
X892078Y352758D01*
X892106Y352763D01*
X892130Y352779D01*
X893226Y353199D01*
X893597Y353262D01*
X893967Y353336D01*
X894141Y353336D01*
X894475Y354524D01*
Y379836D01*
X897493D01*
Y387858D01*
X892871D01*
Y392226D01*
X890585D01*
Y387858D01*
X871281D01*
Y407162D01*
X890585D01*
Y400254D01*
X892871D01*
Y404622D01*
X909635D01*
Y404622D01*
X910651D01*
Y404622D01*
X924896D01*
X925875Y405440D01*
X925960Y405676D01*
X926009Y405923D01*
X926096Y406053D01*
X926106Y406080D01*
X925939Y406507D01*
X925360Y407350D01*
X920303D01*
Y414970D01*
X927923D01*
Y409399D01*
X927965Y409258D01*
X928536Y408218D01*
X946798D01*
X946942Y408314D01*
X947735Y408472D01*
X949662D01*
X950455Y408314D01*
X951127Y407865D01*
X951441Y407395D01*
X951576Y407193D01*
X951681Y406939D01*
X951839Y406146D01*
Y401666D01*
X951836Y401651D01*
X951839Y401636D01*
X951757Y401254D01*
X951681Y400873D01*
X951673Y400860D01*
X951669Y400845D01*
X951449Y400525D01*
X951232Y400201D01*
X951219Y400192D01*
X951211Y400179D01*
X950305Y399300D01*
X949978Y399088D01*
X949654Y398872D01*
X949639Y398869D01*
X949626Y398861D01*
X949243Y398790D01*
X948861Y398714D01*
X948353D01*
Y396246D01*
X964924D01*
X1012809Y444131D01*
Y491894D01*
X1007791D01*
Y509958D01*
X1025855D01*
Y504940D01*
X1032875D01*
Y702933D01*
X1027999Y707809D01*
X1026729Y707283D01*
Y704530D01*
X1009965D01*
Y721294D01*
X1013710D01*
Y748368D01*
X1009795D01*
Y762932D01*
X1010170D01*
X1010734Y764128D01*
X1010186Y764983D01*
X974964D01*
X874858Y664877D01*
X873766Y664148D01*
X872478Y663891D01*
X612861D01*
X612608Y662621D01*
X613799Y662128D01*
X622615D01*
X624151Y661823D01*
X625453Y660952D01*
X642276Y644130D01*
X643146Y642828D01*
X643452Y641291D01*
Y626328D01*
X644967D01*
Y620711D01*
X646237D01*
Y619441D01*
X651639D01*
Y616154D01*
X656583D01*
Y619441D01*
X661985D01*
X667387D01*
Y616154D01*
X672331D01*
Y619441D01*
X677733D01*
X683135D01*
Y615380D01*
X695317D01*
X696776Y616839D01*
X698923Y617728D01*
X701247D01*
X703394Y616839D01*
X705038Y615195D01*
X705927Y613048D01*
Y610724D01*
X705038Y608577D01*
X703394Y606933D01*
X701247Y606044D01*
X698923D01*
X696776Y606933D01*
X695132Y608577D01*
X695104Y608646D01*
X682627D01*
Y607031D01*
X672839D01*
Y608126D01*
X666879D01*
Y607031D01*
X657091D01*
Y608126D01*
X651131D01*
Y607031D01*
X649914D01*
Y602407D01*
X650079D01*
Y583757D01*
X655023D01*
X655184Y583789D01*
X664940D01*
X684458Y603307D01*
X685551Y604036D01*
X686839Y604293D01*
X1008375D01*
X1008407Y604412D01*
X1009596Y606472D01*
X1011277Y608153D01*
X1013337Y609342D01*
X1015634Y609958D01*
X1018012D01*
X1020309Y609342D01*
X1022369Y608153D01*
X1024051Y606472D01*
X1025239Y604412D01*
X1025855Y602115D01*
Y599737D01*
X1025239Y597440D01*
X1024051Y595380D01*
X1022369Y593699D01*
X1020309Y592509D01*
X1018012Y591894D01*
X1015634D01*
X1013337Y592509D01*
X1011277Y593699D01*
X1009596Y595380D01*
X1008407Y597440D01*
X1008375Y597559D01*
X688234D01*
X671000Y580325D01*
X671486Y579152D01*
X673334D01*
Y572088D01*
Y562088D01*
Y553987D01*
X678318D01*
X696718Y572387D01*
Y584639D01*
X695132Y586225D01*
X694243Y588372D01*
Y590696D01*
X695132Y592843D01*
X696776Y594487D01*
X698923Y595376D01*
X701247D01*
X703394Y594487D01*
X705038Y592843D01*
X705927Y590696D01*
Y588372D01*
X705038Y586225D01*
X703452Y584639D01*
Y570992D01*
X703195Y569704D01*
X702466Y568611D01*
X693384Y559530D01*
X693870Y558357D01*
X746691D01*
X747925Y558444D01*
Y567278D01*
X742055D01*
Y564916D01*
X731267D01*
Y573739D01*
X730759D01*
Y578706D01*
X736661D01*
X742563D01*
Y574011D01*
X747925D01*
Y581508D01*
X762989D01*
Y558444D01*
X758824D01*
Y557530D01*
X758568Y556242D01*
X757838Y555149D01*
X757646Y554958D01*
X758132Y553785D01*
X775869D01*
X779258Y557174D01*
X779243Y558444D01*
X772925D01*
Y581508D01*
X787989D01*
Y573343D01*
X792227D01*
Y578037D01*
X798129D01*
X804031D01*
Y573071D01*
X803523D01*
Y564247D01*
X792735D01*
Y566609D01*
X787989D01*
Y558444D01*
X786002D01*
Y555790D01*
X785745Y554502D01*
X785016Y553409D01*
X779644Y548037D01*
X778551Y547308D01*
X777263Y547051D01*
X777263Y547051D01*
X693975D01*
X680163Y533239D01*
X679071Y532510D01*
X677783Y532253D01*
X673842D01*
Y531890D01*
X663927D01*
Y529350D01*
X673842D01*
Y526580D01*
X673334D01*
Y523987D01*
X677413D01*
X690477Y537051D01*
X691569Y537780D01*
X692858Y538037D01*
X788985D01*
X790274Y537780D01*
X791366Y537051D01*
X811716Y516701D01*
X820671D01*
Y525366D01*
X879735D01*
Y501302D01*
X853570D01*
Y486850D01*
X855163D01*
Y487358D01*
X860683D01*
Y480568D01*
X861953D01*
Y479298D01*
X868743D01*
Y473778D01*
X869657Y472918D01*
X871708D01*
X977097Y578307D01*
X978189Y579036D01*
X979477Y579293D01*
X1008375D01*
X1008407Y579412D01*
X1009596Y581472D01*
X1011277Y583153D01*
X1013337Y584342D01*
X1015634Y584958D01*
X1018012D01*
X1020309Y584342D01*
X1022369Y583153D01*
X1024051Y581472D01*
X1025239Y579412D01*
X1025855Y577115D01*
Y574737D01*
X1025239Y572440D01*
X1024051Y570380D01*
X1022369Y568699D01*
X1020309Y567509D01*
X1018012Y566894D01*
X1015634D01*
X1013337Y567509D01*
X1011277Y568699D01*
X1009596Y570380D01*
X1008407Y572440D01*
X1008375Y572559D01*
X980872D01*
X963779Y555466D01*
X964265Y554293D01*
X1008375D01*
X1008407Y554412D01*
X1009596Y556472D01*
X1011277Y558153D01*
X1013337Y559342D01*
X1015634Y559958D01*
X1018012D01*
X1020309Y559342D01*
X1022369Y558153D01*
X1024051Y556472D01*
X1025239Y554412D01*
X1025855Y552115D01*
Y549737D01*
X1025239Y547440D01*
X1024051Y545380D01*
X1022369Y543699D01*
X1020309Y542509D01*
X1018012Y541894D01*
X1015634D01*
X1013337Y542509D01*
X1011277Y543699D01*
X1009596Y545380D01*
X1008407Y547440D01*
X1008375Y547559D01*
X962338D01*
X945341Y530563D01*
X945867Y529293D01*
X1008375D01*
X1008407Y529412D01*
X1009596Y531472D01*
X1011277Y533153D01*
X1013337Y534342D01*
X1015634Y534958D01*
X1018012D01*
X1020309Y534342D01*
X1022369Y533153D01*
X1024051Y531472D01*
X1025239Y529412D01*
X1025855Y527115D01*
Y524737D01*
X1025239Y522440D01*
X1024051Y520380D01*
X1022369Y518699D01*
X1020309Y517509D01*
X1018012Y516894D01*
X1015634D01*
X1013337Y517509D01*
X1011277Y518699D01*
X1009596Y520380D01*
X1008407Y522440D01*
X1008375Y522559D01*
X945466D01*
X871281Y448375D01*
X870189Y447645D01*
X868900Y447389D01*
X742824D01*
X741536Y447645D01*
X740444Y448375D01*
X709710Y479109D01*
X708964Y478960D01*
X707535Y477531D01*
X705927Y476866D01*
Y481838D01*
X703387D01*
Y476866D01*
X701779Y477531D01*
X701566Y477744D01*
X700393Y477258D01*
Y470964D01*
X696623D01*
Y476504D01*
X694083D01*
Y470964D01*
X690313D01*
X689272Y470412D01*
Y423586D01*
X688966Y422049D01*
X688096Y420747D01*
X685864Y418515D01*
X684562Y417645D01*
X683026Y417340D01*
X678817D01*
Y414052D01*
X673415D01*
X668013D01*
Y417340D01*
X662815D01*
Y414020D01*
X657413D01*
X652011D01*
Y417340D01*
X647067D01*
Y414085D01*
X641665D01*
Y412815D01*
X640395D01*
Y407198D01*
X636731D01*
Y387814D01*
X636425Y386278D01*
X635555Y384976D01*
X635051Y384472D01*
X635061Y384448D01*
Y382124D01*
X634172Y379977D01*
X632528Y378333D01*
X630381Y377444D01*
X628057D01*
X625910Y378333D01*
X624266Y379977D01*
X623377Y382124D01*
Y384448D01*
X624266Y386595D01*
X625910Y388239D01*
X628057Y389128D01*
X628353D01*
X628702Y389477D01*
Y407166D01*
X627187D01*
Y412782D01*
X625917D01*
Y414052D01*
X620515D01*
Y418399D01*
X621023D01*
Y426462D01*
X630811D01*
Y425368D01*
X636771D01*
Y426495D01*
X638180D01*
Y428833D01*
X564914D01*
Y418643D01*
X566184Y417794D01*
X567497Y418338D01*
X569821D01*
X571968Y417449D01*
X573612Y415805D01*
X574501Y413658D01*
Y411334D01*
X573612Y409187D01*
X571968Y407543D01*
X571913Y407520D01*
Y406005D01*
X573086Y405519D01*
X573332Y405765D01*
X575479Y406654D01*
X577803D01*
X579950Y405765D01*
X581594Y404121D01*
X582483Y401974D01*
Y400880D01*
X582556Y400788D01*
X583753Y400136D01*
X585385Y400812D01*
X587709D01*
X589856Y399923D01*
X591500Y398279D01*
X592389Y396132D01*
Y393808D01*
X591500Y391661D01*
X589914Y390075D01*
Y385318D01*
X589658Y384030D01*
X588928Y382937D01*
X585118Y379127D01*
X482980Y276990D01*
X482980Y159512D01*
X482723Y158224D01*
X481994Y157131D01*
X455324Y130461D01*
X454231Y129732D01*
X452943Y129475D01*
X379029D01*
X377741Y129732D01*
X376648Y130461D01*
X352304Y154805D01*
X351575Y155898D01*
X351318Y157186D01*
Y185068D01*
X350048Y185747D01*
X349563Y185423D01*
X348185Y185149D01*
X346807Y185423D01*
X346660Y185521D01*
X345192Y185029D01*
X345064Y184692D01*
X345087Y184637D01*
X345998Y183726D01*
X346664Y182118D01*
X336719D01*
X337384Y183726D01*
X338291Y184632D01*
X338673Y185588D01*
X338419Y186366D01*
X337879Y187174D01*
X337566Y188750D01*
Y191730D01*
X341685D01*
Y194270D01*
X337566D01*
Y197250D01*
X337748Y198165D01*
X337135Y198902D01*
X336375Y199187D01*
X336185Y199149D01*
X327685D01*
X326307Y199423D01*
X325139Y200204D01*
X325043Y200347D01*
X316924D01*
X306474Y189897D01*
X305381Y189168D01*
X304093Y188911D01*
X284425D01*
X283137Y189168D01*
X282045Y189897D01*
X278967Y192975D01*
X232457D01*
X228792Y189310D01*
X227700Y188580D01*
X226411Y188324D01*
X210761D01*
Y173094D01*
X191697D01*
Y188514D01*
X191363Y188580D01*
X190271Y189310D01*
X187621Y191959D01*
X184795D01*
X184711Y191647D01*
X183457Y189473D01*
X181682Y187698D01*
X179508Y186444D01*
X177084Y185794D01*
X174574D01*
X172150Y186444D01*
X169976Y187698D01*
X168202Y189473D01*
X166947Y191647D01*
X166297Y194071D01*
Y196581D01*
X166947Y199005D01*
X168202Y201179D01*
X169976Y202953D01*
X172150Y204208D01*
X174574Y204858D01*
X177084D01*
X179508Y204208D01*
X181682Y202953D01*
X183457Y201179D01*
X184711Y199005D01*
X184795Y198693D01*
X189016D01*
X189691Y199247D01*
Y199854D01*
X189947Y201143D01*
X190677Y202235D01*
X192508Y204067D01*
X192347Y204347D01*
X191697Y206771D01*
Y209281D01*
X192347Y211705D01*
X193602Y213879D01*
X195376Y215653D01*
X197550Y216908D01*
X199974Y217558D01*
X202484D01*
X204908Y216908D01*
X207082Y215653D01*
X208857Y213879D01*
X210111Y211705D01*
X210761Y209281D01*
Y206771D01*
X210111Y204347D01*
X208857Y202173D01*
X207582Y200899D01*
X208108Y199629D01*
X223123D01*
X225150Y201656D01*
X224942Y202701D01*
X224711Y203013D01*
X223338Y204386D01*
X222673Y205994D01*
X232618D01*
X232434Y205551D01*
X233283Y204281D01*
X271178D01*
X271704Y205551D01*
X271344Y205910D01*
X270679Y207518D01*
X280624D01*
X279958Y205910D01*
X279598Y205551D01*
X280124Y204281D01*
X282255D01*
X283543Y204024D01*
X284407Y203448D01*
X285677Y203849D01*
Y209510D01*
X289321D01*
Y204470D01*
X291861D01*
Y209510D01*
X295506D01*
Y209510D01*
X296206Y209128D01*
X296730Y209216D01*
X297514Y209533D01*
X297732Y210630D01*
X298462Y211722D01*
X302931Y216191D01*
X302444Y217364D01*
X298381D01*
Y216856D01*
X294511D01*
Y221996D01*
X293241D01*
Y223266D01*
X288101D01*
Y227136D01*
X290762D01*
X291288Y228406D01*
X280491Y239203D01*
X210170D01*
X209535Y238103D01*
X210111Y237105D01*
X210761Y234681D01*
Y232171D01*
X210111Y229747D01*
X208857Y227573D01*
X207082Y225798D01*
X204908Y224544D01*
X202484Y223894D01*
X199974D01*
X197550Y224544D01*
X195376Y225798D01*
X193602Y227573D01*
X192347Y229747D01*
X191697Y232171D01*
Y234681D01*
X192347Y237105D01*
X192855Y237985D01*
X192210Y239408D01*
X191951Y239460D01*
X190859Y240189D01*
X188510Y242538D01*
X184736D01*
X184711Y242447D01*
X183457Y240273D01*
X181682Y238498D01*
X179508Y237244D01*
X177084Y236594D01*
X174574D01*
X172150Y237244D01*
X169976Y238498D01*
X168202Y240273D01*
X166947Y242447D01*
X166297Y244871D01*
Y247381D01*
X166947Y249805D01*
X168202Y251979D01*
X169976Y253754D01*
X172150Y255008D01*
X174574Y255658D01*
X177084D01*
X179508Y255008D01*
X181682Y253754D01*
X183457Y251979D01*
X184711Y249805D01*
X184854Y249272D01*
X189771D01*
Y251242D01*
X190027Y252530D01*
X190756Y253623D01*
X192333Y255199D01*
X191697Y257571D01*
Y260081D01*
X192347Y262505D01*
X193602Y264679D01*
X195376Y266453D01*
X197550Y267708D01*
X199974Y268358D01*
X202484D01*
X204908Y267708D01*
X207082Y266453D01*
X208857Y264679D01*
X210111Y262505D01*
X210761Y260081D01*
Y257571D01*
X210111Y255147D01*
X208857Y252973D01*
X207662Y251779D01*
X208188Y250509D01*
X283779D01*
X285067Y250252D01*
X286160Y249523D01*
X298030Y237653D01*
X316683D01*
X317169Y238826D01*
X317064Y238930D01*
X316399Y240538D01*
X321371D01*
Y241808D01*
X322641D01*
Y246780D01*
X324249Y246115D01*
X325329Y245035D01*
X326109Y245556D01*
X327685Y245869D01*
X330665D01*
Y241750D01*
X333205D01*
Y245869D01*
X336185D01*
X337100Y245687D01*
X337837Y246300D01*
X338122Y247060D01*
X338084Y247250D01*
Y255750D01*
X338318Y256929D01*
Y264289D01*
X336417D01*
X336092Y264354D01*
X330455D01*
Y264972D01*
X315967D01*
X315028Y264033D01*
X312881Y263144D01*
X310557D01*
X308410Y264033D01*
X306766Y265677D01*
X305877Y267824D01*
Y270148D01*
X306766Y272295D01*
X308410Y273939D01*
X310557Y274828D01*
X312881D01*
X315028Y273939D01*
X315967Y273000D01*
X329947D01*
Y275716D01*
X335087D01*
X340227D01*
Y272951D01*
X345002D01*
X345528Y274221D01*
X344750Y274998D01*
X344085Y276606D01*
X354030D01*
X353364Y274998D01*
X351935Y273569D01*
X350067Y272796D01*
X349118D01*
X348910Y272505D01*
X348638Y271526D01*
X351023Y269140D01*
X351894Y267838D01*
X352199Y266302D01*
Y263874D01*
X353375Y263647D01*
X354148Y265514D01*
X355578Y266943D01*
X357185Y267609D01*
Y262636D01*
X359725D01*
Y267609D01*
X361333Y266943D01*
X362762Y265514D01*
X363048Y264821D01*
X364318Y265074D01*
Y279951D01*
X347587Y296683D01*
X346857Y297776D01*
X346600Y299064D01*
Y302960D01*
X338435D01*
Y313533D01*
X336289D01*
Y312190D01*
X336797D01*
Y306670D01*
X330007D01*
Y305400D01*
X328737D01*
Y298610D01*
X323217D01*
Y299790D01*
X322387Y300345D01*
Y305562D01*
Y310779D01*
X323217Y311334D01*
Y312190D01*
X323725D01*
Y323182D01*
X336289D01*
Y320267D01*
X338435D01*
Y331024D01*
X361499D01*
Y302960D01*
X353334D01*
Y300459D01*
X369548Y284244D01*
X370818Y284770D01*
Y313472D01*
X371075Y314760D01*
X371804Y315853D01*
X373292Y317341D01*
X374385Y318070D01*
X375673Y318327D01*
X379435D01*
Y331024D01*
X402499D01*
Y321076D01*
X405513D01*
Y323344D01*
X418077D01*
Y312352D01*
X418585D01*
Y310782D01*
X419855Y310234D01*
X421193Y310788D01*
Y305816D01*
Y300844D01*
X419855Y301398D01*
X418585Y300850D01*
Y298772D01*
X413065D01*
Y305562D01*
X411795D01*
Y306832D01*
X405005D01*
Y312352D01*
X404023Y313048D01*
X402499D01*
Y302960D01*
X379435D01*
Y311593D01*
X377552D01*
Y296863D01*
X378822Y296014D01*
X379537Y296311D01*
Y291338D01*
Y286366D01*
X378822Y286662D01*
X377552Y285813D01*
Y279968D01*
X379029D01*
Y274828D01*
X380299D01*
Y273558D01*
X385439D01*
Y270842D01*
X408111D01*
X409647Y270537D01*
X410950Y269666D01*
X415331Y265284D01*
X416202Y263982D01*
X416507Y262446D01*
Y247580D01*
X417446Y246641D01*
X418335Y244494D01*
Y242170D01*
X417446Y240023D01*
X415802Y238379D01*
X414603Y237883D01*
Y233486D01*
X417319D01*
Y228346D01*
Y223206D01*
X413449D01*
Y223714D01*
X405966D01*
X405075Y222809D01*
X412262Y215623D01*
X412991Y214530D01*
X413248Y213242D01*
Y209406D01*
X427643D01*
Y187342D01*
X406579D01*
Y205279D01*
X406514Y205604D01*
Y208243D01*
X405244Y208769D01*
X404259Y207783D01*
X402651Y207118D01*
Y212090D01*
X400111D01*
Y207118D01*
X399178Y207504D01*
X398439Y207737D01*
X397454Y207037D01*
X397231Y206704D01*
X397129Y206635D01*
Y205365D01*
X397231Y205296D01*
X398012Y204128D01*
X398286Y202750D01*
X398012Y201372D01*
X397231Y200204D01*
X396063Y199423D01*
X394685Y199149D01*
X386185D01*
X385995Y199187D01*
X384725Y198710D01*
X384249Y197440D01*
X384286Y197250D01*
Y188750D01*
X384012Y187372D01*
X383232Y186204D01*
X382063Y185423D01*
X380685Y185149D01*
X379307Y185423D01*
X378822Y185747D01*
X377552Y185068D01*
Y160163D01*
X387790Y149925D01*
X445149D01*
X462022Y166798D01*
X462022Y284276D01*
X462279Y285564D01*
X463008Y286657D01*
X558180Y381828D01*
Y428833D01*
X543549D01*
Y416342D01*
X544057D01*
Y410822D01*
X537017D01*
Y409552D01*
X535747D01*
Y402762D01*
X529977D01*
Y406648D01*
X529465Y407706D01*
X525333D01*
Y413323D01*
X522793D01*
Y407706D01*
X520965D01*
Y393077D01*
X527250Y386792D01*
X537087D01*
X538026Y387731D01*
X540173Y388620D01*
X542497D01*
X544644Y387731D01*
X546288Y386087D01*
X547177Y383940D01*
Y381616D01*
X546288Y379469D01*
X544644Y377825D01*
X542497Y376936D01*
X540173D01*
X538026Y377825D01*
X537087Y378764D01*
X525587D01*
X524051Y379069D01*
X522749Y379940D01*
X514113Y388576D01*
X513242Y389878D01*
X512937Y391414D01*
Y407738D01*
X509839D01*
Y413355D01*
X508569D01*
Y414625D01*
X503167D01*
Y418094D01*
X501047D01*
X500247Y416824D01*
X500393Y416520D01*
X500393Y415888D01*
Y412750D01*
X494853D01*
X489313D01*
Y416520D01*
X489821Y417580D01*
Y426012D01*
X495426D01*
X495981Y426123D01*
X503675D01*
Y427035D01*
X513463D01*
Y426123D01*
X519169D01*
Y427003D01*
X523180D01*
Y428833D01*
X523015D01*
Y447647D01*
X523180D01*
Y454858D01*
X523437Y456146D01*
X524166Y457239D01*
X536698Y469771D01*
Y562739D01*
X527184Y572253D01*
X519082D01*
Y571890D01*
X499252D01*
Y572253D01*
X487668D01*
X486249Y570835D01*
Y566234D01*
X488467D01*
Y556446D01*
X486249D01*
Y549470D01*
X488245D01*
Y539682D01*
X486376D01*
Y532706D01*
X487991D01*
Y528732D01*
X489165Y528246D01*
X490470Y529552D01*
Y561086D01*
X490727Y562374D01*
X491456Y563467D01*
X495990Y568001D01*
X497083Y568730D01*
X498371Y568987D01*
X499252D01*
Y569350D01*
X519082D01*
Y566580D01*
X518574D01*
Y564185D01*
X521966D01*
X522158Y564649D01*
X523802Y566293D01*
X525949Y567182D01*
X528273D01*
X530420Y566293D01*
X532064Y564649D01*
X532953Y562502D01*
Y560178D01*
X532064Y558031D01*
X530420Y556387D01*
X528273Y555498D01*
X525949D01*
X523802Y556387D01*
X522738Y557451D01*
X518574D01*
Y547088D01*
Y537088D01*
Y527088D01*
Y517088D01*
Y507088D01*
Y497088D01*
Y487088D01*
Y474085D01*
X519814D01*
X519872Y474225D01*
X521516Y475869D01*
X523663Y476758D01*
X525987D01*
X528134Y475869D01*
X529778Y474225D01*
X530667Y472078D01*
Y469754D01*
X529778Y467607D01*
X528134Y465963D01*
X525987Y465074D01*
X523663D01*
X521516Y465963D01*
X520128Y467351D01*
X518574D01*
Y462088D01*
Y452088D01*
X499760D01*
Y452253D01*
X494579D01*
X436185Y393859D01*
X435093Y393130D01*
X433805Y392873D01*
X378036D01*
X376747Y393130D01*
X375655Y393859D01*
X357408Y412106D01*
X356679Y413198D01*
X356422Y414486D01*
Y430582D01*
X355152Y431261D01*
X354667Y430937D01*
X353289Y430663D01*
X351911Y430937D01*
X351884Y430955D01*
X350470Y430372D01*
X350442Y430233D01*
X350824Y429852D01*
X351490Y428244D01*
X341545D01*
X342210Y429852D01*
X343639Y431281D01*
X343728Y431573D01*
X342984Y432688D01*
X342670Y434264D01*
Y437244D01*
X346789D01*
Y439784D01*
X342670D01*
Y442764D01*
X342852Y443679D01*
X342239Y444416D01*
X341479Y444701D01*
X341289Y444663D01*
X332789D01*
X331411Y444937D01*
X330243Y445718D01*
X330147Y445861D01*
X324597D01*
X324111Y444688D01*
X324546Y444253D01*
X325435Y442106D01*
Y439782D01*
X324546Y437635D01*
X322902Y435991D01*
X320755Y435102D01*
X318431D01*
X316284Y435991D01*
X314640Y437635D01*
X314612Y437704D01*
X312062D01*
Y436666D01*
X303248D01*
X302319Y436158D01*
Y436158D01*
X299949D01*
X299463Y434985D01*
X299516Y434932D01*
X300182Y433324D01*
X290237D01*
X290902Y434932D01*
X292332Y436361D01*
X292489Y436426D01*
Y439928D01*
X297404D01*
Y442468D01*
X292489D01*
Y445861D01*
X286555D01*
X285267Y446118D01*
X284175Y446847D01*
X267398Y463624D01*
X205935D01*
Y446906D01*
X186871D01*
Y465771D01*
X179969D01*
X179885Y465459D01*
X178631Y463285D01*
X176856Y461511D01*
X174682Y460256D01*
X172258Y459606D01*
X169748D01*
X167324Y460256D01*
X165150Y461511D01*
X163376Y463285D01*
X162121Y465459D01*
X161471Y467883D01*
Y470393D01*
X162121Y472817D01*
X163376Y474991D01*
X165150Y476766D01*
X167324Y478020D01*
X169748Y478670D01*
X172258D01*
X174682Y478020D01*
X176856Y476766D01*
X178631Y474991D01*
X179885Y472817D01*
X179969Y472505D01*
X190965D01*
X191305Y473775D01*
X190550Y474211D01*
X188776Y475985D01*
X187521Y478159D01*
X186871Y480583D01*
Y483093D01*
X187521Y485517D01*
X188776Y487691D01*
X190550Y489465D01*
X192724Y490720D01*
X195148Y491370D01*
X197658D01*
X200082Y490720D01*
X202256Y489465D01*
X204031Y487691D01*
X205285Y485517D01*
X205935Y483093D01*
Y480583D01*
X205285Y478159D01*
X204154Y476199D01*
X204581Y474929D01*
X270687D01*
X271975Y474673D01*
X273067Y473943D01*
X289844Y457167D01*
X291088D01*
X291614Y458437D01*
X291410Y458640D01*
X290745Y460248D01*
X295717D01*
Y462788D01*
X290745D01*
X291410Y464396D01*
X292840Y465825D01*
X294707Y466598D01*
X295785D01*
Y467360D01*
X300925D01*
Y469900D01*
X295785D01*
Y473770D01*
X300921D01*
X301406Y474943D01*
X261926Y514423D01*
X204357D01*
X203871Y513250D01*
X204031Y513091D01*
X205285Y510917D01*
X205935Y508493D01*
Y505983D01*
X205285Y503559D01*
X204031Y501385D01*
X202256Y499610D01*
X200082Y498356D01*
X197658Y497706D01*
X195148D01*
X192724Y498356D01*
X190550Y499610D01*
X188776Y501385D01*
X187521Y503559D01*
X186871Y505983D01*
Y508493D01*
X187521Y510917D01*
X188776Y513091D01*
X190550Y514865D01*
X191305Y515301D01*
X190965Y516571D01*
X179969D01*
X179885Y516259D01*
X178631Y514085D01*
X176856Y512310D01*
X174682Y511056D01*
X172258Y510406D01*
X169748D01*
X167324Y511056D01*
X165150Y512310D01*
X163376Y514085D01*
X162121Y516259D01*
X161471Y518683D01*
Y521193D01*
X162121Y523617D01*
X163376Y525791D01*
X165150Y527565D01*
X167324Y528820D01*
X169748Y529470D01*
X172258D01*
X174682Y528820D01*
X176856Y527565D01*
X178631Y525791D01*
X179885Y523617D01*
X179969Y523305D01*
X190965D01*
X191305Y524575D01*
X190550Y525010D01*
X188776Y526785D01*
X187521Y528959D01*
X186871Y531383D01*
Y533893D01*
X187521Y536317D01*
X188776Y538491D01*
X190550Y540266D01*
X192724Y541520D01*
X195148Y542170D01*
X197658D01*
X200082Y541520D01*
X202256Y540266D01*
X204031Y538491D01*
X205285Y536317D01*
X205935Y533893D01*
Y531383D01*
X205285Y528959D01*
X204154Y526999D01*
X204581Y525729D01*
X265215D01*
X266503Y525473D01*
X267595Y524743D01*
X309171Y483167D01*
X329363D01*
X329720Y483991D01*
X329811Y484401D01*
X329765Y484519D01*
X328983Y485688D01*
X328923Y485994D01*
X337039D01*
Y487264D01*
X338309D01*
Y491383D01*
X341289D01*
X342204Y491201D01*
X342941Y491814D01*
X343226Y492574D01*
X343188Y492764D01*
Y495532D01*
X343167Y495564D01*
X342861Y497100D01*
Y506571D01*
Y510988D01*
X340231D01*
Y516128D01*
Y521268D01*
X342947D01*
Y526004D01*
X340073Y528878D01*
X319269D01*
X318330Y527939D01*
X316183Y527050D01*
X313859D01*
X311712Y527939D01*
X310068Y529583D01*
X309179Y531730D01*
Y534054D01*
X310068Y536201D01*
X311712Y537845D01*
X313859Y538734D01*
X316183D01*
X318330Y537845D01*
X319269Y536906D01*
X327817D01*
X328011Y537265D01*
X328207Y538176D01*
X326970Y539412D01*
X326305Y541020D01*
X336250D01*
X335584Y539412D01*
X334347Y538176D01*
X334543Y537265D01*
X334737Y536906D01*
X341735D01*
X343271Y536601D01*
X344574Y535730D01*
X349799Y530505D01*
X350670Y529202D01*
X350975Y527666D01*
Y520760D01*
X351593D01*
Y511496D01*
X352593Y511033D01*
X353896Y510162D01*
X356128Y507931D01*
X356998Y506628D01*
X357146Y505884D01*
X357482Y505628D01*
X358492Y505135D01*
X358519Y505136D01*
Y497014D01*
X361059D01*
Y505131D01*
X361365Y505070D01*
X362702Y504177D01*
X363376D01*
X364713Y505070D01*
X365019Y505131D01*
Y497014D01*
X367559D01*
Y505131D01*
X367865Y505070D01*
X368152Y504878D01*
X369422Y505557D01*
Y522752D01*
X349618Y542555D01*
X348889Y543648D01*
X348632Y544936D01*
Y549340D01*
X340467D01*
Y559821D01*
X337813D01*
Y558478D01*
X338321D01*
Y552958D01*
X331531D01*
X324741D01*
Y558478D01*
X325249D01*
Y569470D01*
X337813D01*
Y566555D01*
X340467D01*
Y577404D01*
X363531D01*
Y549340D01*
X355366D01*
Y546330D01*
X364855Y536842D01*
X366075Y537417D01*
Y538983D01*
X366848Y540850D01*
X368278Y542279D01*
X369885Y542944D01*
Y537972D01*
X371155D01*
Y536702D01*
X376128D01*
X375917Y536193D01*
X376803Y535014D01*
X376821Y535016D01*
X376999Y535115D01*
X377094Y535211D01*
X389632Y547748D01*
Y549340D01*
X381467D01*
Y577404D01*
X404531D01*
Y567317D01*
X406021D01*
Y570232D01*
X418585D01*
Y559240D01*
X419093D01*
Y553720D01*
X412303D01*
Y551180D01*
X419093D01*
Y545660D01*
X418793D01*
X417948Y544390D01*
X418292Y543560D01*
X408347D01*
X408690Y544390D01*
X407845Y545660D01*
X405513D01*
Y548645D01*
X404531Y549340D01*
X396366D01*
Y546354D01*
X396110Y545066D01*
X395380Y543973D01*
X382656Y531250D01*
Y527236D01*
X384871D01*
Y522096D01*
X386141D01*
Y520826D01*
X391281D01*
Y517463D01*
X418145D01*
X419434Y517206D01*
X420526Y516477D01*
X428146Y508857D01*
X428876Y507764D01*
X429132Y506476D01*
Y476504D01*
X428876Y475216D01*
X428146Y474123D01*
X426423Y472401D01*
X426843Y471180D01*
X426883Y471131D01*
X432513D01*
Y478400D01*
X454577D01*
Y457336D01*
X432513D01*
Y464397D01*
X411409D01*
X410723Y463127D01*
X411180Y462026D01*
X406207D01*
Y460756D01*
X404937D01*
Y455784D01*
X404441Y455989D01*
X403328Y455075D01*
X403390Y454764D01*
X403116Y453386D01*
X402336Y452218D01*
X402233Y452149D01*
Y450879D01*
X402336Y450810D01*
X403116Y449642D01*
X403390Y448264D01*
X403116Y446886D01*
X402336Y445718D01*
X401167Y444937D01*
X399789Y444663D01*
X391289D01*
X391099Y444701D01*
X389829Y444224D01*
X389352Y442954D01*
X389390Y442764D01*
Y434264D01*
X389116Y432886D01*
X388335Y431718D01*
X387167Y430937D01*
X385789Y430663D01*
X384411Y430937D01*
X383926Y431261D01*
X382656Y430582D01*
Y416932D01*
X384234Y415355D01*
X421576D01*
X474222Y468001D01*
X475315Y468730D01*
X476603Y468987D01*
X499760D01*
Y482088D01*
Y492088D01*
Y502088D01*
Y512088D01*
Y522088D01*
Y532088D01*
Y542088D01*
Y552088D01*
Y560452D01*
X498490Y560978D01*
X497204Y559692D01*
Y528158D01*
X496948Y526869D01*
X496218Y525777D01*
X491766Y521325D01*
Y511992D01*
X494681D01*
Y498928D01*
X482189D01*
Y498420D01*
X476669D01*
Y505460D01*
Y512500D01*
X482189D01*
Y511992D01*
X485032D01*
Y522719D01*
X484870Y522918D01*
X479928D01*
Y522410D01*
X475581D01*
Y527812D01*
Y533214D01*
X479516D01*
Y539174D01*
X475835D01*
Y544576D01*
Y549978D01*
X479516D01*
Y555938D01*
X476057D01*
Y561340D01*
Y566742D01*
X479516D01*
Y572230D01*
X479772Y573518D01*
X480502Y574610D01*
X483893Y578001D01*
X484985Y578730D01*
X486273Y578987D01*
X499760D01*
Y579152D01*
X518574D01*
Y578987D01*
X528579D01*
X529867Y578730D01*
X530960Y578001D01*
X542446Y566515D01*
X543176Y565422D01*
X543432Y564134D01*
Y468376D01*
X543176Y467088D01*
X542446Y465995D01*
X529914Y453464D01*
Y448155D01*
X530277D01*
Y438240D01*
X532817D01*
Y448155D01*
X535587D01*
Y447647D01*
X543180D01*
Y455554D01*
X543437Y456842D01*
X544166Y457935D01*
X553940Y467709D01*
X555033Y468438D01*
X556321Y468695D01*
X617212D01*
X618798Y470281D01*
X620945Y471170D01*
X621529D01*
X622015Y472343D01*
X618213Y476144D01*
X617484Y477237D01*
X617227Y478525D01*
Y549925D01*
X616313Y550304D01*
X614669Y551947D01*
X613780Y554094D01*
Y556418D01*
X614669Y558565D01*
X616313Y560209D01*
X618182Y560983D01*
X617930Y562253D01*
X613558D01*
X606613Y555309D01*
Y553066D01*
X605724Y550919D01*
X604080Y549275D01*
X601933Y548386D01*
X599609D01*
X598498Y548846D01*
X597157Y548112D01*
X597055Y547410D01*
X598104Y546361D01*
X598993Y544214D01*
Y541890D01*
X598104Y539743D01*
X596460Y538099D01*
X594313Y537210D01*
X591989D01*
X589842Y538099D01*
X588198Y539743D01*
X587309Y541890D01*
Y544214D01*
X588198Y546361D01*
X589784Y547947D01*
Y557022D01*
X590041Y558310D01*
X590770Y559403D01*
X607218Y575850D01*
X606732Y577023D01*
X598231D01*
X596943Y577280D01*
X595850Y578009D01*
X594166Y579693D01*
X593437Y580786D01*
X593180Y582074D01*
Y583593D01*
X549914D01*
Y581851D01*
X551114Y580651D01*
X552003Y578504D01*
Y576180D01*
X551114Y574033D01*
X549470Y572389D01*
X547323Y571500D01*
X544999D01*
X542852Y572389D01*
X541208Y574033D01*
X540319Y576180D01*
Y578504D01*
X541208Y580651D01*
X542852Y582295D01*
X542920Y582323D01*
X542668Y583593D01*
X523015D01*
Y602407D01*
X523180D01*
Y618929D01*
X521588Y620522D01*
X519345D01*
X517198Y621411D01*
X515554Y623055D01*
X514665Y625202D01*
Y627526D01*
X515554Y629673D01*
X517198Y631317D01*
X519345Y632206D01*
X521669D01*
X523816Y631317D01*
X525460Y629673D01*
X526349Y627526D01*
Y625627D01*
X526910Y625190D01*
X528180Y625810D01*
Y633233D01*
X517872Y643541D01*
X517143Y644634D01*
X516886Y645922D01*
Y763653D01*
X506309Y774231D01*
X403511D01*
X402832Y772961D01*
X403156Y772476D01*
X403430Y771098D01*
X403156Y769720D01*
X402375Y768552D01*
X402853Y767344D01*
X403436Y766472D01*
X404520Y766421D01*
X404825Y766505D01*
X405202Y767418D01*
X406632Y768847D01*
X408239Y769512D01*
Y764540D01*
Y759567D01*
X406632Y760233D01*
X405202Y761662D01*
X404795Y762646D01*
X404611Y762706D01*
X403406Y762680D01*
X402742Y761685D01*
X401405Y760792D01*
X399829Y760479D01*
X396849D01*
Y764598D01*
X394309D01*
Y760479D01*
X391329D01*
X390414Y760661D01*
X389678Y760048D01*
X389393Y759288D01*
X389430Y759098D01*
Y750598D01*
X389156Y749220D01*
X388376Y748052D01*
X388232Y747955D01*
Y728692D01*
X388681Y728391D01*
Y723138D01*
Y717885D01*
X388232Y717584D01*
Y711586D01*
X387976Y710298D01*
X387246Y709206D01*
X376445Y698405D01*
X375353Y697676D01*
X374065Y697419D01*
X279853D01*
X278565Y697676D01*
X277473Y698405D01*
X208378Y767500D01*
X207205Y767014D01*
Y751452D01*
X188141D01*
Y770516D01*
X187238Y771402D01*
X181530D01*
X181155Y770005D01*
X179901Y767831D01*
X178126Y766057D01*
X175952Y764802D01*
X173528Y764152D01*
X171018D01*
X168594Y764802D01*
X166420Y766057D01*
X164646Y767831D01*
X163391Y770005D01*
X162741Y772429D01*
Y774939D01*
X163391Y777363D01*
X164646Y779537D01*
X166420Y781311D01*
X168594Y782566D01*
X171018Y783216D01*
X173528D01*
X175952Y782566D01*
X178126Y781311D01*
X179901Y779537D01*
X180709Y778136D01*
X190645D01*
X191171Y779406D01*
X190046Y780531D01*
X188791Y782705D01*
X188141Y785129D01*
Y787639D01*
X188791Y790063D01*
X190046Y792237D01*
X191820Y794012D01*
X193994Y795266D01*
X196418Y795916D01*
X198928D01*
X201352Y795266D01*
X203526Y794012D01*
X205301Y792237D01*
X206555Y790063D01*
X207205Y787639D01*
Y785129D01*
X207106Y784760D01*
X215550Y776317D01*
X216860Y776803D01*
X217496Y778340D01*
X218925Y779769D01*
X220533Y780434D01*
Y775462D01*
X221803D01*
Y774192D01*
X226776D01*
X226110Y772584D01*
X224681Y771155D01*
X223144Y770519D01*
X222658Y769209D01*
X283142Y708725D01*
X289547D01*
X289932Y709995D01*
X289411Y710343D01*
X230090Y769664D01*
X229361Y770756D01*
X229104Y772044D01*
Y799722D01*
X207708Y821117D01*
X203111D01*
X202771Y819847D01*
X203526Y819411D01*
X205301Y817637D01*
X206555Y815463D01*
X207205Y813039D01*
Y810529D01*
X206555Y808105D01*
X205301Y805931D01*
X203526Y804156D01*
X201352Y802902D01*
X198928Y802252D01*
X196418D01*
X193994Y802902D01*
X191820Y804156D01*
X190046Y805931D01*
X188791Y808105D01*
X188141Y810529D01*
Y813039D01*
X188791Y815463D01*
X190046Y817637D01*
X191820Y819411D01*
X192575Y819847D01*
X192235Y821117D01*
X181239D01*
X181155Y820805D01*
X179901Y818631D01*
X178126Y816857D01*
X175952Y815602D01*
X173528Y814952D01*
X171018D01*
X168594Y815602D01*
X166420Y816857D01*
X164646Y818631D01*
X163391Y820805D01*
X162741Y823229D01*
Y825739D01*
X163391Y828163D01*
X164646Y830337D01*
X166420Y832112D01*
X168594Y833366D01*
X171018Y834016D01*
X173528D01*
X175952Y833366D01*
X178126Y832112D01*
X179901Y830337D01*
X181155Y828163D01*
X181239Y827851D01*
X192235D01*
X192575Y829121D01*
X191820Y829557D01*
X190046Y831331D01*
X188791Y833505D01*
X188141Y835929D01*
Y838439D01*
X188791Y840863D01*
X190046Y843037D01*
X191820Y844811D01*
X193994Y846066D01*
X196418Y846716D01*
X198928D01*
X201352Y846066D01*
X203526Y844811D01*
X205301Y843037D01*
X206555Y840863D01*
X207205Y838439D01*
Y835929D01*
X206674Y833947D01*
X207399Y832677D01*
X210743D01*
X212031Y832420D01*
X213123Y831691D01*
X239424Y805390D01*
X240154Y804298D01*
X240410Y803010D01*
Y775332D01*
X295080Y720663D01*
X347155D01*
X350926Y724435D01*
Y747172D01*
X350102Y747529D01*
X349692Y747620D01*
X349575Y747574D01*
X348405Y746792D01*
X348099Y746731D01*
Y754848D01*
X346829D01*
Y756118D01*
X342710D01*
Y759098D01*
X342892Y760013D01*
X342279Y760750D01*
X341519Y761035D01*
X341329Y760997D01*
X337799D01*
X336854Y760809D01*
X325289D01*
Y760303D01*
X324775D01*
Y749333D01*
X325816Y748291D01*
X326705Y746144D01*
Y743820D01*
X325816Y741673D01*
X324172Y740029D01*
X322025Y739140D01*
X319701D01*
X317554Y740029D01*
X315910Y741673D01*
X315021Y743820D01*
Y746144D01*
X315910Y748291D01*
X316746Y749127D01*
Y759796D01*
X313928D01*
Y764936D01*
Y770076D01*
X317441D01*
X317644Y771097D01*
X318514Y772400D01*
X320051Y773936D01*
X320109Y773975D01*
X320010Y775208D01*
X318942Y775755D01*
X318915Y775727D01*
X317307Y775061D01*
Y780034D01*
Y785006D01*
X318915Y784341D01*
X319212Y784043D01*
X319510Y784341D01*
X321117Y785006D01*
Y780034D01*
X322387D01*
Y778764D01*
X327360D01*
X326694Y777156D01*
X325919Y776382D01*
X326446Y775112D01*
X328220D01*
X328921Y776328D01*
X337079D01*
Y778868D01*
X328963D01*
X329024Y779174D01*
X329916Y780511D01*
Y781185D01*
X329024Y782522D01*
X328963Y782828D01*
X337079D01*
Y785368D01*
X328963D01*
X329024Y785674D01*
X329215Y785961D01*
X328536Y787231D01*
X300393D01*
X299105Y787488D01*
X298012Y788217D01*
X287240Y798989D01*
X286511Y800082D01*
X286254Y801370D01*
Y867348D01*
X285349D01*
Y876674D01*
X279867D01*
X278885Y875978D01*
Y870458D01*
X272095D01*
Y869188D01*
X270825D01*
Y862398D01*
X265305D01*
Y863460D01*
X264035Y864156D01*
X262951Y863708D01*
Y868680D01*
Y873652D01*
X264035Y873204D01*
X265305Y873900D01*
Y875978D01*
X265813D01*
Y886970D01*
X278377D01*
Y884702D01*
X285349D01*
Y895412D01*
D02*
G37*
G36*
X116247Y797560D02*
X119949D01*
Y793857D01*
X118342Y794523D01*
X116912Y795952D01*
X116247Y797560D01*
D02*
G37*
G36*
X122489D02*
X126192D01*
X125526Y795952D01*
X124097Y794523D01*
X122489Y793857D01*
Y797560D01*
D02*
G37*
G36*
X171018Y808616D02*
X173528D01*
X175952Y807966D01*
X178126Y806712D01*
X179901Y804937D01*
X181155Y802763D01*
X181805Y800339D01*
Y797829D01*
X181155Y795405D01*
X179901Y793231D01*
X178126Y791457D01*
X175952Y790202D01*
X173528Y789552D01*
X171018D01*
X168594Y790202D01*
X166420Y791457D01*
X164646Y793231D01*
X163391Y795405D01*
X162741Y797829D01*
Y800339D01*
X163391Y802763D01*
X164646Y804937D01*
X166420Y806712D01*
X168594Y807966D01*
X171018Y808616D01*
D02*
G37*
G36*
X132141Y789324D02*
Y785622D01*
X128439D01*
X129104Y787230D01*
X130534Y788659D01*
X132141Y789324D01*
D02*
G37*
G36*
X134681D02*
X136289Y788659D01*
X137718Y787230D01*
X138384Y785622D01*
X134681D01*
Y789324D01*
D02*
G37*
G36*
X815458Y802520D02*
X817968D01*
X820392Y801870D01*
X822566Y800615D01*
X824341Y798841D01*
X825595Y796667D01*
X826245Y794243D01*
Y791733D01*
X825595Y789309D01*
X824341Y787135D01*
X822566Y785360D01*
X820392Y784106D01*
X817968Y783456D01*
X815458D01*
X813034Y784106D01*
X810860Y785360D01*
X809086Y787135D01*
X807831Y789309D01*
X807181Y791733D01*
Y794243D01*
X807831Y796667D01*
X809086Y798841D01*
X810860Y800615D01*
X813034Y801870D01*
X815458Y802520D01*
D02*
G37*
G36*
X840858D02*
X843368D01*
X845792Y801870D01*
X847966Y800615D01*
X849741Y798841D01*
X850995Y796667D01*
X851645Y794243D01*
Y791733D01*
X850995Y789309D01*
X849741Y787135D01*
X847966Y785360D01*
X845792Y784106D01*
X843368Y783456D01*
X840858D01*
X838434Y784106D01*
X836260Y785360D01*
X834486Y787135D01*
X833231Y789309D01*
X832581Y791733D01*
Y794243D01*
X833231Y796667D01*
X834486Y798841D01*
X836260Y800615D01*
X838434Y801870D01*
X840858Y802520D01*
D02*
G37*
G36*
X314767Y785006D02*
Y781304D01*
X311065D01*
X311730Y782912D01*
X313160Y784341D01*
X314767Y785006D01*
D02*
G37*
G36*
X323657D02*
X325265Y784341D01*
X326694Y782912D01*
X327360Y781304D01*
X323657D01*
Y785006D01*
D02*
G37*
G36*
X128439Y783082D02*
X132141D01*
Y779380D01*
X130534Y780045D01*
X129104Y781474D01*
X128439Y783082D01*
D02*
G37*
G36*
X134681D02*
X138384D01*
X137718Y781474D01*
X136289Y780045D01*
X134681Y779380D01*
Y783082D01*
D02*
G37*
G36*
X223073Y780434D02*
X224681Y779769D01*
X226110Y778340D01*
X226776Y776732D01*
X223073D01*
Y780434D01*
D02*
G37*
G36*
X311065Y778764D02*
X314767D01*
Y775061D01*
X313160Y775727D01*
X311730Y777156D01*
X311065Y778764D01*
D02*
G37*
G36*
X307518Y770076D02*
X311388D01*
Y766206D01*
X307518D01*
Y770076D01*
D02*
G37*
G36*
X410779Y769512D02*
X412387Y768847D01*
X413816Y767418D01*
X414482Y765810D01*
X410779D01*
Y769512D01*
D02*
G37*
G36*
X307518Y763665D02*
X311388D01*
Y759796D01*
X307518D01*
Y763665D01*
D02*
G37*
G36*
X410779Y763270D02*
X414482D01*
X413816Y761662D01*
X412387Y760233D01*
X410779Y759567D01*
Y763270D01*
D02*
G37*
G36*
X815458Y777120D02*
X817968D01*
X820392Y776470D01*
X822566Y775216D01*
X824341Y773441D01*
X825595Y771267D01*
X826245Y768843D01*
Y766333D01*
X825595Y763909D01*
X824341Y761735D01*
X822566Y759960D01*
X820392Y758706D01*
X817968Y758056D01*
X815458D01*
X813034Y758706D01*
X810860Y759960D01*
X809086Y761735D01*
X807831Y763909D01*
X807181Y766333D01*
Y768843D01*
X807831Y771267D01*
X809086Y773441D01*
X810860Y775216D01*
X813034Y776470D01*
X815458Y777120D01*
D02*
G37*
G36*
X840858D02*
X843368D01*
X845792Y776470D01*
X847966Y775216D01*
X849741Y773441D01*
X850995Y771267D01*
X851645Y768843D01*
Y766333D01*
X850995Y763909D01*
X849741Y761735D01*
X847966Y759960D01*
X845792Y758706D01*
X843368Y758056D01*
X840858D01*
X838434Y758706D01*
X836260Y759960D01*
X834486Y761735D01*
X833231Y763909D01*
X832581Y766333D01*
Y768843D01*
X833231Y771267D01*
X834486Y773441D01*
X836260Y775216D01*
X838434Y776470D01*
X840858Y777120D01*
D02*
G37*
G36*
X338897Y753511D02*
Y749808D01*
X335195D01*
X335860Y751416D01*
X337290Y752845D01*
X338897Y753511D01*
D02*
G37*
G36*
X335195Y747268D02*
X338897D01*
Y743566D01*
X337290Y744231D01*
X335860Y745660D01*
X335195Y747268D01*
D02*
G37*
G36*
X341889Y753578D02*
X345559D01*
Y746731D01*
X345253Y746792D01*
X344898Y746685D01*
X344474Y745660D01*
X343045Y744231D01*
X341437Y743566D01*
Y748538D01*
Y753511D01*
X341654Y753421D01*
X341889Y753578D01*
D02*
G37*
G36*
X171018Y757816D02*
X173528D01*
X175952Y757166D01*
X178126Y755911D01*
X179901Y754137D01*
X181155Y751963D01*
X181805Y749539D01*
Y747029D01*
X181155Y744605D01*
X179901Y742431D01*
X178126Y740657D01*
X175952Y739402D01*
X173528Y738752D01*
X171018D01*
X168594Y739402D01*
X166420Y740657D01*
X164646Y742431D01*
X163391Y744605D01*
X162741Y747029D01*
Y749539D01*
X163391Y751963D01*
X164646Y754137D01*
X166420Y755911D01*
X168594Y757166D01*
X171018Y757816D01*
D02*
G37*
G36*
X338389Y740049D02*
Y736346D01*
X334687D01*
X335352Y737954D01*
X336782Y739383D01*
X338389Y740049D01*
D02*
G37*
G36*
X340929D02*
X342537Y739383D01*
X343966Y737954D01*
X344632Y736346D01*
X340929D01*
Y740049D01*
D02*
G37*
G36*
X815458Y751720D02*
X817968D01*
X820392Y751070D01*
X822566Y749816D01*
X824341Y748041D01*
X825595Y745867D01*
X826245Y743443D01*
Y740933D01*
X825595Y738509D01*
X824341Y736335D01*
X822566Y734560D01*
X820392Y733306D01*
X817968Y732656D01*
X815458D01*
X813034Y733306D01*
X810860Y734560D01*
X809086Y736335D01*
X807831Y738509D01*
X807181Y740933D01*
Y743443D01*
X807831Y745867D01*
X809086Y748041D01*
X810860Y749816D01*
X813034Y751070D01*
X815458Y751720D01*
D02*
G37*
G36*
X840858D02*
X843368D01*
X845792Y751070D01*
X847966Y749816D01*
X849741Y748041D01*
X850995Y745867D01*
X851645Y743443D01*
Y740933D01*
X850995Y738509D01*
X849741Y736335D01*
X847966Y734560D01*
X845792Y733306D01*
X843368Y732656D01*
X840858D01*
X838434Y733306D01*
X836260Y734560D01*
X834486Y736335D01*
X833231Y738509D01*
X832581Y740933D01*
Y743443D01*
X833231Y745867D01*
X834486Y748041D01*
X836260Y749816D01*
X838434Y751070D01*
X840858Y751720D01*
D02*
G37*
G36*
X334687Y733806D02*
X338389D01*
Y730104D01*
X336782Y730769D01*
X335352Y732198D01*
X334687Y733806D01*
D02*
G37*
G36*
X340929D02*
X344632D01*
X343966Y732198D01*
X342537Y730769D01*
X340929Y730104D01*
Y733806D01*
D02*
G37*
G36*
X411033Y723030D02*
Y719328D01*
X407331D01*
X407996Y720936D01*
X409426Y722365D01*
X411033Y723030D01*
D02*
G37*
G36*
X413573D02*
X415181Y722365D01*
X416610Y720936D01*
X417276Y719328D01*
X413573D01*
Y723030D01*
D02*
G37*
G36*
X410125Y738124D02*
X412449D01*
X414596Y737235D01*
X416240Y735591D01*
X417129Y733444D01*
Y731120D01*
X416240Y728973D01*
X414596Y727329D01*
X412449Y726440D01*
X410125D01*
X407978Y727329D01*
X406750Y728557D01*
X404525D01*
X403627Y727659D01*
Y727289D01*
X404135Y726229D01*
X404135Y726099D01*
Y722585D01*
X399095D01*
Y721314D01*
X397825D01*
Y716400D01*
X394055D01*
Y718398D01*
X392882Y718885D01*
X392829Y718831D01*
X391221Y718166D01*
Y723138D01*
Y728111D01*
X392829Y727445D01*
X393419Y726854D01*
X394563Y727506D01*
Y735973D01*
X403627D01*
Y735290D01*
X406210D01*
X406334Y735591D01*
X407978Y737235D01*
X410125Y738124D01*
D02*
G37*
G36*
X107007Y753516D02*
X110539D01*
X114004Y752827D01*
X117267Y751475D01*
X120204Y749513D01*
X122702Y747015D01*
X124664Y744078D01*
X126016Y740815D01*
X126705Y737350D01*
Y733818D01*
X126016Y730353D01*
X124664Y727090D01*
X122702Y724153D01*
X120204Y721655D01*
X117267Y719693D01*
X114004Y718341D01*
X110539Y717652D01*
X107007D01*
X103542Y718341D01*
X100279Y719693D01*
X97342Y721655D01*
X94844Y724153D01*
X92882Y727090D01*
X91530Y730353D01*
X90841Y733818D01*
Y737350D01*
X91530Y740815D01*
X92882Y744078D01*
X94844Y747015D01*
X97342Y749513D01*
X100279Y751475D01*
X103542Y752827D01*
X107007Y753516D01*
D02*
G37*
G36*
X400365Y720044D02*
X404135D01*
Y716400D01*
X400365D01*
Y720044D01*
D02*
G37*
G36*
X641475Y951220D02*
X649475D01*
X651829Y950752D01*
X653824Y949419D01*
X655157Y947424D01*
X655625Y945070D01*
Y937070D01*
X655157Y934716D01*
X653824Y932721D01*
X651829Y931388D01*
X649475Y930920D01*
X641475D01*
X639122Y931388D01*
X637126Y932721D01*
X635793Y934716D01*
X635328Y937056D01*
X629341D01*
X628103Y934910D01*
X626235Y933042D01*
X623947Y931722D01*
X621396Y931038D01*
X618754D01*
X616361Y931679D01*
X576337Y891655D01*
Y713416D01*
X577276Y712477D01*
X578165Y710330D01*
Y708006D01*
X577276Y705859D01*
X575632Y704215D01*
X573485Y703326D01*
X571161D01*
X569014Y704215D01*
X567370Y705859D01*
X566481Y708006D01*
Y710330D01*
X567370Y712477D01*
X568309Y713416D01*
Y716807D01*
X567039Y717060D01*
X566608Y716019D01*
X564964Y714375D01*
X562817Y713486D01*
X560493D01*
X558346Y714375D01*
X556702Y716019D01*
X555813Y718166D01*
Y720490D01*
X556702Y722637D01*
X558288Y724223D01*
Y896620D01*
X558545Y897908D01*
X559274Y899001D01*
X590706Y930433D01*
X590735Y930814D01*
X590426Y931939D01*
X588515Y933042D01*
X586647Y934910D01*
X585327Y937198D01*
X584643Y939749D01*
Y942391D01*
X585327Y944942D01*
X586647Y947230D01*
X588515Y949098D01*
X590803Y950418D01*
X593354Y951102D01*
X595996D01*
X598547Y950418D01*
X600835Y949098D01*
X602703Y947230D01*
X604023Y944942D01*
X604707Y942391D01*
Y939749D01*
X604023Y937198D01*
X602703Y934910D01*
X600835Y933042D01*
X598547Y931722D01*
X598042Y931586D01*
Y929640D01*
X597785Y928352D01*
X597056Y927259D01*
X565022Y895226D01*
Y724223D01*
X566608Y722637D01*
X567039Y721596D01*
X568309Y721849D01*
Y893318D01*
X568615Y894854D01*
X569485Y896156D01*
X610684Y937356D01*
X610043Y939749D01*
Y942391D01*
X610727Y944942D01*
X612048Y947230D01*
X613915Y949098D01*
X616203Y950418D01*
X618754Y951102D01*
X621396D01*
X623947Y950418D01*
X626235Y949098D01*
X628103Y947230D01*
X629341Y945084D01*
X635328D01*
X635793Y947424D01*
X637126Y949419D01*
X639122Y950752D01*
X641475Y951220D01*
D02*
G37*
G36*
X407331Y716788D02*
X411033D01*
Y713085D01*
X409426Y713751D01*
X407996Y715180D01*
X407331Y716788D01*
D02*
G37*
G36*
X413573D02*
X417276D01*
X416610Y715180D01*
X415181Y713751D01*
X413573Y713085D01*
Y716788D01*
D02*
G37*
G36*
X81603Y722827D02*
X86843D01*
X88679Y722585D01*
X90389Y721876D01*
X91858Y720749D01*
X92985Y719280D01*
X93694Y717570D01*
X93936Y715734D01*
X93694Y713898D01*
X92985Y712188D01*
X91858Y710719D01*
X90389Y709592D01*
X88679Y708883D01*
X86843Y708641D01*
X81603D01*
X79767Y708883D01*
X78057Y709592D01*
X76588Y710719D01*
X75461Y712188D01*
X74752Y713898D01*
X74510Y715734D01*
X74752Y717570D01*
X75461Y719280D01*
X76588Y720749D01*
X78057Y721876D01*
X79767Y722585D01*
X81603Y722827D01*
D02*
G37*
G36*
X588325Y863876D02*
X732597D01*
X732597Y702860D01*
X588325Y702034D01*
Y863876D01*
D02*
G37*
G36*
X1009457Y701802D02*
X1017077D01*
Y694182D01*
X1009457D01*
Y701802D01*
D02*
G37*
G36*
X1019617D02*
X1027237D01*
Y694182D01*
X1019617D01*
Y701802D01*
D02*
G37*
G36*
X1009457Y691642D02*
X1017077D01*
Y684022D01*
X1009457D01*
Y691642D01*
D02*
G37*
G36*
X1019617D02*
X1027237D01*
Y684022D01*
X1019617D01*
Y691642D01*
D02*
G37*
G36*
X1015553Y635462D02*
Y627196D01*
X1007287D01*
X1007933Y629608D01*
X1009189Y631784D01*
X1010965Y633560D01*
X1013141Y634816D01*
X1015553Y635462D01*
D02*
G37*
G36*
X1018093D02*
X1020505Y634816D01*
X1022681Y633560D01*
X1024457Y631784D01*
X1025713Y629608D01*
X1026359Y627196D01*
X1018093D01*
Y635462D01*
D02*
G37*
G36*
X656583Y626328D02*
X660715D01*
Y621981D01*
X656583D01*
Y626328D01*
D02*
G37*
G36*
X672331D02*
X676463D01*
Y621981D01*
X672331D01*
Y626328D01*
D02*
G37*
G36*
X647507D02*
X651639D01*
Y621981D01*
X647507D01*
Y626328D01*
D02*
G37*
G36*
X663255D02*
X667387D01*
Y621981D01*
X663255D01*
Y626328D01*
D02*
G37*
G36*
X679003D02*
X683135D01*
Y621981D01*
X679003D01*
Y626328D01*
D02*
G37*
G36*
X1007287Y624656D02*
X1015553D01*
Y616390D01*
X1013141Y617036D01*
X1010965Y618292D01*
X1009189Y620068D01*
X1007933Y622244D01*
X1007287Y624656D01*
D02*
G37*
G36*
X1018093D02*
X1026359D01*
X1025713Y622244D01*
X1024457Y620068D01*
X1022681Y618292D01*
X1020505Y617036D01*
X1018093Y616390D01*
Y624656D01*
D02*
G37*
G36*
X730759Y586212D02*
X735391D01*
Y581246D01*
X730759D01*
Y586212D01*
D02*
G37*
G36*
X737931D02*
X742563D01*
Y581246D01*
X737931D01*
Y586212D01*
D02*
G37*
G36*
X792227Y585544D02*
X796859D01*
Y580578D01*
X792227D01*
Y585544D01*
D02*
G37*
G36*
X799399D02*
X804031D01*
Y580578D01*
X799399D01*
Y585544D01*
D02*
G37*
G36*
X469170Y566742D02*
X473517D01*
Y562610D01*
X469170D01*
Y566742D01*
D02*
G37*
G36*
X445831Y561995D02*
X447439Y561329D01*
X448868Y559900D01*
X449534Y558292D01*
X445831D01*
Y561995D01*
D02*
G37*
G36*
X437703Y561740D02*
Y558038D01*
X434001D01*
X434666Y559646D01*
X436096Y561075D01*
X437703Y561740D01*
D02*
G37*
G36*
X81333Y571281D02*
X86573D01*
X88409Y571039D01*
X90119Y570330D01*
X91588Y569203D01*
X92716Y567734D01*
X93424Y566024D01*
X93666Y564188D01*
X93424Y562352D01*
X92716Y560642D01*
X91588Y559173D01*
X90119Y558046D01*
X88409Y557337D01*
X86573Y557095D01*
X81333D01*
X79497Y557337D01*
X77787Y558046D01*
X76318Y559173D01*
X75191Y560642D01*
X74482Y562352D01*
X74240Y564188D01*
X74482Y566024D01*
X75191Y567734D01*
X76318Y569203D01*
X77787Y570330D01*
X79497Y571039D01*
X81333Y571281D01*
D02*
G37*
G36*
X469170Y560070D02*
X473517D01*
Y555938D01*
X469170D01*
Y560070D01*
D02*
G37*
G36*
X161859Y550056D02*
Y546354D01*
X158157D01*
X158822Y547962D01*
X160252Y549391D01*
X161859Y550056D01*
D02*
G37*
G36*
X164399D02*
X166007Y549391D01*
X167436Y547962D01*
X168102Y546354D01*
X164399D01*
Y550056D01*
D02*
G37*
G36*
X468949Y549978D02*
X473295D01*
Y545846D01*
X468949D01*
Y549978D01*
D02*
G37*
G36*
X433239Y549402D02*
X436941D01*
Y545700D01*
X435334Y546365D01*
X433904Y547794D01*
X433239Y549402D01*
D02*
G37*
G36*
X443291Y561995D02*
Y557022D01*
X444561D01*
Y555752D01*
X449534D01*
X448868Y554144D01*
X448443Y553720D01*
X448614Y553550D01*
X449280Y551942D01*
X444307D01*
Y550672D01*
X443037D01*
Y545700D01*
X441429Y546365D01*
X441259Y546536D01*
X441089Y546365D01*
X439481Y545700D01*
Y550672D01*
X438211D01*
Y551942D01*
X433239D01*
X433904Y553550D01*
X434543Y554188D01*
X434001Y555498D01*
X438973D01*
Y556768D01*
X440243D01*
Y561740D01*
X441553Y561198D01*
X441684Y561329D01*
X443291Y561995D01*
D02*
G37*
G36*
X445577Y549402D02*
X449280D01*
X448614Y547794D01*
X447185Y546365D01*
X445577Y545700D01*
Y549402D01*
D02*
G37*
G36*
X324741Y550418D02*
X331531D01*
X338321D01*
Y544898D01*
X336838D01*
X336133Y543842D01*
X336250Y543560D01*
X326305D01*
X326421Y543842D01*
X325716Y544898D01*
X324741D01*
Y550418D01*
D02*
G37*
G36*
X158157Y543814D02*
X161859D01*
Y540112D01*
X160252Y540777D01*
X158822Y542206D01*
X158157Y543814D01*
D02*
G37*
G36*
X164399D02*
X168102D01*
X167436Y542206D01*
X166007Y540777D01*
X164399Y540112D01*
Y543814D01*
D02*
G37*
G36*
X372425Y542944D02*
X374033Y542279D01*
X375462Y540850D01*
X376128Y539242D01*
X372425D01*
Y542944D01*
D02*
G37*
G36*
X468949Y543306D02*
X473295D01*
Y539174D01*
X468949D01*
Y543306D01*
D02*
G37*
G36*
X408347Y541020D02*
X412049D01*
Y537318D01*
X410442Y537983D01*
X409012Y539412D01*
X408347Y541020D01*
D02*
G37*
G36*
X414589D02*
X418292D01*
X417626Y539412D01*
X416197Y537983D01*
X414589Y537318D01*
Y541020D01*
D02*
G37*
G36*
X468695Y533214D02*
X473041D01*
Y529082D01*
X468695D01*
Y533214D01*
D02*
G37*
G36*
X105737Y563270D02*
X109269D01*
X112734Y562581D01*
X115997Y561229D01*
X118934Y559267D01*
X121432Y556769D01*
X123394Y553832D01*
X124746Y550569D01*
X125435Y547104D01*
Y543572D01*
X124746Y540107D01*
X123394Y536844D01*
X121432Y533907D01*
X118934Y531409D01*
X115997Y529447D01*
X112734Y528095D01*
X109269Y527406D01*
X105737D01*
X102273Y528095D01*
X99009Y529447D01*
X96072Y531409D01*
X93574Y533907D01*
X91612Y536844D01*
X90260Y540107D01*
X89571Y543572D01*
Y547104D01*
X90260Y550569D01*
X91612Y553832D01*
X93574Y556769D01*
X96072Y559267D01*
X99009Y561229D01*
X102273Y562581D01*
X105737Y563270D01*
D02*
G37*
G36*
X403159Y531007D02*
Y527304D01*
X399457D01*
X400122Y528912D01*
X401552Y530341D01*
X403159Y531007D01*
D02*
G37*
G36*
X405699D02*
X407307Y530341D01*
X408736Y528912D01*
X409402Y527304D01*
X405699D01*
Y531007D01*
D02*
G37*
G36*
X387411Y527236D02*
X391281D01*
Y523366D01*
X387411D01*
Y527236D01*
D02*
G37*
G36*
X468695Y526542D02*
X473041D01*
Y522410D01*
X468695D01*
Y526542D01*
D02*
G37*
G36*
X399457Y524764D02*
X403159D01*
Y521062D01*
X401552Y521727D01*
X400122Y523156D01*
X399457Y524764D01*
D02*
G37*
G36*
X405699D02*
X409402D01*
X408736Y523156D01*
X407307Y521727D01*
X405699Y521062D01*
Y524764D01*
D02*
G37*
G36*
X442783Y524656D02*
Y520954D01*
X439081D01*
X439746Y522562D01*
X441175Y523991D01*
X442783Y524656D01*
D02*
G37*
G36*
X445323D02*
X446931Y523991D01*
X448360Y522562D01*
X449026Y520954D01*
X445323D01*
Y524656D01*
D02*
G37*
G36*
X333821Y521268D02*
X337691D01*
Y517398D01*
X333821D01*
Y521268D01*
D02*
G37*
G36*
X439081Y518414D02*
X442783D01*
Y514711D01*
X441175Y515377D01*
X439746Y516806D01*
X439081Y518414D01*
D02*
G37*
G36*
X445323D02*
X449026D01*
X448360Y516806D01*
X446931Y515377D01*
X445323Y514711D01*
Y518414D01*
D02*
G37*
G36*
X333821Y514858D02*
X337691D01*
Y510988D01*
X333821D01*
Y514858D01*
D02*
G37*
G36*
X468609Y512500D02*
X474129D01*
Y506730D01*
X468609D01*
Y512500D01*
D02*
G37*
G36*
X220279Y508400D02*
Y504698D01*
X216577D01*
X217242Y506306D01*
X218671Y507735D01*
X220279Y508400D01*
D02*
G37*
G36*
X222819D02*
X224427Y507735D01*
X225856Y506306D01*
X226522Y504698D01*
X222819D01*
Y508400D01*
D02*
G37*
G36*
X325181D02*
Y504698D01*
X321479D01*
X322144Y506306D01*
X323573Y507735D01*
X325181Y508400D01*
D02*
G37*
G36*
X327721D02*
X329329Y507735D01*
X330758Y506306D01*
X331424Y504698D01*
X327721D01*
Y508400D01*
D02*
G37*
G36*
X123251Y506115D02*
Y502412D01*
X119549D01*
X120214Y504020D01*
X121643Y505449D01*
X123251Y506115D01*
D02*
G37*
G36*
X125791D02*
X127399Y505449D01*
X128828Y504020D01*
X129494Y502412D01*
X125791D01*
Y506115D01*
D02*
G37*
G36*
X432005Y508408D02*
X442275D01*
Y498638D01*
X432005D01*
Y508408D01*
D02*
G37*
G36*
X444815D02*
X455085D01*
Y498638D01*
X444815D01*
Y508408D01*
D02*
G37*
G36*
X216577Y502158D02*
X220279D01*
Y498456D01*
X218671Y499121D01*
X217242Y500550D01*
X216577Y502158D01*
D02*
G37*
G36*
X222819D02*
X226522D01*
X225856Y500550D01*
X224427Y499121D01*
X222819Y498456D01*
Y502158D01*
D02*
G37*
G36*
X468609Y504190D02*
X474129D01*
Y498420D01*
X468609D01*
Y504190D01*
D02*
G37*
G36*
X321479Y502158D02*
X331424D01*
X330758Y500550D01*
X330206Y499999D01*
X330504Y499702D01*
X331170Y498094D01*
X321225D01*
X321890Y499702D01*
X322442Y500253D01*
X322144Y500550D01*
X321479Y502158D01*
D02*
G37*
G36*
X119549Y499872D02*
X123251D01*
Y496170D01*
X121643Y496835D01*
X120214Y498264D01*
X119549Y499872D01*
D02*
G37*
G36*
X125791D02*
X129494D01*
X128828Y498264D01*
X127399Y496835D01*
X125791Y496170D01*
Y499872D01*
D02*
G37*
G36*
X321225Y495554D02*
X324927D01*
Y491852D01*
X323320Y492517D01*
X321890Y493946D01*
X321225Y495554D01*
D02*
G37*
G36*
X327467D02*
X331170D01*
X330504Y493946D01*
X329075Y492517D01*
X327467Y491852D01*
Y495554D01*
D02*
G37*
G36*
X332789Y491383D02*
X335769D01*
Y488534D01*
X328923D01*
X328983Y488840D01*
X329876Y490177D01*
X331213Y491070D01*
X332789Y491383D01*
D02*
G37*
G36*
X432005Y496098D02*
X442275D01*
Y486328D01*
X432005D01*
Y496098D01*
D02*
G37*
G36*
X444815D02*
X455085D01*
Y486328D01*
X444815D01*
Y496098D01*
D02*
G37*
G36*
X169748Y504070D02*
X172258D01*
X174682Y503420D01*
X176856Y502165D01*
X178631Y500391D01*
X179885Y498217D01*
X180535Y495793D01*
Y493283D01*
X179885Y490859D01*
X178631Y488685D01*
X176856Y486911D01*
X174682Y485656D01*
X172258Y485006D01*
X169748D01*
X167324Y485656D01*
X165150Y486911D01*
X163376Y488685D01*
X162121Y490859D01*
X161471Y493283D01*
Y495793D01*
X162121Y498217D01*
X163376Y500391D01*
X165150Y502165D01*
X167324Y503420D01*
X169748Y504070D01*
D02*
G37*
G36*
X863223Y487358D02*
X868743D01*
Y481838D01*
X863223D01*
Y487358D01*
D02*
G37*
G36*
X123759Y475126D02*
Y471424D01*
X120057D01*
X120722Y473032D01*
X122151Y474461D01*
X123759Y475126D01*
D02*
G37*
G36*
X126299D02*
X127907Y474461D01*
X129336Y473032D01*
X130002Y471424D01*
X126299D01*
Y475126D01*
D02*
G37*
G36*
X708467Y469030D02*
X710075Y468365D01*
X711504Y466936D01*
X712170Y465328D01*
X708467D01*
Y469030D01*
D02*
G37*
G36*
X120057Y468884D02*
X123759D01*
Y465182D01*
X122151Y465847D01*
X120722Y467276D01*
X120057Y468884D01*
D02*
G37*
G36*
X126299D02*
X130002D01*
X129336Y467276D01*
X127907Y465847D01*
X126299Y465182D01*
Y468884D01*
D02*
G37*
G36*
X700339Y468522D02*
Y464820D01*
X696637D01*
X697302Y466428D01*
X698732Y467857D01*
X700339Y468522D01*
D02*
G37*
G36*
X916239Y464459D02*
X917847Y463793D01*
X917890Y463749D01*
X917934Y463793D01*
X919541Y464459D01*
Y459486D01*
X920811D01*
Y458216D01*
X925784D01*
X925205Y456819D01*
X925784Y455422D01*
X920811D01*
Y454152D01*
X919541D01*
Y449179D01*
X917934Y449845D01*
X917803Y449976D01*
X916493Y449434D01*
Y454406D01*
X915223D01*
Y455676D01*
X910251D01*
X910650Y456639D01*
X909997Y458216D01*
X914969D01*
Y459486D01*
X916239D01*
Y464459D01*
D02*
G37*
G36*
X913699D02*
Y460756D01*
X909997D01*
X910662Y462364D01*
X912092Y463793D01*
X913699Y464459D01*
D02*
G37*
G36*
X922081D02*
X923689Y463793D01*
X925118Y462364D01*
X925784Y460756D01*
X922081D01*
Y464459D01*
D02*
G37*
G36*
X708467Y462788D02*
X712170D01*
X711504Y461180D01*
X710075Y459751D01*
X708467Y459086D01*
Y462788D01*
D02*
G37*
G36*
X696637Y462280D02*
X700339D01*
Y458577D01*
X698732Y459243D01*
X697302Y460672D01*
X696637Y462280D01*
D02*
G37*
G36*
X705927Y469030D02*
Y464058D01*
Y459086D01*
X704797Y459554D01*
X704487Y459243D01*
X702879Y458577D01*
Y463550D01*
Y468522D01*
X704009Y468054D01*
X704320Y468365D01*
X705927Y469030D01*
D02*
G37*
G36*
X407477Y459486D02*
X411180D01*
X410514Y457878D01*
X409085Y456449D01*
X407477Y455784D01*
Y459486D01*
D02*
G37*
G36*
X910251Y453136D02*
X913953D01*
Y449434D01*
X912346Y450099D01*
X910916Y451528D01*
X910251Y453136D01*
D02*
G37*
G36*
X922081Y452882D02*
X925784D01*
X925118Y451274D01*
X923689Y449845D01*
X922081Y449179D01*
Y452882D01*
D02*
G37*
G36*
X169748Y453270D02*
X172258D01*
X174682Y452620D01*
X176856Y451366D01*
X178631Y449591D01*
X179885Y447417D01*
X180535Y444993D01*
Y442483D01*
X179885Y440059D01*
X178631Y437885D01*
X176856Y436110D01*
X174682Y434856D01*
X172258Y434206D01*
X169748D01*
X167324Y434856D01*
X165150Y436110D01*
X163376Y437885D01*
X162121Y440059D01*
X161471Y442483D01*
Y444993D01*
X162121Y447417D01*
X163376Y449591D01*
X165150Y451366D01*
X167324Y452620D01*
X169748Y453270D01*
D02*
G37*
G36*
X870773Y441960D02*
X879663D01*
Y433070D01*
X870773D01*
Y441960D01*
D02*
G37*
G36*
X882203D02*
X891093D01*
Y433070D01*
X882203D01*
Y441960D01*
D02*
G37*
G36*
X932782Y439394D02*
X939551D01*
Y432124D01*
X932782D01*
Y439394D01*
D02*
G37*
G36*
X942092D02*
X948861D01*
Y432124D01*
X942092D01*
Y439394D01*
D02*
G37*
G36*
X290237Y430784D02*
X293939D01*
Y427081D01*
X292332Y427747D01*
X290902Y429176D01*
X290237Y430784D01*
D02*
G37*
G36*
X296479D02*
X300182D01*
X299516Y429176D01*
X298087Y427747D01*
X296479Y427081D01*
Y430784D01*
D02*
G37*
G36*
X932782Y429584D02*
X939551D01*
Y422314D01*
X932782D01*
Y429584D01*
D02*
G37*
G36*
X942092D02*
X948861D01*
Y422314D01*
X942092D01*
Y429584D01*
D02*
G37*
G36*
X341545Y425704D02*
X345247D01*
Y422001D01*
X343639Y422667D01*
X342210Y424096D01*
X341545Y425704D01*
D02*
G37*
G36*
X347787D02*
X351490D01*
X350824Y424096D01*
X349395Y422667D01*
X347787Y422001D01*
Y425704D01*
D02*
G37*
G36*
X870773Y430530D02*
X879663D01*
Y421640D01*
X870773D01*
Y430530D01*
D02*
G37*
G36*
X882203D02*
X891093D01*
Y421640D01*
X882203D01*
Y430530D01*
D02*
G37*
G36*
X892363Y425130D02*
X899983D01*
Y417510D01*
X892363D01*
Y425130D01*
D02*
G37*
G36*
X920303D02*
X927923D01*
Y417510D01*
X920303D01*
Y425130D01*
D02*
G37*
G36*
X105737Y448970D02*
X109269D01*
X112734Y448281D01*
X115997Y446929D01*
X118934Y444967D01*
X121432Y442469D01*
X123394Y439532D01*
X124746Y436269D01*
X125435Y432804D01*
Y429272D01*
X124746Y425807D01*
X123394Y422544D01*
X121432Y419607D01*
X118934Y417109D01*
X115997Y415147D01*
X112734Y413795D01*
X109269Y413106D01*
X105737D01*
X102273Y413795D01*
X99009Y415147D01*
X96072Y417109D01*
X93574Y419607D01*
X91612Y422544D01*
X90260Y425807D01*
X89571Y429272D01*
Y432804D01*
X90260Y436269D01*
X91612Y439532D01*
X93574Y442469D01*
X96072Y444967D01*
X99009Y446929D01*
X102273Y448281D01*
X105737Y448970D01*
D02*
G37*
G36*
X503167Y412085D02*
X507299D01*
Y407738D01*
X503167D01*
Y412085D01*
D02*
G37*
G36*
X892363Y414970D02*
X899983D01*
Y407350D01*
X892363D01*
Y414970D01*
D02*
G37*
G36*
X902523Y425130D02*
X917763D01*
Y416240D01*
Y407350D01*
X902523D01*
Y416240D01*
Y425130D01*
D02*
G37*
G36*
X642935Y411545D02*
X647067D01*
Y407198D01*
X642935D01*
Y411545D01*
D02*
G37*
G36*
X620515Y411512D02*
X624647D01*
Y407166D01*
X620515D01*
Y411512D01*
D02*
G37*
G36*
X668013D02*
X672145D01*
Y407166D01*
X668013D01*
Y411512D01*
D02*
G37*
G36*
X674685D02*
X678817D01*
Y407166D01*
X674685D01*
Y411512D01*
D02*
G37*
G36*
X652011Y411480D02*
X656143D01*
Y407133D01*
X652011D01*
Y411480D01*
D02*
G37*
G36*
X658683D02*
X662815D01*
Y407133D01*
X658683D01*
Y411480D01*
D02*
G37*
G36*
X489313Y410210D02*
X493583D01*
Y406440D01*
X489313D01*
Y410210D01*
D02*
G37*
G36*
X496123D02*
X500393D01*
Y406440D01*
X496123D01*
Y410210D01*
D02*
G37*
G36*
X538287Y408282D02*
X544057D01*
Y402762D01*
X538287D01*
Y408282D01*
D02*
G37*
G36*
X605243Y422631D02*
X607567D01*
X609715Y421742D01*
X611358Y420098D01*
X612247Y417951D01*
Y415627D01*
X611358Y413480D01*
X609772Y411894D01*
Y403099D01*
X611042Y402573D01*
X611741Y403272D01*
X613888Y404161D01*
X616212D01*
X618359Y403272D01*
X620003Y401628D01*
X620892Y399481D01*
Y397157D01*
X620003Y395010D01*
X618417Y393424D01*
Y376498D01*
X647348Y347567D01*
X648077Y346474D01*
X648334Y345186D01*
Y230632D01*
X648077Y229344D01*
X647348Y228251D01*
X631854Y212757D01*
X630761Y212028D01*
X629473Y211771D01*
X614612D01*
X606256Y203416D01*
Y199790D01*
X606921D01*
Y175726D01*
X598857D01*
X598857Y175726D01*
X597587Y175885D01*
X596389Y175647D01*
X594816Y175960D01*
X593482Y176851D01*
X592796D01*
X591462Y175960D01*
X589889Y175647D01*
X588673Y175889D01*
X587403Y175159D01*
Y152708D01*
X588023D01*
Y149565D01*
X588030Y149555D01*
X588335Y148019D01*
X588030Y146483D01*
X588023Y146473D01*
Y144276D01*
X588531Y143216D01*
X588531Y142584D01*
Y139446D01*
X582991D01*
X577451D01*
Y143216D01*
X577959Y144276D01*
Y152708D01*
X579375D01*
Y175159D01*
X578105Y175889D01*
X576889Y175647D01*
X575316Y175960D01*
X574564Y176462D01*
X573639Y176746D01*
X572714Y176462D01*
X571962Y175960D01*
X570389Y175647D01*
X568816Y175960D01*
X568486Y176180D01*
X567162Y176485D01*
X565661Y175481D01*
X565159Y175382D01*
Y187758D01*
X562619D01*
Y175382D01*
X562118Y175481D01*
X560616Y176485D01*
X559292Y176180D01*
X558962Y175960D01*
X557389Y175647D01*
X555816Y175960D01*
X554482Y176851D01*
X553796D01*
X552462Y175960D01*
X550889Y175647D01*
X549316Y175960D01*
X548564Y176462D01*
X547639Y176746D01*
X546714Y176462D01*
X545962Y175960D01*
X544389Y175647D01*
X542816Y175960D01*
X541482Y176851D01*
X540796D01*
X539462Y175960D01*
X537889Y175647D01*
X536316Y175960D01*
X535564Y176462D01*
X534639Y176746D01*
X533714Y176462D01*
X532962Y175960D01*
X531389Y175647D01*
X529816Y175960D01*
X528482Y176851D01*
X527796D01*
X526462Y175960D01*
X524889Y175647D01*
X523316Y175960D01*
X522564Y176462D01*
X521639Y176746D01*
X520714Y176462D01*
X519962Y175960D01*
X518389Y175647D01*
X516816Y175960D01*
X515482Y176851D01*
X514591Y178185D01*
X514278Y179758D01*
Y195758D01*
X514591Y197331D01*
X515482Y198665D01*
X516816Y199556D01*
X518389Y199869D01*
X519962Y199556D01*
X520714Y199053D01*
X521639Y198770D01*
X522564Y199053D01*
X523316Y199556D01*
X524889Y199869D01*
X526462Y199556D01*
X527796Y198665D01*
X528482D01*
X529816Y199556D01*
X531389Y199869D01*
X532962Y199556D01*
X533714Y199053D01*
X534639Y198770D01*
X535564Y199053D01*
X536316Y199556D01*
X537889Y199869D01*
X539462Y199556D01*
X540796Y198665D01*
X541482D01*
X542816Y199556D01*
X544389Y199869D01*
X545962Y199556D01*
X546714Y199053D01*
X547639Y198770D01*
X548564Y199053D01*
X549316Y199556D01*
X550889Y199869D01*
X552462Y199556D01*
X553796Y198665D01*
X554482D01*
X555816Y199556D01*
X557389Y199869D01*
X558949Y199559D01*
X559013Y199603D01*
X559925Y200440D01*
X559369Y201783D01*
Y203601D01*
X560065Y205282D01*
X561031Y206248D01*
X560579Y207518D01*
X559883D01*
X558016Y208291D01*
X557845Y208462D01*
X557675Y208291D01*
X556067Y207626D01*
Y212598D01*
Y217570D01*
X557675Y216905D01*
X557845Y216734D01*
X558016Y216905D01*
X559623Y217570D01*
Y212598D01*
X560893D01*
Y211328D01*
X565866D01*
X565200Y209720D01*
X564013Y208534D01*
X564320Y207398D01*
X564403Y207264D01*
X564851D01*
X566531Y206568D01*
X567817Y205282D01*
X568513Y203601D01*
Y201783D01*
X567997Y200536D01*
X568493Y199943D01*
X568959Y199585D01*
X570389Y199869D01*
X571962Y199556D01*
X572252Y199362D01*
X573522Y200041D01*
Y214878D01*
X573779Y216166D01*
X574509Y217259D01*
X582642Y225393D01*
X583735Y226122D01*
X585023Y226379D01*
X628587D01*
X637028Y234821D01*
Y338712D01*
X604025Y371715D01*
X603295Y372807D01*
X603039Y374096D01*
Y411894D01*
X601453Y413480D01*
X600563Y415627D01*
Y417951D01*
X601453Y420098D01*
X603096Y421742D01*
X605243Y422631D01*
D02*
G37*
G36*
X754122Y386910D02*
X758469D01*
Y384778D01*
X759739Y384525D01*
X759786Y384640D01*
X761216Y386069D01*
X762823Y386735D01*
Y381762D01*
Y376790D01*
X761216Y377455D01*
X759786Y378884D01*
X759739Y378999D01*
X758469Y378746D01*
Y376106D01*
X754122D01*
Y381508D01*
Y386910D01*
D02*
G37*
G36*
X765363Y386735D02*
X766971Y386069D01*
X768400Y384640D01*
X769066Y383032D01*
X765363D01*
Y386735D01*
D02*
G37*
G36*
Y380492D02*
X769066D01*
X768400Y378884D01*
X766971Y377455D01*
X765363Y376790D01*
Y380492D01*
D02*
G37*
G36*
X856041Y376828D02*
X857649Y376163D01*
X859078Y374734D01*
X859744Y373126D01*
X856041D01*
Y376828D01*
D02*
G37*
G36*
X847913Y376575D02*
Y372872D01*
X844211D01*
X844876Y374480D01*
X846305Y375909D01*
X847913Y376575D01*
D02*
G37*
G36*
X870967Y380344D02*
X877237D01*
Y367074D01*
X870967D01*
Y380344D01*
D02*
G37*
G36*
X879777D02*
X886047D01*
Y367074D01*
X879777D01*
Y380344D01*
D02*
G37*
G36*
X973643Y374650D02*
X981263D01*
Y367030D01*
X973643D01*
Y374650D01*
D02*
G37*
G36*
X1017585Y368447D02*
X1019193Y367781D01*
X1020125Y366848D01*
X1020804Y367527D01*
X1022411Y368192D01*
Y363220D01*
X1023681D01*
Y361950D01*
X1028654D01*
X1027988Y360342D01*
X1027690Y360045D01*
X1027734Y360002D01*
X1028400Y358394D01*
X1023427D01*
Y357124D01*
X1022157D01*
Y352151D01*
X1020549Y352817D01*
X1019236Y354131D01*
X1018685Y353579D01*
X1017077Y352914D01*
Y357886D01*
X1015807D01*
Y359156D01*
X1010835D01*
X1011500Y360764D01*
X1011811Y361074D01*
X1011343Y362204D01*
X1016315D01*
Y363474D01*
X1017585D01*
Y368447D01*
D02*
G37*
G36*
X1015045D02*
Y364744D01*
X1011343D01*
X1012008Y366352D01*
X1013438Y367781D01*
X1015045Y368447D01*
D02*
G37*
G36*
X1024951Y368192D02*
X1026559Y367527D01*
X1027988Y366098D01*
X1028654Y364490D01*
X1024951D01*
Y368192D01*
D02*
G37*
G36*
X855787Y364998D02*
X859490D01*
X858824Y363390D01*
X857395Y361961D01*
X855787Y361296D01*
Y364998D01*
D02*
G37*
G36*
X843957Y364490D02*
X847659D01*
Y360788D01*
X846051Y361453D01*
X844622Y362882D01*
X843957Y364490D01*
D02*
G37*
G36*
X853501Y376828D02*
Y371856D01*
X854771D01*
Y370586D01*
X859744D01*
X859078Y368978D01*
X858947Y368848D01*
X859490Y367538D01*
X854517D01*
Y366268D01*
X853247D01*
Y361296D01*
X852117Y361764D01*
X851807Y361453D01*
X850199Y360788D01*
Y365760D01*
X848929D01*
Y367030D01*
X843957D01*
X844622Y368638D01*
X844827Y368843D01*
X844211Y370332D01*
X849183D01*
Y371602D01*
X850453D01*
Y376575D01*
X851763Y376032D01*
X851893Y376163D01*
X853501Y376828D01*
D02*
G37*
G36*
X973643Y364490D02*
X981263D01*
Y356870D01*
X973643D01*
Y364490D01*
D02*
G37*
G36*
X758297Y364862D02*
X763567D01*
Y355092D01*
X758297D01*
Y364862D01*
D02*
G37*
G36*
X766107D02*
X771377D01*
Y355092D01*
X766107D01*
Y364862D01*
D02*
G37*
G36*
X1010835Y356616D02*
X1014537D01*
Y352914D01*
X1012930Y353579D01*
X1011500Y355008D01*
X1010835Y356616D01*
D02*
G37*
G36*
X1024697Y355854D02*
X1028400D01*
X1027734Y354246D01*
X1026305Y352817D01*
X1024697Y352151D01*
Y355854D01*
D02*
G37*
G36*
X870967Y364534D02*
X877237D01*
Y351264D01*
X870967D01*
Y364534D01*
D02*
G37*
G36*
X879777D02*
X886047D01*
Y351264D01*
X879777D01*
Y364534D01*
D02*
G37*
G36*
X958657Y380786D02*
X959450Y380628D01*
X960122Y380179D01*
X960122Y380179D01*
X963049Y377252D01*
X963126Y377137D01*
X963230Y377046D01*
X963348Y376804D01*
X963498Y376580D01*
X963525Y376444D01*
X963586Y376320D01*
X963603Y376051D01*
X963639Y375873D01*
X963684Y375854D01*
X964126Y375559D01*
X964270Y375415D01*
X964440Y375301D01*
X964554Y375131D01*
X964698Y374987D01*
X964776Y374799D01*
X964875Y374650D01*
X971103D01*
Y365760D01*
Y356870D01*
X965047D01*
Y354330D01*
X971103D01*
Y345440D01*
Y336550D01*
X965047D01*
Y333960D01*
X964889Y333168D01*
X964440Y332495D01*
X963768Y332046D01*
X963608Y332014D01*
Y315586D01*
X963768Y315555D01*
X964440Y315105D01*
X964889Y314433D01*
X965047Y313640D01*
Y300454D01*
X964889Y299661D01*
X964440Y298989D01*
X963768Y298540D01*
X963553Y298497D01*
Y270882D01*
X936489D01*
Y299946D01*
X936610D01*
X937027Y300454D01*
Y348702D01*
X933114D01*
X933075Y348710D01*
X933036Y348704D01*
X932680Y348789D01*
X932321Y348860D01*
X932288Y348882D01*
X932250Y348891D01*
X931182Y349381D01*
X930886Y349596D01*
X930582Y349799D01*
X930560Y349832D01*
X930528Y349855D01*
X930336Y350167D01*
X930133Y350471D01*
X930125Y350510D01*
X930104Y350544D01*
X930047Y350905D01*
X929975Y351264D01*
Y351772D01*
X917475D01*
Y379836D01*
X930353D01*
X930582Y380179D01*
X931254Y380628D01*
X932047Y380786D01*
X958657D01*
X958657Y380786D01*
D02*
G37*
G36*
X973643Y354330D02*
X981263D01*
Y346710D01*
X973643D01*
Y354330D01*
D02*
G37*
G36*
X742865Y400558D02*
X745189D01*
X747336Y399669D01*
X748980Y398025D01*
X749869Y395878D01*
Y393554D01*
X748980Y391407D01*
X747521Y389948D01*
Y386910D01*
X751582D01*
Y381508D01*
Y376106D01*
X748295D01*
Y361137D01*
X748185Y360582D01*
X748987Y359604D01*
X751112Y358724D01*
X752739Y357097D01*
X753619Y354972D01*
Y352672D01*
X752739Y350547D01*
X751112Y348920D01*
X748987Y348040D01*
X746687D01*
X744562Y348920D01*
X742935Y350547D01*
X742416Y351800D01*
X741832Y352049D01*
X740892Y352160D01*
X739856Y351468D01*
X738320Y351162D01*
X736869D01*
Y343290D01*
X724805D01*
Y364354D01*
X736869D01*
Y361061D01*
X738042Y360575D01*
X740267Y362800D01*
Y376614D01*
X739172D01*
Y386402D01*
X740787D01*
Y389735D01*
X740718Y389763D01*
X739074Y391407D01*
X738185Y393554D01*
Y395878D01*
X739074Y398025D01*
X740718Y399669D01*
X742865Y400558D01*
D02*
G37*
G36*
X758297Y352552D02*
X763567D01*
Y342782D01*
X758297D01*
Y352552D01*
D02*
G37*
G36*
X766107D02*
X771377D01*
Y342782D01*
X766107D01*
Y352552D01*
D02*
G37*
G36*
X973643Y344170D02*
X981263D01*
Y336550D01*
X973643D01*
Y344170D01*
D02*
G37*
G36*
X978086Y333960D02*
X986976D01*
Y325070D01*
X978086D01*
Y333960D01*
D02*
G37*
G36*
X989516D02*
X998406D01*
Y325070D01*
X989516D01*
Y333960D01*
D02*
G37*
G36*
X978086Y322530D02*
X986976D01*
Y313640D01*
X978086D01*
Y322530D01*
D02*
G37*
G36*
X989516D02*
X998406D01*
Y313640D01*
X989516D01*
Y322530D01*
D02*
G37*
G36*
X565759Y325428D02*
X574823D01*
Y314364D01*
Y305364D01*
X573785D01*
Y297235D01*
X574939D01*
Y288489D01*
Y280446D01*
X573834D01*
Y270093D01*
X575104Y269414D01*
X575316Y269556D01*
X576889Y269869D01*
X578462Y269556D01*
X578792Y269336D01*
X580116Y269031D01*
X581618Y270035D01*
X582449Y270200D01*
X582867Y271578D01*
X582748Y271696D01*
X582083Y273304D01*
X592028D01*
X591362Y271696D01*
X590978Y271312D01*
X591346Y270097D01*
X591660Y270035D01*
X593162Y269031D01*
X594486Y269336D01*
X594816Y269556D01*
X596389Y269869D01*
X597962Y269556D01*
X598714Y269053D01*
X599639Y268770D01*
X600564Y269053D01*
X601316Y269556D01*
X602889Y269869D01*
X604462Y269556D01*
X605796Y268665D01*
X606687Y267331D01*
X607000Y265758D01*
Y249758D01*
X606687Y248185D01*
X605796Y246851D01*
X604462Y245960D01*
X602889Y245647D01*
X601316Y245960D01*
X600564Y246462D01*
X599639Y246746D01*
X598714Y246462D01*
X597962Y245960D01*
X596389Y245647D01*
X594816Y245960D01*
X594486Y246180D01*
X593162Y246485D01*
X591929Y245661D01*
X591612Y245299D01*
X591254Y244661D01*
X592192Y244094D01*
X592383D01*
X594251Y243321D01*
X595056Y242515D01*
X595607Y243067D01*
X597215Y243732D01*
Y238760D01*
Y233787D01*
X595607Y234453D01*
X594802Y235259D01*
X594251Y234707D01*
X592643Y234042D01*
Y239014D01*
X591373D01*
Y240284D01*
X586401D01*
X587066Y241892D01*
X588495Y243321D01*
X588864Y243473D01*
X589945Y243944D01*
X589881Y244486D01*
X589001Y245306D01*
X588118Y245481D01*
X586639Y246469D01*
X585160Y245481D01*
X584659Y245382D01*
Y257758D01*
X582119D01*
Y245382D01*
X581618Y245481D01*
X580116Y246485D01*
X578792Y246180D01*
X578462Y245960D01*
X576889Y245647D01*
X575316Y245960D01*
X574564Y246462D01*
X573639Y246746D01*
X572714Y246462D01*
X571962Y245960D01*
X570389Y245647D01*
X568816Y245960D01*
X567482Y246851D01*
X566796D01*
X565462Y245960D01*
X563889Y245647D01*
X562316Y245960D01*
X561986Y246180D01*
X560662Y246485D01*
X559160Y245481D01*
X558659Y245382D01*
Y257758D01*
Y270134D01*
X559160Y270035D01*
X559402Y269873D01*
X560522Y270472D01*
Y277295D01*
X558077Y279741D01*
X556905Y280107D01*
Y280107D01*
X556905Y280107D01*
X548117D01*
Y288150D01*
Y296896D01*
X548636D01*
Y305182D01*
X546963D01*
Y315010D01*
X544567D01*
X543628Y314071D01*
X541481Y313182D01*
X539157D01*
X537010Y314071D01*
X535366Y315715D01*
X534477Y317862D01*
Y320186D01*
X535366Y322333D01*
X537010Y323977D01*
X539157Y324866D01*
X541481D01*
X543628Y323977D01*
X544567Y323038D01*
X546963D01*
Y325246D01*
X556027D01*
Y323819D01*
X565759D01*
Y325428D01*
D02*
G37*
G36*
X423733Y310788D02*
X425341Y310123D01*
X426770Y308694D01*
X427436Y307086D01*
X423733D01*
Y310788D01*
D02*
G37*
G36*
X319847Y310534D02*
Y306832D01*
X316145D01*
X316810Y308440D01*
X318239Y309869D01*
X319847Y310534D01*
D02*
G37*
G36*
X423733Y304546D02*
X427436D01*
X426770Y302938D01*
X425341Y301509D01*
X423733Y300844D01*
Y304546D01*
D02*
G37*
G36*
X316145Y304292D02*
X319847D01*
Y300590D01*
X318239Y301255D01*
X316810Y302684D01*
X316145Y304292D01*
D02*
G37*
G36*
X405005D02*
X410525D01*
Y298772D01*
X405005D01*
Y304292D01*
D02*
G37*
G36*
X331277Y304130D02*
X336797D01*
Y298610D01*
X331277D01*
Y304130D01*
D02*
G37*
G36*
X382077Y296311D02*
X383685Y295645D01*
X385114Y294216D01*
X385780Y292608D01*
X382077D01*
Y296311D01*
D02*
G37*
G36*
Y290068D02*
X385780D01*
X385114Y288460D01*
X383685Y287031D01*
X382077Y286366D01*
Y290068D01*
D02*
G37*
G36*
X86159Y297469D02*
X91399D01*
X93235Y297227D01*
X94945Y296518D01*
X96414Y295391D01*
X97542Y293922D01*
X98250Y292212D01*
X98492Y290376D01*
X98250Y288540D01*
X97542Y286830D01*
X96414Y285361D01*
X94945Y284234D01*
X93235Y283525D01*
X91399Y283283D01*
X86159D01*
X84323Y283525D01*
X82613Y284234D01*
X81144Y285361D01*
X80017Y286830D01*
X79308Y288540D01*
X79066Y290376D01*
X79308Y292212D01*
X80017Y293922D01*
X81144Y295391D01*
X82613Y296518D01*
X84323Y297227D01*
X86159Y297469D01*
D02*
G37*
G36*
X814727Y300484D02*
X821497D01*
Y280164D01*
X814727D01*
Y300484D01*
D02*
G37*
G36*
X824037D02*
X830807D01*
Y280164D01*
X824037D01*
Y300484D01*
D02*
G37*
G36*
X347787Y282848D02*
Y279146D01*
X344085D01*
X344750Y280754D01*
X346180Y282183D01*
X347787Y282848D01*
D02*
G37*
G36*
X350327D02*
X351935Y282183D01*
X353364Y280754D01*
X354030Y279146D01*
X350327D01*
Y282848D01*
D02*
G37*
G36*
X329947Y282126D02*
X333817D01*
Y278256D01*
X329947D01*
Y282126D01*
D02*
G37*
G36*
X336357D02*
X340227D01*
Y278256D01*
X336357D01*
Y282126D01*
D02*
G37*
G36*
X381569Y279968D02*
X385439D01*
Y276098D01*
X381569D01*
Y279968D01*
D02*
G37*
G36*
X585785Y279547D02*
Y275844D01*
X582083D01*
X582748Y277452D01*
X584178Y278881D01*
X585785Y279547D01*
D02*
G37*
G36*
X588325D02*
X589933Y278881D01*
X591362Y277452D01*
X592028Y275844D01*
X588325D01*
Y279547D01*
D02*
G37*
G36*
X814727Y277624D02*
X821497D01*
Y257304D01*
X814727D01*
Y277624D01*
D02*
G37*
G36*
X824037D02*
X830807D01*
Y257304D01*
X824037D01*
Y277624D01*
D02*
G37*
G36*
X110563Y289458D02*
X114095D01*
X117560Y288769D01*
X120823Y287417D01*
X123760Y285455D01*
X126258Y282957D01*
X128220Y280020D01*
X129572Y276757D01*
X130261Y273292D01*
Y269760D01*
X129572Y266295D01*
X128220Y263032D01*
X126258Y260095D01*
X123760Y257597D01*
X120823Y255635D01*
X117560Y254283D01*
X114095Y253594D01*
X110563D01*
X107099Y254283D01*
X103835Y255635D01*
X100898Y257597D01*
X98400Y260095D01*
X96438Y263032D01*
X95086Y266295D01*
X94397Y269760D01*
Y273292D01*
X95086Y276757D01*
X96438Y280020D01*
X98400Y282957D01*
X100898Y285455D01*
X103835Y287417D01*
X107099Y288769D01*
X110563Y289458D01*
D02*
G37*
G36*
X818449Y254401D02*
X820057Y253735D01*
X820667Y253124D01*
X821497Y252317D01*
X822327Y253124D01*
X822937Y253735D01*
X824545Y254401D01*
Y249428D01*
Y244456D01*
X822937Y245121D01*
X822327Y245732D01*
X821497Y246539D01*
X820667Y245732D01*
X820057Y245121D01*
X818449Y244456D01*
Y249428D01*
Y254401D01*
D02*
G37*
G36*
X815909D02*
Y250698D01*
X812207D01*
X812872Y252306D01*
X814302Y253735D01*
X815909Y254401D01*
D02*
G37*
G36*
X827085D02*
X828693Y253735D01*
X830122Y252306D01*
X830788Y250698D01*
X827085D01*
Y254401D01*
D02*
G37*
G36*
X556119Y270134D02*
Y257758D01*
Y245336D01*
X554903Y244548D01*
Y240477D01*
X555001Y239984D01*
Y232848D01*
X555940Y231909D01*
X556829Y229762D01*
Y227438D01*
X555940Y225291D01*
X554296Y223647D01*
X552149Y222758D01*
X549825D01*
X547678Y223647D01*
X546034Y225291D01*
X545145Y227438D01*
Y229762D01*
X546034Y231909D01*
X546973Y232848D01*
Y239590D01*
X546875Y240082D01*
Y245159D01*
X545605Y245889D01*
X544389Y245647D01*
X542816Y245960D01*
X542486Y246180D01*
X541162Y246485D01*
X539660Y245481D01*
X539159Y245382D01*
Y257758D01*
Y270134D01*
X539660Y270035D01*
X541162Y269031D01*
X542486Y269336D01*
X542816Y269556D01*
X544389Y269869D01*
X545962Y269556D01*
X546714Y269053D01*
X547639Y268770D01*
X548564Y269053D01*
X549316Y269556D01*
X550889Y269869D01*
X552462Y269556D01*
X552792Y269336D01*
X554116Y269031D01*
X555618Y270035D01*
X556119Y270134D01*
D02*
G37*
G36*
X812207Y248158D02*
X815909D01*
Y244456D01*
X814302Y245121D01*
X812872Y246550D01*
X812207Y248158D01*
D02*
G37*
G36*
X827085D02*
X830788D01*
X830122Y246550D01*
X828693Y245121D01*
X827085Y244456D01*
Y248158D01*
D02*
G37*
G36*
X320101Y246780D02*
Y243078D01*
X316399D01*
X317064Y244686D01*
X318493Y246115D01*
X320101Y246780D01*
D02*
G37*
G36*
X599755Y243732D02*
X601363Y243067D01*
X602792Y241638D01*
X603458Y240030D01*
X599755D01*
Y243732D01*
D02*
G37*
G36*
X586401Y237744D02*
X590103D01*
Y234042D01*
X588495Y234707D01*
X587066Y236136D01*
X586401Y237744D01*
D02*
G37*
G36*
X599755Y237490D02*
X603458D01*
X602792Y235882D01*
X601363Y234453D01*
X599755Y233787D01*
Y237490D01*
D02*
G37*
G36*
X419859Y233486D02*
X423729D01*
Y229616D01*
X419859D01*
Y233486D01*
D02*
G37*
G36*
X433131Y232556D02*
Y228854D01*
X429429D01*
X430094Y230462D01*
X431524Y231891D01*
X433131Y232556D01*
D02*
G37*
G36*
X435671D02*
X437279Y231891D01*
X438708Y230462D01*
X439374Y228854D01*
X435671D01*
Y232556D01*
D02*
G37*
G36*
X274635Y229254D02*
Y225552D01*
X270933D01*
X271598Y227160D01*
X273027Y228589D01*
X274635Y229254D01*
D02*
G37*
G36*
X277175D02*
X278783Y228589D01*
X280212Y227160D01*
X280878Y225552D01*
X277175D01*
Y229254D01*
D02*
G37*
G36*
X894943Y230378D02*
X899983D01*
X905023D01*
Y225608D01*
X905023Y225608D01*
X905023D01*
X905200Y224411D01*
X905464Y223774D01*
X895519D01*
X895752Y224338D01*
X894943Y225608D01*
X894943D01*
Y230378D01*
D02*
G37*
G36*
X419859Y227076D02*
X423729D01*
Y223206D01*
X419859D01*
Y227076D01*
D02*
G37*
G36*
X429429Y226314D02*
X433131D01*
Y222612D01*
X431524Y223277D01*
X430094Y224706D01*
X429429Y226314D01*
D02*
G37*
G36*
X435671D02*
X439374D01*
X438708Y224706D01*
X437279Y223277D01*
X435671Y222612D01*
Y226314D01*
D02*
G37*
G36*
X270933Y223012D02*
X274635D01*
Y219310D01*
X273027Y219975D01*
X271598Y221404D01*
X270933Y223012D01*
D02*
G37*
G36*
X277175D02*
X280878D01*
X280212Y221404D01*
X278783Y219975D01*
X277175Y219310D01*
Y223012D01*
D02*
G37*
G36*
X895519Y221234D02*
X899221D01*
Y217532D01*
X897614Y218197D01*
X896184Y219626D01*
X895519Y221234D01*
D02*
G37*
G36*
X901761D02*
X905464D01*
X904798Y219626D01*
X903369Y218197D01*
X901761Y217532D01*
Y221234D01*
D02*
G37*
G36*
X288101Y220726D02*
X291971D01*
Y216856D01*
X288101D01*
Y220726D01*
D02*
G37*
G36*
X553527Y217570D02*
Y213868D01*
X549825D01*
X550490Y215476D01*
X551920Y216905D01*
X553527Y217570D01*
D02*
G37*
G36*
X562163D02*
X563771Y216905D01*
X565200Y215476D01*
X565866Y213868D01*
X562163D01*
Y217570D01*
D02*
G37*
G36*
X174574Y230258D02*
X177084D01*
X179508Y229608D01*
X181682Y228354D01*
X183457Y226579D01*
X184711Y224405D01*
X185361Y221981D01*
Y219471D01*
X184711Y217047D01*
X183457Y214873D01*
X181682Y213099D01*
X179508Y211844D01*
X177084Y211194D01*
X174574D01*
X172150Y211844D01*
X169976Y213099D01*
X168202Y214873D01*
X166947Y217047D01*
X166297Y219471D01*
Y221981D01*
X166947Y224405D01*
X168202Y226579D01*
X169976Y228354D01*
X172150Y229608D01*
X174574Y230258D01*
D02*
G37*
G36*
X274381Y213761D02*
Y210058D01*
X270679D01*
X271344Y211666D01*
X272773Y213095D01*
X274381Y213761D01*
D02*
G37*
G36*
X276921D02*
X278529Y213095D01*
X279958Y211666D01*
X280624Y210058D01*
X276921D01*
Y213761D01*
D02*
G37*
G36*
X226375Y212236D02*
Y208534D01*
X222673D01*
X223338Y210142D01*
X224767Y211571D01*
X226375Y212236D01*
D02*
G37*
G36*
X228915D02*
X230523Y211571D01*
X231952Y210142D01*
X232618Y208534D01*
X228915D01*
Y212236D01*
D02*
G37*
G36*
X549825Y211328D02*
X553527D01*
Y207626D01*
X551920Y208291D01*
X550490Y209720D01*
X549825Y211328D01*
D02*
G37*
G36*
X435571Y209914D02*
X445341D01*
Y199644D01*
X435571D01*
Y209914D01*
D02*
G37*
G36*
X447881D02*
X457651D01*
Y199644D01*
X447881D01*
Y209914D01*
D02*
G37*
G36*
X435571Y197104D02*
X445341D01*
Y186834D01*
X435571D01*
Y197104D01*
D02*
G37*
G36*
X447881D02*
X457651D01*
Y186834D01*
X447881D01*
Y197104D01*
D02*
G37*
G36*
X447355Y180487D02*
X448963Y179821D01*
X449260Y179523D01*
X449557Y179821D01*
X451165Y180487D01*
Y175514D01*
Y170541D01*
X449557Y171207D01*
X449260Y171505D01*
X448963Y171207D01*
X447355Y170541D01*
Y175514D01*
Y180487D01*
D02*
G37*
G36*
X444815D02*
Y176784D01*
X441113D01*
X441778Y178392D01*
X443208Y179821D01*
X444815Y180487D01*
D02*
G37*
G36*
X453705D02*
X455313Y179821D01*
X456742Y178392D01*
X457408Y176784D01*
X453705D01*
Y180487D01*
D02*
G37*
G36*
X336719Y179578D02*
X340421D01*
Y175875D01*
X338814Y176541D01*
X337384Y177970D01*
X336719Y179578D01*
D02*
G37*
G36*
X342961D02*
X346664D01*
X345998Y177970D01*
X344569Y176541D01*
X342961Y175875D01*
Y179578D01*
D02*
G37*
G36*
X441113Y174244D02*
X444815D01*
Y170541D01*
X443208Y171207D01*
X441778Y172636D01*
X441113Y174244D01*
D02*
G37*
G36*
X453705D02*
X457408D01*
X456742Y172636D01*
X455313Y171207D01*
X453705Y170541D01*
Y174244D01*
D02*
G37*
G36*
X628963Y170854D02*
X649283D01*
Y164084D01*
X628963D01*
Y170854D01*
D02*
G37*
G36*
X651823D02*
X672143D01*
Y164084D01*
X651823D01*
Y170854D01*
D02*
G37*
G36*
X174574Y179458D02*
X177084D01*
X179508Y178808D01*
X181682Y177554D01*
X183457Y175779D01*
X184711Y173605D01*
X185361Y171181D01*
Y168671D01*
X184711Y166247D01*
X183457Y164073D01*
X181682Y162299D01*
X179508Y161044D01*
X177084Y160394D01*
X174574D01*
X172150Y161044D01*
X169976Y162299D01*
X168202Y164073D01*
X166947Y166247D01*
X166297Y168671D01*
Y171181D01*
X166947Y173605D01*
X168202Y175779D01*
X169976Y177554D01*
X172150Y178808D01*
X174574Y179458D01*
D02*
G37*
G36*
X628963Y161544D02*
X649283D01*
Y154774D01*
X628963D01*
Y161544D01*
D02*
G37*
G36*
X651823D02*
X672143D01*
Y154774D01*
X651823D01*
Y161544D01*
D02*
G37*
G36*
X648777Y153308D02*
Y149606D01*
X645075D01*
X645740Y151214D01*
X647169Y152643D01*
X648777Y153308D01*
D02*
G37*
G36*
X651317D02*
X652925Y152643D01*
X654354Y151214D01*
X655020Y149606D01*
X651317D01*
Y153308D01*
D02*
G37*
G36*
X645075Y147066D02*
X648777D01*
Y143364D01*
X647169Y144029D01*
X645740Y145458D01*
X645075Y147066D01*
D02*
G37*
G36*
X651317D02*
X655020D01*
X654354Y145458D01*
X652925Y144029D01*
X651317Y143364D01*
Y147066D01*
D02*
G37*
G36*
X110563Y175158D02*
X114095D01*
X117560Y174469D01*
X120823Y173117D01*
X123760Y171155D01*
X126258Y168657D01*
X128220Y165720D01*
X129572Y162457D01*
X130261Y158992D01*
Y155460D01*
X129572Y151995D01*
X128220Y148732D01*
X126258Y145795D01*
X123760Y143297D01*
X120823Y141335D01*
X117560Y139983D01*
X114095Y139294D01*
X110563D01*
X107099Y139983D01*
X103835Y141335D01*
X100898Y143297D01*
X98400Y145795D01*
X96438Y148732D01*
X95086Y151995D01*
X94397Y155460D01*
Y158992D01*
X95086Y162457D01*
X96438Y165720D01*
X98400Y168657D01*
X100898Y171155D01*
X103835Y173117D01*
X107099Y174469D01*
X110563Y175158D01*
D02*
G37*
G36*
X567243Y142894D02*
Y139192D01*
X563541D01*
X564206Y140800D01*
X565635Y142229D01*
X567243Y142894D01*
D02*
G37*
G36*
X569783D02*
X571391Y142229D01*
X572820Y140800D01*
X573486Y139192D01*
X569783D01*
Y142894D01*
D02*
G37*
G36*
X577451Y136906D02*
X581721D01*
Y133136D01*
X577451D01*
Y136906D01*
D02*
G37*
G36*
X584261D02*
X588531D01*
Y133136D01*
X584261D01*
Y136906D01*
D02*
G37*
G36*
X563541Y136652D02*
X567243D01*
Y132949D01*
X565635Y133615D01*
X564206Y135044D01*
X563541Y136652D01*
D02*
G37*
G36*
X569783D02*
X573486D01*
X572820Y135044D01*
X571391Y133615D01*
X569783Y132949D01*
Y136652D01*
D02*
G37*
G36*
X85159Y144469D02*
X90399D01*
X92235Y144227D01*
X93945Y143518D01*
X95414Y142391D01*
X96542Y140922D01*
X97250Y139212D01*
X97492Y137376D01*
X97250Y135540D01*
X96542Y133830D01*
X95414Y132361D01*
X93945Y131234D01*
X92235Y130525D01*
X90399Y130283D01*
X85159D01*
X83323Y130525D01*
X81613Y131234D01*
X80144Y132361D01*
X79017Y133830D01*
X78308Y135540D01*
X78066Y137376D01*
X78308Y139212D01*
X79017Y140922D01*
X80144Y142391D01*
X81613Y143518D01*
X83323Y144227D01*
X85159Y144469D01*
D02*
G37*
G36*
X772807Y134167D02*
X776037D01*
Y112836D01*
X765706D01*
Y127066D01*
X765948Y128904D01*
X766658Y130616D01*
X767786Y132087D01*
X769257Y133215D01*
X770969Y133925D01*
X772807Y134167D01*
D02*
G37*
G36*
X778577D02*
X781807D01*
X783645Y133925D01*
X785357Y133215D01*
X786828Y132087D01*
X787956Y130616D01*
X788666Y128904D01*
X788908Y127066D01*
Y112836D01*
X778577D01*
Y134167D01*
D02*
G37*
G36*
X930717Y110382D02*
Y106680D01*
X927015D01*
X927680Y108288D01*
X929109Y109717D01*
X930717Y110382D01*
D02*
G37*
G36*
X933257D02*
X934865Y109717D01*
X936294Y108288D01*
X936960Y106680D01*
X933257D01*
Y110382D01*
D02*
G37*
G36*
X536619Y270134D02*
Y257758D01*
Y245382D01*
X536118Y245481D01*
X534616Y246485D01*
X533292Y246180D01*
X532962Y245960D01*
X531389Y245647D01*
X530098Y245904D01*
X528828Y245209D01*
Y241191D01*
X528523Y239655D01*
X527653Y238352D01*
X509027Y219727D01*
Y169901D01*
X522150Y156778D01*
X523021Y155475D01*
X523326Y153939D01*
Y101858D01*
X524500Y101371D01*
X538489Y115360D01*
X539791Y116231D01*
X541327Y116536D01*
X662643D01*
X662730Y116553D01*
X669230D01*
X717821Y165144D01*
X719123Y166015D01*
X720659Y166320D01*
X724471D01*
Y170346D01*
X737855D01*
X738272Y170854D01*
Y174498D01*
X738430Y175291D01*
X738879Y175963D01*
X739551Y176412D01*
X740344Y176570D01*
X814727D01*
X815235Y176987D01*
Y204976D01*
X817865D01*
X818282Y205484D01*
Y211328D01*
X818440Y212121D01*
X818889Y212793D01*
X819561Y213242D01*
X820354Y213400D01*
X851469D01*
X852262Y213242D01*
X852934Y212793D01*
X853383Y212121D01*
X853541Y211328D01*
Y158454D01*
X854445Y157562D01*
X932582Y158670D01*
Y248158D01*
X932740Y248951D01*
X933189Y249623D01*
X933861Y250072D01*
X934654Y250230D01*
X935981D01*
X936489Y250647D01*
Y252906D01*
X963553D01*
Y225137D01*
X964059Y224799D01*
X964508Y224127D01*
X964666Y223334D01*
X964666Y138938D01*
X964666Y138938D01*
X964509Y138145D01*
X964059Y137473D01*
X964059Y137473D01*
X962789Y136203D01*
X962789Y136203D01*
X962117Y135754D01*
X961324Y135596D01*
X961324Y135596D01*
X898682D01*
X895479Y132393D01*
X894807Y131944D01*
X894014Y131786D01*
X894014Y131786D01*
X848241D01*
X848041Y131826D01*
X847837D01*
X847648Y131904D01*
X847448Y131944D01*
X847279Y132057D01*
X847090Y132135D01*
X846959Y132267D01*
X846944Y132281D01*
X846776Y132393D01*
X845742Y132431D01*
X845284Y132268D01*
X844101Y131360D01*
X842512Y130702D01*
X840807Y130478D01*
X809807D01*
X808102Y130702D01*
X806513Y131360D01*
X805330Y132268D01*
X804872Y132431D01*
X803838Y132393D01*
X803670Y132281D01*
X803655Y132267D01*
X803524Y132135D01*
X803335Y132057D01*
X803166Y131944D01*
X802966Y131904D01*
X802777Y131826D01*
X802573D01*
X802373Y131786D01*
X794954D01*
X794161Y131944D01*
X793489Y132393D01*
X793040Y133065D01*
X792882Y133858D01*
Y148576D01*
X791968Y149458D01*
X741332Y147650D01*
X741313Y147653D01*
X741295Y147649D01*
X740915Y147717D01*
X740534Y147779D01*
X740518Y147789D01*
X740499Y147792D01*
X740175Y148001D01*
X739846Y148204D01*
X739835Y148219D01*
X739819Y148229D01*
X738905Y149111D01*
X738895Y149127D01*
X738879Y149137D01*
X738664Y149458D01*
X738444Y149775D01*
X738440Y149794D01*
X738430Y149809D01*
X738355Y150187D01*
X738273Y150565D01*
X738276Y150584D01*
X738272Y150602D01*
Y154774D01*
X737855Y155282D01*
X724471D01*
Y158292D01*
X722322D01*
X673731Y109701D01*
X672429Y108831D01*
X670892Y108525D01*
X662799D01*
X662712Y108508D01*
X542990D01*
X529901Y95419D01*
Y63782D01*
X546919D01*
Y44218D01*
X528605D01*
Y45918D01*
X504677D01*
Y45410D01*
X501157D01*
Y54850D01*
Y64290D01*
X504677D01*
Y63782D01*
X508948D01*
Y149646D01*
X495825Y162770D01*
X494954Y164072D01*
X494649Y165608D01*
Y224020D01*
X494954Y225556D01*
X495825Y226858D01*
X514450Y245484D01*
Y248894D01*
X514278Y249758D01*
Y265758D01*
X514591Y267331D01*
X515482Y268665D01*
X516816Y269556D01*
X518389Y269869D01*
X519962Y269556D01*
X520714Y269053D01*
X521639Y268770D01*
X522564Y269053D01*
X523316Y269556D01*
X524889Y269869D01*
X526462Y269556D01*
X527796Y268665D01*
X528482D01*
X529816Y269556D01*
X531389Y269869D01*
X532962Y269556D01*
X533292Y269336D01*
X534616Y269031D01*
X536118Y270035D01*
X536619Y270134D01*
D02*
G37*
G36*
X927015Y104140D02*
X936960D01*
X936294Y102532D01*
X935996Y102235D01*
X936040Y102192D01*
X936706Y100584D01*
X926761D01*
X927426Y102192D01*
X927724Y102489D01*
X927680Y102532D01*
X927015Y104140D01*
D02*
G37*
G36*
X941727Y118110D02*
X948497D01*
Y97790D01*
X941727D01*
Y118110D01*
D02*
G37*
G36*
X951037D02*
X957807D01*
Y97790D01*
X951037D01*
Y118110D01*
D02*
G37*
G36*
X926761Y98044D02*
X930463D01*
Y94341D01*
X928856Y95007D01*
X927426Y96436D01*
X926761Y98044D01*
D02*
G37*
G36*
X933003D02*
X936706D01*
X936040Y96436D01*
X934611Y95007D01*
X933003Y94341D01*
Y98044D01*
D02*
G37*
G36*
X765706Y110296D02*
X776037D01*
Y88965D01*
X772807D01*
X770969Y89207D01*
X769257Y89917D01*
X767786Y91045D01*
X766658Y92516D01*
X765948Y94228D01*
X765706Y96066D01*
Y110296D01*
D02*
G37*
G36*
X778577D02*
X788908D01*
Y96066D01*
X788666Y94228D01*
X787956Y92516D01*
X786828Y91045D01*
X785357Y89917D01*
X783645Y89207D01*
X781807Y88965D01*
X778577D01*
Y110296D01*
D02*
G37*
G36*
X809807Y95167D02*
X824037D01*
Y84836D01*
X802706D01*
Y88066D01*
X802948Y89904D01*
X803658Y91616D01*
X804786Y93087D01*
X806257Y94215D01*
X807969Y94925D01*
X809807Y95167D01*
D02*
G37*
G36*
X826577D02*
X840807D01*
X842645Y94925D01*
X844357Y94215D01*
X845828Y93087D01*
X846956Y91616D01*
X847666Y89904D01*
X847908Y88066D01*
Y84836D01*
X826577D01*
Y95167D01*
D02*
G37*
G36*
X498663Y79903D02*
Y76200D01*
X494961D01*
X495626Y77808D01*
X497056Y79237D01*
X498663Y79903D01*
D02*
G37*
G36*
X501203D02*
X502811Y79237D01*
X504240Y77808D01*
X504906Y76200D01*
X501203D01*
Y79903D01*
D02*
G37*
G36*
X941727Y95250D02*
X948497D01*
Y74930D01*
X941727D01*
Y95250D01*
D02*
G37*
G36*
X951037D02*
X957807D01*
Y74930D01*
X951037D01*
Y95250D01*
D02*
G37*
G36*
X802706Y82296D02*
X824037D01*
Y71965D01*
X809807D01*
X807969Y72207D01*
X806257Y72917D01*
X804786Y74045D01*
X803658Y75516D01*
X802948Y77228D01*
X802706Y79066D01*
Y82296D01*
D02*
G37*
G36*
X826577D02*
X847908D01*
Y79066D01*
X847666Y77228D01*
X846956Y75516D01*
X845828Y74045D01*
X844357Y72917D01*
X842645Y72207D01*
X840807Y71965D01*
X826577D01*
Y82296D01*
D02*
G37*
G36*
X494961Y73660D02*
X498663D01*
Y69957D01*
X497056Y70623D01*
X495626Y72052D01*
X494961Y73660D01*
D02*
G37*
G36*
X501203D02*
X504906D01*
X504240Y72052D01*
X502811Y70623D01*
X501203Y69957D01*
Y73660D01*
D02*
G37*
G36*
X495097Y64290D02*
X498617D01*
Y54850D01*
Y45410D01*
X497169D01*
Y44218D01*
X478855D01*
Y63782D01*
X495097D01*
Y64290D01*
D02*
G37*
G36*
X490355Y39782D02*
X504419D01*
Y16718D01*
X490355D01*
Y18912D01*
X489419Y19718D01*
X489085Y19718D01*
X468855D01*
Y36782D01*
X489085D01*
X489419Y36782D01*
X490355Y37588D01*
Y39782D01*
D02*
G37*
G36*
X513355D02*
X535419D01*
Y37588D01*
X536355Y36782D01*
X536689Y36782D01*
X556919D01*
Y19718D01*
X536689D01*
X536355Y19718D01*
X535419Y18912D01*
Y16718D01*
X513355D01*
Y39782D01*
D02*
G37*
G36*
X1025986Y77752D02*
X1031028D01*
X1036008Y76963D01*
X1040803Y75405D01*
X1045295Y73116D01*
X1049374Y70153D01*
X1052940Y66587D01*
X1055903Y62508D01*
X1058192Y58016D01*
X1059750Y53221D01*
X1060539Y48241D01*
Y43199D01*
X1059750Y38219D01*
X1058192Y33424D01*
X1055903Y28932D01*
X1052940Y24853D01*
X1049374Y21287D01*
X1045295Y18324D01*
X1040803Y16035D01*
X1036008Y14477D01*
X1031028Y13688D01*
X1025986D01*
X1021006Y14477D01*
X1016211Y16035D01*
X1011719Y18324D01*
X1007640Y21287D01*
X1004074Y24853D01*
X1001111Y28932D01*
X998822Y33424D01*
X997264Y38219D01*
X996475Y43199D01*
Y48241D01*
X997264Y53221D01*
X998822Y58016D01*
X1001111Y62508D01*
X1004074Y66587D01*
X1007640Y70153D01*
X1011719Y73116D01*
X1016211Y75405D01*
X1021006Y76963D01*
X1025986Y77752D01*
D02*
G37*
G36*
X115396Y72672D02*
X120438D01*
X125418Y71883D01*
X130213Y70325D01*
X134705Y68036D01*
X138785Y65073D01*
X142350Y61507D01*
X145313Y57428D01*
X147602Y52936D01*
X149160Y48141D01*
X149949Y43161D01*
Y38119D01*
X149160Y33139D01*
X147602Y28344D01*
X145313Y23852D01*
X142350Y19773D01*
X138785Y16207D01*
X134705Y13244D01*
X130213Y10955D01*
X125418Y9397D01*
X120438Y8608D01*
X115396D01*
X110416Y9397D01*
X105621Y10955D01*
X101129Y13244D01*
X97050Y16207D01*
X93484Y19773D01*
X90521Y23852D01*
X88232Y28344D01*
X86674Y33139D01*
X85885Y38119D01*
Y43161D01*
X86674Y48141D01*
X88232Y52936D01*
X90521Y57428D01*
X93484Y61507D01*
X97050Y65073D01*
X101129Y68036D01*
X105621Y70325D01*
X110416Y71883D01*
X115396Y72672D01*
D02*
G37*
%LPD*%
G36*
X343401Y825256D02*
X343616Y824738D01*
X338643D01*
Y823468D01*
X337373D01*
Y818495D01*
X336423Y818889D01*
X335933Y818399D01*
X334325Y817734D01*
Y822706D01*
X331785D01*
Y817734D01*
X330177Y818399D01*
X328748Y819828D01*
X327975Y821695D01*
Y823107D01*
X326705Y823633D01*
X324305Y821233D01*
Y808542D01*
X324923D01*
Y807768D01*
X336923D01*
X338459Y807463D01*
X338853Y807199D01*
X341329D01*
X341519Y807161D01*
X342789Y807638D01*
X343266Y808908D01*
X343228Y809098D01*
Y817598D01*
X343502Y818976D01*
X344283Y820144D01*
X345451Y820925D01*
X346829Y821199D01*
X348207Y820925D01*
X349292Y820200D01*
X349665Y820042D01*
X350493D01*
X350866Y820200D01*
X351951Y820925D01*
X353329Y821199D01*
X354620Y820942D01*
X354743Y820947D01*
X355890Y821662D01*
Y825694D01*
X355347D01*
Y826312D01*
X344107D01*
X343401Y825256D01*
D02*
G37*
G36*
X682654Y513239D02*
X681562Y512510D01*
X680273Y512253D01*
X677259D01*
X676773Y511080D01*
X685364Y502489D01*
X689400D01*
X689400Y502489D01*
X700865D01*
Y504558D01*
X701549Y506208D01*
X700538Y507087D01*
X699323Y506584D01*
Y510286D01*
X703026D01*
X702615Y509294D01*
X702902Y508947D01*
X703639Y508448D01*
X705545Y509238D01*
X707869D01*
X710017Y508349D01*
X711660Y506705D01*
X712204Y505391D01*
X712703Y505263D01*
X713634Y505259D01*
X715090Y506715D01*
X717237Y507604D01*
X719561D01*
X721708Y506715D01*
X723352Y505071D01*
X724241Y502924D01*
Y500681D01*
X747494Y477429D01*
X748667Y477915D01*
Y487104D01*
X751836D01*
Y501302D01*
X725671D01*
Y525366D01*
X724756Y526223D01*
X695638D01*
X682654Y513239D01*
D02*
G37*
G36*
X390773Y509464D02*
X389244D01*
Y502001D01*
X389390Y501264D01*
Y492764D01*
X389352Y492574D01*
X389829Y491304D01*
X391099Y490827D01*
X391289Y490865D01*
X399789D01*
X401167Y490591D01*
X401420Y490668D01*
X401900Y491828D01*
X403330Y493257D01*
X404937Y493923D01*
Y488950D01*
X406207D01*
Y487680D01*
X411460D01*
X411506Y487612D01*
X413065D01*
Y482472D01*
X414335D01*
Y481202D01*
X419475D01*
Y477839D01*
X422338D01*
X422398Y477898D01*
Y505081D01*
X416750Y510729D01*
X390773D01*
Y509464D01*
D02*
G37*
G36*
X743168Y530130D02*
X747932Y525366D01*
X784735D01*
Y501302D01*
X758570D01*
Y488048D01*
X759659Y487612D01*
X759659Y487612D01*
Y487612D01*
X759659Y487612D01*
X765179D01*
Y480822D01*
X766449D01*
Y479552D01*
X773239D01*
Y474032D01*
X773239D01*
X773616Y472918D01*
X853026D01*
X853888Y474188D01*
X853850Y474286D01*
X844171D01*
Y486850D01*
X846836D01*
Y501302D01*
X820671D01*
Y509967D01*
X810321D01*
X809033Y510224D01*
X807940Y510953D01*
X787590Y531303D01*
X743654D01*
X743168Y530130D01*
D02*
G37*
G36*
X673334Y462088D02*
Y452088D01*
X654520D01*
Y462253D01*
X633499D01*
X632211Y462510D01*
X631118Y463239D01*
X629122Y465235D01*
X627949Y464749D01*
Y464166D01*
X627060Y462019D01*
X625416Y460375D01*
X623269Y459486D01*
X620945D01*
X618798Y460375D01*
X617212Y461961D01*
X557787D01*
X557122Y461146D01*
X557621Y459994D01*
X557991D01*
X560138Y459105D01*
X561782Y457461D01*
X562671Y455314D01*
Y452990D01*
X561782Y450843D01*
X560138Y449199D01*
X560055Y449165D01*
Y447647D01*
X642507D01*
Y448155D01*
X645277D01*
Y438240D01*
Y428325D01*
X644914D01*
Y426495D01*
X646559D01*
Y425368D01*
X652519D01*
Y426430D01*
X662307D01*
Y425368D01*
X668521D01*
Y426462D01*
X678309D01*
Y425368D01*
X681243D01*
Y471472D01*
X680821D01*
Y472451D01*
X673334D01*
Y462088D01*
D02*
G37*
G36*
X947735Y406146D02*
X928536D01*
X927923Y405130D01*
Y397510D01*
X919033D01*
Y396240D01*
X917763D01*
Y387350D01*
X910669D01*
X910143Y386080D01*
X911667Y384556D01*
X932782D01*
Y390976D01*
X940822D01*
Y392246D01*
X942092D01*
Y400786D01*
X948861D01*
X949767Y401666D01*
Y406146D01*
X949662Y406400D01*
X947735D01*
Y406146D01*
D02*
G37*
G36*
X900237Y351264D02*
X894141D01*
X893967Y351264D01*
X892871Y350844D01*
Y322344D01*
X900237D01*
Y307804D01*
Y293264D01*
X892871D01*
Y275844D01*
X895589D01*
Y276775D01*
X900491D01*
X905393D01*
Y275844D01*
X909127D01*
Y293264D01*
X902777D01*
Y307804D01*
Y322344D01*
X909127D01*
Y350027D01*
X909047Y351264D01*
X907857Y351264D01*
X902777D01*
Y365804D01*
X900237D01*
Y351264D01*
D02*
G37*
%LPC*%
G36*
X339913Y822198D02*
X343616D01*
X342950Y820590D01*
X341521Y819161D01*
X339913Y818495D01*
Y822198D01*
D02*
G37*
G36*
X693735Y516529D02*
X695259Y515897D01*
X696783Y516529D01*
Y511556D01*
Y506584D01*
X695259Y507215D01*
X693735Y506584D01*
Y511556D01*
Y516529D01*
D02*
G37*
G36*
X691195D02*
Y512826D01*
X687493D01*
X688158Y514434D01*
X689587Y515863D01*
X691195Y516529D01*
D02*
G37*
G36*
X699323D02*
X700931Y515863D01*
X702360Y514434D01*
X703026Y512826D01*
X699323D01*
Y516529D01*
D02*
G37*
G36*
X687493Y510286D02*
X691195D01*
Y506584D01*
X689587Y507249D01*
X688158Y508678D01*
X687493Y510286D01*
D02*
G37*
G36*
X407477Y493923D02*
X409085Y493257D01*
X410514Y491828D01*
X411180Y490220D01*
X407477D01*
Y493923D01*
D02*
G37*
G36*
X415605Y487612D02*
X419475D01*
Y483742D01*
X415605D01*
Y487612D01*
D02*
G37*
G36*
X767719Y487612D02*
X773239D01*
Y482092D01*
X767719D01*
Y487612D01*
D02*
G37*
G36*
X647817Y448155D02*
X650587D01*
Y439510D01*
X647817D01*
Y448155D01*
D02*
G37*
G36*
Y436970D02*
X650587D01*
Y428325D01*
X647817D01*
Y436970D01*
D02*
G37*
G36*
X939551Y400786D02*
Y393516D01*
X932782D01*
Y400786D01*
X939551D01*
D02*
G37*
G36*
X920303Y394970D02*
X927923D01*
Y387350D01*
X920303D01*
Y394970D01*
D02*
G37*
G36*
X895589Y282926D02*
X899221D01*
Y279315D01*
X895589D01*
Y282926D01*
D02*
G37*
G36*
X901761D02*
X905393D01*
Y279315D01*
X901761D01*
Y282926D01*
D02*
G37*
%LPD*%
G36*
X932047Y367074D02*
X924507D01*
Y364534D01*
X932047D01*
Y351264D01*
X933114Y350774D01*
X938845D01*
X939099Y351028D01*
Y300454D01*
X948751D01*
Y285414D01*
X951291D01*
Y300454D01*
X962975D01*
Y313640D01*
X955226D01*
Y323800D01*
Y333960D01*
X962975D01*
Y373836D01*
X962533Y374132D01*
X961263Y373453D01*
Y367030D01*
X953643D01*
Y374650D01*
X960044D01*
X960925Y374650D01*
X961584Y375787D01*
X958657Y378714D01*
X932047D01*
Y367074D01*
D02*
G37*
%LPC*%
G36*
X951103Y374650D02*
Y367030D01*
X943483D01*
Y374650D01*
X951103D01*
D02*
G37*
G36*
X943483Y364490D02*
X951103D01*
Y356870D01*
X943483D01*
Y364490D01*
D02*
G37*
G36*
X953643D02*
X961263D01*
Y356870D01*
X953643D01*
Y364490D01*
D02*
G37*
G36*
X943483Y354330D02*
X951103D01*
Y346710D01*
X943483D01*
Y354330D01*
D02*
G37*
G36*
X953643D02*
X961263D01*
Y346710D01*
X953643D01*
Y354330D01*
D02*
G37*
G36*
X943483Y344170D02*
X951103D01*
Y336550D01*
X943483D01*
Y344170D01*
D02*
G37*
G36*
X953643D02*
X961263D01*
Y336550D01*
X953643D01*
Y344170D01*
D02*
G37*
G36*
X943796Y333960D02*
X952686D01*
Y325070D01*
X943796D01*
Y333960D01*
D02*
G37*
G36*
Y322530D02*
X952686D01*
Y313640D01*
X943796D01*
Y322530D01*
D02*
G37*
%LPD*%
G36*
X934654Y156627D02*
X851469Y155448D01*
Y211328D01*
X820354D01*
Y205484D01*
X821497D01*
Y183894D01*
Y162304D01*
X814727D01*
Y174498D01*
X740344D01*
Y170854D01*
X744283D01*
Y162814D01*
Y154774D01*
X740344D01*
Y150602D01*
X741258Y149720D01*
X794954Y151638D01*
Y133858D01*
X802373D01*
X803078Y134914D01*
X802948Y135228D01*
X802706Y137066D01*
Y140296D01*
X825307D01*
X847908D01*
Y137066D01*
X847666Y135228D01*
X847536Y134914D01*
X848241Y133858D01*
X894014D01*
X897824Y137668D01*
X961324D01*
X962594Y138938D01*
X962594Y223334D01*
X951291D01*
Y238374D01*
X950021D01*
Y239644D01*
X935981D01*
Y248158D01*
X934654D01*
Y156627D01*
D02*
G37*
%LPC*%
G36*
X935981Y237104D02*
X948751D01*
Y223334D01*
X935981D01*
Y237104D01*
D02*
G37*
G36*
X941727Y213110D02*
X948497D01*
Y192790D01*
X941727D01*
Y213110D01*
D02*
G37*
G36*
X951037D02*
X957807D01*
Y192790D01*
X951037D01*
Y213110D01*
D02*
G37*
G36*
X824037Y205484D02*
X830807D01*
Y185164D01*
X824037D01*
Y205484D01*
D02*
G37*
G36*
X941727Y190250D02*
X948497D01*
Y169930D01*
X941727D01*
Y190250D01*
D02*
G37*
G36*
X951037D02*
X957807D01*
Y169930D01*
X951037D01*
Y190250D01*
D02*
G37*
G36*
X746823Y170854D02*
X767143D01*
Y164084D01*
X746823D01*
Y170854D01*
D02*
G37*
G36*
X824037Y182624D02*
X830807D01*
Y162304D01*
X824037D01*
Y182624D01*
D02*
G37*
G36*
X746823Y161544D02*
X767143D01*
Y154774D01*
X746823D01*
Y161544D01*
D02*
G37*
G36*
X809807Y153167D02*
X824037D01*
Y142836D01*
X802706D01*
Y146066D01*
X802948Y147904D01*
X803658Y149616D01*
X804786Y151087D01*
X806257Y152215D01*
X807969Y152925D01*
X809807Y153167D01*
D02*
G37*
G36*
X826577D02*
X840807D01*
X842645Y152925D01*
X844357Y152215D01*
X845828Y151087D01*
X846956Y149616D01*
X847666Y147904D01*
X847908Y146066D01*
Y142836D01*
X826577D01*
Y153167D01*
D02*
G37*
%LPD*%
D12*
X540065Y468376D02*
X526547Y454858D01*
Y438240D02*
Y454858D01*
X540065Y468376D02*
Y564134D01*
X528579Y575620D01*
X509167D01*
X482883Y527812D02*
Y572230D01*
X483010Y527939D02*
X482883Y527812D01*
X483137Y544576D02*
X483010Y544449D01*
Y527939D02*
Y544449D01*
X766887Y479228D02*
X765871Y480244D01*
X766449Y480822D02*
X765871Y480244D01*
X594675Y929640D02*
X561655Y896620D01*
X594675Y929640D02*
Y941070D01*
X561655Y719328D02*
Y896620D01*
X684667Y475818D02*
X663927D01*
X372754Y716355D02*
X372679Y716280D01*
X372754Y716355D02*
Y754773D01*
X372829Y754848D02*
X372754Y754773D01*
X210743Y829310D02*
X203690D01*
X237043Y803010D02*
X210743Y829310D01*
X203690D02*
X199800Y833200D01*
Y835057D01*
X197673Y837184D01*
X232471Y801116D02*
X209103Y824484D01*
X172273D01*
X237043Y773938D02*
Y803010D01*
X350443Y712724D02*
X291791D01*
X293685Y717296D02*
X237043Y773938D01*
X291791Y712724D02*
X232471Y772044D01*
Y801116D01*
X348549Y717296D02*
X293685D01*
X358865Y721146D02*
X350443Y712724D01*
X354293Y723040D02*
X348549Y717296D01*
X354293Y723040D02*
Y749510D01*
X359829Y750473D02*
Y754848D01*
X353329Y750473D02*
Y754848D01*
X354293Y749510D02*
X353329Y750473D01*
X359829D02*
X358865Y749510D01*
Y721146D02*
Y749510D01*
X386395Y146558D02*
X374185Y158768D01*
Y193000D01*
X446543Y146558D02*
X386395D01*
X465389Y165404D02*
X446543Y146558D01*
X281747Y705358D02*
X200721Y786384D01*
X374065Y700786D02*
X279853D01*
X205870Y774769D01*
X372171Y705358D02*
X281747D01*
X385829Y750473D02*
X384865Y749510D01*
X385829Y750473D02*
Y754848D01*
X384865Y711586D02*
X374065Y700786D01*
X384865Y711586D02*
Y749510D01*
X200721Y786384D02*
X197673D01*
X205870Y774769D02*
X173358D01*
X172273Y773684D01*
X380293Y749510D02*
X379329Y750473D01*
X380293Y713480D02*
Y749510D01*
Y713480D02*
X372171Y705358D01*
X379329Y750473D02*
Y754848D01*
X263321Y517790D02*
X198124D01*
X265215Y522362D02*
X200018D01*
X331701Y479800D02*
X307777D01*
X265215Y522362D01*
X305883Y475228D02*
X263321Y517790D01*
X331701Y475228D02*
X305883D01*
X195976Y519938D02*
X171003D01*
X198124Y517790D02*
X195976Y519938D01*
X198530Y523850D02*
Y530511D01*
X200018Y522362D02*
X198530Y523850D01*
Y530511D02*
X196403Y532638D01*
X337039Y474264D02*
X332665D01*
X337039Y480764D02*
X332665D01*
X331701Y479800D01*
X332665Y474264D02*
X331701Y475228D01*
X337881Y863092D02*
X301305Y826516D01*
Y802280D02*
Y826516D01*
X306487Y797098D02*
X301305Y802280D01*
X296881Y881380D02*
X289621Y874120D01*
X300393Y790598D02*
X289621Y801370D01*
Y874120D01*
X198530Y479711D02*
X196403Y481838D01*
X288449Y453800D02*
X270687Y471562D01*
X198530Y473050D02*
Y479711D01*
X200018Y471562D02*
X198530Y473050D01*
X198124Y466990D02*
X195976Y469138D01*
X268793Y466990D02*
X198124D01*
X286555Y449228D02*
X268793Y466990D01*
X270687Y471562D02*
X200018D01*
X195976Y469138D02*
X171003D01*
X332665Y454764D02*
X331701Y453800D01*
X288449D01*
X337039Y454764D02*
X332665D01*
X337039Y448264D02*
X332665D01*
X331701Y449228D01*
X286555D01*
X281885Y242570D02*
X193239D01*
X195133Y247142D02*
X193137Y249138D01*
X283779Y247142D02*
X195133D01*
X294741Y229714D02*
X281885Y242570D01*
X193239D02*
X189904Y245905D01*
X296635Y234286D02*
X283779Y247142D01*
X189904Y245905D02*
X176050D01*
X175829Y246126D01*
X193137Y249138D02*
Y251242D01*
X200721Y258826D02*
X193137Y251242D01*
X201229Y258826D02*
X200721D01*
X327561Y228750D02*
X326597Y229714D01*
X294741D01*
X331935Y235250D02*
X327561D01*
X326597Y234286D01*
X296635D01*
X331935Y228750D02*
X327561D01*
X189016Y195326D02*
X175829D01*
X192652Y191690D02*
X189016Y195326D01*
X229169Y200914D02*
X224517Y196262D01*
X194545D01*
X193057Y197750D02*
Y199854D01*
X194545Y196262D02*
X193057Y197750D01*
X201229Y208026D02*
X193057Y199854D01*
X226411Y191690D02*
X192652D01*
X231063Y196342D02*
X226411Y191690D01*
X282255Y200914D02*
X229169D01*
X284425Y192278D02*
X280361Y196342D01*
X286319Y196850D02*
X282255Y200914D01*
X304093Y192278D02*
X284425D01*
X280361Y196342D02*
X231063D01*
X302199Y196850D02*
X286319D01*
X326597Y208286D02*
X313635D01*
X302199Y196850D01*
X315529Y203714D02*
X304093Y192278D01*
X331935Y209250D02*
X327561D01*
X326597Y208286D01*
X331935Y202750D02*
X327561D01*
X326597Y203714D01*
X315529D01*
X331935Y215750D02*
X307251D01*
X685257Y476409D02*
X684667Y475818D01*
X647921Y525620D02*
X635025D01*
X657822Y475850D02*
Y478120D01*
X635025Y525620D02*
X633537Y524132D01*
Y480314D02*
Y524132D01*
X635731Y478120D02*
X633537Y480314D01*
X657822Y478120D02*
X635731D01*
X663927Y475620D02*
X658052D01*
X700085Y611886D02*
X699958Y612013D01*
X677860D01*
X677733Y612140D01*
X700085Y570992D02*
Y589534D01*
Y570992D02*
X679713Y550620D01*
X663927D01*
X645221Y528320D02*
Y549132D01*
X663927Y550620D02*
X646709D01*
X645221Y549132D01*
X647921Y525620D02*
X645221Y528320D01*
X663927Y525620D02*
X647921D01*
X486273Y575620D02*
X482883Y572230D01*
X509167Y575620D02*
X486273D01*
X646547Y593000D02*
Y611830D01*
X1017077Y714182D02*
Y755650D01*
X658052Y475620D02*
X657822Y475850D01*
X685257Y488153D02*
X685162Y488248D01*
X685257Y476600D02*
Y488153D01*
X526547Y424378D02*
X524063Y421894D01*
X526547Y424378D02*
Y438240D01*
X641547Y421504D02*
Y438240D01*
X641665Y421386D02*
X641547Y421504D01*
X336417Y267656D02*
X335136Y268937D01*
X341243Y267656D02*
X336417D01*
X341685Y267214D02*
X341243Y267656D01*
X341685Y251500D02*
Y267214D01*
X423733Y474472D02*
X414335D01*
X425765Y476504D02*
X423733Y474472D01*
X425765Y476504D02*
Y506476D01*
X418145Y514096D01*
X386141D01*
X385877Y498473D02*
Y513832D01*
X386002Y498348D02*
X385877Y498473D01*
X386141Y514096D02*
X385877Y513832D01*
X385789Y497014D02*
Y498135D01*
X386002Y498348D02*
X385789Y498135D01*
X414335Y474472D02*
X414215Y474352D01*
X395627D02*
X395539Y474264D01*
X414215Y474352D02*
X395627D01*
X900491Y278045D02*
Y306788D01*
X901507Y307804D02*
X900491Y306788D01*
X307251Y215750D02*
X300843Y209342D01*
X375673Y314960D02*
X374185Y313472D01*
X390967Y316992D02*
X388935Y314960D01*
X374185Y251500D02*
Y313472D01*
X388935Y314960D02*
X375673D01*
X367685Y251500D02*
Y281346D01*
X409881Y205604D02*
Y213242D01*
X400873Y222250D01*
X417111Y198374D02*
X409881Y205604D01*
X400873Y222250D02*
X390435D01*
X452943Y132842D02*
X379029D01*
X354685Y157186D02*
Y190287D01*
X379029Y132842D02*
X354685Y157186D01*
Y190287D02*
X354473Y190500D01*
X354685Y190713D02*
X354473Y190500D01*
X354685Y190713D02*
Y193000D01*
X451049Y137414D02*
X381823D01*
X361185Y158052D01*
Y193000D01*
X449156Y141986D02*
X383093D01*
X367685Y157394D01*
Y193000D01*
X568546Y380249D02*
Y412383D01*
X568659Y412496D02*
X568546Y412383D01*
X561547Y380434D02*
X465389Y284276D01*
X561547Y380434D02*
Y438240D01*
X575771Y381008D02*
Y399942D01*
X576641Y400812D02*
X575771Y399942D01*
X586547Y385318D02*
Y394970D01*
X606405Y374096D02*
Y416789D01*
X640395Y340106D02*
X606405Y374096D01*
X640395Y233426D02*
Y340106D01*
X644967Y230632D02*
Y345186D01*
X615050Y375103D01*
Y398319D01*
X663927Y575620D02*
X611749D01*
X593151Y543052D02*
Y557022D01*
X611749Y575620D02*
X593151Y557022D01*
X612163Y565620D02*
X600771Y554228D01*
X644967Y230632D02*
X629473Y215138D01*
X613217D01*
X629219Y552853D02*
X626679Y550313D01*
X629219Y552853D02*
Y554228D01*
X620594Y554284D02*
X619622Y555256D01*
X620594Y478525D02*
Y554284D01*
X629981Y223012D02*
X585023D01*
X640395Y233426D02*
X629981Y223012D01*
X585023D02*
X576889Y214878D01*
X465389Y284276D02*
X465389Y165404D01*
X1017077Y768350D02*
X973570D01*
X872478Y667258D01*
X349967Y299064D02*
Y316992D01*
X367685Y281346D02*
X349967Y299064D01*
X347879Y316992D02*
X347787Y316900D01*
X349967Y316992D02*
X347879D01*
X347787Y316900D02*
X330007D01*
X307782Y441071D02*
X307655Y441198D01*
X319593Y440944D02*
X319466Y441071D01*
X307782D01*
X1016099Y600926D02*
X686839D01*
X1016823Y600202D02*
Y600926D01*
Y600202D02*
X1016099Y600926D01*
X686839D02*
X666335Y580422D01*
X752917Y554990D02*
X690687D01*
X777263Y550418D02*
X692581D01*
X690687Y554990D02*
X676317Y540620D01*
X738947Y529590D02*
X694243D01*
X810321Y513334D02*
X788985Y534670D01*
X694243Y529590D02*
X680273Y515620D01*
X692581Y550418D02*
X677783Y535620D01*
X692858Y534670D02*
X678808Y520620D01*
X676317Y540620D02*
X663927D01*
X755203Y513334D02*
X738947Y529590D01*
X788985Y534670D02*
X692858D01*
X677783Y535620D02*
X663927D01*
X755457Y557530D02*
X752917Y554990D01*
X782635Y555790D02*
X777263Y550418D01*
X666335Y580422D02*
X655184D01*
X798129Y569976D02*
X780457D01*
X755457D02*
X754789Y570644D01*
X736661D01*
X782635Y567798D02*
X780457Y569976D01*
X782635Y555790D02*
Y567798D01*
X755457Y557530D02*
Y569976D01*
X493837Y528158D02*
X488399Y522719D01*
X498371Y565620D02*
X493837Y561086D01*
Y528158D02*
Y561086D01*
X488399Y505460D02*
Y522719D01*
X509167Y565620D02*
X498371D01*
X636119Y611959D02*
X634231Y613847D01*
X631547Y610065D02*
X629659Y611953D01*
Y628464D02*
X625155Y632968D01*
X636547Y611531D02*
X636119Y611959D01*
X634231Y613847D02*
Y634814D01*
X631547Y593000D02*
Y610065D01*
X629659Y611953D02*
Y628464D01*
X625155Y632968D02*
X615249D01*
X634231Y634814D02*
X625663Y643382D01*
X608645D01*
X616547Y615668D02*
X592897Y639318D01*
Y655066D01*
X616547Y593000D02*
Y615668D01*
X968309Y781050D02*
X863661Y676402D01*
X558353Y667258D02*
X549209Y658114D01*
X872478Y667258D02*
X558353D01*
X863661Y676402D02*
X560639D01*
X636547Y593000D02*
Y611531D01*
X592897Y655066D02*
X592389Y655574D01*
X549209Y639572D02*
Y658114D01*
X527111Y561340D02*
X526589Y560818D01*
X509365D02*
X509167Y560620D01*
X526589Y560818D02*
X509365D01*
X556321Y465328D02*
X546547Y455554D01*
Y438240D02*
Y455554D01*
X622107Y465328D02*
X556321D01*
X633499Y465620D02*
X620594Y478525D01*
X663927Y465620D02*
X633499D01*
X662817Y470620D02*
X634965D01*
X626679Y478906D01*
Y550313D01*
X549971Y638810D02*
X549209Y639572D01*
X531937Y658622D02*
Y767080D01*
X541547Y593000D02*
Y766614D01*
X511063Y797098D01*
X526547Y593000D02*
Y620324D01*
X520507Y626364D01*
X531547Y593000D02*
Y634628D01*
X520253Y645922D01*
X536547Y593000D02*
Y637756D01*
X524825Y649478D01*
X520253Y645922D02*
Y765048D01*
X524825Y649478D02*
Y766942D01*
X520253Y765048D02*
X507703Y777598D01*
X524825Y766942D02*
X507669Y784098D01*
X663927Y565620D02*
X612163D01*
X1017077Y781050D02*
X968309D01*
X769681Y457867D02*
X742178D01*
X700923Y499122D01*
X745124Y464979D02*
X706708Y503396D01*
X874996Y464979D02*
X745124D01*
X979477Y575926D02*
X873103Y469551D01*
X750610D01*
X718399Y501762D01*
X960943Y550926D02*
X874996Y464979D01*
X944071Y525926D02*
X868900Y450755D01*
X742824D01*
X699030Y494550D01*
X680273Y515620D02*
X663927D01*
X646530Y495620D02*
X645123Y497027D01*
X663927Y495620D02*
X646530D01*
X645123Y497027D02*
X643748D01*
X683970Y499122D02*
X672670Y510422D01*
X689400Y499122D02*
X683970D01*
X672670Y510422D02*
X664125D01*
X663927Y510620D01*
X691294Y494550D02*
X682076D01*
X691294Y494550D02*
X691294Y494550D01*
X689400Y499122D02*
X689400Y499122D01*
X700923Y499122D02*
X689400D01*
X699030Y494550D02*
X691294D01*
X682076D02*
X678542D01*
X682076Y494550D02*
X682076Y494550D01*
X672670Y500422D02*
X664125D01*
X663927Y500620D01*
X678542Y494550D02*
X672670Y500422D01*
X744154Y394589D02*
X744027Y394716D01*
X744281Y381508D02*
X744154Y381635D01*
Y394589D01*
X678808Y520620D02*
X663927D01*
X556688Y438381D02*
X556547Y438240D01*
X556688Y438381D02*
Y454011D01*
X556829Y454152D02*
X556688Y454011D01*
X1016823Y575926D02*
X979477D01*
X655152Y580390D02*
X598231D01*
X655184Y580422D02*
X655152Y580390D01*
X598231D02*
X596547Y582074D01*
Y593000D01*
X1016823Y550926D02*
X960943D01*
X1016823Y525926D02*
X944071D01*
X663213Y470620D02*
X663015Y470422D01*
X662817Y470620D01*
X663927D02*
X663213D01*
X755203Y481076D02*
X754949Y480822D01*
X755203Y481076D02*
Y513334D01*
X850203Y480818D02*
Y513334D01*
X850453Y480568D02*
X850203Y480818D01*
Y513334D02*
X810321D01*
X536745Y422824D02*
Y438042D01*
X537017Y422552D02*
X536745Y422824D01*
Y438042D02*
X536547Y438240D01*
X337881Y863092D02*
Y881380D01*
X337079Y797098D02*
X306487D01*
X337079Y790598D02*
X300393D01*
X388935Y845820D02*
Y861568D01*
Y845820D02*
X366329Y823214D01*
Y813348D02*
Y823214D01*
X410929Y731924D02*
X399453D01*
X399095Y731565D01*
X411287Y732282D02*
X410929Y731924D01*
X383877Y461176D02*
X382789Y462264D01*
X395451Y461176D02*
X383877D01*
X395539Y461264D02*
X395451Y461176D01*
X382789Y451264D02*
Y462264D01*
X346789Y438514D02*
Y448264D01*
X349789Y451264D02*
X346789Y448264D01*
Y487264D02*
X337039D01*
X349789Y484264D02*
X346789Y487264D01*
X371789Y473264D02*
X360789Y484264D01*
X366289Y467764D02*
X360789Y473264D01*
X359789Y485264D02*
Y497014D01*
X360789Y484264D02*
X359789Y485264D01*
Y497014D02*
Y508036D01*
X361277Y509524D02*
X359789Y508036D01*
X364801Y509524D02*
X361277D01*
X366289Y508036D02*
X364801Y509524D01*
X366289Y497014D02*
Y508036D01*
X318587Y461176D02*
X318323Y460912D01*
X337039Y461264D02*
X336951Y461176D01*
X318587D01*
X412303Y563950D02*
X393577D01*
X392999Y563372D01*
Y546354D02*
Y563372D01*
Y546354D02*
X379289Y532644D01*
Y497014D02*
Y532644D01*
X351999Y563372D02*
X351815Y563188D01*
X331531D01*
X372789Y524146D02*
X351999Y544936D01*
Y563372D01*
X372789Y497014D02*
Y524146D01*
X552003Y308682D02*
X550733Y309952D01*
X552003Y293031D02*
Y308682D01*
X552511Y292523D02*
X552003Y293031D01*
X551495Y310714D02*
X550733Y309952D01*
X570418Y292989D02*
Y310769D01*
X570291Y310896D01*
X570545Y292862D02*
X570418Y292989D01*
X563889Y257758D02*
Y278690D01*
X558099Y284480D02*
X552533D01*
X563889Y278690D02*
X558099Y284480D01*
X539377Y274828D02*
X537889Y273340D01*
X553527Y274828D02*
X539377D01*
X537889Y257758D02*
Y273340D01*
X557389Y270966D02*
X553527Y274828D01*
X557389Y257758D02*
Y270966D01*
X899983Y231140D02*
X899475Y231648D01*
X583389Y240936D02*
X581213Y238760D01*
X557389Y240740D02*
Y257758D01*
X559369Y238760D02*
X557389Y240740D01*
X581213Y238760D02*
X559369D01*
X583389Y240936D02*
Y257758D01*
X589889D02*
X583389D01*
X470469Y163300D02*
X449156Y141986D01*
X479613Y278384D02*
X479613Y159512D01*
X452943Y132842D01*
X475041Y161406D02*
X451049Y137414D01*
X576889Y190334D02*
Y214878D01*
X576977Y190246D02*
X576889Y190158D01*
X576977Y190246D02*
X576889Y190334D01*
Y187758D02*
Y190158D01*
X570467Y257836D02*
Y284741D01*
X570545Y284819D02*
X570467Y284741D01*
Y257836D02*
X570389Y257758D01*
X443545Y467868D02*
X443441Y467764D01*
X395539D01*
X422971Y411988D02*
X382839D01*
X379289Y415538D01*
X476603Y465620D02*
X422971Y411988D01*
X379675Y401066D02*
X366289Y414452D01*
X491719Y460620D02*
X432165Y401066D01*
X379675D01*
X466387Y446006D02*
X426781Y406400D01*
X380807D01*
X372789Y414418D01*
X493185Y455620D02*
X433805Y396240D01*
X378036D02*
X359789Y414486D01*
X433805Y396240D02*
X378036D01*
X509167Y455620D02*
X493185D01*
X509167Y460620D02*
X491719D01*
X467047Y446006D02*
X466387D01*
X509167Y465620D02*
X476603D01*
X366289Y414452D02*
Y438514D01*
X359789Y414486D02*
Y438514D01*
X524627Y470718D02*
X509265D01*
X509167Y470620D01*
X524825Y470916D02*
X524627Y470718D01*
X379289Y415538D02*
Y437648D01*
X372789Y414418D02*
Y438514D01*
X293241Y213932D02*
X290592Y211283D01*
Y204470D02*
Y211283D01*
X293241Y213932D02*
Y221996D01*
X300843Y204470D02*
Y209342D01*
X586547Y385318D02*
X582737Y381508D01*
X575771Y381008D02*
X477719Y282956D01*
X582737Y381508D02*
X479613Y278384D01*
X568546Y380249D02*
X470469Y282172D01*
X477719Y282956D02*
X477719D01*
X475041Y280278D01*
X475041Y161406D01*
X470469Y282172D02*
X470469Y163300D01*
X899983Y231140D02*
Y231648D01*
X900889Y240648D02*
X900237Y241300D01*
Y269748D01*
X900491Y270002D02*
X900237Y269748D01*
X900889Y240648D02*
X899983D01*
X613217Y215138D02*
X602889Y204810D01*
Y187758D02*
Y204810D01*
X546547Y577728D02*
X546161Y577342D01*
X546547Y577728D02*
Y593000D01*
X511063Y797098D02*
X395579D01*
X508419Y790598D02*
X395579D01*
X531937Y767080D02*
X508419Y790598D01*
X507703Y777598D02*
X395579D01*
X507669Y784098D02*
X395579D01*
D18*
X335087Y276986D02*
D03*
Y268986D02*
D03*
X386141Y514096D02*
D03*
Y522096D02*
D03*
X365821Y733678D02*
D03*
Y725678D02*
D03*
X380299Y266828D02*
D03*
Y274828D02*
D03*
X359979Y838326D02*
D03*
Y830326D02*
D03*
X414335Y482472D02*
D03*
Y474472D02*
D03*
D19*
X361185Y222250D02*
D03*
X366289Y467764D02*
D03*
D20*
X390435Y202750D02*
D03*
Y209250D02*
D03*
Y215750D02*
D03*
Y222250D02*
D03*
Y228750D02*
D03*
Y235250D02*
D03*
Y241750D02*
D03*
X331935D02*
D03*
Y235250D02*
D03*
Y228750D02*
D03*
Y222250D02*
D03*
Y215750D02*
D03*
Y209250D02*
D03*
Y202750D02*
D03*
X395579Y797098D02*
D03*
Y790598D02*
D03*
Y764598D02*
D03*
X337079D02*
D03*
Y771098D02*
D03*
Y777598D02*
D03*
Y784098D02*
D03*
Y790598D02*
D03*
Y797098D02*
D03*
Y803598D02*
D03*
X395579Y771098D02*
D03*
Y777598D02*
D03*
Y784098D02*
D03*
Y803598D02*
D03*
X337039Y448264D02*
D03*
Y454764D02*
D03*
Y461264D02*
D03*
Y467764D02*
D03*
Y474264D02*
D03*
Y480764D02*
D03*
Y487264D02*
D03*
X395539D02*
D03*
Y480764D02*
D03*
Y474264D02*
D03*
Y467764D02*
D03*
Y461264D02*
D03*
Y454764D02*
D03*
Y448264D02*
D03*
D21*
X380685Y251500D02*
D03*
X374185D02*
D03*
X367685D02*
D03*
X361185D02*
D03*
X354685D02*
D03*
X348185D02*
D03*
X341685D02*
D03*
Y193000D02*
D03*
X348185D02*
D03*
X354685D02*
D03*
X361185D02*
D03*
X367685D02*
D03*
X374185D02*
D03*
X380685D02*
D03*
X379329Y754848D02*
D03*
X372829D02*
D03*
X366329D02*
D03*
X359829D02*
D03*
X353329D02*
D03*
X346829D02*
D03*
Y813348D02*
D03*
X353329D02*
D03*
X359829D02*
D03*
X366329D02*
D03*
X372829D02*
D03*
X379329D02*
D03*
X385829D02*
D03*
Y754848D02*
D03*
X385789Y438514D02*
D03*
X379289D02*
D03*
X372789D02*
D03*
X366289D02*
D03*
X359789D02*
D03*
X353289D02*
D03*
X346789D02*
D03*
Y497014D02*
D03*
X353289D02*
D03*
X359789D02*
D03*
X366289D02*
D03*
X372789D02*
D03*
X379289D02*
D03*
X385789D02*
D03*
D22*
X646547Y593000D02*
D03*
X641547D02*
D03*
X636547D02*
D03*
X631547D02*
D03*
X626547D02*
D03*
X621547D02*
D03*
X616547D02*
D03*
X611547D02*
D03*
X606547D02*
D03*
X601547D02*
D03*
X596547D02*
D03*
X591547D02*
D03*
X586547D02*
D03*
X581547D02*
D03*
X576547D02*
D03*
X571547D02*
D03*
X566547D02*
D03*
X561547D02*
D03*
X556547D02*
D03*
X551547D02*
D03*
X546547D02*
D03*
X541547D02*
D03*
X536547D02*
D03*
X531547D02*
D03*
X526547D02*
D03*
Y438240D02*
D03*
X531547D02*
D03*
X536547D02*
D03*
X541547D02*
D03*
X546547D02*
D03*
X551547D02*
D03*
X556547D02*
D03*
X561547D02*
D03*
X566547D02*
D03*
X571547D02*
D03*
X576547D02*
D03*
X581547D02*
D03*
X586547D02*
D03*
X591547D02*
D03*
X596547D02*
D03*
X601547D02*
D03*
X606547D02*
D03*
X611547D02*
D03*
X616547D02*
D03*
X621547D02*
D03*
X626547D02*
D03*
X631547D02*
D03*
X636547D02*
D03*
X641547D02*
D03*
X646547D02*
D03*
D23*
X509167Y575620D02*
D03*
Y570620D02*
D03*
Y565620D02*
D03*
Y560620D02*
D03*
Y555620D02*
D03*
Y550620D02*
D03*
Y545620D02*
D03*
Y540620D02*
D03*
Y535620D02*
D03*
Y530620D02*
D03*
Y525620D02*
D03*
Y520620D02*
D03*
Y515620D02*
D03*
Y510620D02*
D03*
Y505620D02*
D03*
Y500620D02*
D03*
Y495620D02*
D03*
Y490620D02*
D03*
Y485620D02*
D03*
Y480620D02*
D03*
Y475620D02*
D03*
Y470620D02*
D03*
Y465620D02*
D03*
Y460620D02*
D03*
Y455620D02*
D03*
X663927D02*
D03*
Y460620D02*
D03*
Y465620D02*
D03*
Y470620D02*
D03*
Y475620D02*
D03*
Y480620D02*
D03*
Y485620D02*
D03*
Y490620D02*
D03*
Y495620D02*
D03*
Y500620D02*
D03*
Y505620D02*
D03*
Y510620D02*
D03*
Y515620D02*
D03*
Y520620D02*
D03*
Y525620D02*
D03*
Y530620D02*
D03*
Y535620D02*
D03*
Y540620D02*
D03*
Y545620D02*
D03*
Y550620D02*
D03*
Y555620D02*
D03*
Y560620D02*
D03*
Y565620D02*
D03*
Y570620D02*
D03*
Y575620D02*
D03*
D24*
X366329Y784098D02*
D03*
D25*
X320291Y803910D02*
D03*
X312291D02*
D03*
X308925Y468630D02*
D03*
X300925D02*
D03*
X346961Y516128D02*
D03*
X338961D02*
D03*
X320658Y764936D02*
D03*
X312658D02*
D03*
X301241Y221996D02*
D03*
X293241D02*
D03*
X410589Y228346D02*
D03*
X418589D02*
D03*
D26*
X399095Y721314D02*
D03*
Y731565D02*
D03*
D27*
X297404Y441198D02*
D03*
X307655D02*
D03*
X290592Y204470D02*
D03*
X300843D02*
D03*
D28*
X650553Y162814D02*
D03*
X745553D02*
D03*
D29*
X602889Y187758D02*
D03*
D30*
X596389D02*
D03*
X589889D02*
D03*
X583389D02*
D03*
X576889D02*
D03*
X570389D02*
D03*
X563889D02*
D03*
X557389D02*
D03*
X550889D02*
D03*
X544389D02*
D03*
X537889D02*
D03*
X531389D02*
D03*
X524889D02*
D03*
X518389D02*
D03*
Y257758D02*
D03*
X524889D02*
D03*
X531389D02*
D03*
X537889D02*
D03*
X544389D02*
D03*
X550889D02*
D03*
X557389D02*
D03*
X563889D02*
D03*
X570389D02*
D03*
X576889D02*
D03*
X583389D02*
D03*
X589889D02*
D03*
X596389D02*
D03*
X602889D02*
D03*
D31*
X483358Y561340D02*
D03*
X474787D02*
D03*
X744281Y381508D02*
D03*
X752852D02*
D03*
X483137Y544576D02*
D03*
X474565D02*
D03*
X482883Y527812D02*
D03*
X474311D02*
D03*
D32*
X412303Y563950D02*
D03*
Y552450D02*
D03*
X331531Y563188D02*
D03*
Y551688D02*
D03*
X272095Y869188D02*
D03*
Y880688D02*
D03*
X361757Y868680D02*
D03*
Y880180D02*
D03*
X330007Y305400D02*
D03*
Y316900D02*
D03*
X411795Y305562D02*
D03*
Y317062D02*
D03*
D33*
X392999Y563372D02*
D03*
X351999D02*
D03*
X296881Y881380D02*
D03*
X337881D02*
D03*
X349967Y316992D02*
D03*
X390967D02*
D03*
D34*
X443545Y497368D02*
D03*
Y467868D02*
D03*
X388935Y861568D02*
D03*
Y891068D02*
D03*
D35*
X940822Y430854D02*
D03*
Y392246D02*
D03*
D36*
X919033Y416240D02*
D03*
Y396240D02*
D03*
X1018347Y692912D02*
D03*
Y712912D02*
D03*
X901253Y416240D02*
D03*
Y396240D02*
D03*
D37*
X552511Y284480D02*
D03*
Y292523D02*
D03*
X570545Y284819D02*
D03*
Y292862D02*
D03*
X900491Y278045D02*
D03*
Y270002D02*
D03*
D38*
X499887Y54850D02*
D03*
X506387D02*
D03*
X512887D02*
D03*
X519387D02*
D03*
X525887D02*
D03*
D39*
X488012Y54000D02*
D03*
X537762D02*
D03*
D40*
X497387Y28250D02*
D03*
D41*
X524387D02*
D03*
D42*
X479137D02*
D03*
X546637D02*
D03*
D43*
X551495Y319714D02*
D03*
Y310714D02*
D03*
X570291Y319896D02*
D03*
Y310896D02*
D03*
X899983Y231648D02*
D03*
Y240648D02*
D03*
D44*
X582991Y138176D02*
D03*
Y148176D02*
D03*
X494853Y421480D02*
D03*
Y411480D02*
D03*
D45*
X446611Y198374D02*
D03*
X417111D02*
D03*
D46*
X625917Y421354D02*
D03*
Y412782D02*
D03*
X673415Y421354D02*
D03*
Y412782D02*
D03*
X641665Y421386D02*
D03*
Y412815D02*
D03*
X657413Y421321D02*
D03*
Y412750D02*
D03*
X524063Y421894D02*
D03*
Y413323D02*
D03*
X508569Y421926D02*
D03*
Y413355D02*
D03*
X677733Y620711D02*
D03*
Y612140D02*
D03*
X646237Y620711D02*
D03*
Y612140D02*
D03*
X661985Y620711D02*
D03*
Y612140D02*
D03*
D47*
X475399Y505460D02*
D03*
X488399D02*
D03*
D48*
X685353Y476504D02*
D03*
X695353D02*
D03*
X685162Y488248D02*
D03*
X695162D02*
D03*
D49*
X798129Y569976D02*
D03*
Y579308D02*
D03*
X736661Y570644D02*
D03*
Y579976D02*
D03*
D50*
X766449Y480822D02*
D03*
X754949D02*
D03*
X861953Y480568D02*
D03*
X850453D02*
D03*
D51*
X730837Y353822D02*
D03*
X764837D02*
D03*
D52*
X880933Y397510D02*
D03*
Y431800D02*
D03*
D53*
X953956Y323800D02*
D03*
X988246D02*
D03*
D54*
X972373Y365760D02*
D03*
X952373D02*
D03*
X972373Y345440D02*
D03*
X952373D02*
D03*
D55*
X822767Y278894D02*
D03*
Y183894D02*
D03*
X949767Y96520D02*
D03*
Y191520D02*
D03*
D56*
X950021Y238374D02*
D03*
Y285414D02*
D03*
D57*
X878507Y365804D02*
D03*
X901507Y365804D02*
D03*
X924507Y365804D02*
D03*
D58*
X901507Y307804D02*
D03*
D59*
X780457Y569976D02*
D03*
X755457D02*
D03*
D60*
X850203Y513334D02*
D03*
X755203D02*
D03*
D61*
X537017Y422552D02*
D03*
Y409552D02*
D03*
D86*
X108773Y735584D02*
D03*
Y849884D02*
D03*
X107503Y545338D02*
D03*
Y431038D02*
D03*
X112329Y157226D02*
D03*
Y271526D02*
D03*
D87*
X172273Y799084D02*
D03*
X197673Y786384D02*
D03*
X172273Y824484D02*
D03*
X197673Y811784D02*
D03*
Y837184D02*
D03*
X172273Y773684D02*
D03*
Y748284D02*
D03*
X171003Y443738D02*
D03*
Y469138D02*
D03*
X196403Y532638D02*
D03*
Y507238D02*
D03*
X171003Y519938D02*
D03*
X196403Y481838D02*
D03*
X171003Y494538D02*
D03*
X816713Y742188D02*
D03*
Y767588D02*
D03*
Y792988D02*
D03*
X842113Y818388D02*
D03*
Y792988D02*
D03*
Y767588D02*
D03*
Y742188D02*
D03*
X175829Y220726D02*
D03*
X201229Y208026D02*
D03*
X175829Y246126D02*
D03*
X201229Y233426D02*
D03*
Y258826D02*
D03*
X175829Y195326D02*
D03*
Y169926D02*
D03*
D88*
X197673Y760984D02*
D03*
X196403Y456438D02*
D03*
X816713Y818388D02*
D03*
X201229Y182626D02*
D03*
D93*
X1016823Y500926D02*
D03*
D94*
Y525926D02*
D03*
Y550926D02*
D03*
Y575926D02*
D03*
Y600926D02*
D03*
Y625926D02*
D03*
D99*
X747837Y353822D02*
D03*
D103*
X516951Y422108D02*
X495981D01*
X495353Y421480D02*
X494853D01*
X495981Y422108D02*
X495353Y421480D01*
X611693Y658114D02*
X610677Y657098D01*
X639438Y641291D02*
X622615Y658114D01*
X611693D01*
X646237Y612140D02*
Y612354D01*
X639438Y616004D02*
Y641291D01*
X645280Y613312D02*
X642130D01*
X639438Y616004D01*
X646237Y612354D02*
X645280Y613312D01*
X572323Y709168D02*
Y893318D01*
X620075Y941070D02*
X572323Y893318D01*
X346961Y527666D02*
X341735Y532892D01*
X315021D01*
X346961Y516128D02*
X346517D01*
X346961Y516572D02*
Y527666D01*
Y516572D02*
X346517Y516128D01*
X336854Y764823D02*
X320770D01*
X320760Y764833D01*
Y765038D01*
Y745085D02*
Y764833D01*
X366329Y741934D02*
Y754848D01*
X365821Y733678D02*
Y741934D01*
X320863Y744982D02*
X320760Y745085D01*
X321353Y765630D02*
X320760Y765038D01*
X346961Y497014D02*
X346875Y497100D01*
X331808Y222123D02*
X301368D01*
X348185Y251788D02*
X348041Y251644D01*
X524063Y422108D02*
X516951D01*
X685257Y476409D02*
Y476600D01*
X673415Y421354D02*
X625917D01*
X569696Y319805D02*
Y321056D01*
X583984Y148019D02*
X583389Y148614D01*
X966587Y392232D02*
X940822D01*
X311719Y268986D02*
X310990Y268257D01*
X335087Y268986D02*
X311719D01*
X345550Y268937D02*
X335136D01*
X524814Y241191D02*
X505013Y221390D01*
X498663Y165608D02*
Y224020D01*
X518464Y243821D02*
X498663Y224020D01*
X505013Y168238D02*
Y221390D01*
X519312Y153939D02*
X505013Y168238D01*
X512962Y151309D02*
X498663Y165608D01*
X524814Y241191D02*
Y249549D01*
X524853Y249587D02*
X524814Y249549D01*
X524853Y249587D02*
Y257722D01*
X524889Y257758D02*
X524853Y257722D01*
X518464Y243821D02*
Y249549D01*
X518425Y249587D02*
Y257722D01*
X518389Y257758D01*
X518464Y249549D02*
X518425Y249587D01*
X512962Y54925D02*
Y151309D01*
X519312Y54925D02*
Y153939D01*
X512962Y54925D02*
X512887Y54850D01*
X519387D02*
X519312Y54925D01*
X301368Y222123D02*
X301241Y221996D01*
X331935Y222250D02*
X331808Y222123D01*
X335136Y268937D02*
X335087Y268986D01*
X348185Y266302D02*
X345550Y268937D01*
X348185Y251788D02*
Y266302D01*
Y251500D02*
X348041Y251644D01*
X380994Y266828D02*
X380685Y266519D01*
X408111Y266828D02*
X380994D01*
X412493Y262446D02*
X408111Y266828D01*
X412493Y243332D02*
Y262446D01*
X380685Y251500D02*
Y266519D01*
X390637Y228548D02*
X390435Y228750D01*
X410387Y228548D02*
X390637D01*
X410589Y228346D02*
X410387Y228548D01*
X550900Y319024D02*
X540319D01*
X551495Y319619D02*
X550900Y319024D01*
X551495Y319619D02*
Y319714D01*
X541335Y382778D02*
X525587D01*
X516951Y391414D01*
Y422108D01*
X629219Y383286D02*
Y384317D01*
X632716Y387814D02*
Y417490D01*
Y387814D02*
X629219Y384317D01*
X626874Y420182D02*
X625917Y421139D01*
Y421354D01*
X630024Y420182D02*
X626874D01*
X632716Y417490D02*
X630024Y420182D01*
X685257Y423586D02*
Y476409D01*
Y423586D02*
X683026Y421354D01*
X673415D01*
X308925Y468630D02*
X308544Y468249D01*
X309306Y469011D02*
X308925Y468630D01*
X308544Y461645D02*
Y468249D01*
Y461645D02*
X308163Y461264D01*
X645475Y941070D02*
X620075D01*
X661985Y612140D02*
X646237D01*
X677733D02*
X661985D01*
X1036889Y503158D02*
Y704596D01*
Y503158D02*
X1034657Y500926D01*
X1036889Y704596D02*
X1028573Y712912D01*
X1034657Y500926D02*
X1016823D01*
X1028573Y712912D02*
X1018347D01*
X1017077Y714182D01*
X524063Y421894D02*
Y422108D01*
X901253Y396240D02*
X882203D01*
X880933Y397510D01*
X919033Y396240D02*
X901253D01*
X901507Y365804D02*
Y395986D01*
X901253Y396240D01*
X321353Y765630D02*
Y769561D01*
X322889Y771098D02*
X321353Y769561D01*
X336479Y771098D02*
X322889D01*
X320291Y803910D02*
Y822896D01*
X327721Y830326D02*
X320291Y822896D01*
X359979Y830326D02*
X327721D01*
X337079Y803598D02*
X336923Y803754D01*
X320447D01*
X320291Y803910D01*
X359904Y813423D02*
X359829Y813348D01*
X359979Y830326D02*
X359904Y830251D01*
Y813423D02*
Y830251D01*
X346875Y506571D02*
Y516042D01*
X346961Y516128D02*
X346875Y516042D01*
X353289Y497014D02*
Y505092D01*
X351057Y507324D02*
X347628D01*
X346875Y506571D01*
Y497100D02*
Y506571D01*
X353289Y505092D02*
X351057Y507324D01*
X337039Y467764D02*
X326335D01*
X325088Y469011D01*
X309306D01*
X569696Y319805D02*
X551586D01*
X551495Y319714D01*
X570291Y319896D02*
Y320461D01*
X569696Y321056D01*
X412493Y242301D02*
Y243332D01*
X410589Y228346D02*
Y240397D01*
X412493Y242301D02*
X410589Y240397D01*
X550987Y239984D02*
X550889Y240082D01*
Y257758D01*
X550987Y228600D02*
Y239984D01*
X589087Y208280D02*
X583425Y202618D01*
Y191894D02*
Y202618D01*
X583389Y187758D02*
Y191682D01*
X583425Y191894D02*
X583301Y191770D01*
X583389Y191682D02*
X583301Y191770D01*
X1016823Y442468D02*
X966587Y392232D01*
X1016823Y442468D02*
Y500926D01*
X940822Y392232D02*
Y392246D01*
X583389Y148614D02*
Y187758D01*
X584321Y148019D02*
X583984D01*
X118171Y959104D02*
X116647Y957580D01*
X411795Y317062D02*
X391037D01*
X339081Y880180D02*
X337881Y881380D01*
X361757Y880180D02*
X339081D01*
X296189Y880688D02*
X272095D01*
X296881Y881380D02*
X296189Y880688D01*
X744281Y361137D02*
X738320Y355176D01*
X732191D01*
X730837Y353822D01*
X744281Y361137D02*
Y381508D01*
X662712Y112522D02*
X541327D01*
X662730Y112539D02*
X662712Y112522D01*
X541327D02*
X525887Y97082D01*
X670892Y112539D02*
X662730D01*
X720659Y162306D02*
X670892Y112539D01*
X525887Y54850D02*
Y97082D01*
X753427Y162306D02*
X720659D01*
D104*
X84223Y715734D02*
D03*
X85223Y868734D02*
D03*
X83953Y564188D02*
D03*
X82953Y411188D02*
D03*
X87779Y137376D02*
D03*
X88779Y290376D02*
D03*
D105*
X569275Y941070D02*
D03*
X620075D02*
D03*
X594675D02*
D03*
X543875D02*
D03*
X518475D02*
D03*
D106*
X645475D02*
D03*
D107*
X1017077Y768350D02*
D03*
Y781050D02*
D03*
Y793750D02*
D03*
D108*
Y755650D02*
D03*
D109*
X777307Y111566D02*
D03*
D110*
X825307Y83566D02*
D03*
Y141566D02*
D03*
D111*
X1028507Y956310D02*
D03*
X116647Y957580D02*
D03*
X1028507Y45720D02*
D03*
X117917Y40640D02*
D03*
D112*
X701609Y463550D02*
D03*
X707197Y464058D02*
D03*
X692465Y511556D02*
D03*
X698053D02*
D03*
X704657Y481838D02*
D03*
X676717Y481330D02*
D03*
X639379Y490474D02*
D03*
X647761Y482600D02*
D03*
X764093Y381762D02*
D03*
X563941Y202692D02*
D03*
X587055Y274574D02*
D03*
X554797Y212598D02*
D03*
X560893D02*
D03*
X598485Y238760D02*
D03*
X591373Y239014D02*
D03*
X1023427Y357124D02*
D03*
X1015807Y357886D02*
D03*
X1016315Y363474D02*
D03*
X1023681Y363220D02*
D03*
X915223Y454406D02*
D03*
X920811Y454152D02*
D03*
X914969Y459486D02*
D03*
X920811D02*
D03*
X848929Y365760D02*
D03*
X854517Y366268D02*
D03*
X849183Y371602D02*
D03*
X854771Y371856D02*
D03*
X817179Y249428D02*
D03*
X825815D02*
D03*
X900491Y222504D02*
D03*
X931733Y99314D02*
D03*
X931987Y105410D02*
D03*
X568513Y137922D02*
D03*
X650047Y148336D02*
D03*
X499933Y74930D02*
D03*
X434401Y227584D02*
D03*
X401381Y212090D02*
D03*
X446085Y175514D02*
D03*
X452435D02*
D03*
X341691Y180848D02*
D03*
X227645Y207264D02*
D03*
X275651Y208788D02*
D03*
X275905Y224282D02*
D03*
X358455Y262636D02*
D03*
X321371Y241808D02*
D03*
X380807Y291338D02*
D03*
X349057Y277876D02*
D03*
X422463Y305816D02*
D03*
X321117Y305562D02*
D03*
X125029Y470154D02*
D03*
X221549Y503428D02*
D03*
X124521Y501142D02*
D03*
X163129Y545084D02*
D03*
X438211Y550672D02*
D03*
X444307D02*
D03*
X438973Y556768D02*
D03*
X444561Y557022D02*
D03*
X444053Y519684D02*
D03*
X406207Y488950D02*
D03*
Y460756D02*
D03*
X346517Y426974D02*
D03*
X295209Y432054D02*
D03*
X295717Y461518D02*
D03*
X326197Y496824D02*
D03*
X326451Y503428D02*
D03*
X331277Y542290D02*
D03*
X413319D02*
D03*
X371155Y537972D02*
D03*
X404429Y526034D02*
D03*
X382585Y827278D02*
D03*
X409509Y764540D02*
D03*
X361757Y713740D02*
D03*
X412303Y718058D02*
D03*
X389951Y723138D02*
D03*
X339659Y735076D02*
D03*
X340167Y748538D02*
D03*
X221803Y775462D02*
D03*
X167701Y845058D02*
D03*
X133919Y813308D02*
D03*
X133411Y784352D02*
D03*
X121219Y798830D02*
D03*
X121727Y806450D02*
D03*
X311719Y816356D02*
D03*
X316037Y780034D02*
D03*
X322387D02*
D03*
X333055Y822706D02*
D03*
X338643Y823468D02*
D03*
X410525Y892048D02*
D03*
X410017Y898144D02*
D03*
X261681Y868680D02*
D03*
X347279Y839470D02*
D03*
X360741Y859028D02*
D03*
X442275Y940308D02*
D03*
X449641Y940562D02*
D03*
D113*
X766887Y479228D02*
D03*
X610677Y657098D02*
D03*
X572323Y709168D02*
D03*
X561655Y719328D02*
D03*
X315021Y532892D02*
D03*
X320863Y744982D02*
D03*
X365821Y741934D02*
D03*
X372679Y716280D02*
D03*
X313243Y221996D02*
D03*
X311719Y268986D02*
D03*
X540319Y319024D02*
D03*
X629219Y383286D02*
D03*
X541335Y382778D02*
D03*
X308163Y461264D02*
D03*
X700085Y611886D02*
D03*
Y589534D02*
D03*
X412493Y243332D02*
D03*
X550987Y228600D02*
D03*
X589087Y208280D02*
D03*
X568659Y412496D02*
D03*
X576641Y400812D02*
D03*
X586547Y394970D02*
D03*
X615050Y398319D02*
D03*
X606405Y416789D02*
D03*
X600771Y554228D02*
D03*
X593151Y543052D02*
D03*
X619622Y555256D02*
D03*
X629219Y554228D02*
D03*
X319593Y440944D02*
D03*
X615249Y632968D02*
D03*
X608645Y643382D02*
D03*
X592389Y655574D02*
D03*
X527111Y561340D02*
D03*
X549971Y638810D02*
D03*
X531937Y658622D02*
D03*
X520507Y626364D02*
D03*
X560639Y676402D02*
D03*
X769681Y457867D02*
D03*
X718399Y501762D02*
D03*
X744027Y394716D02*
D03*
X706708Y503396D02*
D03*
X643748Y497027D02*
D03*
X622107Y465328D02*
D03*
X556829Y454152D02*
D03*
X411287Y732282D02*
D03*
X318323Y460912D02*
D03*
X467047Y446006D02*
D03*
X524825Y470916D02*
D03*
X546161Y577342D02*
D03*
D114*
X344685Y238750D02*
D03*
Y227750D02*
D03*
Y216750D02*
D03*
Y205750D02*
D03*
X355685Y238750D02*
D03*
Y227750D02*
D03*
Y216750D02*
D03*
Y205750D02*
D03*
X366685Y238750D02*
D03*
Y227750D02*
D03*
Y216750D02*
D03*
Y205750D02*
D03*
X377685Y238750D02*
D03*
Y227750D02*
D03*
Y216750D02*
D03*
Y205750D02*
D03*
X382829Y800598D02*
D03*
X371829D02*
D03*
X360829D02*
D03*
X349829D02*
D03*
X382829Y789598D02*
D03*
X371829D02*
D03*
X360829D02*
D03*
X349829D02*
D03*
X382829Y778598D02*
D03*
X371829D02*
D03*
X360829D02*
D03*
X349829D02*
D03*
X382829Y767598D02*
D03*
X371829D02*
D03*
X360829D02*
D03*
X349829D02*
D03*
X382789Y451264D02*
D03*
Y462264D02*
D03*
Y473264D02*
D03*
Y484264D02*
D03*
X371789Y451264D02*
D03*
Y462264D02*
D03*
Y473264D02*
D03*
Y484264D02*
D03*
X360789Y451264D02*
D03*
Y462264D02*
D03*
Y473264D02*
D03*
Y484264D02*
D03*
X349789Y451264D02*
D03*
Y462264D02*
D03*
Y473264D02*
D03*
Y484264D02*
D03*
M02*
