G04*
G04 #@! TF.GenerationSoftware,Altium Limited,Altium Designer,22.5.1 (42)*
G04*
G04 Layer_Color=128*
%FSLAX44Y44*%
%MOMM*%
G71*
G04*
G04 #@! TF.SameCoordinates,2ABD4F99-51B0-466E-819A-8B20F5DB8373*
G04*
G04*
G04 #@! TF.FilePolarity,Positive*
G04*
G01*
G75*
%ADD126C,0.0508*%
D126*
X979964Y715734D02*
X994964D01*
X987464Y708234D02*
Y723234D01*
X978964Y868734D02*
X993964D01*
X986464Y861234D02*
Y876234D01*
X947314Y735584D02*
X978514D01*
X962914Y719984D02*
Y751184D01*
X947314Y849884D02*
X978514D01*
X962914Y834284D02*
Y865484D01*
X894964Y799084D02*
X903864D01*
X899414Y794634D02*
Y803534D01*
X869564Y786384D02*
X878464D01*
X874014Y781934D02*
Y790834D01*
X894964Y824484D02*
X903864D01*
X899414Y820034D02*
Y828934D01*
X869564Y811784D02*
X878464D01*
X874014Y807334D02*
Y816234D01*
X869564Y837184D02*
X878464D01*
X874014Y832734D02*
Y841634D01*
X894964Y773684D02*
X903864D01*
X899414Y769234D02*
Y778134D01*
X869564Y760984D02*
X878464D01*
X874014Y756534D02*
Y765434D01*
X894964Y748284D02*
X903864D01*
X899414Y743834D02*
Y752734D01*
X896234Y443738D02*
X905134D01*
X900684Y439288D02*
Y448188D01*
X870834Y456438D02*
X879734D01*
X875284Y451988D02*
Y460888D01*
X896234Y469138D02*
X905134D01*
X900684Y464688D02*
Y473588D01*
X870834Y532638D02*
X879734D01*
X875284Y528188D02*
Y537088D01*
X870834Y507238D02*
X879734D01*
X875284Y502788D02*
Y511688D01*
X896234Y519938D02*
X905134D01*
X900684Y515488D02*
Y524388D01*
X870834Y481838D02*
X879734D01*
X875284Y477388D02*
Y486288D01*
X896234Y494538D02*
X905134D01*
X900684Y490088D02*
Y498988D01*
X948584Y545338D02*
X979784D01*
X964184Y529738D02*
Y560938D01*
X948584Y431038D02*
X979784D01*
X964184Y415438D02*
Y446638D01*
X980234Y564188D02*
X995234D01*
X987734Y556688D02*
Y571688D01*
X981234Y411188D02*
X996234D01*
X988734Y403688D02*
Y418688D01*
X250974Y742188D02*
X258974D01*
X254974Y738188D02*
Y746188D01*
X250974Y767588D02*
X258974D01*
X254974Y763588D02*
Y771588D01*
X250974Y792988D02*
X258974D01*
X254974Y788988D02*
Y796988D01*
X250974Y818388D02*
X258974D01*
X254974Y814388D02*
Y822388D01*
X225574Y818388D02*
X233574D01*
X229574Y814388D02*
Y822388D01*
X225574Y792988D02*
X233574D01*
X229574Y788988D02*
Y796988D01*
X225574Y767588D02*
X233574D01*
X229574Y763588D02*
Y771588D01*
X225574Y742188D02*
X233574D01*
X229574Y738188D02*
Y746188D01*
X496912Y941070D02*
X507912D01*
X502412Y935570D02*
Y946570D01*
X446112Y941070D02*
X457112D01*
X451612Y935570D02*
Y946570D01*
X420712Y941070D02*
X431712D01*
X426212Y935570D02*
Y946570D01*
X471512Y941070D02*
X482512D01*
X477012Y935570D02*
Y946570D01*
X522312Y941070D02*
X533312D01*
X527812Y935570D02*
Y946570D01*
X547712Y941070D02*
X558712D01*
X553212Y935570D02*
Y946570D01*
X50364Y500926D02*
X59364D01*
X54864Y496426D02*
Y505426D01*
X50364Y525926D02*
X59364D01*
X54864Y521426D02*
Y530426D01*
X50364Y550926D02*
X59364D01*
X54864Y546426D02*
Y555426D01*
X50364Y575926D02*
X59364D01*
X54864Y571426D02*
Y580426D01*
X50364Y600926D02*
X59364D01*
X54864Y596426D02*
Y605426D01*
X50364Y625926D02*
X59364D01*
X54864Y621426D02*
Y630426D01*
X51110Y768350D02*
X58110D01*
X54610Y764850D02*
Y771850D01*
X51110Y755650D02*
X58110D01*
X54610Y752150D02*
Y759150D01*
X51110Y781050D02*
X58110D01*
X54610Y777550D02*
Y784550D01*
X51110Y793750D02*
X58110D01*
X54610Y790250D02*
Y797250D01*
X290380Y111566D02*
X298380D01*
X294380Y107566D02*
Y115566D01*
X242380Y83566D02*
X250380D01*
X246380Y79566D02*
Y87566D01*
X242380Y141566D02*
X250380D01*
X246380Y137566D02*
Y145566D01*
X976408Y137376D02*
X991408D01*
X983908Y129876D02*
Y144876D01*
X975408Y290376D02*
X990408D01*
X982908Y282876D02*
Y297876D01*
X943758Y157226D02*
X974958D01*
X959358Y141626D02*
Y172826D01*
X943758Y271526D02*
X974958D01*
X959358Y255926D02*
Y287126D01*
X891408Y220726D02*
X900308D01*
X895858Y216276D02*
Y225176D01*
X866008Y208026D02*
X874908D01*
X870458Y203576D02*
Y212476D01*
X891408Y246126D02*
X900308D01*
X895858Y241676D02*
Y250576D01*
X866008Y233426D02*
X874908D01*
X870458Y228976D02*
Y237876D01*
X866008Y258826D02*
X874908D01*
X870458Y254376D02*
Y263276D01*
X891408Y195326D02*
X900308D01*
X895858Y190876D02*
Y199776D01*
X866008Y182626D02*
X874908D01*
X870458Y178176D02*
Y187076D01*
X891408Y169926D02*
X900308D01*
X895858Y165476D02*
Y174376D01*
X320100Y353822D02*
X327600D01*
X323850Y350072D02*
Y357572D01*
X25680Y956310D02*
X60680D01*
X43180Y938810D02*
Y973810D01*
X937540Y957580D02*
X972540D01*
X955040Y940080D02*
Y975080D01*
X25680Y45720D02*
X60680D01*
X43180Y28220D02*
Y63220D01*
X936270Y40640D02*
X971270D01*
X953770Y23140D02*
Y58140D01*
X368554Y463550D02*
X371602D01*
X370078Y462026D02*
Y465074D01*
X362966Y464058D02*
X366014D01*
X364490Y462534D02*
Y465582D01*
X377698Y511556D02*
X380746D01*
X379222Y510032D02*
Y513080D01*
X372110Y511556D02*
X375158D01*
X373634Y510032D02*
Y513080D01*
X365506Y481838D02*
X368554D01*
X367030Y480314D02*
Y483362D01*
X393446Y481330D02*
X396494D01*
X394970Y479806D02*
Y482854D01*
X430784Y490474D02*
X433832D01*
X432308Y488950D02*
Y491998D01*
X422402Y482600D02*
X425450D01*
X423926Y481076D02*
Y484124D01*
X306070Y381762D02*
X309118D01*
X307594Y380238D02*
Y383286D01*
X302260Y479228D02*
X307340D01*
X304800Y476688D02*
Y481768D01*
X458470Y657098D02*
X463550D01*
X461010Y654558D02*
Y659638D01*
X496824Y709168D02*
X501904D01*
X499364Y706628D02*
Y711708D01*
X507492Y719328D02*
X512572D01*
X510032Y716788D02*
Y721868D01*
X506222Y202692D02*
X509270D01*
X507746Y201168D02*
Y204216D01*
X483108Y274574D02*
X486156D01*
X484632Y273050D02*
Y276098D01*
X515366Y212598D02*
X518414D01*
X516890Y211074D02*
Y214122D01*
X509270Y212598D02*
X512318D01*
X510794Y211074D02*
Y214122D01*
X471678Y238760D02*
X474726D01*
X473202Y237236D02*
Y240284D01*
X478790Y239014D02*
X481838D01*
X480314Y237490D02*
Y240538D01*
X46736Y357124D02*
X49784D01*
X48260Y355600D02*
Y358648D01*
X54356Y357886D02*
X57404D01*
X55880Y356362D02*
Y359410D01*
X53848Y363474D02*
X56896D01*
X55372Y361950D02*
Y364998D01*
X46482Y363220D02*
X49530D01*
X48006Y361696D02*
Y364744D01*
X154940Y454406D02*
X157988D01*
X156464Y452882D02*
Y455930D01*
X149352Y454152D02*
X152400D01*
X150876Y452628D02*
Y455676D01*
X155194Y459486D02*
X158242D01*
X156718Y457962D02*
Y461010D01*
X149352Y459486D02*
X152400D01*
X150876Y457962D02*
Y461010D01*
X221234Y365760D02*
X224282D01*
X222758Y364236D02*
Y367284D01*
X215646Y366268D02*
X218694D01*
X217170Y364744D02*
Y367792D01*
X220980Y371602D02*
X224028D01*
X222504Y370078D02*
Y373126D01*
X215392Y371856D02*
X218440D01*
X216916Y370332D02*
Y373380D01*
X252984Y249428D02*
X256032D01*
X254508Y247904D02*
Y250952D01*
X244348Y249428D02*
X247396D01*
X245872Y247904D02*
Y250952D01*
X169672Y222504D02*
X172720D01*
X171196Y220980D02*
Y224028D01*
X138430Y99314D02*
X141478D01*
X139954Y97790D02*
Y100838D01*
X138176Y105410D02*
X141224D01*
X139700Y103886D02*
Y106934D01*
X501650Y137922D02*
X504698D01*
X503174Y136398D02*
Y139446D01*
X420116Y148336D02*
X423164D01*
X421640Y146812D02*
Y149860D01*
X570230Y74930D02*
X573278D01*
X571754Y73406D02*
Y76454D01*
X635762Y227584D02*
X638810D01*
X637286Y226060D02*
Y229108D01*
X668782Y212090D02*
X671830D01*
X670306Y210566D02*
Y213614D01*
X624078Y175514D02*
X627126D01*
X625602Y173990D02*
Y177038D01*
X617728Y175514D02*
X620776D01*
X619252Y173990D02*
Y177038D01*
X728472Y180848D02*
X731520D01*
X729996Y179324D02*
Y182372D01*
X842518Y207264D02*
X845566D01*
X844042Y205740D02*
Y208788D01*
X794512D02*
X797560D01*
X796036Y207264D02*
Y210312D01*
X794258Y224282D02*
X797306D01*
X795782Y222758D02*
Y225806D01*
X711708Y262636D02*
X714756D01*
X713232Y261112D02*
Y264160D01*
X748792Y241808D02*
X751840D01*
X750316Y240284D02*
Y243332D01*
X689356Y291338D02*
X692404D01*
X690880Y289814D02*
Y292862D01*
X721106Y277876D02*
X724154D01*
X722630Y276352D02*
Y279400D01*
X647700Y305816D02*
X650748D01*
X649224Y304292D02*
Y307340D01*
X749046Y305562D02*
X752094D01*
X750570Y304038D02*
Y307086D01*
X945134Y470154D02*
X948182D01*
X946658Y468630D02*
Y471678D01*
X848614Y503428D02*
X851662D01*
X850138Y501904D02*
Y504952D01*
X945642Y501142D02*
X948690D01*
X947166Y499618D02*
Y502666D01*
X907034Y545084D02*
X910082D01*
X908558Y543560D02*
Y546608D01*
X631952Y550672D02*
X635000D01*
X633476Y549148D02*
Y552196D01*
X625856Y550672D02*
X628904D01*
X627380Y549148D02*
Y552196D01*
X631190Y556768D02*
X634238D01*
X632714Y555244D02*
Y558292D01*
X625602Y557022D02*
X628650D01*
X627126Y555498D02*
Y558546D01*
X626110Y519684D02*
X629158D01*
X627634Y518160D02*
Y521208D01*
X663956Y488950D02*
X667004D01*
X665480Y487426D02*
Y490474D01*
X663956Y460756D02*
X667004D01*
X665480Y459232D02*
Y462280D01*
X723646Y426974D02*
X726694D01*
X725170Y425450D02*
Y428498D01*
X774954Y432054D02*
X778002D01*
X776478Y430530D02*
Y433578D01*
X774446Y461518D02*
X777494D01*
X775970Y459994D02*
Y463042D01*
X743966Y496824D02*
X747014D01*
X745490Y495300D02*
Y498348D01*
X743712Y503428D02*
X746760D01*
X745236Y501904D02*
Y504952D01*
X738886Y542290D02*
X741934D01*
X740410Y540766D02*
Y543814D01*
X656844Y542290D02*
X659892D01*
X658368Y540766D02*
Y543814D01*
X699008Y537972D02*
X702056D01*
X700532Y536448D02*
Y539496D01*
X665734Y526034D02*
X668782D01*
X667258Y524510D02*
Y527558D01*
X687578Y827278D02*
X690626D01*
X689102Y825754D02*
Y828802D01*
X660654Y764540D02*
X663702D01*
X662178Y763016D02*
Y766064D01*
X708406Y713740D02*
X711454D01*
X709930Y712216D02*
Y715264D01*
X657860Y718058D02*
X660908D01*
X659384Y716534D02*
Y719582D01*
X680212Y723138D02*
X683260D01*
X681736Y721614D02*
Y724662D01*
X730504Y735076D02*
X733552D01*
X732028Y733552D02*
Y736600D01*
X729996Y748538D02*
X733044D01*
X731520Y747014D02*
Y750062D01*
X848360Y775462D02*
X851408D01*
X849884Y773938D02*
Y776986D01*
X902462Y845058D02*
X905510D01*
X903986Y843534D02*
Y846582D01*
X936244Y813308D02*
X939292D01*
X937768Y811784D02*
Y814832D01*
X936752Y784352D02*
X939800D01*
X938276Y782828D02*
Y785876D01*
X948944Y798830D02*
X951992D01*
X950468Y797306D02*
Y800354D01*
X948436Y806450D02*
X951484D01*
X949960Y804926D02*
Y807974D01*
X758444Y816356D02*
X761492D01*
X759968Y814832D02*
Y817880D01*
X754126Y780034D02*
X757174D01*
X755650Y778510D02*
Y781558D01*
X747776Y780034D02*
X750824D01*
X749300Y778510D02*
Y781558D01*
X737108Y822706D02*
X740156D01*
X738632Y821182D02*
Y824230D01*
X731520Y823468D02*
X734568D01*
X733044Y821944D02*
Y824992D01*
X659638Y892048D02*
X662686D01*
X661162Y890524D02*
Y893572D01*
X660146Y898144D02*
X663194D01*
X661670Y896620D02*
Y899668D01*
X808482Y868680D02*
X811530D01*
X810006Y867156D02*
Y870204D01*
X722884Y839470D02*
X725932D01*
X724408Y837946D02*
Y840994D01*
X709422Y859028D02*
X712470D01*
X710946Y857504D02*
Y860552D01*
X627888Y940308D02*
X630936D01*
X629412Y938784D02*
Y941832D01*
X620522Y940562D02*
X623570D01*
X622046Y939038D02*
Y942086D01*
X754126Y532892D02*
X759206D01*
X756666Y530352D02*
Y535432D01*
X748284Y744982D02*
X753364D01*
X750824Y742442D02*
Y747522D01*
X703326Y741934D02*
X708406D01*
X705866Y739394D02*
Y744474D01*
X696468Y716280D02*
X701548D01*
X699008Y713740D02*
Y718820D01*
X755904Y221996D02*
X760984D01*
X758444Y219456D02*
Y224536D01*
X757428Y268986D02*
X762508D01*
X759968Y266446D02*
Y271526D01*
X528828Y319024D02*
X533908D01*
X531368Y316484D02*
Y321564D01*
X439928Y383286D02*
X445008D01*
X442468Y380746D02*
Y385826D01*
X527812Y382778D02*
X532892D01*
X530352Y380238D02*
Y385318D01*
X760984Y461264D02*
X766064D01*
X763524Y458724D02*
Y463804D01*
X369062Y611886D02*
X374142D01*
X371602Y609346D02*
Y614426D01*
X369062Y589534D02*
X374142D01*
X371602Y586994D02*
Y592074D01*
X656654Y243332D02*
X661734D01*
X659194Y240792D02*
Y245872D01*
X518160Y228600D02*
X523240D01*
X520700Y226060D02*
Y231140D01*
X480060Y208280D02*
X485140D01*
X482600Y205740D02*
Y210820D01*
X726002Y238750D02*
X728002D01*
X727002Y237750D02*
Y239750D01*
X726002Y227750D02*
X728002D01*
X727002Y226750D02*
Y228750D01*
X726002Y216750D02*
X728002D01*
X727002Y215750D02*
Y217750D01*
X726002Y205750D02*
X728002D01*
X727002Y204750D02*
Y206750D01*
X715002Y238750D02*
X717002D01*
X716002Y237750D02*
Y239750D01*
X715002Y227750D02*
X717002D01*
X716002Y226750D02*
Y228750D01*
X715002Y216750D02*
X717002D01*
X716002Y215750D02*
Y217750D01*
X715002Y205750D02*
X717002D01*
X716002Y204750D02*
Y206750D01*
X704002Y238750D02*
X706002D01*
X705002Y237750D02*
Y239750D01*
X704002Y227750D02*
X706002D01*
X705002Y226750D02*
Y228750D01*
X704002Y216750D02*
X706002D01*
X705002Y215750D02*
Y217750D01*
X704002Y205750D02*
X706002D01*
X705002Y204750D02*
Y206750D01*
X693002Y238750D02*
X695002D01*
X694002Y237750D02*
Y239750D01*
X693002Y227750D02*
X695002D01*
X694002Y226750D02*
Y228750D01*
X693002Y216750D02*
X695002D01*
X694002Y215750D02*
Y217750D01*
X693002Y205750D02*
X695002D01*
X694002Y204750D02*
Y206750D01*
X500488Y412496D02*
X505568D01*
X503028Y409956D02*
Y415036D01*
X492506Y400812D02*
X497586D01*
X495046Y398272D02*
Y403352D01*
X482600Y394970D02*
X487680D01*
X485140Y392430D02*
Y397510D01*
X454097Y398319D02*
X459177D01*
X456637Y395779D02*
Y400859D01*
X462742Y416789D02*
X467822D01*
X465282Y414249D02*
Y419329D01*
X468376Y554228D02*
X473456D01*
X470916Y551688D02*
Y556768D01*
X475996Y543052D02*
X481076D01*
X478536Y540512D02*
Y545592D01*
X449525Y555256D02*
X454605D01*
X452065Y552716D02*
Y557796D01*
X439928Y554228D02*
X445008D01*
X442468Y551688D02*
Y556768D01*
X749554Y440944D02*
X754634D01*
X752094Y438404D02*
Y443484D01*
X453898Y632968D02*
X458978D01*
X456438Y630428D02*
Y635508D01*
X460502Y643382D02*
X465582D01*
X463042Y640842D02*
Y645922D01*
X476758Y655574D02*
X481838D01*
X479298Y653034D02*
Y658114D01*
X542036Y561340D02*
X547116D01*
X544576Y558800D02*
Y563880D01*
X519176Y638810D02*
X524256D01*
X521716Y636270D02*
Y641350D01*
X537210Y658622D02*
X542290D01*
X539750Y656082D02*
Y661162D01*
X548640Y626364D02*
X553720D01*
X551180Y623824D02*
Y628904D01*
X508508Y676402D02*
X513588D01*
X511048Y673862D02*
Y678942D01*
X299466Y457867D02*
X304546D01*
X302006Y455327D02*
Y460407D01*
X350748Y501762D02*
X355828D01*
X353288Y499222D02*
Y504302D01*
X325120Y394716D02*
X330200D01*
X327660Y392176D02*
Y397256D01*
X362440Y503396D02*
X367520D01*
X364980Y500856D02*
Y505936D01*
X425399Y497027D02*
X430479D01*
X427939Y494487D02*
Y499567D01*
X447040Y465328D02*
X452120D01*
X449580Y462788D02*
Y467868D01*
X512318Y454152D02*
X517398D01*
X514858Y451612D02*
Y456692D01*
X687858Y800598D02*
X689858D01*
X688858Y799598D02*
Y801598D01*
X698858Y800598D02*
X700858D01*
X699858Y799598D02*
Y801598D01*
X709858Y800598D02*
X711858D01*
X710858Y799598D02*
Y801598D01*
X720858Y800598D02*
X722858D01*
X721858Y799598D02*
Y801598D01*
X687858Y789598D02*
X689858D01*
X688858Y788598D02*
Y790598D01*
X698858Y789598D02*
X700858D01*
X699858Y788598D02*
Y790598D01*
X709858Y789598D02*
X711858D01*
X710858Y788598D02*
Y790598D01*
X720858Y789598D02*
X722858D01*
X721858Y788598D02*
Y790598D01*
X687858Y778598D02*
X689858D01*
X688858Y777598D02*
Y779598D01*
X698858Y778598D02*
X700858D01*
X699858Y777598D02*
Y779598D01*
X709858Y778598D02*
X711858D01*
X710858Y777598D02*
Y779598D01*
X720858Y778598D02*
X722858D01*
X721858Y777598D02*
Y779598D01*
X687858Y767598D02*
X689858D01*
X688858Y766598D02*
Y768598D01*
X698858Y767598D02*
X700858D01*
X699858Y766598D02*
Y768598D01*
X709858Y767598D02*
X711858D01*
X710858Y766598D02*
Y768598D01*
X720858Y767598D02*
X722858D01*
X721858Y766598D02*
Y768598D01*
X657860Y732282D02*
X662940D01*
X660400Y729742D02*
Y734822D01*
X750824Y460912D02*
X755904D01*
X753364Y458372D02*
Y463452D01*
X687898Y451264D02*
X689898D01*
X688898Y450264D02*
Y452264D01*
X687898Y462264D02*
X689898D01*
X688898Y461264D02*
Y463264D01*
X687898Y473264D02*
X689898D01*
X688898Y472264D02*
Y474264D01*
X687898Y484264D02*
X689898D01*
X688898Y483264D02*
Y485264D01*
X698898Y451264D02*
X700898D01*
X699898Y450264D02*
Y452264D01*
X698898Y462264D02*
X700898D01*
X699898Y461264D02*
Y463264D01*
X698898Y473264D02*
X700898D01*
X699898Y472264D02*
Y474264D01*
X698898Y484264D02*
X700898D01*
X699898Y483264D02*
Y485264D01*
X709898Y451264D02*
X711898D01*
X710898Y450264D02*
Y452264D01*
X709898Y462264D02*
X711898D01*
X710898Y461264D02*
Y463264D01*
X709898Y473264D02*
X711898D01*
X710898Y472264D02*
Y474264D01*
X709898Y484264D02*
X711898D01*
X710898Y483264D02*
Y485264D01*
X720898Y451264D02*
X722898D01*
X721898Y450264D02*
Y452264D01*
X720898Y462264D02*
X722898D01*
X721898Y461264D02*
Y463264D01*
X720898Y473264D02*
X722898D01*
X721898Y472264D02*
Y474264D01*
X720898Y484264D02*
X722898D01*
X721898Y483264D02*
Y485264D01*
X602100Y446006D02*
X607180D01*
X604640Y443466D02*
Y448546D01*
X544322Y470916D02*
X549402D01*
X546862Y468376D02*
Y473456D01*
X522986Y577342D02*
X528066D01*
X525526Y574802D02*
Y579882D01*
M02*
