G04*
G04 #@! TF.GenerationSoftware,Altium Limited,Altium Designer,22.5.1 (42)*
G04*
G04 Layer_Color=16711935*
%FSLAX44Y44*%
%MOMM*%
G71*
G04*
G04 #@! TF.SameCoordinates,2ABD4F99-51B0-466E-819A-8B20F5DB8373*
G04*
G04*
G04 #@! TF.FilePolarity,Positive*
G04*
G01*
G75*
%ADD11C,0.2000*%
%ADD13C,0.1270*%
%ADD123C,0.1000*%
D11*
X815713Y860888D02*
G03*
X815713Y860888I1000J0D01*
G01*
D13*
X857113Y853388D02*
X677113D01*
X610113D01*
Y709388D02*
Y853388D01*
X677113Y709388D02*
X610113D01*
X857113D02*
X677113D01*
X857113D02*
Y853388D01*
X677113Y709388D02*
Y853388D01*
D123*
X377685Y200750D02*
G03*
X377685Y200750I5000J0D01*
G01*
X382829Y805598D02*
G03*
X382829Y805598I5000J0D01*
G01*
X382789Y446264D02*
G03*
X382789Y446264I5000J0D01*
G01*
X330685Y191750D02*
Y252750D01*
X391685Y191750D02*
Y252750D01*
X330685D01*
X391685Y191750D02*
X330685D01*
X396829Y753598D02*
Y814598D01*
X335829Y753598D02*
Y814598D01*
X396829D02*
X335829D01*
X396829Y753598D02*
X335829D01*
X1027779Y749300D02*
Y800100D01*
X1006380D01*
Y749300D02*
Y800100D01*
X1027779Y749300D02*
X1006380D01*
X407803Y549700D02*
Y566700D01*
X416803Y549700D02*
Y566700D01*
X407803D01*
X416803Y549700D02*
X407803D01*
X327031Y548938D02*
Y565938D01*
X336031Y548938D02*
Y565938D01*
X327031D01*
X336031Y548938D02*
X327031D01*
X396789Y437264D02*
X335789D01*
X396789Y498264D02*
X335789D01*
X396789Y437264D02*
Y498264D01*
X335789Y437264D02*
Y498264D01*
X585741Y137926D02*
X580241D01*
X585741Y148426D02*
X580241D01*
X585741Y137926D02*
Y148426D01*
X580241Y137926D02*
Y148426D01*
X473149Y500660D02*
Y510260D01*
X490649Y500660D02*
Y510260D01*
Y500660D02*
X473149D01*
X490649Y510260D02*
X473149D01*
X695603Y473754D02*
X685103D01*
X695603Y479254D02*
X685103D01*
Y473754D02*
Y479254D01*
X695603Y473754D02*
Y479254D01*
X695412Y485498D02*
X684912D01*
X695412Y490998D02*
X684912D01*
Y485498D02*
Y490998D01*
X695412Y485498D02*
Y490998D01*
X769199Y485322D02*
X752199D01*
X769199Y476322D02*
X752199D01*
X769199D02*
Y485322D01*
X752199Y476322D02*
Y485322D01*
X864703Y485068D02*
X847703D01*
X864703Y476068D02*
X847703D01*
X864703D02*
Y485068D01*
X847703Y476068D02*
Y485068D01*
X492103Y411230D02*
Y421730D01*
X497603Y411230D02*
Y421730D01*
X492103D01*
X497603Y411230D02*
X492103D01*
X745703Y489334D02*
Y537334D01*
X859703Y489334D02*
Y537334D01*
X745703D01*
X859703Y489334D02*
X745703D01*
X532217Y407302D02*
Y424802D01*
X541817Y407302D02*
Y424802D01*
X532217D01*
X541817Y407302D02*
X532217D01*
X276595Y866438D02*
X267595D01*
X276595Y883438D02*
X267595D01*
X276595Y866438D02*
Y883438D01*
X267595Y866438D02*
Y883438D01*
X366257Y865930D02*
X357257D01*
X366257Y882930D02*
X357257D01*
X366257Y865930D02*
Y882930D01*
X357257Y865930D02*
Y882930D01*
X334507Y302650D02*
X325507D01*
X334507Y319650D02*
X325507D01*
X334507Y302650D02*
Y319650D01*
X325507Y302650D02*
Y319650D01*
X416295Y302812D02*
X407295D01*
X416295Y319812D02*
X407295D01*
X416295Y302812D02*
Y319812D01*
X407295Y302812D02*
Y319812D01*
M02*
