G04*
G04 #@! TF.GenerationSoftware,Altium Limited,Altium Designer,22.5.1 (42)*
G04*
G04 Layer_Color=255*
%FSLAX44Y44*%
%MOMM*%
G71*
G04*
G04 #@! TF.SameCoordinates,2ABD4F99-51B0-466E-819A-8B20F5DB8373*
G04*
G04*
G04 #@! TF.FilePolarity,Positive*
G04*
G01*
G75*
%ADD86C,3.1800*%
%ADD87C,1.5000*%
%ADD88R,1.5000X1.5000*%
%ADD93R,1.4000X1.4000*%
%ADD94C,1.4000*%
%ADD99C,0.7500*%
%ADD104O,1.5240X1.0000*%
%ADD105C,1.6000*%
G04:AMPARAMS|DCode=106|XSize=1.6mm|YSize=1.6mm|CornerRadius=0.4mm|HoleSize=0mm|Usage=FLASHONLY|Rotation=180.000|XOffset=0mm|YOffset=0mm|HoleType=Round|Shape=RoundedRectangle|*
%AMROUNDEDRECTD106*
21,1,1.6000,0.8000,0,0,180.0*
21,1,0.8000,1.6000,0,0,180.0*
1,1,0.8000,-0.4000,0.4000*
1,1,0.8000,0.4000,0.4000*
1,1,0.8000,0.4000,-0.4000*
1,1,0.8000,-0.4000,-0.4000*
%
%ADD106ROUNDEDRECTD106*%
%ADD107C,1.0500*%
%ADD108R,1.0500X1.0500*%
G04:AMPARAMS|DCode=109|XSize=4mm|YSize=1.8mm|CornerRadius=0.45mm|HoleSize=0mm|Usage=FLASHONLY|Rotation=270.000|XOffset=0mm|YOffset=0mm|HoleType=Round|Shape=RoundedRectangle|*
%AMROUNDEDRECTD109*
21,1,4.0000,0.9000,0,0,270.0*
21,1,3.1000,1.8000,0,0,270.0*
1,1,0.9000,-0.4500,-1.5500*
1,1,0.9000,-0.4500,1.5500*
1,1,0.9000,0.4500,1.5500*
1,1,0.9000,0.4500,-1.5500*
%
%ADD109ROUNDEDRECTD109*%
G04:AMPARAMS|DCode=110|XSize=4mm|YSize=1.8mm|CornerRadius=0.45mm|HoleSize=0mm|Usage=FLASHONLY|Rotation=0.000|XOffset=0mm|YOffset=0mm|HoleType=Round|Shape=RoundedRectangle|*
%AMROUNDEDRECTD110*
21,1,4.0000,0.9000,0,0,0.0*
21,1,3.1000,1.8000,0,0,0.0*
1,1,0.9000,1.5500,-0.4500*
1,1,0.9000,-1.5500,-0.4500*
1,1,0.9000,-1.5500,0.4500*
1,1,0.9000,1.5500,0.4500*
%
%ADD110ROUNDEDRECTD110*%
%ADD111C,6.0000*%
G04:AMPARAMS|DCode=115|XSize=0.49mm|YSize=0.3mm|CornerRadius=0.0375mm|HoleSize=0mm|Usage=FLASHONLY|Rotation=180.000|XOffset=0mm|YOffset=0mm|HoleType=Round|Shape=RoundedRectangle|*
%AMROUNDEDRECTD115*
21,1,0.4900,0.2250,0,0,180.0*
21,1,0.4150,0.3000,0,0,180.0*
1,1,0.0750,-0.2075,0.1125*
1,1,0.0750,0.2075,0.1125*
1,1,0.0750,0.2075,-0.1125*
1,1,0.0750,-0.2075,-0.1125*
%
%ADD115ROUNDEDRECTD115*%
G04:AMPARAMS|DCode=116|XSize=0.49mm|YSize=0.3mm|CornerRadius=0.0375mm|HoleSize=0mm|Usage=FLASHONLY|Rotation=270.000|XOffset=0mm|YOffset=0mm|HoleType=Round|Shape=RoundedRectangle|*
%AMROUNDEDRECTD116*
21,1,0.4900,0.2250,0,0,270.0*
21,1,0.4150,0.3000,0,0,270.0*
1,1,0.0750,-0.1125,-0.2075*
1,1,0.0750,-0.1125,0.2075*
1,1,0.0750,0.1125,0.2075*
1,1,0.0750,0.1125,-0.2075*
%
%ADD116ROUNDEDRECTD116*%
D86*
X962914Y735584D02*
D03*
Y849884D02*
D03*
X964184Y545338D02*
D03*
Y431038D02*
D03*
X959358Y157226D02*
D03*
Y271526D02*
D03*
D87*
X899414Y799084D02*
D03*
X874014Y786384D02*
D03*
X899414Y824484D02*
D03*
X874014Y811784D02*
D03*
Y837184D02*
D03*
X899414Y773684D02*
D03*
Y748284D02*
D03*
X900684Y443738D02*
D03*
Y469138D02*
D03*
X875284Y532638D02*
D03*
Y507238D02*
D03*
X900684Y519938D02*
D03*
X875284Y481838D02*
D03*
X900684Y494538D02*
D03*
X254974Y742188D02*
D03*
Y767588D02*
D03*
Y792988D02*
D03*
X229574Y818388D02*
D03*
Y792988D02*
D03*
Y767588D02*
D03*
Y742188D02*
D03*
X895858Y220726D02*
D03*
X870458Y208026D02*
D03*
X895858Y246126D02*
D03*
X870458Y233426D02*
D03*
Y258826D02*
D03*
X895858Y195326D02*
D03*
Y169926D02*
D03*
D88*
X874014Y760984D02*
D03*
X875284Y456438D02*
D03*
X254974Y818388D02*
D03*
X870458Y182626D02*
D03*
D93*
X54864Y500926D02*
D03*
D94*
Y525926D02*
D03*
Y550926D02*
D03*
Y575926D02*
D03*
Y600926D02*
D03*
Y625926D02*
D03*
D99*
X323850Y353822D02*
D03*
D104*
X987464Y715734D02*
D03*
X986464Y868734D02*
D03*
X987734Y564188D02*
D03*
X988734Y411188D02*
D03*
X983908Y137376D02*
D03*
X982908Y290376D02*
D03*
D105*
X502412Y941070D02*
D03*
X451612D02*
D03*
X477012D02*
D03*
X527812D02*
D03*
X553212D02*
D03*
D106*
X426212D02*
D03*
D107*
X54610Y768350D02*
D03*
Y781050D02*
D03*
Y793750D02*
D03*
D108*
Y755650D02*
D03*
D109*
X294380Y111566D02*
D03*
D110*
X246380Y83566D02*
D03*
Y141566D02*
D03*
D111*
X43180Y956310D02*
D03*
X955040Y957580D02*
D03*
X43180Y45720D02*
D03*
X953770Y40640D02*
D03*
D115*
X935422Y217932D02*
D03*
X925322D02*
D03*
X931642Y196596D02*
D03*
X921542D02*
D03*
X902402Y837692D02*
D03*
X892302D02*
D03*
X908274Y537718D02*
D03*
X898174D02*
D03*
D116*
X926338Y235010D02*
D03*
Y245110D02*
D03*
X852678Y204470D02*
D03*
Y214570D02*
D03*
X929894Y814384D02*
D03*
Y824484D02*
D03*
X857250Y776254D02*
D03*
Y786354D02*
D03*
X930402Y783560D02*
D03*
Y773460D02*
D03*
X939800Y501142D02*
D03*
Y511242D02*
D03*
X851154Y495016D02*
D03*
Y484916D02*
D03*
X940054Y458784D02*
D03*
Y468884D02*
D03*
M02*
