G04*
G04 #@! TF.GenerationSoftware,Altium Limited,Altium Designer,22.5.1 (42)*
G04*
G04 Layer_Color=8388736*
%FSLAX44Y44*%
%MOMM*%
G71*
G04*
G04 #@! TF.SameCoordinates,2ABD4F99-51B0-466E-819A-8B20F5DB8373*
G04*
G04*
G04 #@! TF.FilePolarity,Positive*
G04*
G01*
G75*
%ADD11C,0.2000*%
%ADD123C,0.1000*%
D11*
X337837Y267736D02*
X332337D01*
Y278236D01*
X337837D02*
X332337D01*
X337837Y267736D02*
Y278236D01*
X321541Y806660D02*
X311041D01*
Y801160D02*
Y806660D01*
X321541Y801160D02*
X311041D01*
X321541D02*
Y806660D01*
X401845Y721190D02*
Y731690D01*
X396345D01*
Y721190D02*
Y731690D01*
X401845Y721190D02*
X396345D01*
X310175Y471380D02*
X299675D01*
Y465880D02*
Y471380D01*
X310175Y465880D02*
X299675D01*
X310175D02*
Y471380D01*
X307780Y438448D02*
X297280D01*
X307780D02*
Y443948D01*
X297280D01*
Y438448D02*
Y443948D01*
X1032823Y475926D02*
Y650926D01*
X994823D01*
Y475926D02*
Y650926D01*
X1032823Y475926D02*
X994823D01*
X613139Y194758D02*
Y250758D01*
X508139D01*
Y194758D02*
Y250758D01*
X613139Y194758D02*
X508139D01*
X484073Y563840D02*
X474073D01*
Y558840D02*
Y563840D01*
X484073Y558840D02*
X474073D01*
X484073D02*
Y563840D01*
X398499Y580372D02*
X346499D01*
Y546372D02*
Y580372D01*
X398499Y546372D02*
X346499D01*
X398499D02*
Y580372D01*
X348211Y518878D02*
X337711D01*
Y513378D02*
Y518878D01*
X348211Y513378D02*
X337711D01*
X348211D02*
Y518878D01*
X388891Y512846D02*
Y523346D01*
X383391D01*
Y512846D02*
Y523346D01*
X388891Y512846D02*
X383391D01*
X434545Y465618D02*
Y499618D01*
X452545Y465618D02*
X434545D01*
X452545D02*
Y499618D01*
X434545D01*
X555011Y283501D02*
Y293501D01*
X550011D01*
Y283501D02*
Y293501D01*
X555011Y283501D02*
X550011D01*
X573045Y283841D02*
Y293841D01*
X568045D01*
Y283841D02*
Y293841D01*
X573045Y283841D02*
X568045D01*
X555887Y13750D02*
X469887D01*
X553337Y7950D02*
Y65250D01*
Y7950D02*
X472437D01*
Y65250D01*
X553337D02*
X472437D01*
X548495Y309714D02*
Y320714D01*
X554495Y309714D02*
X548495D01*
X554495D02*
Y320714D01*
X548495D01*
X567291Y309896D02*
Y320896D01*
X573291Y309896D02*
X567291D01*
X573291D02*
Y320896D01*
X567291D01*
X448861Y207374D02*
X414861D01*
Y189374D02*
Y207374D01*
X448861Y189374D02*
X414861D01*
X448861D02*
Y207374D01*
X902991Y269023D02*
X897991D01*
Y279023D01*
X902991D02*
X897991D01*
X902991Y269023D02*
Y279023D01*
X321908Y767685D02*
X311408D01*
Y762186D02*
Y767685D01*
X321908Y762186D02*
X311408D01*
X321908D02*
Y767685D01*
X363071Y724428D02*
Y734928D01*
X368571Y724428D02*
X363071D01*
X368571D02*
Y734928D01*
X363071D01*
X300967Y201720D02*
X290467D01*
X300967D02*
Y207220D01*
X290467D01*
Y201720D02*
Y207220D01*
X383049Y265578D02*
Y276078D01*
X377549D01*
Y265578D02*
Y276078D01*
X383049Y265578D02*
X377549D01*
X302491Y224746D02*
X291991D01*
Y219246D02*
Y224746D01*
X302491Y219246D02*
X291991D01*
X302491D02*
Y224746D01*
X419839Y225596D02*
X409339D01*
X419839D02*
Y231096D01*
X409339D01*
Y225596D02*
Y231096D01*
X623417Y412068D02*
Y422068D01*
X628417Y412068D02*
X623417D01*
X628417D02*
Y422068D01*
X623417D01*
X800629Y569642D02*
Y579642D01*
X795629D01*
Y569642D02*
Y579642D01*
X800629Y569642D02*
X795629D01*
X763837Y340322D02*
X731837D01*
X763837D02*
Y367322D01*
X731837D01*
Y340322D02*
Y367322D01*
X753567Y379008D02*
X743567D01*
X753567D02*
Y384008D01*
X743567D01*
Y379008D02*
Y384008D01*
X670915Y412068D02*
Y422068D01*
X675915Y412068D02*
X670915D01*
X675915D02*
Y422068D01*
X670915D01*
X483851Y547076D02*
X473851D01*
Y542076D02*
Y547076D01*
X483851Y542076D02*
X473851D01*
X483851D02*
Y547076D01*
X639165Y412100D02*
Y422100D01*
X644165Y412100D02*
X639165D01*
X644165D02*
Y422100D01*
X639165D01*
X654913Y412036D02*
Y422036D01*
X659913Y412036D02*
X654913D01*
X659913D02*
Y422036D01*
X654913D01*
X521563Y412608D02*
Y422608D01*
X526563Y412608D02*
X521563D01*
X526563D02*
Y422608D01*
X521563D01*
X506069Y412641D02*
Y422641D01*
X511069Y412641D02*
X506069D01*
X511069D02*
Y422641D01*
X506069D01*
X483597Y530312D02*
X473597D01*
Y525312D02*
Y530312D01*
X483597Y525312D02*
X473597D01*
X483597D02*
Y530312D01*
X902983Y230648D02*
Y241648D01*
X896983D01*
Y230648D02*
Y241648D01*
X902983Y230648D02*
X896983D01*
X784457Y577976D02*
X751457D01*
Y561976D02*
Y577976D01*
X784457Y561976D02*
X751457D01*
X784457D02*
Y577976D01*
X397935Y893318D02*
X379935D01*
X397935Y859318D02*
Y893318D01*
Y859318D02*
X379935D01*
Y893318D01*
X739161Y580310D02*
X734161D01*
X739161Y570310D02*
Y580310D01*
Y570310D02*
X734161D01*
Y580310D01*
X680233Y611426D02*
X675233D01*
Y621426D01*
X680233D02*
X675233D01*
X680233Y611426D02*
Y621426D01*
X648737Y611426D02*
X643737D01*
Y621426D01*
X648737D02*
X643737D01*
X648737Y611426D02*
Y621426D01*
X664485Y611426D02*
X659485D01*
Y621426D01*
X664485D02*
X659485D01*
X664485Y611426D02*
Y621426D01*
X343381Y864380D02*
Y898380D01*
Y864380D02*
X291381D01*
Y898380D01*
X343381D02*
X291381D01*
X362729Y829076D02*
X357229D01*
Y839576D01*
X362729D02*
X357229D01*
X362729Y829076D02*
Y839576D01*
X417085Y473222D02*
X411585D01*
Y483722D01*
X417085D02*
X411585D01*
X417085Y473222D02*
Y483722D01*
X396467Y299992D02*
Y333992D01*
Y299992D02*
X344467D01*
Y333992D01*
X396467D02*
X344467D01*
D123*
X505775Y928370D02*
Y953770D01*
X658175Y928370D02*
Y953770D01*
Y928370D02*
X505775D01*
X658175Y953770D02*
X505775D01*
X870307Y5566D02*
Y150566D01*
Y5566D02*
X780307D01*
Y150566D01*
X870307D02*
X780307D01*
M02*
