G04*
G04 #@! TF.GenerationSoftware,Altium Limited,Altium Designer,22.5.1 (42)*
G04*
G04 Layer_Color=0*
%FSLAX44Y44*%
%MOMM*%
G71*
G04*
G04 #@! TF.SameCoordinates,2ABD4F99-51B0-466E-819A-8B20F5DB8373*
G04*
G04*
G04 #@! TF.FilePolarity,Positive*
G04*
G01*
G75*
%ADD123C,0.1000*%
D123*
X340087Y272986D02*
X330087D01*
X335087Y267986D02*
Y277986D01*
X321291Y803910D02*
X311291D01*
X316291Y798910D02*
Y808910D01*
X399095Y721440D02*
Y731440D01*
X404095Y726440D02*
X394095D01*
X309925Y468630D02*
X299925D01*
X304925Y463630D02*
Y473630D01*
X307530Y441198D02*
X297530D01*
X302530Y436198D02*
Y446198D01*
X1013823Y558426D02*
Y568426D01*
X1018823Y563426D02*
X1008823D01*
X560639Y217758D02*
Y227758D01*
X565639Y222758D02*
X555639D01*
X484073Y561340D02*
X474073D01*
X479073Y556340D02*
Y566340D01*
X377499Y563372D02*
X367499D01*
X372499Y558372D02*
Y568372D01*
X347961Y516128D02*
X337961D01*
X342961Y511128D02*
Y521128D01*
X386141Y513096D02*
Y523096D01*
X391141Y518096D02*
X381141D01*
X443545Y477618D02*
Y487618D01*
X448545Y482618D02*
X438545D01*
X552511Y283501D02*
Y293501D01*
X557511Y288501D02*
X547511D01*
X570545Y283841D02*
Y293841D01*
X575545Y288841D02*
X565545D01*
X512887Y26750D02*
Y36750D01*
X517887Y31750D02*
X507887D01*
X551495Y310214D02*
Y320214D01*
X556495Y315214D02*
X546495D01*
X570291Y310396D02*
Y320396D01*
X575291Y315396D02*
X565291D01*
X436861Y198374D02*
X426861D01*
X431861Y193374D02*
Y203374D01*
X905491Y274023D02*
X895491D01*
X900491Y269023D02*
Y279023D01*
X321657Y764936D02*
X311658D01*
X316658Y759936D02*
Y769936D01*
X365821Y724678D02*
Y734678D01*
X370821Y729678D02*
X360821D01*
X300717Y204470D02*
X290717D01*
X295717Y199470D02*
Y209470D01*
X380299Y265828D02*
Y275828D01*
X385299Y270828D02*
X375299D01*
X302241Y221996D02*
X292241D01*
X297241Y216996D02*
Y226996D01*
X419589Y228346D02*
X409589D01*
X414589Y223346D02*
Y233346D01*
X625917Y412068D02*
Y422068D01*
X630917Y417068D02*
X620917D01*
X798129Y569642D02*
Y579642D01*
X803129Y574642D02*
X793129D01*
X752837Y353822D02*
X742837D01*
X747837Y348822D02*
Y358822D01*
X753567Y381508D02*
X743567D01*
X748567Y376508D02*
Y386508D01*
X673415Y412068D02*
Y422068D01*
X678415Y417068D02*
X668415D01*
X483851Y544576D02*
X473851D01*
X478851Y539576D02*
Y549576D01*
X641665Y412100D02*
Y422100D01*
X646665Y417100D02*
X636665D01*
X657413Y412036D02*
Y422036D01*
X662413Y417036D02*
X652413D01*
X524063Y412608D02*
Y422608D01*
X529063Y417608D02*
X519063D01*
X508569Y412641D02*
Y422641D01*
X513569Y417641D02*
X503569D01*
X483597Y527812D02*
X473597D01*
X478597Y522812D02*
Y532812D01*
X899983Y231148D02*
Y241148D01*
X904983Y236148D02*
X894983D01*
X772957Y569976D02*
X762957D01*
X767957Y564976D02*
Y574976D01*
X393935Y876318D02*
X383935D01*
X388935Y871318D02*
Y881318D01*
X741661Y575310D02*
X731661D01*
X736661Y570310D02*
Y580310D01*
X682733Y616426D02*
X672733D01*
X677733Y611426D02*
Y621426D01*
X651237Y616426D02*
X641237D01*
X646237Y611426D02*
Y621426D01*
X666985Y616426D02*
X656985D01*
X661985Y611426D02*
Y621426D01*
X317381Y876380D02*
Y886380D01*
X322381Y881380D02*
X312381D01*
X364979Y834326D02*
X354979D01*
X359979Y829326D02*
Y839326D01*
X419335Y478472D02*
X409335D01*
X414335Y473472D02*
Y483472D01*
X370467Y311992D02*
Y321992D01*
X375467Y316992D02*
X365467D01*
M02*
